<svg width="320" height="33" viewBox="0 0 320 33" fill="none" xmlns="http://www.w3.org/2000/svg">
<path d="M25.74 23.228C25.884 23.54 25.956 23.852 25.956 24.164C25.956 24.716 25.728 25.184 25.272 25.568C24.84 25.952 24.336 26.144 23.76 26.144C23.376 26.144 23.016 26.048 22.68 25.856C22.344 25.64 22.08 25.316 21.888 24.884L19.728 20.06H7.056L4.896 24.884C4.704 25.316 4.44 25.64 4.104 25.856C3.768 26.048 3.396 26.144 2.988 26.144C2.436 26.144 1.932 25.952 1.476 25.568C1.02 25.184 0.792 24.716 0.792 24.164C0.792 23.852 0.864 23.54 1.008 23.228L10.944 1.88C11.16 1.4 11.484 1.04 11.916 0.799998C12.372 0.535999 12.852 0.403999 13.356 0.403999C13.86 0.403999 14.328 0.535999 14.76 0.799998C15.216 1.04 15.552 1.4 15.768 1.88L25.74 23.228ZM8.64 16.46H18.144L13.392 5.768L8.64 16.46ZM38.8868 8.036C39.5108 7.988 40.0028 8.12 40.3628 8.432C40.7228 8.744 40.9028 9.212 40.9028 9.836C40.9028 10.484 40.7468 10.964 40.4348 11.276C40.1228 11.588 39.5588 11.792 38.7428 11.888L37.6628 11.996C36.2468 12.14 35.2028 12.62 34.5308 13.436C33.8828 14.252 33.5588 15.272 33.5588 16.496V24.056C33.5588 24.752 33.3428 25.292 32.9108 25.676C32.4788 26.036 31.9388 26.216 31.2908 26.216C30.6428 26.216 30.1028 26.036 29.6708 25.676C29.2628 25.292 29.0588 24.752 29.0588 24.056V10.124C29.0588 9.452 29.2628 8.936 29.6708 8.576C30.1028 8.216 30.6308 8.036 31.2548 8.036C31.8788 8.036 32.3828 8.216 32.7668 8.576C33.1508 8.912 33.3428 9.404 33.3428 10.052V11.492C33.7988 10.436 34.4708 9.62 35.3588 9.044C36.2708 8.468 37.2788 8.144 38.3828 8.072L38.8868 8.036ZM56.4204 21.176C56.8284 21.176 57.1524 21.332 57.3924 21.644C57.6564 21.956 57.7884 22.376 57.7884 22.904C57.7884 23.648 57.3444 24.272 56.4564 24.776C55.6404 25.232 54.7164 25.604 53.6844 25.892C52.6524 26.156 51.6684 26.288 50.7324 26.288C47.9004 26.288 45.6564 25.472 44.0004 23.84C42.3444 22.208 41.5164 19.976 41.5164 17.144C41.5164 15.344 41.8764 13.748 42.5964 12.356C43.3164 10.964 44.3244 9.884 45.6204 9.116C46.9404 8.348 48.4284 7.964 50.0844 7.964C51.6684 7.964 53.0484 8.312 54.2244 9.008C55.4004 9.704 56.3124 10.688 56.9604 11.96C57.6084 13.232 57.9324 14.732 57.9324 16.46C57.9324 17.492 57.4764 18.008 56.5644 18.008H45.9444C46.0884 19.664 46.5564 20.888 47.3484 21.68C48.1404 22.448 49.2924 22.832 50.8044 22.832C51.5724 22.832 52.2444 22.736 52.8204 22.544C53.4204 22.352 54.0924 22.088 54.8364 21.752C55.5564 21.368 56.0844 21.176 56.4204 21.176ZM50.1924 11.132C48.9684 11.132 47.9844 11.516 47.2404 12.284C46.5204 13.052 46.0884 14.156 45.9444 15.596H54.0804C54.0324 14.132 53.6724 13.028 53.0004 12.284C52.3284 11.516 51.3924 11.132 50.1924 11.132ZM83.6629 9.332C83.8549 8.9 84.1069 8.588 84.4189 8.396C84.7549 8.18 85.1149 8.072 85.4989 8.072C86.0509 8.072 86.5429 8.264 86.9749 8.648C87.4309 9.008 87.6589 9.464 87.6589 10.016C87.6589 10.28 87.5869 10.556 87.4429 10.844L77.6149 31.436C77.2069 32.252 76.5709 32.66 75.7069 32.66C75.1549 32.66 74.6629 32.48 74.2309 32.12C73.8229 31.784 73.6189 31.352 73.6189 30.824C73.6189 30.56 73.6909 30.26 73.8349 29.924L76.2829 24.776L69.5869 10.844C69.4669 10.604 69.4069 10.328 69.4069 10.016C69.4069 9.464 69.6349 8.996 70.0909 8.612C70.5709 8.228 71.1109 8.036 71.7109 8.036C72.1189 8.036 72.4909 8.144 72.8269 8.36C73.1629 8.552 73.4269 8.864 73.6189 9.296L78.6589 20.42L83.6629 9.332ZM98.0828 26.288C96.2828 26.288 94.6988 25.916 93.3308 25.172C91.9868 24.428 90.9428 23.36 90.1988 21.968C89.4548 20.576 89.0828 18.956 89.0828 17.108C89.0828 15.26 89.4548 13.652 90.1988 12.284C90.9428 10.892 91.9868 9.824 93.3308 9.08C94.6988 8.336 96.2828 7.964 98.0828 7.964C99.8828 7.964 101.455 8.336 102.799 9.08C104.167 9.824 105.211 10.892 105.931 12.284C106.675 13.652 107.047 15.26 107.047 17.108C107.047 18.956 106.675 20.576 105.931 21.968C105.211 23.36 104.167 24.428 102.799 25.172C101.455 25.916 99.8828 26.288 98.0828 26.288ZM98.0468 22.796C99.5108 22.796 100.627 22.316 101.395 21.356C102.163 20.396 102.547 18.98 102.547 17.108C102.547 15.26 102.163 13.856 101.395 12.896C100.627 11.912 99.5228 11.42 98.0828 11.42C96.6428 11.42 95.5268 11.912 94.7348 12.896C93.9668 13.856 93.5828 15.26 93.5828 17.108C93.5828 18.98 93.9668 20.396 94.7348 21.356C95.5028 22.316 96.6068 22.796 98.0468 22.796ZM124.658 8.036C125.354 8.036 125.906 8.228 126.314 8.612C126.722 8.996 126.926 9.512 126.926 10.16V24.128C126.926 24.752 126.71 25.256 126.278 25.64C125.87 26.024 125.33 26.216 124.658 26.216C124.01 26.216 123.494 26.036 123.11 25.676C122.726 25.316 122.534 24.824 122.534 24.2V23.3C121.982 24.26 121.238 25.004 120.302 25.532C119.366 26.036 118.31 26.288 117.134 26.288C112.814 26.288 110.654 23.864 110.654 19.016V10.16C110.654 9.512 110.858 8.996 111.266 8.612C111.674 8.228 112.214 8.036 112.886 8.036C113.582 8.036 114.134 8.228 114.542 8.612C114.95 8.996 115.154 9.512 115.154 10.16V19.052C115.154 20.3 115.406 21.224 115.91 21.824C116.414 22.424 117.206 22.724 118.286 22.724C119.534 22.724 120.53 22.316 121.274 21.5C122.042 20.66 122.426 19.556 122.426 18.188V10.16C122.426 9.512 122.63 8.996 123.038 8.612C123.446 8.228 123.986 8.036 124.658 8.036ZM149.015 7.964C151.463 7.964 153.275 8.576 154.451 9.8C155.651 11 156.251 12.836 156.251 15.308V24.092C156.251 24.74 156.059 25.256 155.675 25.64C155.291 26 154.763 26.18 154.091 26.18C153.467 26.18 152.951 25.988 152.543 25.604C152.159 25.22 151.967 24.716 151.967 24.092V23.3C151.559 24.236 150.911 24.968 150.023 25.496C149.159 26.024 148.151 26.288 146.999 26.288C145.823 26.288 144.755 26.048 143.795 25.568C142.835 25.088 142.079 24.428 141.527 23.588C140.975 22.748 140.699 21.812 140.699 20.78C140.699 19.484 141.023 18.464 141.671 17.72C142.343 16.976 143.423 16.436 144.911 16.1C146.399 15.764 148.451 15.596 151.067 15.596H151.967V14.768C151.967 13.592 151.715 12.74 151.211 12.212C150.707 11.66 149.891 11.384 148.763 11.384C148.067 11.384 147.359 11.492 146.639 11.708C145.919 11.9 145.067 12.188 144.083 12.572C143.459 12.884 143.003 13.04 142.715 13.04C142.283 13.04 141.923 12.884 141.635 12.572C141.371 12.26 141.239 11.852 141.239 11.348C141.239 10.94 141.335 10.592 141.527 10.304C141.743 9.992 142.091 9.704 142.571 9.44C143.411 8.984 144.407 8.624 145.559 8.36C146.735 8.096 147.887 7.964 149.015 7.964ZM147.899 23.048C149.099 23.048 150.071 22.652 150.815 21.86C151.583 21.044 151.967 20 151.967 18.728V17.972H151.319C149.711 17.972 148.463 18.044 147.575 18.188C146.687 18.332 146.051 18.584 145.667 18.944C145.283 19.304 145.091 19.796 145.091 20.42C145.091 21.188 145.355 21.824 145.883 22.328C146.435 22.808 147.107 23.048 147.899 23.048ZM185.286 0.439999C185.958 0.439999 186.51 0.631999 186.942 1.016C187.374 1.4 187.59 1.904 187.59 2.528V24.056C187.59 24.704 187.386 25.22 186.978 25.604C186.57 25.988 186.03 26.18 185.358 26.18C184.686 26.18 184.146 25.988 183.738 25.604C183.33 25.22 183.126 24.704 183.126 24.056V23.156C182.598 24.14 181.83 24.908 180.822 25.46C179.838 26.012 178.71 26.288 177.438 26.288C175.926 26.288 174.57 25.904 173.37 25.136C172.194 24.368 171.27 23.288 170.598 21.896C169.95 20.48 169.626 18.86 169.626 17.036C169.626 15.212 169.95 13.616 170.598 12.248C171.27 10.88 172.194 9.824 173.37 9.08C174.546 8.336 175.902 7.964 177.438 7.964C178.71 7.964 179.838 8.228 180.822 8.756C181.806 9.284 182.562 10.028 183.09 10.988V2.456C183.09 1.856 183.282 1.376 183.666 1.016C184.074 0.631999 184.614 0.439999 185.286 0.439999ZM178.626 22.796C180.066 22.796 181.17 22.304 181.938 21.32C182.73 20.336 183.126 18.932 183.126 17.108C183.126 15.284 182.73 13.892 181.938 12.932C181.17 11.948 180.078 11.456 178.662 11.456C177.222 11.456 176.106 11.936 175.314 12.896C174.522 13.856 174.126 15.236 174.126 17.036C174.126 18.86 174.522 20.276 175.314 21.284C176.106 22.292 177.21 22.796 178.626 22.796ZM200.247 26.288C198.447 26.288 196.863 25.916 195.495 25.172C194.151 24.428 193.107 23.36 192.363 21.968C191.619 20.576 191.247 18.956 191.247 17.108C191.247 15.26 191.619 13.652 192.363 12.284C193.107 10.892 194.151 9.824 195.495 9.08C196.863 8.336 198.447 7.964 200.247 7.964C202.047 7.964 203.619 8.336 204.963 9.08C206.331 9.824 207.375 10.892 208.095 12.284C208.839 13.652 209.211 15.26 209.211 17.108C209.211 18.956 208.839 20.576 208.095 21.968C207.375 23.36 206.331 24.428 204.963 25.172C203.619 25.916 202.047 26.288 200.247 26.288ZM200.211 22.796C201.675 22.796 202.791 22.316 203.559 21.356C204.327 20.396 204.711 18.98 204.711 17.108C204.711 15.26 204.327 13.856 203.559 12.896C202.791 11.912 201.687 11.42 200.247 11.42C198.807 11.42 197.691 11.912 196.899 12.896C196.131 13.856 195.747 15.26 195.747 17.108C195.747 18.98 196.131 20.396 196.899 21.356C197.667 22.316 198.771 22.796 200.211 22.796ZM220.738 26.288C218.986 26.288 217.438 25.916 216.094 25.172C214.774 24.428 213.754 23.372 213.034 22.004C212.314 20.636 211.954 19.04 211.954 17.216C211.954 15.392 212.326 13.784 213.07 12.392C213.838 10.976 214.906 9.884 216.274 9.116C217.642 8.348 219.214 7.964 220.99 7.964C221.926 7.964 222.862 8.096 223.798 8.36C224.758 8.624 225.598 8.984 226.318 9.44C227.086 9.944 227.47 10.58 227.47 11.348C227.47 11.876 227.338 12.308 227.074 12.644C226.834 12.956 226.51 13.112 226.102 13.112C225.838 13.112 225.562 13.052 225.274 12.932C224.986 12.812 224.698 12.668 224.41 12.5C223.882 12.188 223.378 11.948 222.898 11.78C222.418 11.588 221.866 11.492 221.242 11.492C219.754 11.492 218.602 11.984 217.786 12.968C216.994 13.928 216.598 15.32 216.598 17.144C216.598 18.944 216.994 20.336 217.786 21.32C218.602 22.28 219.754 22.76 221.242 22.76C221.842 22.76 222.37 22.676 222.826 22.508C223.306 22.316 223.834 22.064 224.41 21.752C224.77 21.536 225.082 21.38 225.346 21.284C225.61 21.164 225.874 21.104 226.138 21.104C226.522 21.104 226.846 21.272 227.11 21.608C227.374 21.944 227.506 22.364 227.506 22.868C227.506 23.276 227.41 23.636 227.218 23.948C227.05 24.236 226.762 24.5 226.354 24.74C225.61 25.22 224.746 25.604 223.762 25.892C222.778 26.156 221.77 26.288 220.738 26.288ZM239.754 22.868C240.954 22.94 241.554 23.48 241.554 24.488C241.554 25.064 241.314 25.508 240.834 25.82C240.378 26.108 239.718 26.228 238.854 26.18L237.882 26.108C233.85 25.82 231.834 23.66 231.834 19.628V11.78H230.034C229.386 11.78 228.882 11.636 228.522 11.348C228.186 11.06 228.018 10.64 228.018 10.088C228.018 9.536 228.186 9.116 228.522 8.828C228.882 8.54 229.386 8.396 230.034 8.396H231.834V5.084C231.834 4.436 232.038 3.92 232.446 3.536C232.854 3.152 233.406 2.96 234.102 2.96C234.774 2.96 235.314 3.152 235.722 3.536C236.13 3.92 236.334 4.436 236.334 5.084V8.396H239.394C240.042 8.396 240.534 8.54 240.87 8.828C241.23 9.116 241.41 9.536 241.41 10.088C241.41 10.64 241.23 11.06 240.87 11.348C240.534 11.636 240.042 11.78 239.394 11.78H236.334V19.952C236.334 21.728 237.15 22.676 238.782 22.796L239.754 22.868ZM251.927 26.288C250.127 26.288 248.543 25.916 247.175 25.172C245.831 24.428 244.787 23.36 244.043 21.968C243.299 20.576 242.927 18.956 242.927 17.108C242.927 15.26 243.299 13.652 244.043 12.284C244.787 10.892 245.831 9.824 247.175 9.08C248.543 8.336 250.127 7.964 251.927 7.964C253.727 7.964 255.299 8.336 256.643 9.08C258.011 9.824 259.055 10.892 259.775 12.284C260.519 13.652 260.891 15.26 260.891 17.108C260.891 18.956 260.519 20.576 259.775 21.968C259.055 23.36 258.011 24.428 256.643 25.172C255.299 25.916 253.727 26.288 251.927 26.288ZM251.891 22.796C253.355 22.796 254.471 22.316 255.239 21.356C256.007 20.396 256.391 18.98 256.391 17.108C256.391 15.26 256.007 13.856 255.239 12.896C254.471 11.912 253.367 11.42 251.927 11.42C250.487 11.42 249.371 11.912 248.579 12.896C247.811 13.856 247.427 15.26 247.427 17.108C247.427 18.98 247.811 20.396 248.579 21.356C249.347 22.316 250.451 22.796 251.891 22.796ZM274.434 8.036C275.058 7.988 275.55 8.12 275.91 8.432C276.27 8.744 276.45 9.212 276.45 9.836C276.45 10.484 276.294 10.964 275.982 11.276C275.67 11.588 275.106 11.792 274.29 11.888L273.21 11.996C271.794 12.14 270.75 12.62 270.078 13.436C269.43 14.252 269.106 15.272 269.106 16.496V24.056C269.106 24.752 268.89 25.292 268.458 25.676C268.026 26.036 267.486 26.216 266.838 26.216C266.19 26.216 265.65 26.036 265.218 25.676C264.81 25.292 264.606 24.752 264.606 24.056V10.124C264.606 9.452 264.81 8.936 265.218 8.576C265.65 8.216 266.178 8.036 266.802 8.036C267.426 8.036 267.93 8.216 268.314 8.576C268.698 8.912 268.89 9.404 268.89 10.052V11.492C269.346 10.436 270.018 9.62 270.906 9.044C271.818 8.468 272.826 8.144 273.93 8.072L274.434 8.036ZM283.931 18.656C283.523 18.656 283.187 18.512 282.923 18.224C282.683 17.936 282.563 17.54 282.563 17.036C282.563 15.716 282.803 14.6 283.283 13.688C283.763 12.776 284.459 11.78 285.371 10.7C286.091 9.836 286.619 9.116 286.955 8.54C287.291 7.964 287.459 7.316 287.459 6.596C287.459 5.804 287.159 5.18 286.559 4.724C285.983 4.244 285.191 4.004 284.183 4.004C283.319 4.004 282.491 4.196 281.699 4.58C280.907 4.94 279.983 5.468 278.927 6.164C278.327 6.5 277.835 6.668 277.451 6.668C277.043 6.668 276.683 6.488 276.371 6.128C276.083 5.744 275.939 5.3 275.939 4.796C275.939 4.1 276.227 3.536 276.803 3.104C277.811 2.24 278.999 1.568 280.367 1.088C281.735 0.583998 283.115 0.331998 284.507 0.331998C285.971 0.331998 287.267 0.583998 288.395 1.088C289.547 1.592 290.435 2.288 291.059 3.176C291.707 4.064 292.031 5.084 292.031 6.236C292.031 7.484 291.731 8.576 291.131 9.512C290.531 10.424 289.655 11.456 288.503 12.608C287.519 13.616 286.775 14.468 286.271 15.164C285.791 15.836 285.491 16.604 285.371 17.468C285.299 17.852 285.131 18.152 284.867 18.368C284.627 18.56 284.315 18.656 283.931 18.656ZM284.003 26.216C283.235 26.216 282.599 25.964 282.095 25.46C281.591 24.932 281.339 24.284 281.339 23.516C281.339 22.748 281.591 22.112 282.095 21.608C282.599 21.08 283.235 20.816 284.003 20.816C284.771 20.816 285.407 21.08 285.911 21.608C286.415 22.112 286.667 22.748 286.667 23.516C286.667 24.284 286.403 24.932 285.875 25.46C285.371 25.964 284.747 26.216 284.003 26.216Z" fill="#247707"/>
<path d="M307.384 32.66C306.784 32.66 306.28 32.456 305.872 32.048C305.464 31.64 305.26 31.136 305.26 30.536V2.564C305.26 1.94 305.464 1.436 305.872 1.052C306.28 0.643999 306.784 0.439999 307.384 0.439999C307.984 0.439999 308.476 0.643999 308.86 1.052C309.268 1.46 309.472 1.964 309.472 2.564V30.536C309.472 31.16 309.268 31.664 308.86 32.048C308.476 32.456 307.984 32.66 307.384 32.66ZM317.438 32.66C316.838 32.66 316.334 32.456 315.926 32.048C315.518 31.64 315.314 31.136 315.314 30.536V2.564C315.314 1.94 315.518 1.436 315.926 1.052C316.334 0.643999 316.838 0.439999 317.438 0.439999C318.038 0.439999 318.53 0.643999 318.914 1.052C319.322 1.46 319.526 1.964 319.526 2.564V30.536C319.526 31.16 319.322 31.664 318.914 32.048C318.53 32.456 318.038 32.66 317.438 32.66Z" fill="#7E7E7E"/>
</svg>
