<svg width="203" height="52" viewBox="0 0 203 52" fill="none" xmlns="http://www.w3.org/2000/svg">
<path d="M0.443359 51V1.23438H15.7559C20.1309 1.23438 24.0387 2.22559 27.4795 4.20801C30.943 6.16764 33.6432 8.97038 35.5801 12.6162C37.5169 16.2393 38.4854 20.3636 38.4854 24.9893V27.2793C38.4854 31.9049 37.5283 36.0179 35.6143 39.6182C33.723 43.2184 31.0456 46.0098 27.582 47.9922C24.1185 49.9746 20.2106 50.9772 15.8584 51H0.443359ZM10.6973 9.54004V42.7627H15.6533C19.6637 42.7627 22.7285 41.4525 24.8477 38.832C26.9668 36.2116 28.0492 32.4632 28.0947 27.5869V24.9551C28.0947 19.8965 27.0465 16.0684 24.9502 13.4707C22.8538 10.8503 19.7891 9.54004 15.7559 9.54004H10.6973ZM43.7832 32.167C43.7832 28.4984 44.4896 25.2285 45.9023 22.3574C47.3151 19.4863 49.3431 17.2646 51.9863 15.6924C54.6523 14.1201 57.7399 13.334 61.249 13.334C66.2393 13.334 70.3066 14.8607 73.4512 17.9141C76.6185 20.9674 78.3844 25.1146 78.749 30.3555L78.8174 32.8848C78.8174 38.5586 77.2337 43.1159 74.0664 46.5566C70.8991 49.9746 66.6494 51.6836 61.3174 51.6836C55.9854 51.6836 51.7243 49.9746 48.5342 46.5566C45.3669 43.1387 43.7832 38.4902 43.7832 32.6113V32.167ZM53.6611 32.8848C53.6611 36.3939 54.3219 39.0827 55.6436 40.9512C56.9652 42.7969 58.8564 43.7197 61.3174 43.7197C63.71 43.7197 65.5785 42.8083 66.9229 40.9854C68.2673 39.1396 68.9395 36.2002 68.9395 32.167C68.9395 28.7262 68.2673 26.0602 66.9229 24.1689C65.5785 22.2777 63.6872 21.332 61.249 21.332C58.8337 21.332 56.9652 22.2777 55.6436 24.1689C54.3219 26.0374 53.6611 28.9427 53.6611 32.8848ZM100.282 43.7197C102.105 43.7197 103.586 43.2184 104.726 42.2158C105.865 41.2132 106.457 39.8802 106.503 38.2168H115.766C115.743 40.7233 115.059 43.0247 113.715 45.1211C112.37 47.1947 110.525 48.8125 108.178 49.9746C105.854 51.1139 103.279 51.6836 100.453 51.6836C95.1667 51.6836 90.9967 50.0088 87.9434 46.6592C84.89 43.2868 83.3633 38.6383 83.3633 32.7139V32.0645C83.3633 26.3678 84.8786 21.8219 87.9092 18.4268C90.9398 15.0316 95.0983 13.334 100.385 13.334C105.01 13.334 108.713 14.6556 111.493 17.2988C114.296 19.9193 115.72 23.417 115.766 27.792H106.503C106.457 25.8779 105.865 24.3285 104.726 23.1436C103.586 21.9359 102.082 21.332 100.214 21.332C97.9124 21.332 96.1693 22.1751 94.9844 23.8613C93.8223 25.5247 93.2412 28.2363 93.2412 31.9961V33.0215C93.2412 36.8268 93.8223 39.5612 94.9844 41.2246C96.1465 42.888 97.9124 43.7197 100.282 43.7197Z" fill="white"/>
<path d="M161.43 44.7109C159.584 46.9212 156.975 48.6416 153.603 49.8721C150.23 51.0798 146.493 51.6836 142.392 51.6836C138.085 51.6836 134.302 50.7493 131.044 48.8809C127.808 46.9896 125.302 44.2552 123.524 40.6777C121.77 37.1003 120.87 32.8962 120.824 28.0654V24.6816C120.824 19.7142 121.656 15.4189 123.319 11.7959C125.006 8.15007 127.421 5.37012 130.565 3.45605C133.733 1.51921 137.436 0.550781 141.674 0.550781C147.576 0.550781 152.19 1.96354 155.517 4.78906C158.843 7.5918 160.814 11.682 161.43 17.0596H151.449C150.993 14.2113 149.979 12.1263 148.407 10.8047C146.858 9.48307 144.716 8.82227 141.981 8.82227C138.495 8.82227 135.84 10.1325 134.018 12.7529C132.195 15.3734 131.272 19.2699 131.249 24.4424V27.6211C131.249 32.8392 132.24 36.7812 134.223 39.4473C136.205 42.1133 139.11 43.4463 142.938 43.4463C146.789 43.4463 149.535 42.626 151.176 40.9854V32.4062H141.845V24.8525H161.43V44.7109ZM167.582 32.167C167.582 28.4984 168.288 25.2285 169.701 22.3574C171.114 19.4863 173.142 17.2646 175.785 15.6924C178.451 14.1201 181.539 13.334 185.048 13.334C190.038 13.334 194.105 14.8607 197.25 17.9141C200.417 20.9674 202.183 25.1146 202.548 30.3555L202.616 32.8848C202.616 38.5586 201.033 43.1159 197.865 46.5566C194.698 49.9746 190.448 51.6836 185.116 51.6836C179.784 51.6836 175.523 49.9746 172.333 46.5566C169.166 43.1387 167.582 38.4902 167.582 32.6113V32.167ZM177.46 32.8848C177.46 36.3939 178.121 39.0827 179.442 40.9512C180.764 42.7969 182.655 43.7197 185.116 43.7197C187.509 43.7197 189.377 42.8083 190.722 40.9854C192.066 39.1396 192.738 36.2002 192.738 32.167C192.738 28.7262 192.066 26.0602 190.722 24.1689C189.377 22.2777 187.486 21.332 185.048 21.332C182.632 21.332 180.764 22.2777 179.442 24.1689C178.121 26.0374 177.46 28.9427 177.46 32.8848Z" fill="#247707"/>
</svg>
