<svg width="1405" height="59" viewBox="0 0 1405 59" fill="none" xmlns="http://www.w3.org/2000/svg">
<path d="M4.96 47.384C3.72267 47.384 2.72 47 1.952 46.232C1.22667 45.464 0.864 44.4613 0.864 43.224V5.784C0.864 4.54666 1.20533 3.58666 1.888 2.904C2.61333 2.22133 3.59467 1.88 4.832 1.88H27.296C29.8987 1.88 31.2 2.98933 31.2 5.208C31.2 7.384 29.8987 8.472 27.296 8.472H8.992V20.76H26.016C28.6187 20.76 29.92 21.8693 29.92 24.088C29.92 26.264 28.6187 27.352 26.016 27.352H8.992V43.224C8.992 44.4613 8.62933 45.464 7.904 46.232C7.17867 47 6.19733 47.384 4.96 47.384ZM42.9405 47.384C41.7885 47.384 40.8285 47.064 40.0605 46.424C39.3352 45.7413 38.9725 44.7813 38.9725 43.544V18.84C38.9725 17.6027 39.3352 16.664 40.0605 16.024C40.8285 15.384 41.7885 15.064 42.9405 15.064C44.0925 15.064 45.0525 15.384 45.8205 16.024C46.5885 16.664 46.9725 17.6027 46.9725 18.84V43.544C46.9725 44.7813 46.5885 45.7413 45.8205 46.424C45.0525 47.064 44.0925 47.384 42.9405 47.384ZM42.9405 9.368C41.4898 9.368 40.3378 8.984 39.4845 8.216C38.6312 7.40533 38.2045 6.36 38.2045 5.08C38.2045 3.8 38.6312 2.776 39.4845 2.008C40.3378 1.24 41.4898 0.855999 42.9405 0.855999C44.3485 0.855999 45.4792 1.24 46.3325 2.008C47.2285 2.776 47.6765 3.8 47.6765 5.08C47.6765 6.36 47.2498 7.40533 46.3965 8.216C45.5432 8.984 44.3912 9.368 42.9405 9.368ZM73.3985 14.936C77.1532 14.936 79.9478 16.0027 81.7825 18.136C83.6172 20.2693 84.5345 23.4907 84.5345 27.8V43.544C84.5345 44.7387 84.1718 45.6773 83.4465 46.36C82.7638 47.0427 81.8038 47.384 80.5665 47.384C79.3292 47.384 78.3478 47.0427 77.6225 46.36C76.8972 45.6773 76.5345 44.7387 76.5345 43.544V28.248C76.5345 25.816 76.0652 24.0453 75.1265 22.936C74.2305 21.8267 72.8012 21.272 70.8385 21.272C68.5345 21.272 66.6785 21.9973 65.2705 23.448C63.9052 24.8987 63.2225 26.84 63.2225 29.272V43.544C63.2225 44.7387 62.8598 45.6773 62.1345 46.36C61.4092 47.0427 60.4278 47.384 59.1905 47.384C57.9532 47.384 56.9718 47.0427 56.2465 46.36C55.5638 45.6773 55.2225 44.7387 55.2225 43.544V18.776C55.2225 17.6667 55.5852 16.7707 56.3105 16.088C57.0358 15.4053 58.0172 15.064 59.2545 15.064C60.3638 15.064 61.2598 15.4053 61.9425 16.088C62.6678 16.728 63.0305 17.5813 63.0305 18.648V20.376C64.0972 18.6267 65.5265 17.2827 67.3185 16.344C69.1105 15.4053 71.1372 14.936 73.3985 14.936ZM118.772 1.56C119.967 1.56 120.948 1.90133 121.716 2.584C122.484 3.26667 122.868 4.16267 122.868 5.272V43.544C122.868 44.696 122.505 45.6133 121.78 46.296C121.055 46.9787 120.095 47.32 118.9 47.32C117.705 47.32 116.745 46.9787 116.02 46.296C115.295 45.6133 114.932 44.696 114.932 43.544V41.944C113.993 43.6933 112.628 45.0587 110.836 46.04C109.087 47.0213 107.081 47.512 104.82 47.512C102.132 47.512 99.7213 46.8293 97.588 45.464C95.4973 44.0987 93.8547 42.1787 92.66 39.704C91.508 37.1867 90.932 34.3067 90.932 31.064C90.932 27.8213 91.508 24.984 92.66 22.552C93.8547 20.12 95.4973 18.2427 97.588 16.92C99.6787 15.5973 102.089 14.936 104.82 14.936C107.081 14.936 109.087 15.4053 110.836 16.344C112.585 17.2827 113.929 18.6053 114.868 20.312V5.144C114.868 4.07733 115.209 3.224 115.892 2.584C116.617 1.90133 117.577 1.56 118.772 1.56ZM106.932 41.304C109.492 41.304 111.455 40.4293 112.82 38.68C114.228 36.9307 114.932 34.4347 114.932 31.192C114.932 27.9493 114.228 25.4747 112.82 23.768C111.455 22.0187 109.513 21.144 106.996 21.144C104.436 21.144 102.452 21.9973 101.044 23.704C99.636 25.4107 98.932 27.864 98.932 31.064C98.932 34.3067 99.636 36.824 101.044 38.616C102.452 40.408 104.415 41.304 106.932 41.304ZM166.457 14.936C169.187 14.936 171.598 15.5973 173.689 16.92C175.779 18.2427 177.401 20.12 178.553 22.552C179.747 24.984 180.345 27.8213 180.345 31.064C180.345 34.3067 179.747 37.1867 178.553 39.704C177.401 42.1787 175.758 44.0987 173.625 45.464C171.534 46.8293 169.145 47.512 166.457 47.512C164.195 47.512 162.169 47.0213 160.377 46.04C158.627 45.0587 157.283 43.6933 156.345 41.944V43.544C156.345 44.696 155.982 45.6133 155.257 46.296C154.531 46.9787 153.571 47.32 152.377 47.32C151.182 47.32 150.222 46.9787 149.497 46.296C148.814 45.6133 148.473 44.696 148.473 43.544V5.272C148.473 4.16267 148.835 3.26667 149.561 2.584C150.329 1.90133 151.31 1.56 152.505 1.56C153.699 1.56 154.659 1.88 155.385 2.52C156.11 3.16 156.473 4.03467 156.473 5.144V20.248C157.411 18.5413 158.755 17.24 160.505 16.344C162.254 15.4053 164.238 14.936 166.457 14.936ZM164.345 41.304C166.862 41.304 168.825 40.408 170.233 38.616C171.641 36.824 172.345 34.3067 172.345 31.064C172.345 27.864 171.641 25.4107 170.233 23.704C168.867 21.9973 166.905 21.144 164.345 21.144C161.785 21.144 159.801 22.0187 158.393 23.768C157.027 25.4747 156.345 27.9493 156.345 31.192C156.345 34.4347 157.027 36.9307 158.393 38.68C159.801 40.4293 161.785 41.304 164.345 41.304ZM211.678 38.424C212.403 38.424 212.979 38.7013 213.406 39.256C213.875 39.8107 214.11 40.5573 214.11 41.496C214.11 42.8187 213.321 43.928 211.742 44.824C210.291 45.6347 208.649 46.296 206.814 46.808C204.979 47.2773 203.23 47.512 201.566 47.512C196.531 47.512 192.542 46.0613 189.598 43.16C186.654 40.2587 185.182 36.2907 185.182 31.256C185.182 28.056 185.822 25.2187 187.102 22.744C188.382 20.2693 190.174 18.3493 192.478 16.984C194.825 15.6187 197.47 14.936 200.414 14.936C203.23 14.936 205.683 15.5547 207.774 16.792C209.865 18.0293 211.486 19.7787 212.638 22.04C213.79 24.3013 214.366 26.968 214.366 30.04C214.366 31.8747 213.555 32.792 211.934 32.792H193.054C193.31 35.736 194.142 37.912 195.55 39.32C196.958 40.6853 199.006 41.368 201.694 41.368C203.059 41.368 204.254 41.1973 205.278 40.856C206.345 40.5147 207.539 40.0453 208.862 39.448C210.142 38.7653 211.081 38.424 211.678 38.424ZM200.606 20.568C198.43 20.568 196.681 21.2507 195.358 22.616C194.078 23.9813 193.31 25.944 193.054 28.504H207.518C207.433 25.9013 206.793 23.9387 205.598 22.616C204.403 21.2507 202.739 20.568 200.606 20.568ZM232.238 47.512C227.587 47.512 223.833 46.5947 220.974 44.76C219.609 43.9493 218.926 42.7973 218.926 41.304C218.926 40.4507 219.161 39.768 219.63 39.256C220.099 38.7013 220.675 38.424 221.358 38.424C222.083 38.424 223.086 38.7653 224.366 39.448C225.731 40.088 226.969 40.5787 228.078 40.92C229.23 41.2613 230.681 41.432 232.43 41.432C234.222 41.432 235.609 41.1333 236.59 40.536C237.614 39.9387 238.126 39.1067 238.126 38.04C238.126 37.3147 237.913 36.7387 237.486 36.312C237.102 35.8853 236.377 35.5013 235.31 35.16C234.286 34.776 232.707 34.3493 230.574 33.88C226.777 33.112 224.046 32.024 222.382 30.616C220.761 29.208 219.95 27.2667 219.95 24.792C219.95 22.9147 220.505 21.2293 221.614 19.736C222.723 18.2 224.238 17.0267 226.158 16.216C228.121 15.3627 230.339 14.936 232.814 14.936C234.606 14.936 236.334 15.1707 237.998 15.64C239.662 16.0667 241.155 16.7067 242.478 17.56C243.843 18.4133 244.526 19.544 244.526 20.952C244.526 21.8053 244.291 22.5307 243.822 23.128C243.353 23.6827 242.777 23.96 242.094 23.96C241.625 23.96 241.155 23.8747 240.686 23.704C240.259 23.4907 239.705 23.192 239.022 22.808C237.785 22.168 236.718 21.6987 235.822 21.4C234.926 21.0587 233.817 20.888 232.494 20.888C230.915 20.888 229.657 21.208 228.718 21.848C227.822 22.488 227.374 23.3627 227.374 24.472C227.374 25.5387 227.843 26.3493 228.782 26.904C229.721 27.4587 231.534 28.0133 234.222 28.568C237.081 29.1653 239.321 29.848 240.942 30.616C242.563 31.384 243.715 32.344 244.398 33.496C245.123 34.648 245.486 36.12 245.486 37.912C245.486 40.8133 244.27 43.1387 241.838 44.888C239.449 46.6373 236.249 47.512 232.238 47.512ZM267.916 41.432C270.049 41.56 271.116 42.52 271.116 44.312C271.116 45.336 270.689 46.1253 269.836 46.68C269.025 47.192 267.852 47.4053 266.316 47.32L264.588 47.192C257.42 46.68 253.836 42.84 253.836 35.672V21.72H250.636C249.484 21.72 248.588 21.464 247.948 20.952C247.351 20.44 247.052 19.6933 247.052 18.712C247.052 17.7307 247.351 16.984 247.948 16.472C248.588 15.96 249.484 15.704 250.636 15.704H253.836V9.816C253.836 8.664 254.199 7.74666 254.924 7.064C255.649 6.38133 256.631 6.04 257.868 6.04C259.063 6.04 260.023 6.38133 260.748 7.064C261.473 7.74666 261.836 8.664 261.836 9.816V15.704H267.276C268.428 15.704 269.303 15.96 269.9 16.472C270.54 16.984 270.86 17.7307 270.86 18.712C270.86 19.6933 270.54 20.44 269.9 20.952C269.303 21.464 268.428 21.72 267.276 21.72H261.836V36.248C261.836 39.4053 263.287 41.0907 266.188 41.304L267.916 41.432ZM318.772 1.56C319.967 1.56 320.948 1.90133 321.716 2.584C322.484 3.26667 322.868 4.16267 322.868 5.272V43.544C322.868 44.696 322.505 45.6133 321.78 46.296C321.055 46.9787 320.095 47.32 318.9 47.32C317.705 47.32 316.745 46.9787 316.02 46.296C315.295 45.6133 314.932 44.696 314.932 43.544V41.944C313.993 43.6933 312.628 45.0587 310.836 46.04C309.087 47.0213 307.081 47.512 304.82 47.512C302.132 47.512 299.721 46.8293 297.588 45.464C295.497 44.0987 293.855 42.1787 292.66 39.704C291.508 37.1867 290.932 34.3067 290.932 31.064C290.932 27.8213 291.508 24.984 292.66 22.552C293.855 20.12 295.497 18.2427 297.588 16.92C299.679 15.5973 302.089 14.936 304.82 14.936C307.081 14.936 309.087 15.4053 310.836 16.344C312.585 17.2827 313.929 18.6053 314.868 20.312V5.144C314.868 4.07733 315.209 3.224 315.892 2.584C316.617 1.90133 317.577 1.56 318.772 1.56ZM306.932 41.304C309.492 41.304 311.455 40.4293 312.82 38.68C314.228 36.9307 314.932 34.4347 314.932 31.192C314.932 27.9493 314.228 25.4747 312.82 23.768C311.455 22.0187 309.513 21.144 306.996 21.144C304.436 21.144 302.452 21.9973 301.044 23.704C299.636 25.4107 298.932 27.864 298.932 31.064C298.932 34.3067 299.636 36.824 301.044 38.616C302.452 40.408 304.415 41.304 306.932 41.304ZM345.37 47.512C342.17 47.512 339.354 46.8507 336.922 45.528C334.532 44.2053 332.676 42.3067 331.354 39.832C330.031 37.3573 329.37 34.4773 329.37 31.192C329.37 27.9067 330.031 25.048 331.354 22.616C332.676 20.1413 334.532 18.2427 336.922 16.92C339.354 15.5973 342.17 14.936 345.37 14.936C348.57 14.936 351.364 15.5973 353.754 16.92C356.186 18.2427 358.042 20.1413 359.322 22.616C360.644 25.048 361.306 27.9067 361.306 31.192C361.306 34.4773 360.644 37.3573 359.322 39.832C358.042 42.3067 356.186 44.2053 353.754 45.528C351.364 46.8507 348.57 47.512 345.37 47.512ZM345.306 41.304C347.908 41.304 349.892 40.4507 351.258 38.744C352.623 37.0373 353.306 34.52 353.306 31.192C353.306 27.9067 352.623 25.4107 351.258 23.704C349.892 21.9547 347.93 21.08 345.37 21.08C342.81 21.08 340.826 21.9547 339.418 23.704C338.052 25.4107 337.37 27.9067 337.37 31.192C337.37 34.52 338.052 37.0373 339.418 38.744C340.783 40.4507 342.746 41.304 345.306 41.304ZM381.798 47.512C378.683 47.512 375.931 46.8507 373.542 45.528C371.195 44.2053 369.382 42.328 368.102 39.896C366.822 37.464 366.182 34.6267 366.182 31.384C366.182 28.1413 366.843 25.2827 368.166 22.808C369.531 20.2907 371.43 18.3493 373.862 16.984C376.294 15.6187 379.089 14.936 382.246 14.936C383.91 14.936 385.574 15.1707 387.238 15.64C388.945 16.1093 390.438 16.7493 391.718 17.56C393.083 18.456 393.766 19.5867 393.766 20.952C393.766 21.8907 393.531 22.6587 393.062 23.256C392.635 23.8107 392.059 24.088 391.334 24.088C390.865 24.088 390.374 23.9813 389.862 23.768C389.35 23.5547 388.838 23.2987 388.326 23C387.387 22.4453 386.491 22.0187 385.638 21.72C384.785 21.3787 383.803 21.208 382.694 21.208C380.049 21.208 378.001 22.0827 376.55 23.832C375.142 25.5387 374.438 28.0133 374.438 31.256C374.438 34.456 375.142 36.9307 376.55 38.68C378.001 40.3867 380.049 41.24 382.694 41.24C383.761 41.24 384.699 41.0907 385.51 40.792C386.363 40.4507 387.302 40.0027 388.326 39.448C388.966 39.064 389.521 38.7867 389.99 38.616C390.459 38.4027 390.929 38.296 391.398 38.296C392.081 38.296 392.657 38.5947 393.126 39.192C393.595 39.7893 393.83 40.536 393.83 41.432C393.83 42.1573 393.659 42.7973 393.318 43.352C393.019 43.864 392.507 44.3333 391.782 44.76C390.459 45.6133 388.923 46.296 387.174 46.808C385.425 47.2773 383.633 47.512 381.798 47.512ZM415.604 41.432C417.737 41.56 418.804 42.52 418.804 44.312C418.804 45.336 418.377 46.1253 417.524 46.68C416.713 47.192 415.54 47.4053 414.003 47.32L412.276 47.192C405.108 46.68 401.524 42.84 401.524 35.672V21.72H398.324C397.172 21.72 396.276 21.464 395.636 20.952C395.038 20.44 394.739 19.6933 394.739 18.712C394.739 17.7307 395.038 16.984 395.636 16.472C396.276 15.96 397.172 15.704 398.324 15.704H401.524V9.816C401.524 8.664 401.886 7.74666 402.612 7.064C403.337 6.38133 404.318 6.04 405.556 6.04C406.75 6.04 407.71 6.38133 408.436 7.064C409.161 7.74666 409.524 8.664 409.524 9.816V15.704H414.964C416.116 15.704 416.99 15.96 417.588 16.472C418.228 16.984 418.548 17.7307 418.548 18.712C418.548 19.6933 418.228 20.44 417.588 20.952C416.99 21.464 416.116 21.72 414.964 21.72H409.524V36.248C409.524 39.4053 410.974 41.0907 413.876 41.304L415.604 41.432ZM437.245 47.512C434.045 47.512 431.229 46.8507 428.797 45.528C426.407 44.2053 424.551 42.3067 423.229 39.832C421.906 37.3573 421.245 34.4773 421.245 31.192C421.245 27.9067 421.906 25.048 423.229 22.616C424.551 20.1413 426.407 18.2427 428.797 16.92C431.229 15.5973 434.045 14.936 437.245 14.936C440.445 14.936 443.239 15.5973 445.629 16.92C448.061 18.2427 449.917 20.1413 451.197 22.616C452.519 25.048 453.181 27.9067 453.181 31.192C453.181 34.4773 452.519 37.3573 451.197 39.832C449.917 42.3067 448.061 44.2053 445.629 45.528C443.239 46.8507 440.445 47.512 437.245 47.512ZM437.181 41.304C439.783 41.304 441.767 40.4507 443.133 38.744C444.498 37.0373 445.181 34.52 445.181 31.192C445.181 27.9067 444.498 25.4107 443.133 23.704C441.767 21.9547 439.805 21.08 437.245 21.08C434.685 21.08 432.701 21.9547 431.293 23.704C429.927 25.4107 429.245 27.9067 429.245 31.192C429.245 34.52 429.927 37.0373 431.293 38.744C432.658 40.4507 434.621 41.304 437.181 41.304ZM477.257 15.064C478.366 14.9787 479.241 15.2133 479.881 15.768C480.521 16.3227 480.841 17.1547 480.841 18.264C480.841 19.416 480.564 20.2693 480.009 20.824C479.454 21.3787 478.452 21.7413 477.001 21.912L475.081 22.104C472.564 22.36 470.708 23.2133 469.513 24.664C468.361 26.1147 467.785 27.928 467.785 30.104V43.544C467.785 44.7813 467.401 45.7413 466.633 46.424C465.865 47.064 464.905 47.384 463.753 47.384C462.601 47.384 461.641 47.064 460.873 46.424C460.148 45.7413 459.785 44.7813 459.785 43.544V18.776C459.785 17.5813 460.148 16.664 460.873 16.024C461.641 15.384 462.58 15.064 463.689 15.064C464.798 15.064 465.694 15.384 466.377 16.024C467.06 16.6213 467.401 17.496 467.401 18.648V21.208C468.212 19.3307 469.406 17.88 470.985 16.856C472.606 15.832 474.398 15.256 476.361 15.128L477.257 15.064ZM495.301 47.512C490.65 47.512 486.895 46.5947 484.036 44.76C482.671 43.9493 481.989 42.7973 481.989 41.304C481.989 40.4507 482.223 39.768 482.693 39.256C483.162 38.7013 483.738 38.424 484.421 38.424C485.146 38.424 486.149 38.7653 487.429 39.448C488.794 40.088 490.031 40.5787 491.141 40.92C492.293 41.2613 493.743 41.432 495.493 41.432C497.285 41.432 498.671 41.1333 499.653 40.536C500.677 39.9387 501.189 39.1067 501.189 38.04C501.189 37.3147 500.975 36.7387 500.549 36.312C500.165 35.8853 499.439 35.5013 498.373 35.16C497.349 34.776 495.77 34.3493 493.637 33.88C489.839 33.112 487.109 32.024 485.445 30.616C483.823 29.208 483.013 27.2667 483.013 24.792C483.013 22.9147 483.567 21.2293 484.677 19.736C485.786 18.2 487.301 17.0267 489.22 16.216C491.183 15.3627 493.402 14.936 495.877 14.936C497.669 14.936 499.397 15.1707 501.061 15.64C502.725 16.0667 504.218 16.7067 505.541 17.56C506.906 18.4133 507.589 19.544 507.589 20.952C507.589 21.8053 507.354 22.5307 506.885 23.128C506.415 23.6827 505.839 23.96 505.157 23.96C504.687 23.96 504.218 23.8747 503.749 23.704C503.322 23.4907 502.767 23.192 502.085 22.808C500.847 22.168 499.781 21.6987 498.885 21.4C497.989 21.0587 496.879 20.888 495.557 20.888C493.978 20.888 492.719 21.208 491.781 21.848C490.885 22.488 490.437 23.3627 490.437 24.472C490.437 25.5387 490.906 26.3493 491.845 26.904C492.783 27.4587 494.597 28.0133 497.285 28.568C500.143 29.1653 502.383 29.848 504.005 30.616C505.626 31.384 506.778 32.344 507.461 33.496C508.186 34.648 508.549 36.12 508.549 37.912C508.549 40.8133 507.333 43.1387 504.901 44.888C502.511 46.6373 499.311 47.512 495.301 47.512ZM545.978 14.936C550.33 14.936 553.551 16.024 555.642 18.2C557.775 20.3333 558.842 23.5973 558.842 27.992V43.608C558.842 44.76 558.501 45.6773 557.818 46.36C557.135 47 556.197 47.32 555.002 47.32C553.893 47.32 552.975 46.9787 552.25 46.296C551.567 45.6133 551.226 44.7173 551.226 43.608V42.2C550.501 43.864 549.349 45.1653 547.77 46.104C546.234 47.0427 544.442 47.512 542.394 47.512C540.303 47.512 538.405 47.0853 536.698 46.232C534.991 45.3787 533.647 44.2053 532.666 42.712C531.685 41.2187 531.194 39.5547 531.194 37.72C531.194 35.416 531.77 33.6027 532.922 32.28C534.117 30.9573 536.037 29.9973 538.682 29.4C541.327 28.8027 544.975 28.504 549.626 28.504H551.226V27.032C551.226 24.9413 550.778 23.4267 549.882 22.488C548.986 21.5067 547.535 21.016 545.53 21.016C544.293 21.016 543.034 21.208 541.754 21.592C540.474 21.9333 538.959 22.4453 537.21 23.128C536.101 23.6827 535.29 23.96 534.778 23.96C534.01 23.96 533.37 23.6827 532.858 23.128C532.389 22.5733 532.154 21.848 532.154 20.952C532.154 20.2267 532.325 19.608 532.666 19.096C533.05 18.5413 533.669 18.0293 534.522 17.56C536.015 16.7493 537.786 16.1093 539.834 15.64C541.925 15.1707 543.973 14.936 545.978 14.936ZM543.994 41.752C546.127 41.752 547.855 41.048 549.178 39.64C550.543 38.1893 551.226 36.3333 551.226 34.072V32.728H550.074C547.215 32.728 544.997 32.856 543.418 33.112C541.839 33.368 540.709 33.816 540.026 34.456C539.343 35.096 539.002 35.9707 539.002 37.08C539.002 38.4453 539.471 39.576 540.41 40.472C541.391 41.3253 542.586 41.752 543.994 41.752ZM585.149 14.936C588.903 14.936 591.698 16.0027 593.533 18.136C595.367 20.2693 596.285 23.4907 596.285 27.8V43.544C596.285 44.7387 595.922 45.6773 595.197 46.36C594.514 47.0427 593.554 47.384 592.317 47.384C591.079 47.384 590.098 47.0427 589.373 46.36C588.647 45.6773 588.285 44.7387 588.285 43.544V28.248C588.285 25.816 587.815 24.0453 586.877 22.936C585.981 21.8267 584.551 21.272 582.589 21.272C580.285 21.272 578.429 21.9973 577.021 23.448C575.655 24.8987 574.973 26.84 574.973 29.272V43.544C574.973 44.7387 574.61 45.6773 573.885 46.36C573.159 47.0427 572.178 47.384 570.941 47.384C569.703 47.384 568.722 47.0427 567.997 46.36C567.314 45.6773 566.973 44.7387 566.973 43.544V18.776C566.973 17.6667 567.335 16.7707 568.061 16.088C568.786 15.4053 569.767 15.064 571.005 15.064C572.114 15.064 573.01 15.4053 573.693 16.088C574.418 16.728 574.781 17.5813 574.781 18.648V20.376C575.847 18.6267 577.277 17.2827 579.069 16.344C580.861 15.4053 582.887 14.936 585.149 14.936ZM630.522 1.56C631.717 1.56 632.698 1.90133 633.466 2.584C634.234 3.26667 634.618 4.16267 634.618 5.272V43.544C634.618 44.696 634.255 45.6133 633.53 46.296C632.805 46.9787 631.845 47.32 630.65 47.32C629.455 47.32 628.495 46.9787 627.77 46.296C627.045 45.6133 626.682 44.696 626.682 43.544V41.944C625.743 43.6933 624.378 45.0587 622.586 46.04C620.837 47.0213 618.831 47.512 616.57 47.512C613.882 47.512 611.471 46.8293 609.338 45.464C607.247 44.0987 605.605 42.1787 604.41 39.704C603.258 37.1867 602.682 34.3067 602.682 31.064C602.682 27.8213 603.258 24.984 604.41 22.552C605.605 20.12 607.247 18.2427 609.338 16.92C611.429 15.5973 613.839 14.936 616.57 14.936C618.831 14.936 620.837 15.4053 622.586 16.344C624.335 17.2827 625.679 18.6053 626.618 20.312V5.144C626.618 4.07733 626.959 3.224 627.642 2.584C628.367 1.90133 629.327 1.56 630.522 1.56ZM618.682 41.304C621.242 41.304 623.205 40.4293 624.57 38.68C625.978 36.9307 626.682 34.4347 626.682 31.192C626.682 27.9493 625.978 25.4747 624.57 23.768C623.205 22.0187 621.263 21.144 618.746 21.144C616.186 21.144 614.202 21.9973 612.794 23.704C611.386 25.4107 610.682 27.864 610.682 31.064C610.682 34.3067 611.386 36.824 612.794 38.616C614.202 40.408 616.165 41.304 618.682 41.304ZM678.207 14.936C680.937 14.936 683.348 15.5973 685.439 16.92C687.529 18.2427 689.151 20.12 690.303 22.552C691.497 24.984 692.095 27.8213 692.095 31.064C692.095 34.3067 691.497 37.1867 690.303 39.704C689.151 42.1787 687.508 44.0987 685.375 45.464C683.284 46.8293 680.895 47.512 678.207 47.512C675.945 47.512 673.919 47.0213 672.127 46.04C670.377 45.0587 669.033 43.6933 668.095 41.944V43.544C668.095 44.696 667.732 45.6133 667.007 46.296C666.281 46.9787 665.321 47.32 664.127 47.32C662.932 47.32 661.972 46.9787 661.247 46.296C660.564 45.6133 660.223 44.696 660.223 43.544V5.272C660.223 4.16267 660.585 3.26667 661.311 2.584C662.079 1.90133 663.06 1.56 664.255 1.56C665.449 1.56 666.409 1.88 667.135 2.52C667.86 3.16 668.223 4.03467 668.223 5.144V20.248C669.161 18.5413 670.505 17.24 672.255 16.344C674.004 15.4053 675.988 14.936 678.207 14.936ZM676.095 41.304C678.612 41.304 680.575 40.408 681.983 38.616C683.391 36.824 684.095 34.3067 684.095 31.064C684.095 27.864 683.391 25.4107 681.983 23.704C680.617 21.9973 678.655 21.144 676.095 21.144C673.535 21.144 671.551 22.0187 670.143 23.768C668.777 25.4747 668.095 27.9493 668.095 31.192C668.095 34.4347 668.777 36.9307 670.143 38.68C671.551 40.4293 673.535 41.304 676.095 41.304ZM712.932 47.512C709.732 47.512 706.916 46.8507 704.484 45.528C702.095 44.2053 700.239 42.3067 698.916 39.832C697.593 37.3573 696.932 34.4773 696.932 31.192C696.932 27.9067 697.593 25.048 698.916 22.616C700.239 20.1413 702.095 18.2427 704.484 16.92C706.916 15.5973 709.732 14.936 712.932 14.936C716.132 14.936 718.927 15.5973 721.316 16.92C723.748 18.2427 725.604 20.1413 726.884 22.616C728.207 25.048 728.868 27.9067 728.868 31.192C728.868 34.4773 728.207 37.3573 726.884 39.832C725.604 42.3067 723.748 44.2053 721.316 45.528C718.927 46.8507 716.132 47.512 712.932 47.512ZM712.868 41.304C715.471 41.304 717.455 40.4507 718.82 38.744C720.185 37.0373 720.868 34.52 720.868 31.192C720.868 27.9067 720.185 25.4107 718.82 23.704C717.455 21.9547 715.492 21.08 712.932 21.08C710.372 21.08 708.388 21.9547 706.98 23.704C705.615 25.4107 704.932 27.9067 704.932 31.192C704.932 34.52 705.615 37.0373 706.98 38.744C708.345 40.4507 710.308 41.304 712.868 41.304ZM749.745 47.512C746.545 47.512 743.729 46.8507 741.297 45.528C738.907 44.2053 737.051 42.3067 735.729 39.832C734.406 37.3573 733.745 34.4773 733.745 31.192C733.745 27.9067 734.406 25.048 735.729 22.616C737.051 20.1413 738.907 18.2427 741.297 16.92C743.729 15.5973 746.545 14.936 749.745 14.936C752.945 14.936 755.739 15.5973 758.129 16.92C760.561 18.2427 762.417 20.1413 763.697 22.616C765.019 25.048 765.681 27.9067 765.681 31.192C765.681 34.4773 765.019 37.3573 763.697 39.832C762.417 42.3067 760.561 44.2053 758.129 45.528C755.739 46.8507 752.945 47.512 749.745 47.512ZM749.681 41.304C752.283 41.304 754.267 40.4507 755.633 38.744C756.998 37.0373 757.681 34.52 757.681 31.192C757.681 27.9067 756.998 25.4107 755.633 23.704C754.267 21.9547 752.305 21.08 749.745 21.08C747.185 21.08 745.201 21.9547 743.793 23.704C742.427 25.4107 741.745 27.9067 741.745 31.192C741.745 34.52 742.427 37.0373 743.793 38.744C745.158 40.4507 747.121 41.304 749.681 41.304ZM800.125 40.792C800.978 41.6027 801.405 42.52 801.405 43.544C801.405 44.5253 801.042 45.4 800.317 46.168C799.634 46.936 798.824 47.32 797.885 47.32C796.946 47.32 796.072 46.936 795.261 46.168L780.285 32.6V43.544C780.285 44.7813 779.901 45.72 779.133 46.36C778.365 47 777.405 47.32 776.253 47.32C775.101 47.32 774.141 47 773.373 46.36C772.648 45.72 772.285 44.7813 772.285 43.544V5.336C772.285 4.09867 772.648 3.16 773.373 2.52C774.141 1.88 775.101 1.56 776.253 1.56C777.405 1.56 778.365 1.88 779.133 2.52C779.901 3.16 780.285 4.09867 780.285 5.336V29.4L793.981 16.28C794.749 15.512 795.624 15.128 796.605 15.128C797.586 15.128 798.44 15.4907 799.165 16.216C799.89 16.9413 800.253 17.7947 800.253 18.776C800.253 19.7573 799.848 20.6533 799.037 21.464L788.989 30.808L800.125 40.792ZM837.541 14.936C841.893 14.936 845.114 16.024 847.205 18.2C849.338 20.3333 850.405 23.5973 850.405 27.992V43.608C850.405 44.76 850.063 45.6773 849.381 46.36C848.698 47 847.759 47.32 846.565 47.32C845.455 47.32 844.538 46.9787 843.813 46.296C843.13 45.6133 842.789 44.7173 842.789 43.608V42.2C842.063 43.864 840.911 45.1653 839.333 46.104C837.797 47.0427 836.005 47.512 833.957 47.512C831.866 47.512 829.967 47.0853 828.26 46.232C826.554 45.3787 825.21 44.2053 824.229 42.712C823.247 41.2187 822.757 39.5547 822.757 37.72C822.757 35.416 823.333 33.6027 824.485 32.28C825.679 30.9573 827.599 29.9973 830.245 29.4C832.89 28.8027 836.538 28.504 841.189 28.504H842.789V27.032C842.789 24.9413 842.341 23.4267 841.445 22.488C840.549 21.5067 839.098 21.016 837.093 21.016C835.855 21.016 834.597 21.208 833.317 21.592C832.037 21.9333 830.522 22.4453 828.773 23.128C827.663 23.6827 826.853 23.96 826.341 23.96C825.573 23.96 824.933 23.6827 824.421 23.128C823.951 22.5733 823.717 21.848 823.717 20.952C823.717 20.2267 823.887 19.608 824.229 19.096C824.613 18.5413 825.231 18.0293 826.085 17.56C827.578 16.7493 829.349 16.1093 831.397 15.64C833.487 15.1707 835.535 14.936 837.541 14.936ZM835.557 41.752C837.69 41.752 839.418 41.048 840.741 39.64C842.106 38.1893 842.789 36.3333 842.789 34.072V32.728H841.637C838.778 32.728 836.559 32.856 834.981 33.112C833.402 33.368 832.271 33.816 831.589 34.456C830.906 35.096 830.565 35.9707 830.565 37.08C830.565 38.4453 831.034 39.576 831.973 40.472C832.954 41.3253 834.149 41.752 835.557 41.752ZM876.519 14.936C879.207 14.936 881.596 15.6187 883.687 16.984C885.82 18.3493 887.463 20.2907 888.615 22.808C889.81 25.2827 890.407 28.1413 890.407 31.384C890.407 34.6267 889.81 37.464 888.615 39.896C887.463 42.328 885.842 44.2053 883.751 45.528C881.66 46.8507 879.25 47.512 876.519 47.512C874.3 47.512 872.316 47.0427 870.567 46.104C868.818 45.1653 867.474 43.864 866.535 42.2V55.256C866.535 56.3653 866.172 57.24 865.447 57.88C864.722 58.52 863.762 58.84 862.567 58.84C861.372 58.84 860.391 58.4987 859.623 57.816C858.898 57.1333 858.535 56.2373 858.535 55.128V18.84C858.535 17.688 858.876 16.7707 859.559 16.088C860.284 15.4053 861.244 15.064 862.439 15.064C863.634 15.064 864.594 15.4053 865.319 16.088C866.044 16.7707 866.407 17.688 866.407 18.84V20.44C867.346 18.6907 868.69 17.3467 870.439 16.408C872.231 15.4267 874.258 14.936 876.519 14.936ZM874.407 41.304C876.924 41.304 878.887 40.4507 880.295 38.744C881.703 36.9947 882.407 34.5413 882.407 31.384C882.407 28.1413 881.703 25.624 880.295 23.832C878.887 22.04 876.924 21.144 874.407 21.144C871.847 21.144 869.863 22.0187 868.455 23.768C867.09 25.5173 866.407 28.0133 866.407 31.256C866.407 34.456 867.09 36.9307 868.455 38.68C869.863 40.4293 871.847 41.304 874.407 41.304ZM914.957 14.936C917.645 14.936 920.034 15.6187 922.125 16.984C924.258 18.3493 925.901 20.2907 927.053 22.808C928.247 25.2827 928.845 28.1413 928.845 31.384C928.845 34.6267 928.247 37.464 927.053 39.896C925.901 42.328 924.279 44.2053 922.189 45.528C920.098 46.8507 917.687 47.512 914.957 47.512C912.738 47.512 910.754 47.0427 909.005 46.104C907.255 45.1653 905.911 43.864 904.973 42.2V55.256C904.973 56.3653 904.61 57.24 903.885 57.88C903.159 58.52 902.199 58.84 901.005 58.84C899.81 58.84 898.829 58.4987 898.061 57.816C897.335 57.1333 896.973 56.2373 896.973 55.128V18.84C896.973 17.688 897.314 16.7707 897.997 16.088C898.722 15.4053 899.682 15.064 900.877 15.064C902.071 15.064 903.031 15.4053 903.757 16.088C904.482 16.7707 904.845 17.688 904.845 18.84V20.44C905.783 18.6907 907.127 17.3467 908.877 16.408C910.669 15.4267 912.695 14.936 914.957 14.936ZM912.845 41.304C915.362 41.304 917.325 40.4507 918.733 38.744C920.141 36.9947 920.845 34.5413 920.845 31.384C920.845 28.1413 920.141 25.624 918.733 23.832C917.325 22.04 915.362 21.144 912.845 21.144C910.285 21.144 908.301 22.0187 906.893 23.768C905.527 25.5173 904.845 28.0133 904.845 31.256C904.845 34.456 905.527 36.9307 906.893 38.68C908.301 40.4293 910.285 41.304 912.845 41.304ZM949.682 47.512C946.482 47.512 943.666 46.8507 941.234 45.528C938.845 44.2053 936.989 42.3067 935.666 39.832C934.343 37.3573 933.682 34.4773 933.682 31.192C933.682 27.9067 934.343 25.048 935.666 22.616C936.989 20.1413 938.845 18.2427 941.234 16.92C943.666 15.5973 946.482 14.936 949.682 14.936C952.882 14.936 955.677 15.5973 958.066 16.92C960.498 18.2427 962.354 20.1413 963.634 22.616C964.957 25.048 965.618 27.9067 965.618 31.192C965.618 34.4773 964.957 37.3573 963.634 39.832C962.354 42.3067 960.498 44.2053 958.066 45.528C955.677 46.8507 952.882 47.512 949.682 47.512ZM949.618 41.304C952.221 41.304 954.205 40.4507 955.57 38.744C956.935 37.0373 957.618 34.52 957.618 31.192C957.618 27.9067 956.935 25.4107 955.57 23.704C954.205 21.9547 952.242 21.08 949.682 21.08C947.122 21.08 945.138 21.9547 943.73 23.704C942.365 25.4107 941.682 27.9067 941.682 31.192C941.682 34.52 942.365 37.0373 943.73 38.744C945.095 40.4507 947.058 41.304 949.618 41.304ZM976.191 47.384C975.039 47.384 974.079 47.064 973.311 46.424C972.585 45.7413 972.223 44.7813 972.223 43.544V18.84C972.223 17.6027 972.585 16.664 973.311 16.024C974.079 15.384 975.039 15.064 976.191 15.064C977.343 15.064 978.303 15.384 979.071 16.024C979.839 16.664 980.223 17.6027 980.223 18.84V43.544C980.223 44.7813 979.839 45.7413 979.071 46.424C978.303 47.064 977.343 47.384 976.191 47.384ZM976.191 9.368C974.74 9.368 973.588 8.984 972.735 8.216C971.881 7.40533 971.455 6.36 971.455 5.08C971.455 3.8 971.881 2.776 972.735 2.008C973.588 1.24 974.74 0.855999 976.191 0.855999C977.599 0.855999 978.729 1.24 979.583 2.008C980.479 2.776 980.927 3.8 980.927 5.08C980.927 6.36 980.5 7.40533 979.647 8.216C978.793 8.984 977.641 9.368 976.191 9.368ZM1006.65 14.936C1010.4 14.936 1013.2 16.0027 1015.03 18.136C1016.87 20.2693 1017.78 23.4907 1017.78 27.8V43.544C1017.78 44.7387 1017.42 45.6773 1016.7 46.36C1016.01 47.0427 1015.05 47.384 1013.82 47.384C1012.58 47.384 1011.6 47.0427 1010.87 46.36C1010.15 45.6773 1009.78 44.7387 1009.78 43.544V28.248C1009.78 25.816 1009.32 24.0453 1008.38 22.936C1007.48 21.8267 1006.05 21.272 1004.09 21.272C1001.78 21.272 999.929 21.9973 998.521 23.448C997.155 24.8987 996.473 26.84 996.473 29.272V43.544C996.473 44.7387 996.11 45.6773 995.385 46.36C994.659 47.0427 993.678 47.384 992.441 47.384C991.203 47.384 990.222 47.0427 989.497 46.36C988.814 45.6773 988.473 44.7387 988.473 43.544V18.776C988.473 17.6667 988.835 16.7707 989.561 16.088C990.286 15.4053 991.267 15.064 992.505 15.064C993.614 15.064 994.51 15.4053 995.193 16.088C995.918 16.728 996.281 17.5813 996.281 18.648V20.376C997.347 18.6267 998.777 17.2827 1000.57 16.344C1002.36 15.4053 1004.39 14.936 1006.65 14.936ZM1042.17 41.432C1044.3 41.56 1045.37 42.52 1045.37 44.312C1045.37 45.336 1044.94 46.1253 1044.09 46.68C1043.28 47.192 1042.1 47.4053 1040.57 47.32L1038.84 47.192C1031.67 46.68 1028.09 42.84 1028.09 35.672V21.72H1024.89C1023.73 21.72 1022.84 21.464 1022.2 20.952C1021.6 20.44 1021.3 19.6933 1021.3 18.712C1021.3 17.7307 1021.6 16.984 1022.2 16.472C1022.84 15.96 1023.73 15.704 1024.89 15.704H1028.09V9.816C1028.09 8.664 1028.45 7.74666 1029.17 7.064C1029.9 6.38133 1030.88 6.04 1032.12 6.04C1033.31 6.04 1034.27 6.38133 1035 7.064C1035.72 7.74666 1036.09 8.664 1036.09 9.816V15.704H1041.53C1042.68 15.704 1043.55 15.96 1044.15 16.472C1044.79 16.984 1045.11 17.7307 1045.11 18.712C1045.11 19.6933 1044.79 20.44 1044.15 20.952C1043.55 21.464 1042.68 21.72 1041.53 21.72H1036.09V36.248C1036.09 39.4053 1037.54 41.0907 1040.44 41.304L1042.17 41.432ZM1086.72 14.936C1090.13 14.936 1092.74 15.96 1094.53 18.008C1096.36 20.0133 1097.28 23.2773 1097.28 27.8V43.544C1097.28 44.7813 1096.9 45.7413 1096.13 46.424C1095.4 47.064 1094.44 47.384 1093.25 47.384C1092.1 47.384 1091.14 47.064 1090.37 46.424C1089.64 45.7413 1089.28 44.7813 1089.28 43.544V27.8C1089.28 25.4533 1088.85 23.7893 1088 22.808C1087.19 21.784 1085.93 21.272 1084.22 21.272C1082.13 21.272 1080.47 21.9973 1079.23 23.448C1077.99 24.856 1077.38 26.7973 1077.38 29.272V43.544C1077.38 44.7813 1076.99 45.7413 1076.22 46.424C1075.5 47.064 1074.56 47.384 1073.41 47.384C1072.26 47.384 1071.3 47.064 1070.53 46.424C1069.76 45.7413 1069.38 44.7813 1069.38 43.544V27.8C1069.38 25.4533 1068.95 23.7893 1068.1 22.808C1067.28 21.784 1066.03 21.272 1064.32 21.272C1062.23 21.272 1060.56 21.9973 1059.33 23.448C1058.13 24.856 1057.54 26.7973 1057.54 29.272V43.544C1057.54 44.7813 1057.15 45.7413 1056.38 46.424C1055.62 47.064 1054.66 47.384 1053.5 47.384C1052.35 47.384 1051.39 47.064 1050.62 46.424C1049.9 45.7413 1049.54 44.7813 1049.54 43.544V18.776C1049.54 17.5813 1049.92 16.664 1050.69 16.024C1051.46 15.384 1052.42 15.064 1053.57 15.064C1054.68 15.064 1055.57 15.384 1056.26 16.024C1056.98 16.6213 1057.34 17.496 1057.34 18.648V20.184C1058.32 18.4773 1059.63 17.176 1061.25 16.28C1062.91 15.384 1064.81 14.936 1066.94 14.936C1071.64 14.936 1074.77 16.8987 1076.35 20.824C1077.29 19.032 1078.68 17.6027 1080.51 16.536C1082.35 15.4693 1084.42 14.936 1086.72 14.936ZM1130.18 38.424C1130.9 38.424 1131.48 38.7013 1131.91 39.256C1132.38 39.8107 1132.61 40.5573 1132.61 41.496C1132.61 42.8187 1131.82 43.928 1130.24 44.824C1128.79 45.6347 1127.15 46.296 1125.31 46.808C1123.48 47.2773 1121.73 47.512 1120.07 47.512C1115.03 47.512 1111.04 46.0613 1108.1 43.16C1105.15 40.2587 1103.68 36.2907 1103.68 31.256C1103.68 28.056 1104.32 25.2187 1105.6 22.744C1106.88 20.2693 1108.67 18.3493 1110.98 16.984C1113.32 15.6187 1115.97 14.936 1118.91 14.936C1121.73 14.936 1124.18 15.5547 1126.27 16.792C1128.36 18.0293 1129.99 19.7787 1131.14 22.04C1132.29 24.3013 1132.87 26.968 1132.87 30.04C1132.87 31.8747 1132.06 32.792 1130.43 32.792H1111.55C1111.81 35.736 1112.64 37.912 1114.05 39.32C1115.46 40.6853 1117.51 41.368 1120.19 41.368C1121.56 41.368 1122.75 41.1973 1123.78 40.856C1124.84 40.5147 1126.04 40.0453 1127.36 39.448C1128.64 38.7653 1129.58 38.424 1130.18 38.424ZM1119.11 20.568C1116.93 20.568 1115.18 21.2507 1113.86 22.616C1112.58 23.9813 1111.81 25.944 1111.55 28.504H1126.02C1125.93 25.9013 1125.29 23.9387 1124.1 22.616C1122.9 21.2507 1121.24 20.568 1119.11 20.568ZM1157.59 14.936C1161.34 14.936 1164.14 16.0027 1165.97 18.136C1167.8 20.2693 1168.72 23.4907 1168.72 27.8V43.544C1168.72 44.7387 1168.36 45.6773 1167.63 46.36C1166.95 47.0427 1165.99 47.384 1164.75 47.384C1163.52 47.384 1162.54 47.0427 1161.81 46.36C1161.08 45.6773 1160.72 44.7387 1160.72 43.544V28.248C1160.72 25.816 1160.25 24.0453 1159.31 22.936C1158.42 21.8267 1156.99 21.272 1155.03 21.272C1152.72 21.272 1150.87 21.9973 1149.46 23.448C1148.09 24.8987 1147.41 26.84 1147.41 29.272V43.544C1147.41 44.7387 1147.05 45.6773 1146.32 46.36C1145.6 47.0427 1144.62 47.384 1143.38 47.384C1142.14 47.384 1141.16 47.0427 1140.43 46.36C1139.75 45.6773 1139.41 44.7387 1139.41 43.544V18.776C1139.41 17.6667 1139.77 16.7707 1140.5 16.088C1141.22 15.4053 1142.2 15.064 1143.44 15.064C1144.55 15.064 1145.45 15.4053 1146.13 16.088C1146.86 16.728 1147.22 17.5813 1147.22 18.648V20.376C1148.28 18.6267 1149.71 17.2827 1151.51 16.344C1153.3 15.4053 1155.32 14.936 1157.59 14.936ZM1193.1 41.432C1195.24 41.56 1196.3 42.52 1196.3 44.312C1196.3 45.336 1195.88 46.1253 1195.02 46.68C1194.21 47.192 1193.04 47.4053 1191.5 47.32L1189.78 47.192C1182.61 46.68 1179.02 42.84 1179.02 35.672V21.72H1175.82C1174.67 21.72 1173.78 21.464 1173.14 20.952C1172.54 20.44 1172.24 19.6933 1172.24 18.712C1172.24 17.7307 1172.54 16.984 1173.14 16.472C1173.78 15.96 1174.67 15.704 1175.82 15.704H1179.02V9.816C1179.02 8.664 1179.39 7.74666 1180.11 7.064C1180.84 6.38133 1181.82 6.04 1183.06 6.04C1184.25 6.04 1185.21 6.38133 1185.94 7.064C1186.66 7.74666 1187.02 8.664 1187.02 9.816V15.704H1192.46C1193.62 15.704 1194.49 15.96 1195.09 16.472C1195.73 16.984 1196.05 17.7307 1196.05 18.712C1196.05 19.6933 1195.73 20.44 1195.09 20.952C1194.49 21.464 1193.62 21.72 1192.46 21.72H1187.02V36.248C1187.02 39.4053 1188.47 41.0907 1191.38 41.304L1193.1 41.432ZM1232.12 47.512C1228.92 47.512 1226.1 46.8507 1223.67 45.528C1221.28 44.2053 1219.43 42.3067 1218.1 39.832C1216.78 37.3573 1216.12 34.4773 1216.12 31.192C1216.12 27.9067 1216.78 25.048 1218.1 22.616C1219.43 20.1413 1221.28 18.2427 1223.67 16.92C1226.1 15.5973 1228.92 14.936 1232.12 14.936C1235.32 14.936 1238.11 15.5973 1240.5 16.92C1242.94 18.2427 1244.79 20.1413 1246.07 22.616C1247.39 25.048 1248.06 27.9067 1248.06 31.192C1248.06 34.4773 1247.39 37.3573 1246.07 39.832C1244.79 42.3067 1242.94 44.2053 1240.5 45.528C1238.11 46.8507 1235.32 47.512 1232.12 47.512ZM1232.06 41.304C1234.66 41.304 1236.64 40.4507 1238.01 38.744C1239.37 37.0373 1240.06 34.52 1240.06 31.192C1240.06 27.9067 1239.37 25.4107 1238.01 23.704C1236.64 21.9547 1234.68 21.08 1232.12 21.08C1229.56 21.08 1227.58 21.9547 1226.17 23.704C1224.8 25.4107 1224.12 27.9067 1224.12 31.192C1224.12 34.52 1224.8 37.0373 1226.17 38.744C1227.53 40.4507 1229.5 41.304 1232.06 41.304ZM1272.84 14.936C1276.59 14.936 1279.39 16.0027 1281.22 18.136C1283.05 20.2693 1283.97 23.4907 1283.97 27.8V43.544C1283.97 44.7387 1283.61 45.6773 1282.88 46.36C1282.2 47.0427 1281.24 47.384 1280 47.384C1278.77 47.384 1277.79 47.0427 1277.06 46.36C1276.33 45.6773 1275.97 44.7387 1275.97 43.544V28.248C1275.97 25.816 1275.5 24.0453 1274.56 22.936C1273.67 21.8267 1272.24 21.272 1270.28 21.272C1267.97 21.272 1266.12 21.9973 1264.71 23.448C1263.34 24.8987 1262.66 26.84 1262.66 29.272V43.544C1262.66 44.7387 1262.3 45.6773 1261.57 46.36C1260.85 47.0427 1259.87 47.384 1258.63 47.384C1257.39 47.384 1256.41 47.0427 1255.68 46.36C1255 45.6773 1254.66 44.7387 1254.66 43.544V18.776C1254.66 17.6667 1255.02 16.7707 1255.75 16.088C1256.47 15.4053 1257.45 15.064 1258.69 15.064C1259.8 15.064 1260.7 15.4053 1261.38 16.088C1262.11 16.728 1262.47 17.5813 1262.47 18.648V20.376C1263.53 18.6267 1264.96 17.2827 1266.76 16.344C1268.55 15.4053 1270.57 14.936 1272.84 14.936ZM1296.07 47.384C1294.91 47.384 1293.95 47.064 1293.19 46.424C1292.46 45.7413 1292.1 44.7813 1292.1 43.544V5.336C1292.1 4.09867 1292.46 3.16 1293.19 2.52C1293.95 1.88 1294.91 1.56 1296.07 1.56C1297.22 1.56 1298.18 1.88 1298.95 2.52C1299.71 3.16 1300.1 4.09867 1300.1 5.336V43.544C1300.1 44.7813 1299.71 45.7413 1298.95 46.424C1298.18 47.064 1297.22 47.384 1296.07 47.384ZM1312.32 47.384C1311.16 47.384 1310.2 47.064 1309.44 46.424C1308.71 45.7413 1308.35 44.7813 1308.35 43.544V18.84C1308.35 17.6027 1308.71 16.664 1309.44 16.024C1310.2 15.384 1311.16 15.064 1312.32 15.064C1313.47 15.064 1314.43 15.384 1315.2 16.024C1315.96 16.664 1316.35 17.6027 1316.35 18.84V43.544C1316.35 44.7813 1315.96 45.7413 1315.2 46.424C1314.43 47.064 1313.47 47.384 1312.32 47.384ZM1312.32 9.368C1310.86 9.368 1309.71 8.984 1308.86 8.216C1308.01 7.40533 1307.58 6.36 1307.58 5.08C1307.58 3.8 1308.01 2.776 1308.86 2.008C1309.71 1.24 1310.86 0.855999 1312.32 0.855999C1313.72 0.855999 1314.85 1.24 1315.71 2.008C1316.6 2.776 1317.05 3.8 1317.05 5.08C1317.05 6.36 1316.62 7.40533 1315.77 8.216C1314.92 8.984 1313.77 9.368 1312.32 9.368ZM1342.77 14.936C1346.53 14.936 1349.32 16.0027 1351.16 18.136C1352.99 20.2693 1353.91 23.4907 1353.91 27.8V43.544C1353.91 44.7387 1353.55 45.6773 1352.82 46.36C1352.14 47.0427 1351.18 47.384 1349.94 47.384C1348.7 47.384 1347.72 47.0427 1347 46.36C1346.27 45.6773 1345.91 44.7387 1345.91 43.544V28.248C1345.91 25.816 1345.44 24.0453 1344.5 22.936C1343.61 21.8267 1342.18 21.272 1340.21 21.272C1337.91 21.272 1336.05 21.9973 1334.65 23.448C1333.28 24.8987 1332.6 26.84 1332.6 29.272V43.544C1332.6 44.7387 1332.23 45.6773 1331.51 46.36C1330.78 47.0427 1329.8 47.384 1328.57 47.384C1327.33 47.384 1326.35 47.0427 1325.62 46.36C1324.94 45.6773 1324.6 44.7387 1324.6 43.544V18.776C1324.6 17.6667 1324.96 16.7707 1325.69 16.088C1326.41 15.4053 1327.39 15.064 1328.63 15.064C1329.74 15.064 1330.63 15.4053 1331.32 16.088C1332.04 16.728 1332.41 17.5813 1332.41 18.648V20.376C1333.47 18.6267 1334.9 17.2827 1336.69 16.344C1338.49 15.4053 1340.51 14.936 1342.77 14.936ZM1386.8 38.424C1387.53 38.424 1388.1 38.7013 1388.53 39.256C1389 39.8107 1389.24 40.5573 1389.24 41.496C1389.24 42.8187 1388.45 43.928 1386.87 44.824C1385.42 45.6347 1383.77 46.296 1381.94 46.808C1380.1 47.2773 1378.36 47.512 1376.69 47.512C1371.66 47.512 1367.67 46.0613 1364.72 43.16C1361.78 40.2587 1360.31 36.2907 1360.31 31.256C1360.31 28.056 1360.95 25.2187 1362.23 22.744C1363.51 20.2693 1365.3 18.3493 1367.6 16.984C1369.95 15.6187 1372.6 14.936 1375.54 14.936C1378.36 14.936 1380.81 15.5547 1382.9 16.792C1384.99 18.0293 1386.61 19.7787 1387.76 22.04C1388.92 24.3013 1389.49 26.968 1389.49 30.04C1389.49 31.8747 1388.68 32.792 1387.06 32.792H1368.18C1368.44 35.736 1369.27 37.912 1370.68 39.32C1372.08 40.6853 1374.13 41.368 1376.82 41.368C1378.18 41.368 1379.38 41.1973 1380.4 40.856C1381.47 40.5147 1382.66 40.0453 1383.99 39.448C1385.27 38.7653 1386.21 38.424 1386.8 38.424ZM1375.73 20.568C1373.56 20.568 1371.81 21.2507 1370.48 22.616C1369.2 23.9813 1368.44 25.944 1368.18 28.504H1382.64C1382.56 25.9013 1381.92 23.9387 1380.72 22.616C1379.53 21.2507 1377.86 20.568 1375.73 20.568ZM1399.81 47.384C1398.45 47.384 1397.32 46.936 1396.42 46.04C1395.52 45.1013 1395.08 43.9493 1395.08 42.584C1395.08 41.2187 1395.52 40.088 1396.42 39.192C1397.32 38.2533 1398.45 37.784 1399.81 37.784C1401.18 37.784 1402.31 38.2533 1403.2 39.192C1404.1 40.088 1404.55 41.2187 1404.55 42.584C1404.55 43.9493 1404.1 45.1013 1403.2 46.04C1402.31 46.936 1401.18 47.384 1399.81 47.384Z" fill="white"/>
</svg>
