<svg width="383" height="305" viewBox="0 0 383 305" fill="none" xmlns="http://www.w3.org/2000/svg">
<path d="M149.256 265C148.445 265 147.784 264.765 147.272 264.296C146.803 263.827 146.568 263.208 146.568 262.44V222.44C146.568 221.672 146.803 221.053 147.272 220.584C147.784 220.115 148.445 219.88 149.256 219.88H173.192C173.96 219.88 174.557 220.072 174.984 220.456C175.411 220.84 175.624 221.373 175.624 222.056C175.624 222.739 175.411 223.272 174.984 223.656C174.557 224.04 173.96 224.232 173.192 224.232H151.752V239.912H171.912C172.68 239.912 173.277 240.104 173.704 240.488C174.131 240.872 174.344 241.405 174.344 242.088C174.344 242.771 174.131 243.304 173.704 243.688C173.277 244.072 172.68 244.264 171.912 244.264H151.752V260.648H173.192C173.96 260.648 174.557 260.84 174.984 261.224C175.411 261.565 175.624 262.099 175.624 262.824C175.624 263.507 175.411 264.04 174.984 264.424C174.557 264.808 173.96 265 173.192 265H149.256ZM217.546 219.56C218.314 219.56 218.911 219.816 219.338 220.328C219.765 220.797 219.978 221.437 219.978 222.248V262.632C219.978 263.443 219.743 264.104 219.274 264.616C218.847 265.085 218.229 265.32 217.418 265.32C216.607 265.32 215.903 264.957 215.306 264.232L188.746 228.712V262.632C188.746 263.443 188.511 264.104 188.042 264.616C187.615 265.085 187.018 265.32 186.25 265.32C185.482 265.32 184.885 265.085 184.458 264.616C184.031 264.104 183.818 263.443 183.818 262.632V222.248C183.818 221.437 184.031 220.797 184.458 220.328C184.927 219.816 185.567 219.56 186.378 219.56C187.231 219.56 187.957 219.923 188.554 220.648L215.05 256.168V222.248C215.05 221.437 215.263 220.797 215.69 220.328C216.159 219.816 216.778 219.56 217.546 219.56ZM244.699 265.32C243.888 265.32 243.227 265.085 242.715 264.616C242.245 264.104 242.01 263.443 242.01 262.632V224.36H228.251C227.483 224.36 226.885 224.168 226.459 223.784C226.032 223.4 225.819 222.845 225.819 222.12C225.819 221.395 226.032 220.84 226.459 220.456C226.885 220.072 227.483 219.88 228.251 219.88H261.083C261.851 219.88 262.448 220.072 262.875 220.456C263.301 220.84 263.515 221.395 263.515 222.12C263.515 222.845 263.301 223.4 262.875 223.784C262.448 224.168 261.851 224.36 261.083 224.36H247.323V262.632C247.323 263.443 247.088 264.104 246.619 264.616C246.149 265.085 245.509 265.32 244.699 265.32Z" fill="white"/>
<path d="M319 156.676V177.735H87V156.676C87 151.106 92.655 146.086 101.253 144.076L150.172 132.468L188.355 157.788L200.337 143.058V143.029L203 139.731L205.712 143.029L217.698 157.788L255.828 132.468L304.795 144.076C313.345 146.118 319 151.106 319 156.676Z" fill="#F2F2F2"/>
<path d="M237.22 128.093H237.268V116.106C234.731 118.427 231.782 120.784 228.356 123.141L223.619 126.291C219.269 129.146 213.083 130.811 206.654 130.811H199.404C192.976 130.811 186.784 129.149 182.439 126.291L177.703 123.141C174.237 120.764 171.255 118.375 168.708 116.03V128.073L168.785 128.096L198.607 138.246L203.005 139.734L207.404 138.246L237.22 128.093Z" fill="#F8B64C"/>
<g opacity="0.1">
<g opacity="0.1">
<path opacity="0.1" d="M190.776 129.744C190.747 129.738 190.718 129.732 190.689 129.726C190.641 129.715 190.588 129.706 190.539 129.697C190.491 129.683 190.438 129.68 190.37 129.665L208.597 137.835L237.22 128.093H237.249L237.268 116.167C237.22 116.21 230.473 121.545 228.356 123.135L223.619 126.288C219.269 129.143 213.083 130.808 206.654 130.808H199.404C197.94 130.808 196.504 130.712 195.098 130.531C193.609 130.359 192.173 130.091 190.776 129.744Z" fill="#40596B"/>
</g>
</g>
<path d="M169.08 91.6783C169.834 96.9138 165.624 101.414 159.679 101.723C153.724 102.038 148.287 98.0453 147.518 92.81C146.764 87.5745 150.974 83.08 156.929 82.765C162.879 82.45 168.326 86.44 169.08 91.6783Z" fill="#F8B64C"/>
<path d="M258.526 92.8161C257.772 98.0516 252.324 102.042 246.375 101.727C240.42 101.412 236.205 96.9171 236.974 91.6816C237.728 86.4461 243.175 82.4534 249.125 82.7684C255.079 83.0774 259.289 87.5779 258.526 92.8161Z" fill="#F8B64C"/>
<path d="M252.324 91.6957C251.41 97.5582 246.809 110.476 228.355 123.134L223.619 126.284C219.269 129.143 213.082 130.808 206.654 130.808H199.404C192.976 130.808 186.784 129.146 182.439 126.284L177.702 123.134C159.239 110.476 154.696 97.5552 153.724 91.6957C152.419 83.6165 152.951 73.35 153.724 70.6957C158.123 55.15 180.167 45.4957 203.029 45.4957C225.886 45.4957 247.926 55.15 252.324 70.6957C253.097 73.35 253.629 83.6195 252.324 91.6957Z" fill="#FFD15C"/>
<path d="M165.344 52.8663C165.344 52.8663 165.682 33.2283 212.995 39.502C212.995 39.502 236.471 43.9527 251.575 57.1188C251.575 57.1188 265.746 69.538 258.042 79.9855C255.538 83.3775 252.851 87.2598 253.16 90.3775C253.16 90.3775 250.536 83.7595 248.97 78.2443C247.66 73.6243 244.364 69.296 239.303 65.7435L239.153 65.6355C230.961 59.91 218.138 57.2325 206.011 59.1198C200.226 60.021 193.643 61.7798 186.402 64.8978C186.402 64.8978 166.692 56.9148 156.948 70.8885C156.948 70.8885 152.608 81.1028 153.222 89.1703C153.222 89.167 126.092 54.8905 165.344 52.8663Z" fill="#40596B"/>
<path d="M267.617 140.635C267.52 140.139 267.332 135.592 265.785 133.754C263.17 130.66 258.487 128.592 252.832 128.067L237.268 126.171V128.096H237.22L234.992 128.854L252.058 130.954C256.167 131.333 259.603 132.821 261.435 135.064C262.643 136.493 263.136 138.042 262.745 139.558L262.643 140.316C242.198 151.02 236.398 160.674 236.157 161.112C234.62 163.883 234.711 166.07 236.403 167.645C238.293 169.424 241.377 169.628 241.763 169.658L242.247 166.741C242.198 166.741 241.038 166.621 240.415 166.012C239.641 165.25 239.733 163.853 240.753 162.071C240.801 162.01 243.653 157.262 252.353 150.839C254.77 150.11 257.472 149.967 260.086 150.431C262.6 150.898 264.722 151.921 266.031 153.286C266.993 161.718 264.871 166.677 264.823 166.706C263.9 168.514 262.643 169.71 261.246 170.031C260.135 170.325 259.115 170.002 259.115 169.973L257.907 171.253L256.65 172.516C256.848 172.604 258.342 173.099 260.323 173.099C261.145 173.099 262.025 173.012 262.938 172.779C265.838 172.111 268.066 170.358 269.507 167.558C269.705 167.121 274.195 156.939 267.617 140.635ZM261.198 148.189C259.743 147.926 258.197 147.813 256.742 147.842C258.83 146.468 261.14 145.071 263.755 143.645C264.48 145.684 265.011 147.638 265.398 149.478C264.142 148.918 262.735 148.483 261.198 148.189Z" fill="#ACB3BA"/>
<path d="M246.017 168.713C245.63 169.886 243.74 170.65 241.797 170.419C239.864 170.189 241.241 165.939 243.184 166.17C245.127 166.401 246.398 167.541 246.017 168.713Z" fill="#F8B64C"/>
<path d="M253.851 170.172C253.03 171.26 253.813 172.543 255.616 173.042C257.418 173.54 260.41 169.606 258.607 169.104C256.819 168.605 254.683 169.084 253.851 170.172Z" fill="#F8B64C"/>
<path d="M168.78 128.093L168.703 128.07V126.168L158.253 127.466C147.103 128.852 137.721 133.145 132.491 139.241C127.271 145.342 126.894 152.447 131.471 158.736L135.899 157.563C131.916 152.086 132.226 145.899 136.788 140.582C141.336 135.274 149.514 131.532 159.22 130.327L171.028 128.86L168.78 128.093Z" fill="#ACB3BA"/>
<path d="M255.828 132.468L220.163 160.701L203 139.731L207.398 138.243L237.22 128.093H237.268L237.317 128.064L255.828 132.468Z" fill="#CDD6E0"/>
<path d="M150.172 132.468L185.895 160.701L203 139.731L198.602 138.243L168.78 128.093L168.683 128.064L150.172 132.468Z" fill="#CDD6E0"/>
<path d="M185.895 177.735L195.653 164.318L191.444 160.585L188.36 157.785L200.337 143.029L203 139.731L205.712 143.029V143.058L217.698 157.785L214.557 160.558L210.347 164.318L220.163 177.735H185.895Z" fill="#334A5E"/>
<path d="M217.698 157.785L214.556 160.558L203.048 146.351L191.444 160.585L188.36 157.785L200.337 143.029L203 139.731L205.712 143.029V143.058L217.698 157.785Z" fill="#2A4356"/>
<path d="M148.219 163.303C148.219 166.949 143.308 169.909 137.267 169.909C131.225 169.909 126.324 166.949 126.324 163.303C126.324 159.657 131.225 156.7 137.267 156.7C143.308 156.7 148.219 159.657 148.219 163.303Z" fill="#FF7058"/>
<path d="M144.623 163.303C144.623 165.753 141.336 167.739 137.276 167.739C133.207 167.739 129.915 165.75 129.915 163.303C129.915 160.856 133.212 158.867 137.276 158.867C141.336 158.867 144.623 160.853 144.623 163.303Z" fill="#F2F2F2"/>
<path d="M142.424 163.303C142.424 165.024 140.118 166.412 137.281 166.412C134.43 166.412 132.119 165.021 132.119 163.303C132.119 161.588 134.434 160.197 137.281 160.197C140.118 160.197 142.424 161.588 142.424 163.303Z" fill="#ACB3BA"/>
<rect x="0.5" y="0.5" width="382" height="304" stroke="#247707"/>
</svg>
