<svg width="302" height="44" viewBox="0 0 302 44" fill="none" xmlns="http://www.w3.org/2000/svg">
<path d="M27.328 17.384C27.808 17.384 28.192 17.528 28.48 17.816C28.8 18.104 28.96 18.504 28.96 19.016V30.968C28.96 31.736 28.832 32.312 28.576 32.696C28.352 33.08 27.92 33.384 27.28 33.608C26 34.152 24.448 34.584 22.624 34.904C20.8 35.224 18.976 35.384 17.152 35.384C13.792 35.384 10.896 34.696 8.464 33.32C6.032 31.944 4.16 29.96 2.848 27.368C1.568 24.776 0.928 21.672 0.928 18.056C0.928 14.504 1.568 11.432 2.848 8.84C4.128 6.248 5.968 4.264 8.368 2.888C10.768 1.48 13.584 0.775997 16.816 0.775997C19.056 0.775997 21.136 1.128 23.056 1.832C24.976 2.504 26.592 3.48 27.904 4.76C28.448 5.304 28.72 5.864 28.72 6.44C28.72 6.888 28.592 7.288 28.336 7.64C28.08 7.96 27.76 8.12 27.376 8.12C26.992 8.12 26.544 7.928 26.032 7.544C24.368 6.264 22.864 5.384 21.52 4.904C20.176 4.392 18.624 4.136 16.864 4.136C13.056 4.136 10.128 5.336 8.08 7.736C6.064 10.136 5.056 13.576 5.056 18.056C5.056 22.632 6.08 26.12 8.128 28.52C10.208 30.888 13.248 32.072 17.248 32.072C20.224 32.072 22.928 31.624 25.36 30.728V20.456H18.352C17.808 20.456 17.376 20.312 17.056 20.024C16.736 19.736 16.576 19.368 16.576 18.92C16.576 18.44 16.736 18.072 17.056 17.816C17.376 17.528 17.808 17.384 18.352 17.384H27.328ZM53.1824 12.344C53.5344 11.576 54.0944 11.192 54.8624 11.192C55.3424 11.192 55.7744 11.352 56.1584 11.672C56.5424 11.992 56.7344 12.392 56.7344 12.872C56.7344 13.16 56.6704 13.416 56.5424 13.64L43.0544 42.728C42.8944 43.08 42.6544 43.352 42.3344 43.544C42.0464 43.736 41.7424 43.832 41.4224 43.832C40.9424 43.832 40.5104 43.672 40.1264 43.352C39.7744 43.064 39.5984 42.68 39.5984 42.2C39.5984 41.944 39.6624 41.688 39.7904 41.432L43.1504 34.184L33.6464 13.64C33.5184 13.416 33.4544 13.176 33.4544 12.92C33.4544 12.44 33.6624 12.024 34.0784 11.672C34.5264 11.32 35.0064 11.144 35.5184 11.144C35.8384 11.144 36.1424 11.24 36.4304 11.432C36.7504 11.624 36.9904 11.896 37.1504 12.248L45.1664 30.248L53.1824 12.344ZM72.7506 11.048C78.3506 11.048 81.1506 14.136 81.1506 20.312V33.32C81.1506 33.928 80.9746 34.408 80.6226 34.76C80.3026 35.08 79.8386 35.24 79.2306 35.24C78.6226 35.24 78.1426 35.08 77.7906 34.76C77.4386 34.408 77.2626 33.928 77.2626 33.32V20.552C77.2626 18.376 76.8306 16.792 75.9666 15.8C75.1346 14.808 73.7906 14.312 71.9346 14.312C69.7906 14.312 68.0786 14.968 66.7986 16.28C65.5186 17.592 64.8786 19.368 64.8786 21.608V33.32C64.8786 33.928 64.7026 34.408 64.3506 34.76C64.0306 35.08 63.5666 35.24 62.9586 35.24C62.3506 35.24 61.8706 35.08 61.5186 34.76C61.1666 34.408 60.9906 33.928 60.9906 33.32V13.064C60.9906 12.488 61.1666 12.024 61.5186 11.672C61.8706 11.32 62.3506 11.144 62.9586 11.144C63.5346 11.144 63.9826 11.32 64.3026 11.672C64.6546 12.024 64.8306 12.472 64.8306 13.016V15.464C65.5986 14.024 66.6706 12.936 68.0466 12.2C69.4226 11.432 70.9906 11.048 72.7506 11.048ZM97.8239 11.048C103.68 11.048 106.608 14.12 106.608 20.264V33.32C106.608 33.896 106.432 34.36 106.08 34.712C105.76 35.064 105.312 35.24 104.736 35.24C104.16 35.24 103.696 35.064 103.344 34.712C102.992 34.36 102.816 33.896 102.816 33.32V31.016C102.208 32.392 101.28 33.464 100.032 34.232C98.7839 34.968 97.3439 35.336 95.7119 35.336C94.2079 35.336 92.8159 35.032 91.5359 34.424C90.2879 33.816 89.2959 32.968 88.5599 31.88C87.8239 30.792 87.4559 29.592 87.4559 28.28C87.4559 26.52 87.9039 25.16 88.7999 24.2C89.6959 23.208 91.1679 22.504 93.2159 22.088C95.2639 21.64 98.1119 21.416 101.76 21.416H102.816V19.832C102.816 17.912 102.416 16.504 101.616 15.608C100.848 14.712 99.5839 14.264 97.8239 14.264C95.6479 14.264 93.4399 14.856 91.1999 16.04C90.3359 16.584 89.7279 16.856 89.3759 16.856C88.9919 16.856 88.6719 16.712 88.4159 16.424C88.1599 16.136 88.0319 15.768 88.0319 15.32C88.0319 14.872 88.1599 14.488 88.4159 14.168C88.7039 13.816 89.1519 13.464 89.7599 13.112C90.8799 12.472 92.1439 11.976 93.5519 11.624C94.9919 11.24 96.4159 11.048 97.8239 11.048ZM96.2399 32.264C98.1599 32.264 99.7279 31.624 100.944 30.344C102.192 29.032 102.816 27.352 102.816 25.304V23.912H101.952C99.1359 23.912 96.9919 24.04 95.5199 24.296C94.0479 24.52 92.9919 24.92 92.3519 25.496C91.7439 26.04 91.4399 26.856 91.4399 27.944C91.4399 29.192 91.8879 30.232 92.7839 31.064C93.7119 31.864 94.8639 32.264 96.2399 32.264ZM131.821 29.576C132.173 29.576 132.477 29.72 132.733 30.008C132.989 30.296 133.117 30.664 133.117 31.112C133.117 31.912 132.557 32.648 131.437 33.32C130.285 33.992 129.069 34.504 127.789 34.856C126.509 35.176 125.261 35.336 124.045 35.336C120.429 35.336 117.565 34.264 115.453 32.12C113.373 29.976 112.333 27.016 112.333 23.24C112.333 20.84 112.797 18.728 113.725 16.904C114.653 15.048 115.949 13.608 117.613 12.584C119.309 11.56 121.229 11.048 123.373 11.048C126.413 11.048 128.829 12.04 130.621 14.024C132.413 16.008 133.309 18.696 133.309 22.088C133.309 22.728 133.181 23.192 132.925 23.48C132.669 23.768 132.253 23.912 131.677 23.912H116.221C116.509 29.416 119.117 32.168 124.045 32.168C125.293 32.168 126.365 32.008 127.261 31.688C128.157 31.336 129.117 30.872 130.141 30.296C130.973 29.816 131.533 29.576 131.821 29.576ZM123.421 14.072C121.373 14.072 119.725 14.712 118.477 15.992C117.261 17.272 116.541 19.08 116.317 21.416H129.901C129.837 19.048 129.245 17.24 128.125 15.992C127.005 14.712 125.437 14.072 123.421 14.072ZM148.686 35.336C146.51 35.336 144.574 34.84 142.878 33.848C141.214 32.856 139.918 31.448 138.99 29.624C138.094 27.8 137.646 25.688 137.646 23.288C137.646 20.888 138.11 18.76 139.038 16.904C139.998 15.048 141.326 13.608 143.022 12.584C144.718 11.56 146.67 11.048 148.878 11.048C150.094 11.048 151.294 11.224 152.478 11.576C153.694 11.896 154.75 12.376 155.646 13.016C156.222 13.4 156.622 13.784 156.846 14.168C157.102 14.52 157.23 14.92 157.23 15.368C157.23 15.816 157.102 16.184 156.846 16.472C156.622 16.76 156.318 16.904 155.934 16.904C155.71 16.904 155.47 16.84 155.214 16.712C154.958 16.584 154.734 16.456 154.542 16.328C154.382 16.2 154.27 16.12 154.206 16.088C153.374 15.544 152.574 15.112 151.806 14.792C151.07 14.472 150.158 14.312 149.07 14.312C146.734 14.312 144.91 15.112 143.598 16.712C142.318 18.28 141.678 20.472 141.678 23.288C141.678 26.104 142.318 28.28 143.598 29.816C144.91 31.352 146.734 32.12 149.07 32.12C150.158 32.12 151.086 31.96 151.854 31.64C152.654 31.32 153.454 30.888 154.254 30.344C154.606 30.12 154.942 29.928 155.262 29.768C155.582 29.608 155.854 29.528 156.078 29.528C156.43 29.528 156.718 29.672 156.942 29.96C157.198 30.248 157.326 30.616 157.326 31.064C157.326 31.48 157.214 31.864 156.99 32.216C156.766 32.536 156.35 32.904 155.742 33.32C154.846 33.928 153.758 34.424 152.478 34.808C151.23 35.16 149.966 35.336 148.686 35.336ZM171.702 35.336C169.494 35.336 167.542 34.84 165.846 33.848C164.182 32.856 162.886 31.448 161.958 29.624C161.062 27.768 160.614 25.624 160.614 23.192C160.614 20.76 161.062 18.632 161.958 16.808C162.886 14.952 164.182 13.528 165.846 12.536C167.542 11.544 169.494 11.048 171.702 11.048C173.91 11.048 175.862 11.544 177.558 12.536C179.254 13.528 180.55 14.952 181.446 16.808C182.374 18.632 182.838 20.76 182.838 23.192C182.838 25.624 182.374 27.768 181.446 29.624C180.55 31.448 179.254 32.856 177.558 33.848C175.862 34.84 173.91 35.336 171.702 35.336ZM171.702 32.12C174.006 32.12 175.766 31.368 176.982 29.864C178.23 28.328 178.854 26.104 178.854 23.192C178.854 20.344 178.23 18.152 176.982 16.616C175.734 15.048 173.974 14.264 171.702 14.264C169.43 14.264 167.67 15.048 166.422 16.616C165.174 18.152 164.55 20.344 164.55 23.192C164.55 26.072 165.158 28.28 166.374 29.816C167.622 31.352 169.398 32.12 171.702 32.12ZM190.599 35.24C190.023 35.24 189.543 35.08 189.159 34.76C188.807 34.408 188.631 33.928 188.631 33.32V2.84C188.631 2.232 188.807 1.768 189.159 1.448C189.543 1.096 190.023 0.919998 190.599 0.919998C191.143 0.919998 191.591 1.096 191.943 1.448C192.327 1.768 192.519 2.232 192.519 2.84V33.32C192.519 33.928 192.327 34.408 191.943 34.76C191.591 35.08 191.143 35.24 190.599 35.24ZM209.484 35.336C207.276 35.336 205.324 34.84 203.628 33.848C201.964 32.856 200.668 31.448 199.74 29.624C198.844 27.768 198.396 25.624 198.396 23.192C198.396 20.76 198.844 18.632 199.74 16.808C200.668 14.952 201.964 13.528 203.628 12.536C205.324 11.544 207.276 11.048 209.484 11.048C211.692 11.048 213.644 11.544 215.34 12.536C217.036 13.528 218.332 14.952 219.228 16.808C220.156 18.632 220.62 20.76 220.62 23.192C220.62 25.624 220.156 27.768 219.228 29.624C218.332 31.448 217.036 32.856 215.34 33.848C213.644 34.84 211.692 35.336 209.484 35.336ZM209.484 32.12C211.788 32.12 213.548 31.368 214.764 29.864C216.012 28.328 216.636 26.104 216.636 23.192C216.636 20.344 216.012 18.152 214.764 16.616C213.516 15.048 211.756 14.264 209.484 14.264C207.212 14.264 205.452 15.048 204.204 16.616C202.956 18.152 202.332 20.344 202.332 23.192C202.332 26.072 202.94 28.28 204.156 29.816C205.404 31.352 207.18 32.12 209.484 32.12ZM245.373 11.144C245.981 11.144 246.461 11.32 246.812 11.672C247.165 12.024 247.341 12.488 247.341 13.064V33.416C247.341 36.904 246.445 39.528 244.653 41.288C242.861 43.08 240.205 43.976 236.685 43.976C233.261 43.976 230.413 43.304 228.141 41.96C226.989 41.32 226.413 40.584 226.413 39.752C226.413 39.304 226.525 38.936 226.749 38.648C227.005 38.36 227.325 38.216 227.709 38.216C228.029 38.216 228.605 38.44 229.437 38.888C230.557 39.464 231.661 39.928 232.749 40.28C233.837 40.632 235.133 40.808 236.637 40.808C238.909 40.808 240.621 40.2 241.773 38.984C242.925 37.8 243.501 36.056 243.501 33.752V29.624C242.829 31.128 241.789 32.28 240.381 33.08C239.005 33.88 237.373 34.28 235.484 34.28C233.437 34.28 231.613 33.8 230.013 32.84C228.445 31.88 227.213 30.52 226.317 28.76C225.453 27 225.021 24.968 225.021 22.664C225.021 20.36 225.453 18.328 226.317 16.568C227.213 14.808 228.445 13.448 230.013 12.488C231.613 11.528 233.437 11.048 235.484 11.048C237.341 11.048 238.957 11.448 240.333 12.248C241.709 13.048 242.749 14.184 243.453 15.656V13.064C243.453 12.488 243.613 12.024 243.933 11.672C244.285 11.32 244.765 11.144 245.373 11.144ZM236.253 31.064C238.493 31.064 240.253 30.328 241.533 28.856C242.813 27.352 243.453 25.288 243.453 22.664C243.453 20.072 242.813 18.04 241.533 16.568C240.285 15.064 238.525 14.312 236.253 14.312C233.981 14.312 232.189 15.064 230.877 16.568C229.597 18.04 228.957 20.072 228.957 22.664C228.957 25.288 229.597 27.352 230.877 28.856C232.189 30.328 233.981 31.064 236.253 31.064ZM256.506 35.24C255.93 35.24 255.45 35.08 255.066 34.76C254.714 34.408 254.538 33.928 254.538 33.32V13.064C254.538 12.456 254.714 11.992 255.066 11.672C255.45 11.32 255.93 11.144 256.506 11.144C257.082 11.144 257.546 11.32 257.898 11.672C258.25 11.992 258.426 12.456 258.426 13.064V33.32C258.426 33.96 258.25 34.44 257.898 34.76C257.546 35.08 257.082 35.24 256.506 35.24ZM256.506 6.104C255.738 6.104 255.114 5.88 254.634 5.432C254.154 4.984 253.914 4.392 253.914 3.656C253.914 2.952 254.154 2.376 254.634 1.928C255.114 1.48 255.738 1.256 256.506 1.256C257.274 1.256 257.898 1.48 258.378 1.928C258.858 2.376 259.098 2.952 259.098 3.656C259.098 4.392 258.858 4.984 258.378 5.432C257.898 5.88 257.274 6.104 256.506 6.104ZM273.566 35.336C272.094 35.336 270.686 35.16 269.342 34.808C268.03 34.456 266.862 33.96 265.838 33.32C265.262 32.936 264.846 32.584 264.59 32.264C264.366 31.912 264.254 31.496 264.254 31.016C264.254 30.6 264.366 30.264 264.59 30.008C264.846 29.72 265.166 29.576 265.55 29.576C265.934 29.576 266.494 29.816 267.23 30.296C268.19 30.872 269.134 31.336 270.062 31.688C271.022 32.008 272.206 32.168 273.614 32.168C275.342 32.168 276.686 31.864 277.646 31.256C278.606 30.648 279.086 29.768 279.086 28.616C279.086 27.912 278.91 27.352 278.558 26.936C278.206 26.488 277.598 26.104 276.734 25.784C275.87 25.432 274.606 25.08 272.942 24.728C270.126 24.12 268.11 23.304 266.894 22.28C265.678 21.256 265.07 19.864 265.07 18.104C265.07 16.728 265.454 15.512 266.222 14.456C266.99 13.4 268.046 12.568 269.39 11.96C270.766 11.352 272.318 11.048 274.046 11.048C275.294 11.048 276.494 11.224 277.646 11.576C278.83 11.896 279.87 12.36 280.766 12.968C281.854 13.736 282.398 14.536 282.398 15.368C282.398 15.784 282.27 16.136 282.014 16.424C281.758 16.712 281.454 16.856 281.102 16.856C280.718 16.856 280.142 16.584 279.374 16.04C278.478 15.464 277.63 15.016 276.83 14.696C276.03 14.376 275.038 14.216 273.854 14.216C272.35 14.216 271.134 14.552 270.206 15.224C269.31 15.896 268.862 16.792 268.862 17.912C268.862 18.616 269.022 19.192 269.342 19.64C269.694 20.056 270.254 20.44 271.022 20.792C271.822 21.112 272.958 21.432 274.43 21.752C276.606 22.232 278.286 22.76 279.47 23.336C280.686 23.912 281.55 24.616 282.062 25.448C282.574 26.28 282.83 27.336 282.83 28.616C282.83 30.632 281.982 32.264 280.286 33.512C278.59 34.728 276.35 35.336 273.566 35.336ZM299.322 32.168C300.442 32.264 301.002 32.776 301.002 33.704C301.002 34.248 300.794 34.664 300.378 34.952C299.994 35.208 299.402 35.304 298.602 35.24L297.306 35.144C294.746 34.952 292.858 34.184 291.642 32.84C290.426 31.496 289.818 29.464 289.818 26.744V14.696H286.602C286.058 14.696 285.626 14.568 285.306 14.312C285.018 14.024 284.874 13.656 284.874 13.208C284.874 12.728 285.018 12.344 285.306 12.056C285.626 11.768 286.058 11.624 286.602 11.624H289.818V6.2C289.818 5.592 289.994 5.128 290.346 4.808C290.698 4.456 291.178 4.28 291.786 4.28C292.362 4.28 292.826 4.456 293.178 4.808C293.53 5.128 293.706 5.592 293.706 6.2V11.624H299.034C299.546 11.624 299.946 11.768 300.234 12.056C300.554 12.344 300.714 12.728 300.714 13.208C300.714 13.656 300.554 14.024 300.234 14.312C299.946 14.568 299.546 14.696 299.034 14.696H293.706V26.936C293.706 28.696 294.058 29.976 294.762 30.776C295.498 31.544 296.586 31.976 298.026 32.072L299.322 32.168Z" fill="white"/>
</svg>
