<svg width="745" height="146" viewBox="0 0 745 146" fill="none" xmlns="http://www.w3.org/2000/svg">
<path d="M5.46 47.384C4.22267 47.384 3.22 47 2.452 46.232C1.72667 45.464 1.364 44.4613 1.364 43.224V5.784C1.364 4.54666 1.70533 3.58666 2.388 2.904C3.11333 2.22133 4.09467 1.88 5.332 1.88H27.796C30.3987 1.88 31.7 2.98933 31.7 5.208C31.7 7.384 30.3987 8.472 27.796 8.472H9.492V20.76H26.516C29.1187 20.76 30.42 21.8693 30.42 24.088C30.42 26.264 29.1187 27.352 26.516 27.352H9.492V43.224C9.492 44.4613 9.12933 45.464 8.404 46.232C7.67867 47 6.69733 47.384 5.46 47.384ZM43.4405 47.384C42.2885 47.384 41.3285 47.064 40.5605 46.424C39.8352 45.7413 39.4725 44.7813 39.4725 43.544V18.84C39.4725 17.6027 39.8352 16.664 40.5605 16.024C41.3285 15.384 42.2885 15.064 43.4405 15.064C44.5925 15.064 45.5525 15.384 46.3205 16.024C47.0885 16.664 47.4725 17.6027 47.4725 18.84V43.544C47.4725 44.7813 47.0885 45.7413 46.3205 46.424C45.5525 47.064 44.5925 47.384 43.4405 47.384ZM43.4405 9.368C41.9898 9.368 40.8378 8.984 39.9845 8.216C39.1312 7.40533 38.7045 6.36 38.7045 5.08C38.7045 3.8 39.1312 2.776 39.9845 2.008C40.8378 1.24 41.9898 0.855999 43.4405 0.855999C44.8485 0.855999 45.9792 1.24 46.8325 2.008C47.7285 2.776 48.1765 3.8 48.1765 5.08C48.1765 6.36 47.7498 7.40533 46.8965 8.216C46.0432 8.984 44.8912 9.368 43.4405 9.368ZM73.8985 14.936C77.6532 14.936 80.4478 16.0027 82.2825 18.136C84.1172 20.2693 85.0345 23.4907 85.0345 27.8V43.544C85.0345 44.7387 84.6718 45.6773 83.9465 46.36C83.2638 47.0427 82.3038 47.384 81.0665 47.384C79.8292 47.384 78.8478 47.0427 78.1225 46.36C77.3972 45.6773 77.0345 44.7387 77.0345 43.544V28.248C77.0345 25.816 76.5652 24.0453 75.6265 22.936C74.7305 21.8267 73.3012 21.272 71.3385 21.272C69.0345 21.272 67.1785 21.9973 65.7705 23.448C64.4052 24.8987 63.7225 26.84 63.7225 29.272V43.544C63.7225 44.7387 63.3598 45.6773 62.6345 46.36C61.9092 47.0427 60.9278 47.384 59.6905 47.384C58.4532 47.384 57.4718 47.0427 56.7465 46.36C56.0638 45.6773 55.7225 44.7387 55.7225 43.544V18.776C55.7225 17.6667 56.0852 16.7707 56.8105 16.088C57.5358 15.4053 58.5172 15.064 59.7545 15.064C60.8638 15.064 61.7598 15.4053 62.4425 16.088C63.1678 16.728 63.5305 17.5813 63.5305 18.648V20.376C64.5972 18.6267 66.0265 17.2827 67.8185 16.344C69.6105 15.4053 71.6372 14.936 73.8985 14.936ZM119.272 1.56C120.467 1.56 121.448 1.90133 122.216 2.584C122.984 3.26667 123.368 4.16267 123.368 5.272V43.544C123.368 44.696 123.005 45.6133 122.28 46.296C121.555 46.9787 120.595 47.32 119.4 47.32C118.205 47.32 117.245 46.9787 116.52 46.296C115.795 45.6133 115.432 44.696 115.432 43.544V41.944C114.493 43.6933 113.128 45.0587 111.336 46.04C109.587 47.0213 107.581 47.512 105.32 47.512C102.632 47.512 100.221 46.8293 98.088 45.464C95.9973 44.0987 94.3547 42.1787 93.16 39.704C92.008 37.1867 91.432 34.3067 91.432 31.064C91.432 27.8213 92.008 24.984 93.16 22.552C94.3547 20.12 95.9973 18.2427 98.088 16.92C100.179 15.5973 102.589 14.936 105.32 14.936C107.581 14.936 109.587 15.4053 111.336 16.344C113.085 17.2827 114.429 18.6053 115.368 20.312V5.144C115.368 4.07733 115.709 3.224 116.392 2.584C117.117 1.90133 118.077 1.56 119.272 1.56ZM107.432 41.304C109.992 41.304 111.955 40.4293 113.32 38.68C114.728 36.9307 115.432 34.4347 115.432 31.192C115.432 27.9493 114.728 25.4747 113.32 23.768C111.955 22.0187 110.013 21.144 107.496 21.144C104.936 21.144 102.952 21.9973 101.544 23.704C100.136 25.4107 99.432 27.864 99.432 31.064C99.432 34.3067 100.136 36.824 101.544 38.616C102.952 40.408 104.915 41.304 107.432 41.304ZM166.957 14.936C169.687 14.936 172.098 15.5973 174.189 16.92C176.279 18.2427 177.901 20.12 179.053 22.552C180.247 24.984 180.845 27.8213 180.845 31.064C180.845 34.3067 180.247 37.1867 179.053 39.704C177.901 42.1787 176.258 44.0987 174.125 45.464C172.034 46.8293 169.645 47.512 166.957 47.512C164.695 47.512 162.669 47.0213 160.877 46.04C159.127 45.0587 157.783 43.6933 156.845 41.944V43.544C156.845 44.696 156.482 45.6133 155.757 46.296C155.031 46.9787 154.071 47.32 152.877 47.32C151.682 47.32 150.722 46.9787 149.997 46.296C149.314 45.6133 148.973 44.696 148.973 43.544V5.272C148.973 4.16267 149.335 3.26667 150.061 2.584C150.829 1.90133 151.81 1.56 153.005 1.56C154.199 1.56 155.159 1.88 155.885 2.52C156.61 3.16 156.973 4.03467 156.973 5.144V20.248C157.911 18.5413 159.255 17.24 161.005 16.344C162.754 15.4053 164.738 14.936 166.957 14.936ZM164.845 41.304C167.362 41.304 169.325 40.408 170.733 38.616C172.141 36.824 172.845 34.3067 172.845 31.064C172.845 27.864 172.141 25.4107 170.733 23.704C169.367 21.9973 167.405 21.144 164.845 21.144C162.285 21.144 160.301 22.0187 158.893 23.768C157.527 25.4747 156.845 27.9493 156.845 31.192C156.845 34.4347 157.527 36.9307 158.893 38.68C160.301 40.4293 162.285 41.304 164.845 41.304ZM212.178 38.424C212.903 38.424 213.479 38.7013 213.906 39.256C214.375 39.8107 214.61 40.5573 214.61 41.496C214.61 42.8187 213.821 43.928 212.242 44.824C210.791 45.6347 209.149 46.296 207.314 46.808C205.479 47.2773 203.73 47.512 202.066 47.512C197.031 47.512 193.042 46.0613 190.098 43.16C187.154 40.2587 185.682 36.2907 185.682 31.256C185.682 28.056 186.322 25.2187 187.602 22.744C188.882 20.2693 190.674 18.3493 192.978 16.984C195.325 15.6187 197.97 14.936 200.914 14.936C203.73 14.936 206.183 15.5547 208.274 16.792C210.365 18.0293 211.986 19.7787 213.138 22.04C214.29 24.3013 214.866 26.968 214.866 30.04C214.866 31.8747 214.055 32.792 212.434 32.792H193.554C193.81 35.736 194.642 37.912 196.05 39.32C197.458 40.6853 199.506 41.368 202.194 41.368C203.559 41.368 204.754 41.1973 205.778 40.856C206.845 40.5147 208.039 40.0453 209.362 39.448C210.642 38.7653 211.581 38.424 212.178 38.424ZM201.106 20.568C198.93 20.568 197.181 21.2507 195.858 22.616C194.578 23.9813 193.81 25.944 193.554 28.504H208.018C207.933 25.9013 207.293 23.9387 206.098 22.616C204.903 21.2507 203.239 20.568 201.106 20.568ZM232.738 47.512C228.087 47.512 224.333 46.5947 221.474 44.76C220.109 43.9493 219.426 42.7973 219.426 41.304C219.426 40.4507 219.661 39.768 220.13 39.256C220.599 38.7013 221.175 38.424 221.858 38.424C222.583 38.424 223.586 38.7653 224.866 39.448C226.231 40.088 227.469 40.5787 228.578 40.92C229.73 41.2613 231.181 41.432 232.93 41.432C234.722 41.432 236.109 41.1333 237.09 40.536C238.114 39.9387 238.626 39.1067 238.626 38.04C238.626 37.3147 238.413 36.7387 237.986 36.312C237.602 35.8853 236.877 35.5013 235.81 35.16C234.786 34.776 233.207 34.3493 231.074 33.88C227.277 33.112 224.546 32.024 222.882 30.616C221.261 29.208 220.45 27.2667 220.45 24.792C220.45 22.9147 221.005 21.2293 222.114 19.736C223.223 18.2 224.738 17.0267 226.658 16.216C228.621 15.3627 230.839 14.936 233.314 14.936C235.106 14.936 236.834 15.1707 238.498 15.64C240.162 16.0667 241.655 16.7067 242.978 17.56C244.343 18.4133 245.026 19.544 245.026 20.952C245.026 21.8053 244.791 22.5307 244.322 23.128C243.853 23.6827 243.277 23.96 242.594 23.96C242.125 23.96 241.655 23.8747 241.186 23.704C240.759 23.4907 240.205 23.192 239.522 22.808C238.285 22.168 237.218 21.6987 236.322 21.4C235.426 21.0587 234.317 20.888 232.994 20.888C231.415 20.888 230.157 21.208 229.218 21.848C228.322 22.488 227.874 23.3627 227.874 24.472C227.874 25.5387 228.343 26.3493 229.282 26.904C230.221 27.4587 232.034 28.0133 234.722 28.568C237.581 29.1653 239.821 29.848 241.442 30.616C243.063 31.384 244.215 32.344 244.898 33.496C245.623 34.648 245.986 36.12 245.986 37.912C245.986 40.8133 244.77 43.1387 242.338 44.888C239.949 46.6373 236.749 47.512 232.738 47.512ZM268.416 41.432C270.549 41.56 271.616 42.52 271.616 44.312C271.616 45.336 271.189 46.1253 270.336 46.68C269.525 47.192 268.352 47.4053 266.816 47.32L265.088 47.192C257.92 46.68 254.336 42.84 254.336 35.672V21.72H251.136C249.984 21.72 249.088 21.464 248.448 20.952C247.851 20.44 247.552 19.6933 247.552 18.712C247.552 17.7307 247.851 16.984 248.448 16.472C249.088 15.96 249.984 15.704 251.136 15.704H254.336V9.816C254.336 8.664 254.699 7.74666 255.424 7.064C256.149 6.38133 257.131 6.04 258.368 6.04C259.563 6.04 260.523 6.38133 261.248 7.064C261.973 7.74666 262.336 8.664 262.336 9.816V15.704H267.776C268.928 15.704 269.803 15.96 270.4 16.472C271.04 16.984 271.36 17.7307 271.36 18.712C271.36 19.6933 271.04 20.44 270.4 20.952C269.803 21.464 268.928 21.72 267.776 21.72H262.336V36.248C262.336 39.4053 263.787 41.0907 266.688 41.304L268.416 41.432ZM319.272 1.56C320.467 1.56 321.448 1.90133 322.216 2.584C322.984 3.26667 323.368 4.16267 323.368 5.272V43.544C323.368 44.696 323.005 45.6133 322.28 46.296C321.555 46.9787 320.595 47.32 319.4 47.32C318.205 47.32 317.245 46.9787 316.52 46.296C315.795 45.6133 315.432 44.696 315.432 43.544V41.944C314.493 43.6933 313.128 45.0587 311.336 46.04C309.587 47.0213 307.581 47.512 305.32 47.512C302.632 47.512 300.221 46.8293 298.088 45.464C295.997 44.0987 294.355 42.1787 293.16 39.704C292.008 37.1867 291.432 34.3067 291.432 31.064C291.432 27.8213 292.008 24.984 293.16 22.552C294.355 20.12 295.997 18.2427 298.088 16.92C300.179 15.5973 302.589 14.936 305.32 14.936C307.581 14.936 309.587 15.4053 311.336 16.344C313.085 17.2827 314.429 18.6053 315.368 20.312V5.144C315.368 4.07733 315.709 3.224 316.392 2.584C317.117 1.90133 318.077 1.56 319.272 1.56ZM307.432 41.304C309.992 41.304 311.955 40.4293 313.32 38.68C314.728 36.9307 315.432 34.4347 315.432 31.192C315.432 27.9493 314.728 25.4747 313.32 23.768C311.955 22.0187 310.013 21.144 307.496 21.144C304.936 21.144 302.952 21.9973 301.544 23.704C300.136 25.4107 299.432 27.864 299.432 31.064C299.432 34.3067 300.136 36.824 301.544 38.616C302.952 40.408 304.915 41.304 307.432 41.304ZM345.87 47.512C342.67 47.512 339.854 46.8507 337.422 45.528C335.032 44.2053 333.176 42.3067 331.854 39.832C330.531 37.3573 329.87 34.4773 329.87 31.192C329.87 27.9067 330.531 25.048 331.854 22.616C333.176 20.1413 335.032 18.2427 337.422 16.92C339.854 15.5973 342.67 14.936 345.87 14.936C349.07 14.936 351.864 15.5973 354.254 16.92C356.686 18.2427 358.542 20.1413 359.822 22.616C361.144 25.048 361.806 27.9067 361.806 31.192C361.806 34.4773 361.144 37.3573 359.822 39.832C358.542 42.3067 356.686 44.2053 354.254 45.528C351.864 46.8507 349.07 47.512 345.87 47.512ZM345.806 41.304C348.408 41.304 350.392 40.4507 351.758 38.744C353.123 37.0373 353.806 34.52 353.806 31.192C353.806 27.9067 353.123 25.4107 351.758 23.704C350.392 21.9547 348.43 21.08 345.87 21.08C343.31 21.08 341.326 21.9547 339.918 23.704C338.552 25.4107 337.87 27.9067 337.87 31.192C337.87 34.52 338.552 37.0373 339.918 38.744C341.283 40.4507 343.246 41.304 345.806 41.304ZM382.298 47.512C379.183 47.512 376.431 46.8507 374.042 45.528C371.695 44.2053 369.882 42.328 368.602 39.896C367.322 37.464 366.682 34.6267 366.682 31.384C366.682 28.1413 367.343 25.2827 368.666 22.808C370.031 20.2907 371.93 18.3493 374.362 16.984C376.794 15.6187 379.589 14.936 382.746 14.936C384.41 14.936 386.074 15.1707 387.738 15.64C389.445 16.1093 390.938 16.7493 392.218 17.56C393.583 18.456 394.266 19.5867 394.266 20.952C394.266 21.8907 394.031 22.6587 393.562 23.256C393.135 23.8107 392.559 24.088 391.834 24.088C391.365 24.088 390.874 23.9813 390.362 23.768C389.85 23.5547 389.338 23.2987 388.826 23C387.887 22.4453 386.991 22.0187 386.138 21.72C385.285 21.3787 384.303 21.208 383.194 21.208C380.549 21.208 378.501 22.0827 377.05 23.832C375.642 25.5387 374.938 28.0133 374.938 31.256C374.938 34.456 375.642 36.9307 377.05 38.68C378.501 40.3867 380.549 41.24 383.194 41.24C384.261 41.24 385.199 41.0907 386.01 40.792C386.863 40.4507 387.802 40.0027 388.826 39.448C389.466 39.064 390.021 38.7867 390.49 38.616C390.959 38.4027 391.429 38.296 391.898 38.296C392.581 38.296 393.157 38.5947 393.626 39.192C394.095 39.7893 394.33 40.536 394.33 41.432C394.33 42.1573 394.159 42.7973 393.818 43.352C393.519 43.864 393.007 44.3333 392.282 44.76C390.959 45.6133 389.423 46.296 387.674 46.808C385.925 47.2773 384.133 47.512 382.298 47.512ZM416.104 41.432C418.237 41.56 419.304 42.52 419.304 44.312C419.304 45.336 418.877 46.1253 418.024 46.68C417.213 47.192 416.04 47.4053 414.503 47.32L412.776 47.192C405.608 46.68 402.024 42.84 402.024 35.672V21.72H398.824C397.672 21.72 396.776 21.464 396.136 20.952C395.538 20.44 395.239 19.6933 395.239 18.712C395.239 17.7307 395.538 16.984 396.136 16.472C396.776 15.96 397.672 15.704 398.824 15.704H402.024V9.816C402.024 8.664 402.386 7.74666 403.112 7.064C403.837 6.38133 404.818 6.04 406.056 6.04C407.25 6.04 408.21 6.38133 408.936 7.064C409.661 7.74666 410.024 8.664 410.024 9.816V15.704H415.464C416.616 15.704 417.49 15.96 418.088 16.472C418.728 16.984 419.048 17.7307 419.048 18.712C419.048 19.6933 418.728 20.44 418.088 20.952C417.49 21.464 416.616 21.72 415.464 21.72H410.024V36.248C410.024 39.4053 411.474 41.0907 414.376 41.304L416.104 41.432ZM437.745 47.512C434.545 47.512 431.729 46.8507 429.297 45.528C426.907 44.2053 425.051 42.3067 423.729 39.832C422.406 37.3573 421.745 34.4773 421.745 31.192C421.745 27.9067 422.406 25.048 423.729 22.616C425.051 20.1413 426.907 18.2427 429.297 16.92C431.729 15.5973 434.545 14.936 437.745 14.936C440.945 14.936 443.739 15.5973 446.129 16.92C448.561 18.2427 450.417 20.1413 451.697 22.616C453.019 25.048 453.681 27.9067 453.681 31.192C453.681 34.4773 453.019 37.3573 451.697 39.832C450.417 42.3067 448.561 44.2053 446.129 45.528C443.739 46.8507 440.945 47.512 437.745 47.512ZM437.681 41.304C440.283 41.304 442.267 40.4507 443.633 38.744C444.998 37.0373 445.681 34.52 445.681 31.192C445.681 27.9067 444.998 25.4107 443.633 23.704C442.267 21.9547 440.305 21.08 437.745 21.08C435.185 21.08 433.201 21.9547 431.793 23.704C430.427 25.4107 429.745 27.9067 429.745 31.192C429.745 34.52 430.427 37.0373 431.793 38.744C433.158 40.4507 435.121 41.304 437.681 41.304ZM477.757 15.064C478.866 14.9787 479.741 15.2133 480.381 15.768C481.021 16.3227 481.341 17.1547 481.341 18.264C481.341 19.416 481.064 20.2693 480.509 20.824C479.954 21.3787 478.952 21.7413 477.501 21.912L475.581 22.104C473.064 22.36 471.208 23.2133 470.013 24.664C468.861 26.1147 468.285 27.928 468.285 30.104V43.544C468.285 44.7813 467.901 45.7413 467.133 46.424C466.365 47.064 465.405 47.384 464.253 47.384C463.101 47.384 462.141 47.064 461.373 46.424C460.648 45.7413 460.285 44.7813 460.285 43.544V18.776C460.285 17.5813 460.648 16.664 461.373 16.024C462.141 15.384 463.08 15.064 464.189 15.064C465.298 15.064 466.194 15.384 466.877 16.024C467.56 16.6213 467.901 17.496 467.901 18.648V21.208C468.712 19.3307 469.906 17.88 471.485 16.856C473.106 15.832 474.898 15.256 476.861 15.128L477.757 15.064ZM495.801 47.512C491.15 47.512 487.395 46.5947 484.536 44.76C483.171 43.9493 482.489 42.7973 482.489 41.304C482.489 40.4507 482.723 39.768 483.193 39.256C483.662 38.7013 484.238 38.424 484.921 38.424C485.646 38.424 486.649 38.7653 487.929 39.448C489.294 40.088 490.531 40.5787 491.641 40.92C492.793 41.2613 494.243 41.432 495.993 41.432C497.785 41.432 499.171 41.1333 500.153 40.536C501.177 39.9387 501.689 39.1067 501.689 38.04C501.689 37.3147 501.475 36.7387 501.049 36.312C500.665 35.8853 499.939 35.5013 498.873 35.16C497.849 34.776 496.27 34.3493 494.137 33.88C490.339 33.112 487.609 32.024 485.945 30.616C484.323 29.208 483.513 27.2667 483.513 24.792C483.513 22.9147 484.067 21.2293 485.177 19.736C486.286 18.2 487.801 17.0267 489.72 16.216C491.683 15.3627 493.902 14.936 496.377 14.936C498.169 14.936 499.897 15.1707 501.561 15.64C503.225 16.0667 504.718 16.7067 506.041 17.56C507.406 18.4133 508.089 19.544 508.089 20.952C508.089 21.8053 507.854 22.5307 507.385 23.128C506.915 23.6827 506.339 23.96 505.657 23.96C505.187 23.96 504.718 23.8747 504.249 23.704C503.822 23.4907 503.267 23.192 502.585 22.808C501.347 22.168 500.281 21.6987 499.385 21.4C498.489 21.0587 497.379 20.888 496.057 20.888C494.478 20.888 493.219 21.208 492.281 21.848C491.385 22.488 490.937 23.3627 490.937 24.472C490.937 25.5387 491.406 26.3493 492.345 26.904C493.283 27.4587 495.097 28.0133 497.785 28.568C500.643 29.1653 502.883 29.848 504.505 30.616C506.126 31.384 507.278 32.344 507.961 33.496C508.686 34.648 509.049 36.12 509.049 37.912C509.049 40.8133 507.833 43.1387 505.401 44.888C503.011 46.6373 499.811 47.512 495.801 47.512ZM546.478 14.936C550.83 14.936 554.051 16.024 556.142 18.2C558.275 20.3333 559.342 23.5973 559.342 27.992V43.608C559.342 44.76 559.001 45.6773 558.318 46.36C557.635 47 556.697 47.32 555.502 47.32C554.393 47.32 553.475 46.9787 552.75 46.296C552.067 45.6133 551.726 44.7173 551.726 43.608V42.2C551.001 43.864 549.849 45.1653 548.27 46.104C546.734 47.0427 544.942 47.512 542.894 47.512C540.803 47.512 538.905 47.0853 537.198 46.232C535.491 45.3787 534.147 44.2053 533.166 42.712C532.185 41.2187 531.694 39.5547 531.694 37.72C531.694 35.416 532.27 33.6027 533.422 32.28C534.617 30.9573 536.537 29.9973 539.182 29.4C541.827 28.8027 545.475 28.504 550.126 28.504H551.726V27.032C551.726 24.9413 551.278 23.4267 550.382 22.488C549.486 21.5067 548.035 21.016 546.03 21.016C544.793 21.016 543.534 21.208 542.254 21.592C540.974 21.9333 539.459 22.4453 537.71 23.128C536.601 23.6827 535.79 23.96 535.278 23.96C534.51 23.96 533.87 23.6827 533.358 23.128C532.889 22.5733 532.654 21.848 532.654 20.952C532.654 20.2267 532.825 19.608 533.166 19.096C533.55 18.5413 534.169 18.0293 535.022 17.56C536.515 16.7493 538.286 16.1093 540.334 15.64C542.425 15.1707 544.473 14.936 546.478 14.936ZM544.494 41.752C546.627 41.752 548.355 41.048 549.678 39.64C551.043 38.1893 551.726 36.3333 551.726 34.072V32.728H550.574C547.715 32.728 545.497 32.856 543.918 33.112C542.339 33.368 541.209 33.816 540.526 34.456C539.843 35.096 539.502 35.9707 539.502 37.08C539.502 38.4453 539.971 39.576 540.91 40.472C541.891 41.3253 543.086 41.752 544.494 41.752ZM585.649 14.936C589.403 14.936 592.198 16.0027 594.033 18.136C595.867 20.2693 596.785 23.4907 596.785 27.8V43.544C596.785 44.7387 596.422 45.6773 595.697 46.36C595.014 47.0427 594.054 47.384 592.817 47.384C591.579 47.384 590.598 47.0427 589.873 46.36C589.147 45.6773 588.785 44.7387 588.785 43.544V28.248C588.785 25.816 588.315 24.0453 587.377 22.936C586.481 21.8267 585.051 21.272 583.089 21.272C580.785 21.272 578.929 21.9973 577.521 23.448C576.155 24.8987 575.473 26.84 575.473 29.272V43.544C575.473 44.7387 575.11 45.6773 574.385 46.36C573.659 47.0427 572.678 47.384 571.441 47.384C570.203 47.384 569.222 47.0427 568.497 46.36C567.814 45.6773 567.473 44.7387 567.473 43.544V18.776C567.473 17.6667 567.835 16.7707 568.561 16.088C569.286 15.4053 570.267 15.064 571.505 15.064C572.614 15.064 573.51 15.4053 574.193 16.088C574.918 16.728 575.281 17.5813 575.281 18.648V20.376C576.347 18.6267 577.777 17.2827 579.569 16.344C581.361 15.4053 583.387 14.936 585.649 14.936ZM631.022 1.56C632.217 1.56 633.198 1.90133 633.966 2.584C634.734 3.26667 635.118 4.16267 635.118 5.272V43.544C635.118 44.696 634.755 45.6133 634.03 46.296C633.305 46.9787 632.345 47.32 631.15 47.32C629.955 47.32 628.995 46.9787 628.27 46.296C627.545 45.6133 627.182 44.696 627.182 43.544V41.944C626.243 43.6933 624.878 45.0587 623.086 46.04C621.337 47.0213 619.331 47.512 617.07 47.512C614.382 47.512 611.971 46.8293 609.838 45.464C607.747 44.0987 606.105 42.1787 604.91 39.704C603.758 37.1867 603.182 34.3067 603.182 31.064C603.182 27.8213 603.758 24.984 604.91 22.552C606.105 20.12 607.747 18.2427 609.838 16.92C611.929 15.5973 614.339 14.936 617.07 14.936C619.331 14.936 621.337 15.4053 623.086 16.344C624.835 17.2827 626.179 18.6053 627.118 20.312V5.144C627.118 4.07733 627.459 3.224 628.142 2.584C628.867 1.90133 629.827 1.56 631.022 1.56ZM619.182 41.304C621.742 41.304 623.705 40.4293 625.07 38.68C626.478 36.9307 627.182 34.4347 627.182 31.192C627.182 27.9493 626.478 25.4747 625.07 23.768C623.705 22.0187 621.763 21.144 619.246 21.144C616.686 21.144 614.702 21.9973 613.294 23.704C611.886 25.4107 611.182 27.864 611.182 31.064C611.182 34.3067 611.886 36.824 613.294 38.616C614.702 40.408 616.665 41.304 619.182 41.304Z" fill="white"/>
<path d="M18.644 101.936C21.3747 101.936 23.7853 102.597 25.876 103.92C27.9667 105.243 29.588 107.12 30.74 109.552C31.9347 111.984 32.532 114.821 32.532 118.064C32.532 121.307 31.9347 124.187 30.74 126.704C29.588 129.179 27.9453 131.099 25.812 132.464C23.7213 133.829 21.332 134.512 18.644 134.512C16.3827 134.512 14.356 134.021 12.564 133.04C10.8147 132.059 9.47067 130.693 8.532 128.944V130.544C8.532 131.696 8.16933 132.613 7.444 133.296C6.71867 133.979 5.75867 134.32 4.564 134.32C3.36933 134.32 2.40933 133.979 1.684 133.296C1.00133 132.613 0.66 131.696 0.66 130.544V92.272C0.66 91.1627 1.02267 90.2667 1.748 89.584C2.516 88.9013 3.49733 88.56 4.692 88.56C5.88667 88.56 6.84667 88.88 7.572 89.52C8.29733 90.16 8.66 91.0347 8.66 92.144V107.248C9.59867 105.541 10.9427 104.24 12.692 103.344C14.4413 102.405 16.4253 101.936 18.644 101.936ZM16.532 128.304C19.0493 128.304 21.012 127.408 22.42 125.616C23.828 123.824 24.532 121.307 24.532 118.064C24.532 114.864 23.828 112.411 22.42 110.704C21.0547 108.997 19.092 108.144 16.532 108.144C13.972 108.144 11.988 109.019 10.58 110.768C9.21467 112.475 8.532 114.949 8.532 118.192C8.532 121.435 9.21467 123.931 10.58 125.68C11.988 127.429 13.972 128.304 16.532 128.304ZM53.3695 134.512C50.1695 134.512 47.3535 133.851 44.9215 132.528C42.5322 131.205 40.6762 129.307 39.3535 126.832C38.0308 124.357 37.3695 121.477 37.3695 118.192C37.3695 114.907 38.0308 112.048 39.3535 109.616C40.6762 107.141 42.5322 105.243 44.9215 103.92C47.3535 102.597 50.1695 101.936 53.3695 101.936C56.5695 101.936 59.3642 102.597 61.7535 103.92C64.1855 105.243 66.0415 107.141 67.3215 109.616C68.6442 112.048 69.3055 114.907 69.3055 118.192C69.3055 121.477 68.6442 124.357 67.3215 126.832C66.0415 129.307 64.1855 131.205 61.7535 132.528C59.3642 133.851 56.5695 134.512 53.3695 134.512ZM53.3055 128.304C55.9082 128.304 57.8922 127.451 59.2575 125.744C60.6228 124.037 61.3055 121.52 61.3055 118.192C61.3055 114.907 60.6228 112.411 59.2575 110.704C57.8922 108.955 55.9295 108.08 53.3695 108.08C50.8095 108.08 48.8255 108.955 47.4175 110.704C46.0522 112.411 45.3695 114.907 45.3695 118.192C45.3695 121.52 46.0522 124.037 47.4175 125.744C48.7828 127.451 50.7455 128.304 53.3055 128.304ZM90.182 134.512C86.982 134.512 84.166 133.851 81.734 132.528C79.3447 131.205 77.4887 129.307 76.166 126.832C74.8433 124.357 74.182 121.477 74.182 118.192C74.182 114.907 74.8433 112.048 76.166 109.616C77.4887 107.141 79.3447 105.243 81.734 103.92C84.166 102.597 86.982 101.936 90.182 101.936C93.382 101.936 96.1767 102.597 98.566 103.92C100.998 105.243 102.854 107.141 104.134 109.616C105.457 112.048 106.118 114.907 106.118 118.192C106.118 121.477 105.457 124.357 104.134 126.832C102.854 129.307 100.998 131.205 98.566 132.528C96.1767 133.851 93.382 134.512 90.182 134.512ZM90.118 128.304C92.7207 128.304 94.7047 127.451 96.07 125.744C97.4353 124.037 98.118 121.52 98.118 118.192C98.118 114.907 97.4353 112.411 96.07 110.704C94.7047 108.955 92.742 108.08 90.182 108.08C87.622 108.08 85.638 108.955 84.23 110.704C82.8647 112.411 82.182 114.907 82.182 118.192C82.182 121.52 82.8647 124.037 84.23 125.744C85.5953 127.451 87.558 128.304 90.118 128.304ZM140.562 127.792C141.416 128.603 141.843 129.52 141.843 130.544C141.843 131.525 141.48 132.4 140.755 133.168C140.072 133.936 139.261 134.32 138.323 134.32C137.384 134.32 136.509 133.936 135.699 133.168L120.723 119.6V130.544C120.723 131.781 120.339 132.72 119.571 133.36C118.803 134 117.843 134.32 116.691 134.32C115.539 134.32 114.579 134 113.811 133.36C113.085 132.72 112.723 131.781 112.723 130.544V92.336C112.723 91.0987 113.085 90.16 113.811 89.52C114.579 88.88 115.539 88.56 116.691 88.56C117.843 88.56 118.803 88.88 119.571 89.52C120.339 90.16 120.723 91.0987 120.723 92.336V116.4L134.419 103.28C135.187 102.512 136.061 102.128 137.043 102.128C138.024 102.128 138.877 102.491 139.603 103.216C140.328 103.941 140.691 104.795 140.691 105.776C140.691 106.757 140.285 107.653 139.475 108.464L129.427 117.808L140.562 127.792ZM177.978 101.936C182.33 101.936 185.551 103.024 187.642 105.2C189.775 107.333 190.842 110.597 190.842 114.992V130.608C190.842 131.76 190.501 132.677 189.818 133.36C189.135 134 188.197 134.32 187.002 134.32C185.893 134.32 184.975 133.979 184.25 133.296C183.567 132.613 183.226 131.717 183.226 130.608V129.2C182.501 130.864 181.349 132.165 179.77 133.104C178.234 134.043 176.442 134.512 174.394 134.512C172.303 134.512 170.405 134.085 168.698 133.232C166.991 132.379 165.647 131.205 164.666 129.712C163.685 128.219 163.194 126.555 163.194 124.72C163.194 122.416 163.77 120.603 164.922 119.28C166.117 117.957 168.037 116.997 170.682 116.4C173.327 115.803 176.975 115.504 181.626 115.504H183.226V114.032C183.226 111.941 182.778 110.427 181.882 109.488C180.986 108.507 179.535 108.016 177.53 108.016C176.293 108.016 175.034 108.208 173.754 108.592C172.474 108.933 170.959 109.445 169.21 110.128C168.101 110.683 167.29 110.96 166.778 110.96C166.01 110.96 165.37 110.683 164.858 110.128C164.389 109.573 164.154 108.848 164.154 107.952C164.154 107.227 164.325 106.608 164.666 106.096C165.05 105.541 165.669 105.029 166.522 104.56C168.015 103.749 169.786 103.109 171.834 102.64C173.925 102.171 175.973 101.936 177.978 101.936ZM175.994 128.752C178.127 128.752 179.855 128.048 181.178 126.64C182.543 125.189 183.226 123.333 183.226 121.072V119.728H182.074C179.215 119.728 176.997 119.856 175.418 120.112C173.839 120.368 172.709 120.816 172.026 121.456C171.343 122.096 171.002 122.971 171.002 124.08C171.002 125.445 171.471 126.576 172.41 127.472C173.391 128.325 174.586 128.752 175.994 128.752ZM216.957 101.936C219.645 101.936 222.034 102.619 224.125 103.984C226.258 105.349 227.901 107.291 229.053 109.808C230.247 112.283 230.845 115.141 230.845 118.384C230.845 121.627 230.247 124.464 229.053 126.896C227.901 129.328 226.279 131.205 224.189 132.528C222.098 133.851 219.687 134.512 216.957 134.512C214.738 134.512 212.754 134.043 211.005 133.104C209.255 132.165 207.911 130.864 206.973 129.2V142.256C206.973 143.365 206.61 144.24 205.885 144.88C205.159 145.52 204.199 145.84 203.005 145.84C201.81 145.84 200.829 145.499 200.061 144.816C199.335 144.133 198.973 143.237 198.973 142.128V105.84C198.973 104.688 199.314 103.771 199.997 103.088C200.722 102.405 201.682 102.064 202.877 102.064C204.071 102.064 205.031 102.405 205.757 103.088C206.482 103.771 206.845 104.688 206.845 105.84V107.44C207.783 105.691 209.127 104.347 210.877 103.408C212.669 102.427 214.695 101.936 216.957 101.936ZM214.845 128.304C217.362 128.304 219.325 127.451 220.733 125.744C222.141 123.995 222.845 121.541 222.845 118.384C222.845 115.141 222.141 112.624 220.733 110.832C219.325 109.04 217.362 108.144 214.845 108.144C212.285 108.144 210.301 109.019 208.893 110.768C207.527 112.517 206.845 115.013 206.845 118.256C206.845 121.456 207.527 123.931 208.893 125.68C210.301 127.429 212.285 128.304 214.845 128.304ZM255.394 101.936C258.082 101.936 260.471 102.619 262.562 103.984C264.695 105.349 266.338 107.291 267.49 109.808C268.685 112.283 269.282 115.141 269.282 118.384C269.282 121.627 268.685 124.464 267.49 126.896C266.338 129.328 264.717 131.205 262.626 132.528C260.535 133.851 258.125 134.512 255.394 134.512C253.175 134.512 251.191 134.043 249.442 133.104C247.693 132.165 246.349 130.864 245.41 129.2V142.256C245.41 143.365 245.047 144.24 244.322 144.88C243.597 145.52 242.637 145.84 241.442 145.84C240.247 145.84 239.266 145.499 238.498 144.816C237.773 144.133 237.41 143.237 237.41 142.128V105.84C237.41 104.688 237.751 103.771 238.434 103.088C239.159 102.405 240.119 102.064 241.314 102.064C242.509 102.064 243.469 102.405 244.194 103.088C244.919 103.771 245.282 104.688 245.282 105.84V107.44C246.221 105.691 247.565 104.347 249.314 103.408C251.106 102.427 253.133 101.936 255.394 101.936ZM253.282 128.304C255.799 128.304 257.762 127.451 259.17 125.744C260.578 123.995 261.282 121.541 261.282 118.384C261.282 115.141 260.578 112.624 259.17 110.832C257.762 109.04 255.799 108.144 253.282 108.144C250.722 108.144 248.738 109.019 247.33 110.768C245.965 112.517 245.282 115.013 245.282 118.256C245.282 121.456 245.965 123.931 247.33 125.68C248.738 127.429 250.722 128.304 253.282 128.304ZM290.12 134.512C286.92 134.512 284.104 133.851 281.672 132.528C279.282 131.205 277.426 129.307 276.104 126.832C274.781 124.357 274.12 121.477 274.12 118.192C274.12 114.907 274.781 112.048 276.104 109.616C277.426 107.141 279.282 105.243 281.672 103.92C284.104 102.597 286.92 101.936 290.12 101.936C293.32 101.936 296.114 102.597 298.504 103.92C300.936 105.243 302.792 107.141 304.072 109.616C305.394 112.048 306.056 114.907 306.056 118.192C306.056 121.477 305.394 124.357 304.072 126.832C302.792 129.307 300.936 131.205 298.504 132.528C296.114 133.851 293.32 134.512 290.12 134.512ZM290.056 128.304C292.658 128.304 294.642 127.451 296.008 125.744C297.373 124.037 298.056 121.52 298.056 118.192C298.056 114.907 297.373 112.411 296.008 110.704C294.642 108.955 292.68 108.08 290.12 108.08C287.56 108.08 285.576 108.955 284.168 110.704C282.802 112.411 282.12 114.907 282.12 118.192C282.12 121.52 282.802 124.037 284.168 125.744C285.533 127.451 287.496 128.304 290.056 128.304ZM316.628 134.384C315.476 134.384 314.516 134.064 313.748 133.424C313.023 132.741 312.66 131.781 312.66 130.544V105.84C312.66 104.603 313.023 103.664 313.748 103.024C314.516 102.384 315.476 102.064 316.628 102.064C317.78 102.064 318.74 102.384 319.508 103.024C320.276 103.664 320.66 104.603 320.66 105.84V130.544C320.66 131.781 320.276 132.741 319.508 133.424C318.74 134.064 317.78 134.384 316.628 134.384ZM316.628 96.368C315.177 96.368 314.025 95.984 313.172 95.216C312.319 94.4053 311.892 93.36 311.892 92.08C311.892 90.8 312.319 89.776 313.172 89.008C314.025 88.24 315.177 87.856 316.628 87.856C318.036 87.856 319.167 88.24 320.02 89.008C320.916 89.776 321.364 90.8 321.364 92.08C321.364 93.36 320.937 94.4053 320.084 95.216C319.231 95.984 318.079 96.368 316.628 96.368ZM347.086 101.936C350.841 101.936 353.635 103.003 355.47 105.136C357.305 107.269 358.222 110.491 358.222 114.8V130.544C358.222 131.739 357.859 132.677 357.134 133.36C356.451 134.043 355.491 134.384 354.254 134.384C353.017 134.384 352.035 134.043 351.31 133.36C350.585 132.677 350.222 131.739 350.222 130.544V115.248C350.222 112.816 349.753 111.045 348.814 109.936C347.918 108.827 346.489 108.272 344.526 108.272C342.222 108.272 340.366 108.997 338.958 110.448C337.593 111.899 336.91 113.84 336.91 116.272V130.544C336.91 131.739 336.547 132.677 335.822 133.36C335.097 134.043 334.115 134.384 332.878 134.384C331.641 134.384 330.659 134.043 329.934 133.36C329.251 132.677 328.91 131.739 328.91 130.544V105.776C328.91 104.667 329.273 103.771 329.998 103.088C330.723 102.405 331.705 102.064 332.942 102.064C334.051 102.064 334.947 102.405 335.63 103.088C336.355 103.728 336.718 104.581 336.718 105.648V107.376C337.785 105.627 339.214 104.283 341.006 103.344C342.798 102.405 344.825 101.936 347.086 101.936ZM382.604 128.432C384.737 128.56 385.804 129.52 385.804 131.312C385.804 132.336 385.377 133.125 384.524 133.68C383.713 134.192 382.54 134.405 381.003 134.32L379.276 134.192C372.108 133.68 368.524 129.84 368.524 122.672V108.72H365.324C364.172 108.72 363.276 108.464 362.636 107.952C362.038 107.44 361.739 106.693 361.739 105.712C361.739 104.731 362.038 103.984 362.636 103.472C363.276 102.96 364.172 102.704 365.324 102.704H368.524V96.816C368.524 95.664 368.886 94.7467 369.612 94.064C370.337 93.3813 371.318 93.04 372.556 93.04C373.75 93.04 374.71 93.3813 375.436 94.064C376.161 94.7467 376.524 95.664 376.524 96.816V102.704H381.964C383.116 102.704 383.99 102.96 384.588 103.472C385.228 103.984 385.548 104.731 385.548 105.712C385.548 106.693 385.228 107.44 384.588 107.952C383.99 108.464 383.116 108.72 381.964 108.72H376.524V123.248C376.524 126.405 377.974 128.091 380.876 128.304L382.604 128.432ZM427.157 101.936C430.57 101.936 433.173 102.96 434.965 105.008C436.799 107.013 437.717 110.277 437.717 114.8V130.544C437.717 131.781 437.333 132.741 436.565 133.424C435.839 134.064 434.879 134.384 433.685 134.384C432.533 134.384 431.573 134.064 430.805 133.424C430.079 132.741 429.717 131.781 429.717 130.544V114.8C429.717 112.453 429.29 110.789 428.437 109.808C427.626 108.784 426.367 108.272 424.661 108.272C422.57 108.272 420.906 108.997 419.669 110.448C418.431 111.856 417.812 113.797 417.812 116.272V130.544C417.812 131.781 417.429 132.741 416.661 133.424C415.935 134.064 414.997 134.384 413.845 134.384C412.693 134.384 411.733 134.064 410.965 133.424C410.197 132.741 409.813 131.781 409.813 130.544V114.8C409.813 112.453 409.386 110.789 408.533 109.808C407.722 108.784 406.463 108.272 404.757 108.272C402.666 108.272 401.002 108.997 399.765 110.448C398.57 111.856 397.973 113.797 397.973 116.272V130.544C397.973 131.781 397.589 132.741 396.821 133.424C396.053 134.064 395.093 134.384 393.941 134.384C392.789 134.384 391.829 134.064 391.061 133.424C390.335 132.741 389.973 131.781 389.973 130.544V105.776C389.973 104.581 390.357 103.664 391.125 103.024C391.893 102.384 392.853 102.064 394.005 102.064C395.114 102.064 396.01 102.384 396.693 103.024C397.418 103.621 397.781 104.496 397.781 105.648V107.184C398.762 105.477 400.063 104.176 401.685 103.28C403.349 102.384 405.247 101.936 407.381 101.936C412.074 101.936 415.21 103.899 416.789 107.824C417.727 106.032 419.114 104.603 420.949 103.536C422.783 102.469 424.853 101.936 427.157 101.936ZM470.616 125.424C471.341 125.424 471.917 125.701 472.344 126.256C472.813 126.811 473.048 127.557 473.048 128.496C473.048 129.819 472.258 130.928 470.68 131.824C469.229 132.635 467.586 133.296 465.752 133.808C463.917 134.277 462.168 134.512 460.503 134.512C455.469 134.512 451.48 133.061 448.536 130.16C445.592 127.259 444.12 123.291 444.12 118.256C444.12 115.056 444.76 112.219 446.04 109.744C447.32 107.269 449.112 105.349 451.416 103.984C453.762 102.619 456.408 101.936 459.352 101.936C462.168 101.936 464.621 102.555 466.712 103.792C468.802 105.029 470.424 106.779 471.576 109.04C472.728 111.301 473.304 113.968 473.304 117.04C473.304 118.875 472.493 119.792 470.872 119.792H451.992C452.248 122.736 453.08 124.912 454.488 126.32C455.896 127.685 457.944 128.368 460.632 128.368C461.997 128.368 463.192 128.197 464.216 127.856C465.282 127.515 466.477 127.045 467.8 126.448C469.08 125.765 470.018 125.424 470.616 125.424ZM459.544 107.568C457.368 107.568 455.618 108.251 454.296 109.616C453.016 110.981 452.248 112.944 451.992 115.504H466.456C466.37 112.901 465.73 110.939 464.536 109.616C463.341 108.251 461.677 107.568 459.544 107.568ZM498.024 101.936C501.778 101.936 504.573 103.003 506.408 105.136C508.242 107.269 509.16 110.491 509.16 114.8V130.544C509.16 131.739 508.797 132.677 508.072 133.36C507.389 134.043 506.429 134.384 505.192 134.384C503.954 134.384 502.973 134.043 502.248 133.36C501.522 132.677 501.16 131.739 501.16 130.544V115.248C501.16 112.816 500.69 111.045 499.752 109.936C498.856 108.827 497.426 108.272 495.464 108.272C493.16 108.272 491.304 108.997 489.896 110.448C488.53 111.899 487.848 113.84 487.848 116.272V130.544C487.848 131.739 487.485 132.677 486.76 133.36C486.034 134.043 485.053 134.384 483.816 134.384C482.578 134.384 481.597 134.043 480.872 133.36C480.189 132.677 479.848 131.739 479.848 130.544V105.776C479.848 104.667 480.21 103.771 480.936 103.088C481.661 102.405 482.642 102.064 483.88 102.064C484.989 102.064 485.885 102.405 486.568 103.088C487.293 103.728 487.656 104.581 487.656 105.648V107.376C488.722 105.627 490.152 104.283 491.944 103.344C493.736 102.405 495.762 101.936 498.024 101.936ZM533.541 128.432C535.674 128.56 536.741 129.52 536.741 131.312C536.741 132.336 536.314 133.125 535.461 133.68C534.65 134.192 533.477 134.405 531.941 134.32L530.213 134.192C523.045 133.68 519.461 129.84 519.461 122.672V108.72H516.261C515.109 108.72 514.213 108.464 513.573 107.952C512.976 107.44 512.677 106.693 512.677 105.712C512.677 104.731 512.976 103.984 513.573 103.472C514.213 102.96 515.109 102.704 516.261 102.704H519.461V96.816C519.461 95.664 519.824 94.7467 520.549 94.064C521.274 93.3813 522.256 93.04 523.493 93.04C524.688 93.04 525.648 93.3813 526.373 94.064C527.098 94.7467 527.461 95.664 527.461 96.816V102.704H532.901C534.053 102.704 534.928 102.96 535.525 103.472C536.165 103.984 536.485 104.731 536.485 105.712C536.485 106.693 536.165 107.44 535.525 107.952C534.928 108.464 534.053 108.72 532.901 108.72H527.461V123.248C527.461 126.405 528.912 128.091 531.813 128.304L533.541 128.432ZM572.557 134.512C569.357 134.512 566.541 133.851 564.109 132.528C561.72 131.205 559.864 129.307 558.541 126.832C557.218 124.357 556.557 121.477 556.557 118.192C556.557 114.907 557.218 112.048 558.541 109.616C559.864 107.141 561.72 105.243 564.109 103.92C566.541 102.597 569.357 101.936 572.557 101.936C575.757 101.936 578.552 102.597 580.941 103.92C583.373 105.243 585.229 107.141 586.509 109.616C587.832 112.048 588.493 114.907 588.493 118.192C588.493 121.477 587.832 124.357 586.509 126.832C585.229 129.307 583.373 131.205 580.941 132.528C578.552 133.851 575.757 134.512 572.557 134.512ZM572.493 128.304C575.096 128.304 577.08 127.451 578.445 125.744C579.81 124.037 580.493 121.52 580.493 118.192C580.493 114.907 579.81 112.411 578.445 110.704C577.08 108.955 575.117 108.08 572.557 108.08C569.997 108.08 568.013 108.955 566.605 110.704C565.24 112.411 564.557 114.907 564.557 118.192C564.557 121.52 565.24 124.037 566.605 125.744C567.97 127.451 569.933 128.304 572.493 128.304ZM613.274 101.936C617.028 101.936 619.823 103.003 621.658 105.136C623.492 107.269 624.41 110.491 624.41 114.8V130.544C624.41 131.739 624.047 132.677 623.322 133.36C622.639 134.043 621.679 134.384 620.442 134.384C619.204 134.384 618.223 134.043 617.498 133.36C616.772 132.677 616.41 131.739 616.41 130.544V115.248C616.41 112.816 615.94 111.045 615.002 109.936C614.106 108.827 612.676 108.272 610.714 108.272C608.41 108.272 606.554 108.997 605.146 110.448C603.78 111.899 603.098 113.84 603.098 116.272V130.544C603.098 131.739 602.735 132.677 602.01 133.36C601.284 134.043 600.303 134.384 599.066 134.384C597.828 134.384 596.847 134.043 596.122 133.36C595.439 132.677 595.098 131.739 595.098 130.544V105.776C595.098 104.667 595.46 103.771 596.186 103.088C596.911 102.405 597.892 102.064 599.13 102.064C600.239 102.064 601.135 102.405 601.818 103.088C602.543 103.728 602.906 104.581 602.906 105.648V107.376C603.972 105.627 605.402 104.283 607.194 103.344C608.986 102.405 611.012 101.936 613.274 101.936ZM636.503 134.384C635.351 134.384 634.391 134.064 633.623 133.424C632.898 132.741 632.535 131.781 632.535 130.544V92.336C632.535 91.0987 632.898 90.16 633.623 89.52C634.391 88.88 635.351 88.56 636.503 88.56C637.655 88.56 638.615 88.88 639.383 89.52C640.151 90.16 640.535 91.0987 640.535 92.336V130.544C640.535 131.781 640.151 132.741 639.383 133.424C638.615 134.064 637.655 134.384 636.503 134.384ZM652.753 134.384C651.601 134.384 650.641 134.064 649.873 133.424C649.148 132.741 648.785 131.781 648.785 130.544V105.84C648.785 104.603 649.148 103.664 649.873 103.024C650.641 102.384 651.601 102.064 652.753 102.064C653.905 102.064 654.865 102.384 655.633 103.024C656.401 103.664 656.785 104.603 656.785 105.84V130.544C656.785 131.781 656.401 132.741 655.633 133.424C654.865 134.064 653.905 134.384 652.753 134.384ZM652.753 96.368C651.302 96.368 650.15 95.984 649.297 95.216C648.444 94.4053 648.017 93.36 648.017 92.08C648.017 90.8 648.444 89.776 649.297 89.008C650.15 88.24 651.302 87.856 652.753 87.856C654.161 87.856 655.292 88.24 656.145 89.008C657.041 89.776 657.489 90.8 657.489 92.08C657.489 93.36 657.062 94.4053 656.209 95.216C655.356 95.984 654.204 96.368 652.753 96.368ZM683.211 101.936C686.966 101.936 689.76 103.003 691.595 105.136C693.43 107.269 694.347 110.491 694.347 114.8V130.544C694.347 131.739 693.984 132.677 693.259 133.36C692.576 134.043 691.616 134.384 690.379 134.384C689.142 134.384 688.16 134.043 687.435 133.36C686.71 132.677 686.347 131.739 686.347 130.544V115.248C686.347 112.816 685.878 111.045 684.939 109.936C684.043 108.827 682.614 108.272 680.651 108.272C678.347 108.272 676.491 108.997 675.083 110.448C673.718 111.899 673.035 113.84 673.035 116.272V130.544C673.035 131.739 672.672 132.677 671.947 133.36C671.222 134.043 670.24 134.384 669.003 134.384C667.766 134.384 666.784 134.043 666.059 133.36C665.376 132.677 665.035 131.739 665.035 130.544V105.776C665.035 104.667 665.398 103.771 666.123 103.088C666.848 102.405 667.83 102.064 669.067 102.064C670.176 102.064 671.072 102.405 671.755 103.088C672.48 103.728 672.843 104.581 672.843 105.648V107.376C673.91 105.627 675.339 104.283 677.131 103.344C678.923 102.405 680.95 101.936 683.211 101.936ZM727.241 125.424C727.966 125.424 728.542 125.701 728.969 126.256C729.438 126.811 729.673 127.557 729.673 128.496C729.673 129.819 728.883 130.928 727.305 131.824C725.854 132.635 724.211 133.296 722.377 133.808C720.542 134.277 718.793 134.512 717.128 134.512C712.094 134.512 708.105 133.061 705.161 130.16C702.217 127.259 700.745 123.291 700.745 118.256C700.745 115.056 701.385 112.219 702.665 109.744C703.945 107.269 705.737 105.349 708.041 103.984C710.387 102.619 713.033 101.936 715.977 101.936C718.793 101.936 721.246 102.555 723.337 103.792C725.427 105.029 727.049 106.779 728.201 109.04C729.353 111.301 729.929 113.968 729.929 117.04C729.929 118.875 729.118 119.792 727.497 119.792H708.617C708.873 122.736 709.705 124.912 711.113 126.32C712.521 127.685 714.569 128.368 717.257 128.368C718.622 128.368 719.817 128.197 720.841 127.856C721.907 127.515 723.102 127.045 724.425 126.448C725.705 125.765 726.643 125.424 727.241 125.424ZM716.169 107.568C713.993 107.568 712.243 108.251 710.921 109.616C709.641 110.981 708.873 112.944 708.617 115.504H723.081C722.995 112.901 722.355 110.939 721.161 109.616C719.966 108.251 718.302 107.568 716.169 107.568ZM740.249 134.384C738.883 134.384 737.753 133.936 736.857 133.04C735.961 132.101 735.513 130.949 735.513 129.584C735.513 128.219 735.961 127.088 736.857 126.192C737.753 125.253 738.883 124.784 740.249 124.784C741.614 124.784 742.745 125.253 743.641 126.192C744.537 127.088 744.985 128.219 744.985 129.584C744.985 130.949 744.537 132.101 743.641 133.04C742.745 133.936 741.614 134.384 740.249 134.384Z" fill="#68CA44"/>
</svg>
