<svg width="850" height="65" viewBox="0 0 850 65" fill="none" xmlns="http://www.w3.org/2000/svg">
<path d="M2.352 15.56C3.07733 11.72 4.82667 9.8 7.6 9.8C9.09333 9.8 10.3307 10.312 11.312 11.336C12.336 12.36 13.0187 13.768 13.36 15.56C13.4027 15.7733 13.5307 16.776 13.744 18.568C14 20.36 14.2773 22.28 14.576 24.328C14.9173 26.376 15.28 28.4667 15.664 30.6C16.048 32.6907 16.496 34.44 17.008 35.848C17.52 37.256 18.0107 37.96 18.48 37.96C19.3333 37.96 20.144 36.0187 20.912 32.136C21.7227 28.2533 22.192 24.8613 22.32 21.96C22.576 14.664 22.9813 10.44 23.536 9.288C24.1333 8.09333 24.7947 7.496 25.52 7.496C26.8 7.496 27.44 8.136 27.44 9.416C27.44 9.75733 27.2907 10.2267 26.992 10.824C26.6933 11.4213 26.416 15.176 26.16 22.088C26.0747 24.1787 25.776 26.7813 25.264 29.896C24.752 33.0533 24.1973 35.4853 23.6 37.192C22.4907 40.264 20.8267 41.8 18.608 41.8C16.432 41.8 14.8107 40.52 13.744 37.96C12.3787 34.6747 11.2267 29.0427 10.288 21.064C9.94667 18.0347 9.73333 16.456 9.648 16.328C9.30667 14.536 8.624 13.64 7.6 13.64C6.96 13.64 6.49067 14.3227 6.192 15.688C5.936 17.0107 5.57333 20.4027 5.104 25.864C4.63467 31.2827 4.4 35.0373 4.4 37.128C4.4 39.2187 4.50667 40.6907 4.72 41.544C4.93333 42.3973 5.04 42.9093 5.04 43.08C5.04 44.36 4.4 45 3.12 45C2.18133 45 1.52 44.2533 1.136 42.76C0.752 41.2667 0.56 39.432 0.56 37.256C0.56 35.08 0.794667 31.176 1.264 25.544C1.776 19.8693 2.13867 16.5413 2.352 15.56ZM34.224 41.288C34.1813 41.288 33.8613 41.4587 33.264 41.8C31.728 42.6533 30.5973 43.08 29.872 43.08C28.592 43.08 27.952 42.44 27.952 41.16C27.952 40.3493 28.592 39.688 29.872 39.176C30.0853 39.0907 30.5973 38.8347 31.408 38.408C32.2187 37.9813 32.688 37.7253 32.816 37.64C32.6453 37.256 32.56 36.68 32.56 35.912C32.56 32.072 33.904 28.7867 36.592 26.056C39.28 23.3253 41.7333 21.96 43.952 21.96C46.1707 21.96 47.92 22.4933 49.2 23.56C50.48 24.584 51.12 25.8427 51.12 27.336C51.12 28.7867 50.7787 30.0453 50.096 31.112C49.4133 32.1787 48.3467 33.224 46.896 34.248C44.8907 35.6987 41.968 37.384 38.128 39.304C39.8347 40.5413 42.2027 41.16 45.232 41.16C48.2613 41.16 51.248 40.6693 54.192 39.688C55.088 39.3893 55.6 39.24 55.728 39.24C57.008 39.24 57.648 39.88 57.648 41.16C57.648 42.0987 57.008 42.7813 55.728 43.208C52.144 44.4027 48.688 45 45.36 45C40.624 45 36.912 43.7627 34.224 41.288ZM36.4 35.912C43.6533 32.2853 47.28 29.5547 47.28 27.72C47.28 26.44 46.2133 25.8 44.08 25.8C42.8 25.8 41.2 26.824 39.28 28.872C37.36 30.8773 36.4 33.224 36.4 35.912ZM96.905 35.4C95.241 35.3573 93.769 35.0587 92.489 34.504C91.2943 33.992 90.3983 33.416 89.801 32.776C88.3077 31.112 87.1557 30.28 86.345 30.28C84.9797 30.28 84.1263 30.92 83.785 32.2C82.9317 36.2107 81.929 39.1973 80.777 41.16C79.2837 43.72 77.4277 45 75.209 45C72.0943 45 69.4917 43.3787 67.401 40.136C65.5237 37.2347 63.8597 33.6507 62.409 29.384C61.2997 26.1413 60.745 24.3067 60.745 23.88C60.745 22.6 61.385 21.96 62.665 21.96C63.2623 21.96 63.6677 22.088 63.881 22.344C64.137 22.6 64.393 23.0907 64.649 23.816C66.7823 30.2587 68.361 34.4187 69.385 36.296C71.1343 39.5387 73.0757 41.16 75.209 41.16C77.0437 41.16 78.665 37.8747 80.073 31.304C80.9263 28.0613 82.9957 26.44 86.281 26.44C87.4757 26.44 88.4997 26.696 89.353 27.208C90.2063 27.72 90.8463 28.296 91.273 28.936C91.7423 29.5333 92.425 30.1093 93.321 30.664C94.217 31.176 95.305 31.4747 96.585 31.56C96.841 23.4533 99.6143 19.4 104.905 19.4C107.337 19.4 109.214 20.104 110.537 21.512C111.902 22.92 112.585 24.5627 112.585 26.44C112.585 28.3173 111.988 30.0453 110.793 31.624C109.3 33.6293 105.993 34.8453 100.873 35.272C101.47 36.9787 102.516 38.3867 104.009 39.496C105.545 40.6053 106.91 41.16 108.105 41.16C111.049 41.16 113.993 40.6693 116.937 39.688C117.833 39.3893 118.345 39.24 118.473 39.24C119.753 39.24 120.393 39.88 120.393 41.16C120.393 42.0987 119.753 42.7813 118.473 43.208C114.889 44.4027 111.433 45 108.105 45C106.057 45 103.838 44.104 101.449 42.312C99.1023 40.52 97.5877 38.216 96.905 35.4ZM100.425 31.432C104.18 31.176 106.569 30.4933 107.593 29.384C108.361 28.5307 108.745 27.5493 108.745 26.44C108.745 24.3067 107.465 23.24 104.905 23.24C102.046 23.24 100.553 25.9707 100.425 31.432ZM122.663 36.424C122.748 36.296 122.94 35.3787 123.239 33.672C123.58 31.9653 123.964 30.3013 124.391 28.68C124.86 27.016 125.671 25.48 126.823 24.072C128.018 22.664 129.447 21.96 131.111 21.96C134.354 21.96 137.084 22.8133 139.303 24.52C141.564 26.184 142.695 28.3387 142.695 30.984C142.695 33.6293 143.058 35.9973 143.783 38.088C144.508 40.136 145.468 41.16 146.663 41.16C147.474 41.16 148.476 40.904 149.671 40.392C151.591 39.624 152.722 39.24 153.063 39.24C154.343 39.24 154.983 39.88 154.983 41.16C154.983 42.0987 154.343 42.7813 153.063 43.208C150.674 44.4027 148.519 45 146.599 45C144.722 45 143.164 44.2107 141.927 42.632C140.69 41.0107 139.858 39.2187 139.431 37.256C139.047 35.2933 138.855 33.1813 138.855 30.92C138.855 29.4267 138.13 28.2107 136.679 27.272C135.228 26.2907 133.394 25.8 131.175 25.8C129.383 25.8 127.975 28.6587 126.951 34.376C126.524 36.5947 126.226 37.8747 126.055 38.216C125.33 39.7093 123.346 41.16 120.103 42.568C119.335 42.9093 118.716 43.08 118.247 43.08C116.967 43.08 116.327 42.44 116.327 41.16C116.327 40.3493 116.967 39.688 118.247 39.176C120.764 38.152 122.236 37.2347 122.663 36.424ZM227.848 23.88C227.848 36.68 224.861 43.08 218.888 43.08C215.986 43.08 213 41.3733 209.928 37.96C206.557 40.6053 203.741 42.44 201.48 43.464C199.218 44.488 197.106 45 195.144 45C193.181 45 191.624 44.616 190.472 43.848C189.362 43.0373 188.509 41.928 187.911 40.52C186.802 37.8747 186.248 34.9733 186.248 31.816C186.248 28.6587 186.674 26.0133 187.528 23.88C187.826 23.1973 188.104 22.7067 188.36 22.408C188.616 22.1093 188.978 21.96 189.448 21.96C190.728 21.96 191.368 22.6 191.368 23.88C191.368 24.392 191.304 24.7973 191.176 25.096C190.45 26.9307 190.088 28.872 190.088 30.92C190.088 37.7467 191.581 41.16 194.568 41.16C196.402 41.16 197.789 40.9467 198.728 40.52C199.709 40.0507 200.392 39.752 200.776 39.624C201.16 39.4533 201.629 39.1973 202.184 38.856C202.738 38.5147 203.144 38.2587 203.4 38.088C203.656 37.9173 204.061 37.64 204.616 37.256C205.17 36.8293 205.512 36.552 205.64 36.424C205.81 36.296 206.152 36.0187 206.664 35.592C207.218 35.1653 207.538 34.9093 207.624 34.824C206.6 32.9893 206.088 31.2187 206.088 29.512C206.088 27.8053 206.386 26.3333 206.984 25.096C207.624 23.8587 208.264 23.24 208.904 23.24C210.226 23.24 210.888 23.88 210.888 25.16C210.888 25.4587 210.717 25.992 210.376 26.76C210.077 27.4853 209.928 28.4453 209.928 29.64C209.928 31.3893 210.994 33.4373 213.128 35.784C215.261 38.088 217.181 39.24 218.888 39.24C222.301 39.24 224.008 34.12 224.008 23.88C224.008 22.6 224.648 21.96 225.928 21.96C227.208 21.96 227.848 22.6 227.848 23.88ZM259.238 39.752C259.238 39.752 259.92 39.5813 261.286 39.24C262.566 39.24 263.206 39.88 263.206 41.16C263.206 42.0987 262.566 42.7813 261.286 43.208C260.518 43.464 259.75 43.592 258.982 43.592C258.256 43.592 257.552 43.4213 256.87 43.08C256.187 42.7387 255.654 42.2267 255.27 41.544C254.63 40.4347 254.16 39.24 253.862 37.96L253.606 36.872C252.88 38.1093 251.11 39.56 248.294 41.224C245.52 42.888 242.555 43.72 239.398 43.72C237.691 43.72 236.198 43.08 234.918 41.8C233.638 40.52 232.998 39.0267 232.998 37.32C232.998 33.1813 234.704 29.5973 238.118 26.568C241.531 23.496 244.987 21.96 248.486 21.96C250.406 21.96 252.048 22.3227 253.414 23.048C254.822 23.7307 255.526 24.4347 255.526 25.16C255.526 26.44 254.886 27.08 253.606 27.08C253.35 27.08 252.731 26.8667 251.75 26.44C250.768 26.0133 249.68 25.8 248.486 25.8C246.182 25.8 243.664 26.9307 240.934 29.192C238.203 31.4107 236.838 34.12 236.838 37.32C236.838 37.96 237.094 38.5573 237.606 39.112C238.16 39.624 238.758 39.88 239.398 39.88C241.915 39.88 244.262 39.2187 246.438 37.896C248.614 36.5307 250 35.4213 250.598 34.568C251.195 33.672 251.686 32.8613 252.07 32.136C252.454 31.4107 252.731 30.9413 252.902 30.728C253.115 30.472 253.542 30.344 254.182 30.344C254.822 30.344 255.312 30.5787 255.654 31.048C255.995 31.5173 256.315 32.264 256.614 33.288C256.912 34.2693 257.211 35.3787 257.51 36.616C257.808 37.8533 258.064 38.6853 258.278 39.112C258.534 39.5387 258.854 39.752 259.238 39.752ZM275.972 13.256C276.654 13.256 277.358 13.576 278.083 14.216C278.809 14.8133 279.172 15.4533 279.172 16.136C279.172 16.776 278.873 17.2667 278.276 17.608C277.721 17.9493 277.102 18.12 276.42 18.12C275.737 18.12 275.161 17.8213 274.692 17.224C274.265 16.584 274.052 15.9013 274.052 15.176C274.052 13.896 274.692 13.256 275.972 13.256ZM270.212 37.064C267.822 39.624 265.39 41.4587 262.916 42.568C262.148 42.9093 261.529 43.08 261.059 43.08C259.779 43.08 259.139 42.44 259.139 41.16C259.139 40.3493 259.779 39.688 261.059 39.176C261.742 38.92 262.638 38.408 263.748 37.64C264.9 36.872 265.668 36.296 266.052 35.912C266.436 35.528 267.097 34.824 268.036 33.8C269.017 32.776 269.785 32.008 270.34 31.496C270.894 30.9413 271.641 30.3867 272.58 29.832C273.561 29.2773 274.457 29 275.268 29C276.932 29 278.212 29.5973 279.108 30.792C280.004 31.9867 280.537 33.3093 280.708 34.76C281.177 38.6 281.924 40.52 282.948 40.52C283.758 40.52 284.804 40.3067 286.084 39.88C287.364 39.4533 288.068 39.24 288.196 39.24C289.476 39.24 290.116 39.88 290.116 41.16C290.116 42.0987 289.476 42.7813 288.196 43.208C285.892 43.976 284.014 44.36 282.564 44.36C281.156 44.36 280.004 43.7627 279.108 42.568C278.212 41.3733 277.678 40.0507 277.508 38.6C277.038 34.76 276.292 32.84 275.268 32.84C274.713 32.84 274.073 33.2027 273.348 33.928C272.665 34.6107 272.11 35.1653 271.684 35.592C271.257 35.976 270.766 36.4667 270.212 37.064ZM294.527 20.296C294.484 19.6987 294.463 18.76 294.463 17.48C294.463 12.872 294.889 8.008 295.743 2.888C295.956 1.608 296.596 0.967999 297.663 0.967999C298.943 0.967999 299.583 1.58666 299.583 2.824C299.583 3.03733 299.54 3.4 299.455 3.912C298.687 8.52 298.303 13.0427 298.303 17.48V19.592C303.892 18.6107 307.945 18.12 310.463 18.12C311.743 18.12 312.383 18.76 312.383 20.04C312.383 21.32 311.743 21.96 310.463 21.96C307.988 21.96 303.999 22.4507 298.495 23.432C299.391 35.2507 303.167 41.16 309.823 41.16C311.316 41.16 313.172 40.84 315.391 40.2C317.609 39.56 318.783 39.24 318.911 39.24C320.191 39.24 320.831 39.88 320.831 41.16C320.831 42.0987 320.191 42.7813 318.911 43.208C315.327 44.4027 312.297 45 309.823 45C305.855 45 302.505 43.3787 299.775 40.136C297.044 36.8933 295.359 31.56 294.719 24.136L293.247 24.456C292.863 24.4987 292.628 24.52 292.543 24.52C291.263 24.52 290.623 23.88 290.623 22.6C290.623 21.576 291.263 20.936 292.543 20.68C293.353 20.5093 294.015 20.3813 294.527 20.296ZM364.347 13.256C365.029 13.256 365.733 13.576 366.458 14.216C367.184 14.8133 367.547 15.4533 367.547 16.136C367.547 16.776 367.248 17.2667 366.651 17.608C366.096 17.9493 365.477 18.12 364.795 18.12C364.112 18.12 363.536 17.8213 363.067 17.224C362.64 16.584 362.427 15.9013 362.427 15.176C362.427 13.896 363.067 13.256 364.347 13.256ZM358.587 37.064C356.197 39.624 353.765 41.4587 351.291 42.568C350.523 42.9093 349.904 43.08 349.434 43.08C348.154 43.08 347.514 42.44 347.514 41.16C347.514 40.3493 348.154 39.688 349.434 39.176C350.117 38.92 351.013 38.408 352.123 37.64C353.275 36.872 354.043 36.296 354.427 35.912C354.811 35.528 355.472 34.824 356.411 33.8C357.392 32.776 358.16 32.008 358.715 31.496C359.269 30.9413 360.016 30.3867 360.955 29.832C361.936 29.2773 362.832 29 363.643 29C365.307 29 366.587 29.5973 367.483 30.792C368.379 31.9867 368.912 33.3093 369.083 34.76C369.552 38.6 370.299 40.52 371.323 40.52C372.133 40.52 373.179 40.3067 374.459 39.88C375.739 39.4533 376.443 39.24 376.571 39.24C377.851 39.24 378.491 39.88 378.491 41.16C378.491 42.0987 377.851 42.7813 376.571 43.208C374.267 43.976 372.389 44.36 370.939 44.36C369.531 44.36 368.379 43.7627 367.483 42.568C366.587 41.3733 366.053 40.0507 365.883 38.6C365.413 34.76 364.667 32.84 363.643 32.84C363.088 32.84 362.448 33.2027 361.723 33.928C361.04 34.6107 360.485 35.1653 360.059 35.592C359.632 35.976 359.141 36.4667 358.587 37.064ZM416.886 43.208C414.582 43.976 412.79 44.36 411.51 44.36C410.23 44.36 409.227 43.8907 408.502 42.952C407.776 42.0133 407.115 40.4133 406.518 38.152C405.963 35.8907 405.536 34.76 405.238 34.76C404.128 34.76 402.955 36.4667 401.718 39.88C401.248 41.16 400.48 42.3333 399.414 43.4C398.347 44.4667 397.003 45 395.382 45C393.803 45 392.566 44.296 391.67 42.888C390.774 41.48 390.24 39.944 390.07 38.28C389.942 36.616 389.728 35.08 389.43 33.672C389.131 32.264 388.64 31.56 387.958 31.56C387.488 31.56 387.147 31.688 386.934 31.944C386.72 32.2 386.528 32.456 386.358 32.712C386.23 32.9253 386.08 33.16 385.91 33.416C385.782 33.6293 385.611 33.928 385.398 34.312C385.227 34.696 385.014 35.1013 384.758 35.528C383.904 37.0213 383.222 38.1307 382.71 38.856C381.686 40.4773 380.171 41.7147 378.166 42.568C377.398 42.9093 376.779 43.08 376.309 43.08C375.029 43.08 374.389 42.44 374.389 41.16C374.389 40.3493 375.072 39.688 376.438 39.176C377.803 38.664 378.763 37.9387 379.318 37C379.915 36.0187 380.576 34.9093 381.302 33.672C382.027 32.4347 382.518 31.6027 382.774 31.176C383.072 30.7493 383.435 30.2373 383.862 29.64C384.288 29 384.672 28.5947 385.014 28.424C385.91 27.9547 386.891 27.72 387.958 27.72C389.707 27.72 391.03 28.424 391.926 29.832C392.822 31.24 393.334 32.776 393.462 34.44C393.632 36.104 393.867 37.64 394.166 39.048C394.464 40.456 394.955 41.16 395.638 41.16C396.32 41.16 396.96 40.6267 397.558 39.56C398.198 38.4933 398.752 37.32 399.222 36.04C399.691 34.76 400.438 33.5867 401.462 32.52C402.528 31.4533 403.787 30.92 405.238 30.92C406.347 30.92 407.158 31.1973 407.67 31.752C408.182 32.264 408.544 32.6693 408.757 32.968C409.014 33.2667 409.227 33.7147 409.398 34.312C409.611 34.9093 409.76 35.3573 409.846 35.656C409.931 35.912 410.059 36.3813 410.229 37.064C410.742 39.4107 411.211 40.5627 411.638 40.52C412.448 40.52 413.494 40.3067 414.774 39.88C416.054 39.4533 416.758 39.24 416.886 39.24C418.166 39.24 418.806 39.88 418.806 41.16C418.806 42.0987 418.166 42.7813 416.886 43.208ZM476.3 39.752C476.3 39.752 476.983 39.5813 478.348 39.24C479.628 39.24 480.268 39.88 480.268 41.16C480.268 42.0987 479.628 42.7813 478.348 43.208C477.58 43.464 476.812 43.592 476.044 43.592C475.319 43.592 474.615 43.4213 473.932 43.08C473.249 42.7387 472.716 42.2267 472.332 41.544C471.692 40.4347 471.223 39.24 470.924 37.96L470.668 36.872C469.943 38.1093 468.172 39.56 465.356 41.224C462.583 42.888 459.617 43.72 456.46 43.72C454.753 43.72 453.26 43.08 451.98 41.8C450.7 40.52 450.06 39.0267 450.06 37.32C450.06 33.1813 451.767 29.5973 455.18 26.568C458.593 23.496 462.049 21.96 465.548 21.96C467.468 21.96 469.111 22.3227 470.476 23.048C471.884 23.7307 472.588 24.4347 472.588 25.16C472.588 26.44 471.948 27.08 470.668 27.08C470.412 27.08 469.793 26.8667 468.812 26.44C467.831 26.0133 466.743 25.8 465.548 25.8C463.244 25.8 460.727 26.9307 457.996 29.192C455.265 31.4107 453.9 34.12 453.9 37.32C453.9 37.96 454.156 38.5573 454.668 39.112C455.223 39.624 455.82 39.88 456.46 39.88C458.977 39.88 461.324 39.2187 463.5 37.896C465.676 36.5307 467.063 35.4213 467.66 34.568C468.257 33.672 468.748 32.8613 469.132 32.136C469.516 31.4107 469.793 30.9413 469.964 30.728C470.177 30.472 470.604 30.344 471.244 30.344C471.884 30.344 472.375 30.5787 472.716 31.048C473.057 31.5173 473.377 32.264 473.676 33.288C473.975 34.2693 474.273 35.3787 474.572 36.616C474.871 37.8533 475.127 38.6853 475.34 39.112C475.596 39.5387 475.916 39.752 476.3 39.752ZM553.8 30.92C556.275 30.92 558.067 32.4133 559.176 35.4C560.328 38.3867 561.309 39.88 562.12 39.88C562.931 39.88 563.656 39.7733 564.296 39.56C564.936 39.3467 565.32 39.24 565.448 39.24C566.728 39.24 567.368 39.88 567.368 41.16C567.368 42.0987 566.792 42.76 565.64 43.144C564.488 43.528 563.4 43.72 562.376 43.72C561.395 43.72 560.563 43.528 559.88 43.144C559.197 42.76 558.579 42.1627 558.024 41.352C557.341 40.328 556.488 38.6853 555.464 36.424C554.952 35.3147 554.397 34.76 553.8 34.76C553.117 34.76 552.349 35.4213 551.496 36.744C550.472 38.3653 549.661 39.56 549.064 40.328C547.485 42.1627 545.8 43.08 544.008 43.08C542.216 43.08 540.723 42.504 539.528 41.352C538.376 40.1573 537.8 38.6 537.8 36.68C537.8 32.4133 538.013 29 538.44 26.44C538.653 25.16 539.293 24.52 540.36 24.52C541.64 24.52 542.28 25.16 542.28 26.44C542.28 26.7813 542.173 27.592 541.96 28.872C541.747 30.152 541.64 32.7547 541.64 36.68C541.64 38.3867 542.493 39.24 544.2 39.24C544.797 39.24 545.48 38.728 546.248 37.704C546.504 37.3627 546.931 36.744 547.528 35.848C548.125 34.9093 548.637 34.1627 549.064 33.608C549.533 33.0107 550.195 32.4133 551.048 31.816C551.944 31.2187 552.861 30.92 553.8 30.92ZM517.96 39.24C518.429 39.24 519.24 38.408 520.392 36.744C521.544 35.0373 522.376 33.864 522.888 33.224C523.4 32.5413 524.104 31.88 525 31.24C525.896 30.6 526.749 30.28 527.56 30.28C529.267 30.28 530.653 30.8133 531.72 31.88C532.787 32.9467 533.32 34.3333 533.32 36.04C533.32 36.9787 533.107 39.8373 532.68 44.616C532.253 49.352 532.04 52.9147 532.04 55.304C532.04 57.6933 532.381 59.912 533.064 61.96C533.235 62.472 533.32 62.8347 533.32 63.048C533.32 64.328 532.68 64.968 531.4 64.968C530.931 64.968 530.504 64.7333 530.12 64.264C529.779 63.8373 529.565 63.432 529.48 63.048C528.627 60.6587 528.2 58.12 528.2 55.432C528.2 52.744 528.413 49.0533 528.84 44.36C529.267 39.6667 529.48 36.8933 529.48 36.04C529.48 34.76 528.84 34.12 527.56 34.12C527.091 34.12 526.216 35.0587 524.936 36.936C523.656 38.7707 522.803 39.9653 522.376 40.52C521.949 41.0747 521.309 41.6507 520.456 42.248C519.645 42.8027 518.813 43.08 517.96 43.08C515.741 43.08 514.013 42.2907 512.776 40.712C511.539 39.1333 510.92 37.1493 510.92 34.76C510.92 31.2613 512.136 28.04 514.568 25.096C517 22.152 519.837 20.68 523.08 20.68C524.701 20.68 526.408 21.192 528.2 22.216C529.48 22.984 530.12 23.752 530.12 24.52C530.12 25.8 529.48 26.44 528.2 26.44C527.901 26.44 527.261 26.1413 526.28 25.544C524.915 24.8613 523.848 24.52 523.08 24.52C520.861 24.52 518.92 25.6293 517.256 27.848C515.592 30.024 514.76 32.328 514.76 34.76C514.76 37.7467 515.827 39.24 517.96 39.24ZM569.536 41.288C569.494 41.288 569.174 41.4587 568.577 41.8C567.041 42.6533 565.91 43.08 565.184 43.08C563.904 43.08 563.264 42.44 563.264 41.16C563.264 40.3493 563.904 39.688 565.184 39.176C565.398 39.0907 565.91 38.8347 566.721 38.408C567.531 37.9813 568.001 37.7253 568.129 37.64C567.958 37.256 567.873 36.68 567.873 35.912C567.873 32.072 569.217 28.7867 571.905 26.056C574.593 23.3253 577.046 21.96 579.265 21.96C581.483 21.96 583.233 22.4933 584.513 23.56C585.793 24.584 586.433 25.8427 586.433 27.336C586.433 28.7867 586.091 30.0453 585.409 31.112C584.726 32.1787 583.659 33.224 582.208 34.248C580.203 35.6987 577.281 37.384 573.441 39.304C575.147 40.5413 577.515 41.16 580.545 41.16C583.574 41.16 586.561 40.6693 589.505 39.688C590.401 39.3893 590.913 39.24 591.041 39.24C592.321 39.24 592.961 39.88 592.961 41.16C592.961 42.0987 592.321 42.7813 591.041 43.208C587.457 44.4027 584.001 45 580.673 45C575.937 45 572.225 43.7627 569.536 41.288ZM571.713 35.912C578.966 32.2853 582.593 29.5547 582.593 27.72C582.593 26.44 581.526 25.8 579.393 25.8C578.113 25.8 576.513 26.824 574.593 28.872C572.673 30.8773 571.713 33.224 571.713 35.912ZM598.618 27.72C598.618 27.1653 598.788 26.7173 599.13 26.376C599.471 25.992 599.94 25.8 600.538 25.8C601.818 25.8 602.458 26.44 602.458 27.72C602.458 31.0053 603.226 34.0773 604.762 36.936C606.34 39.752 608.132 41.16 610.138 41.16C611.034 41.16 612.996 36.0827 616.026 25.928C616.41 24.648 617.22 24.008 618.458 24.008C619.098 24.008 619.567 24.136 619.866 24.392C620.164 24.648 620.335 24.9893 620.378 25.416C620.463 25.8427 620.591 26.6533 620.762 27.848C620.932 29.0427 621.146 30.2373 621.402 31.432C621.615 32.6267 621.892 33.9067 622.234 35.272C623.002 38.344 623.876 39.88 624.858 39.88C625.668 39.88 626.394 39.7733 627.034 39.56C627.674 39.3467 628.058 39.24 628.186 39.24C629.466 39.24 630.106 39.88 630.106 41.16C630.106 42.0987 629.53 42.76 628.378 43.144C627.226 43.528 626.159 43.72 625.178 43.72C624.196 43.72 623.386 43.5707 622.746 43.272C622.106 42.9307 621.572 42.5253 621.146 42.056C620.804 41.6293 620.42 40.9893 619.994 40.136C619.524 39.1973 619.076 38.1093 618.65 36.872C618.266 35.6347 618.052 34.9093 618.01 34.696C617.967 34.4827 617.924 34.2693 617.882 34.056C617.882 33.8 617.86 33.608 617.818 33.48C617.732 33.6507 617.647 33.9067 617.562 34.248L617.306 35.016C617.22 35.1867 617.135 35.3787 617.05 35.592C617.007 35.7627 616.794 36.424 616.41 37.576C616.026 38.6853 615.684 39.5813 615.386 40.264C615.087 40.8613 614.682 41.5867 614.17 42.44C613.146 44.1467 611.738 45 609.946 45C608.196 45 606.362 44.1467 604.442 42.44C602.522 40.7333 601.028 38.4507 599.962 35.592C599.151 36.9147 598.17 38.1307 597.018 39.24C595.098 41.1173 593.69 42.2267 592.794 42.568C591.94 42.9093 591.279 43.08 590.809 43.08C589.529 43.08 588.889 42.44 588.889 41.16C588.889 40.3493 589.529 39.688 590.809 39.176C592.09 38.6213 593.711 37.256 595.674 35.08C597.636 32.904 598.618 30.4507 598.618 27.72ZM632.286 41.288C632.244 41.288 631.924 41.4587 631.327 41.8C629.791 42.6533 628.66 43.08 627.934 43.08C626.654 43.08 626.014 42.44 626.014 41.16C626.014 40.3493 626.654 39.688 627.934 39.176C628.148 39.0907 628.66 38.8347 629.471 38.408C630.281 37.9813 630.751 37.7253 630.879 37.64C630.708 37.256 630.623 36.68 630.623 35.912C630.623 32.072 631.967 28.7867 634.655 26.056C637.343 23.3253 639.796 21.96 642.015 21.96C644.233 21.96 645.983 22.4933 647.263 23.56C648.543 24.584 649.183 25.8427 649.183 27.336C649.183 28.7867 648.841 30.0453 648.159 31.112C647.476 32.1787 646.409 33.224 644.958 34.248C642.953 35.6987 640.031 37.384 636.191 39.304C637.897 40.5413 640.265 41.16 643.295 41.16C646.324 41.16 649.311 40.6693 652.255 39.688C653.151 39.3893 653.663 39.24 653.791 39.24C655.071 39.24 655.711 39.88 655.711 41.16C655.711 42.0987 655.071 42.7813 653.791 43.208C650.207 44.4027 646.751 45 643.423 45C638.687 45 634.975 43.7627 632.286 41.288ZM634.463 35.912C641.716 32.2853 645.343 29.5547 645.343 27.72C645.343 26.44 644.276 25.8 642.143 25.8C640.863 25.8 639.263 26.824 637.343 28.872C635.423 30.8773 634.463 33.224 634.463 35.912ZM713.238 39.752C713.238 39.752 713.92 39.5813 715.286 39.24C716.566 39.24 717.206 39.88 717.206 41.16C717.206 42.0987 716.566 42.7813 715.286 43.208C714.518 43.464 713.75 43.592 712.982 43.592C712.256 43.592 711.552 43.4213 710.87 43.08C710.187 42.7387 709.654 42.2267 709.27 41.544C708.63 40.4347 708.16 39.24 707.862 37.96L707.606 36.872C706.88 38.1093 705.11 39.56 702.294 41.224C699.52 42.888 696.555 43.72 693.398 43.72C691.691 43.72 690.198 43.08 688.918 41.8C687.638 40.52 686.998 39.0267 686.998 37.32C686.998 33.1813 688.704 29.5973 692.118 26.568C695.531 23.496 698.987 21.96 702.486 21.96C704.406 21.96 706.048 22.3227 707.414 23.048C708.822 23.7307 709.526 24.4347 709.526 25.16C709.526 26.44 708.886 27.08 707.606 27.08C707.35 27.08 706.731 26.8667 705.75 26.44C704.768 26.0133 703.68 25.8 702.486 25.8C700.182 25.8 697.664 26.9307 694.934 29.192C692.203 31.4107 690.838 34.12 690.838 37.32C690.838 37.96 691.094 38.5573 691.606 39.112C692.16 39.624 692.758 39.88 693.398 39.88C695.915 39.88 698.262 39.2187 700.438 37.896C702.614 36.5307 704 35.4213 704.598 34.568C705.195 33.672 705.686 32.8613 706.07 32.136C706.454 31.4107 706.731 30.9413 706.902 30.728C707.115 30.472 707.542 30.344 708.182 30.344C708.822 30.344 709.312 30.5787 709.654 31.048C709.995 31.5173 710.315 32.264 710.614 33.288C710.912 34.2693 711.211 35.3787 711.51 36.616C711.808 37.8533 712.064 38.6853 712.278 39.112C712.534 39.5387 712.854 39.752 713.238 39.752ZM752.308 30.28C752.308 29.256 752.073 28.5733 751.604 28.232C751.134 27.8907 750.089 27.72 748.468 27.72C746.206 27.72 743.924 29.064 741.62 31.752C739.358 34.3973 738.228 36.8933 738.228 39.24C738.228 40.52 738.868 41.16 740.148 41.16C741.428 41.16 743.006 40.6693 744.884 39.688C746.761 38.7067 748.468 37.3413 750.004 35.592C751.54 33.8427 752.308 32.072 752.308 30.28ZM756.148 30.28C756.148 37.0213 758.921 40.392 764.468 40.392C765.534 40.392 766.665 40.2 767.86 39.816C769.054 39.432 769.673 39.24 769.716 39.24C770.996 39.24 771.636 39.88 771.636 41.16C771.636 42.0987 770.996 42.7813 769.716 43.208C767.668 43.8907 765.918 44.232 764.468 44.232C759.049 44.232 755.401 41.9067 753.524 37.256C749.812 41.5227 745.993 44.04 742.068 44.808C740.916 45.32 739.273 46.024 737.14 46.92C735.006 47.8587 733.812 48.392 733.556 48.52C736.5 52.9573 737.972 56.52 737.972 59.208C737.972 60.9147 737.374 62.3013 736.18 63.368C735.028 64.4347 733.577 64.968 731.828 64.968C729.225 64.968 726.75 63.8587 724.404 61.64C722.1 59.464 720.948 57.1173 720.948 54.6C720.948 53.0213 721.545 51.656 722.74 50.504C723.934 49.3947 725.641 48.2427 727.86 47.048C726.58 45.256 725.577 43.8907 724.852 42.952C724.169 42.0133 723.444 40.9893 722.676 39.88C721.908 38.728 721.353 37.8747 721.012 37.32C720.713 36.7653 720.286 36.0187 719.732 35.08C719.22 34.0987 718.857 33.288 718.644 32.648C718.046 30.856 717.748 29.4267 717.748 28.36C717.748 25.8 718.409 23.6667 719.732 21.96C721.054 20.2533 722.74 19.4 724.788 19.4C726.196 19.4 727.497 19.9547 728.692 21.064C729.929 22.1733 730.548 23.112 730.548 23.88C730.548 25.16 729.908 25.8 728.628 25.8C728.201 25.8 727.561 25.3733 726.708 24.52C725.854 23.6667 725.214 23.24 724.788 23.24C723.849 23.24 723.081 23.7733 722.484 24.84C721.886 25.864 721.588 26.9307 721.588 28.04C721.588 29.1067 721.737 30.1307 722.036 31.112C722.377 32.0507 722.953 33.2027 723.764 34.568C724.617 35.8907 725.321 36.9573 725.876 37.768C726.43 38.536 727.369 39.8373 728.692 41.672C730.057 43.5067 730.953 44.7227 731.38 45.32L735.924 43.336C734.9 42.2267 734.388 40.8613 734.388 39.24C734.388 35.8267 735.902 32.4133 738.932 29C742.004 25.5867 745.182 23.88 748.468 23.88C751.07 23.88 752.99 24.392 754.228 25.416C755.508 26.3973 756.148 28.0187 756.148 30.28ZM730.1 50.184C726.558 52.0187 724.788 53.4907 724.788 54.6C724.788 56.0933 725.556 57.544 727.092 58.952C728.67 60.4027 730.228 61.128 731.764 61.128C733.342 61.128 734.132 60.488 734.132 59.208C734.132 57.16 732.788 54.152 730.1 50.184ZM784.347 13.256C785.029 13.256 785.733 13.576 786.458 14.216C787.184 14.8133 787.547 15.4533 787.547 16.136C787.547 16.776 787.248 17.2667 786.651 17.608C786.096 17.9493 785.477 18.12 784.795 18.12C784.112 18.12 783.536 17.8213 783.067 17.224C782.64 16.584 782.427 15.9013 782.427 15.176C782.427 13.896 783.067 13.256 784.347 13.256ZM778.587 37.064C776.197 39.624 773.765 41.4587 771.291 42.568C770.523 42.9093 769.904 43.08 769.434 43.08C768.154 43.08 767.514 42.44 767.514 41.16C767.514 40.3493 768.154 39.688 769.434 39.176C770.117 38.92 771.013 38.408 772.123 37.64C773.275 36.872 774.043 36.296 774.427 35.912C774.811 35.528 775.472 34.824 776.411 33.8C777.392 32.776 778.16 32.008 778.715 31.496C779.269 30.9413 780.016 30.3867 780.955 29.832C781.936 29.2773 782.832 29 783.643 29C785.307 29 786.587 29.5973 787.483 30.792C788.379 31.9867 788.912 33.3093 789.083 34.76C789.552 38.6 790.299 40.52 791.323 40.52C792.133 40.52 793.179 40.3067 794.459 39.88C795.739 39.4533 796.443 39.24 796.571 39.24C797.851 39.24 798.491 39.88 798.491 41.16C798.491 42.0987 797.851 42.7813 796.571 43.208C794.267 43.976 792.389 44.36 790.939 44.36C789.531 44.36 788.379 43.7627 787.483 42.568C786.587 41.3733 786.053 40.0507 785.883 38.6C785.413 34.76 784.667 32.84 783.643 32.84C783.088 32.84 782.448 33.2027 781.723 33.928C781.04 34.6107 780.485 35.1653 780.059 35.592C779.632 35.976 779.141 36.4667 778.587 37.064ZM836.886 43.208C834.582 43.976 832.79 44.36 831.51 44.36C830.23 44.36 829.227 43.8907 828.502 42.952C827.776 42.0133 827.115 40.4133 826.518 38.152C825.963 35.8907 825.536 34.76 825.238 34.76C824.128 34.76 822.955 36.4667 821.718 39.88C821.248 41.16 820.48 42.3333 819.414 43.4C818.347 44.4667 817.003 45 815.382 45C813.803 45 812.566 44.296 811.67 42.888C810.774 41.48 810.24 39.944 810.07 38.28C809.942 36.616 809.728 35.08 809.43 33.672C809.131 32.264 808.64 31.56 807.958 31.56C807.488 31.56 807.147 31.688 806.934 31.944C806.72 32.2 806.528 32.456 806.358 32.712C806.23 32.9253 806.08 33.16 805.91 33.416C805.782 33.6293 805.611 33.928 805.398 34.312C805.227 34.696 805.014 35.1013 804.758 35.528C803.904 37.0213 803.222 38.1307 802.71 38.856C801.686 40.4773 800.171 41.7147 798.166 42.568C797.398 42.9093 796.779 43.08 796.309 43.08C795.029 43.08 794.389 42.44 794.389 41.16C794.389 40.3493 795.072 39.688 796.438 39.176C797.803 38.664 798.763 37.9387 799.318 37C799.915 36.0187 800.576 34.9093 801.302 33.672C802.027 32.4347 802.518 31.6027 802.774 31.176C803.072 30.7493 803.435 30.2373 803.862 29.64C804.288 29 804.672 28.5947 805.014 28.424C805.91 27.9547 806.891 27.72 807.958 27.72C809.707 27.72 811.03 28.424 811.926 29.832C812.822 31.24 813.334 32.776 813.462 34.44C813.632 36.104 813.867 37.64 814.166 39.048C814.464 40.456 814.955 41.16 815.638 41.16C816.32 41.16 816.96 40.6267 817.558 39.56C818.198 38.4933 818.752 37.32 819.222 36.04C819.691 34.76 820.438 33.5867 821.462 32.52C822.528 31.4533 823.787 30.92 825.238 30.92C826.347 30.92 827.158 31.1973 827.67 31.752C828.182 32.264 828.544 32.6693 828.757 32.968C829.014 33.2667 829.227 33.7147 829.398 34.312C829.611 34.9093 829.76 35.3573 829.846 35.656C829.931 35.912 830.059 36.3813 830.229 37.064C830.742 39.4107 831.211 40.5627 831.638 40.52C832.448 40.52 833.494 40.3067 834.774 39.88C836.054 39.4533 836.758 39.24 836.886 39.24C838.166 39.24 838.806 39.88 838.806 41.16C838.806 42.0987 838.166 42.7813 836.886 43.208ZM846.35 40.136C847.033 40.136 847.737 40.4347 848.462 41.032C849.187 41.6293 849.55 42.2693 849.55 42.952C849.55 43.6347 849.251 44.1467 848.654 44.488C848.099 44.8293 847.481 45 846.798 45C846.115 45 845.539 44.7013 845.07 44.104C844.643 43.464 844.43 42.7813 844.43 42.056C844.43 40.776 845.07 40.136 846.35 40.136Z" fill="white"/>
</svg>
