<svg width="217" height="35" viewBox="0 0 217 35" fill="none" xmlns="http://www.w3.org/2000/svg">
<path d="M5.55859 22.7637H16.7559V27H0.285156V1.40625H5.55859V22.7637ZM18.6719 17.3145C18.6719 15.4277 19.0352 13.7461 19.7617 12.2695C20.4883 10.793 21.5312 9.65039 22.8906 8.8418C24.2617 8.0332 25.8496 7.62891 27.6543 7.62891C30.2207 7.62891 32.3125 8.41406 33.9297 9.98438C35.5586 11.5547 36.4668 13.6875 36.6543 16.3828L36.6895 17.6836C36.6895 20.6016 35.875 22.9453 34.2461 24.7148C32.6172 26.4727 30.4316 27.3516 27.6895 27.3516C24.9473 27.3516 22.7559 26.4727 21.1152 24.7148C19.4863 22.957 18.6719 20.5664 18.6719 17.543V17.3145ZM23.752 17.6836C23.752 19.4883 24.0918 20.8711 24.7715 21.832C25.4512 22.7812 26.4238 23.2559 27.6895 23.2559C28.9199 23.2559 29.8809 22.7871 30.5723 21.8496C31.2637 20.9004 31.6094 19.3887 31.6094 17.3145C31.6094 15.5449 31.2637 14.1738 30.5723 13.2012C29.8809 12.2285 28.9082 11.7422 27.6543 11.7422C26.4121 11.7422 25.4512 12.2285 24.7715 13.2012C24.0918 14.1621 23.752 15.6562 23.752 17.6836ZM39.0801 17.3496C39.0801 14.4316 39.7715 12.082 41.1543 10.3008C42.5488 8.51953 44.4238 7.62891 46.7793 7.62891C48.8652 7.62891 50.4883 8.34375 51.6484 9.77344L51.8594 7.98047H56.4648V26.3672C56.4648 28.0312 56.084 29.4785 55.3223 30.709C54.5723 31.9395 53.5117 32.877 52.1406 33.5215C50.7695 34.166 49.1641 34.4883 47.3242 34.4883C45.9297 34.4883 44.5703 34.207 43.2461 33.6445C41.9219 33.0938 40.9199 32.3789 40.2402 31.5L42.4902 28.4062C43.7559 29.8242 45.291 30.5332 47.0957 30.5332C48.4434 30.5332 49.4922 30.1699 50.2422 29.4434C50.9922 28.7285 51.3672 27.709 51.3672 26.3848V25.3652C50.1953 26.6895 48.6543 27.3516 46.7441 27.3516C44.459 27.3516 42.6074 26.4609 41.1895 24.6797C39.7832 22.8867 39.0801 20.5137 39.0801 17.5605V17.3496ZM44.1602 17.7188C44.1602 19.4414 44.5059 20.7949 45.1973 21.7793C45.8887 22.752 46.8379 23.2383 48.0449 23.2383C49.5918 23.2383 50.6992 22.6582 51.3672 21.498V13.5C50.6875 12.3398 49.5918 11.7598 48.0801 11.7598C46.8613 11.7598 45.9004 12.2578 45.1973 13.2539C44.5059 14.25 44.1602 15.7383 44.1602 17.7188ZM65.7461 27H60.6484V7.98047H65.7461V27ZM60.3496 3.05859C60.3496 2.29688 60.6016 1.66992 61.1055 1.17773C61.6211 0.685547 62.3184 0.439453 63.1973 0.439453C64.0645 0.439453 64.7559 0.685547 65.2715 1.17773C65.7871 1.66992 66.0449 2.29688 66.0449 3.05859C66.0449 3.83203 65.7812 4.46484 65.2539 4.95703C64.7383 5.44922 64.0527 5.69531 63.1973 5.69531C62.3418 5.69531 61.6504 5.44922 61.123 4.95703C60.6074 4.46484 60.3496 3.83203 60.3496 3.05859ZM74.623 7.98047L74.7812 10.1777C76.1406 8.47852 77.9629 7.62891 80.248 7.62891C82.2637 7.62891 83.7637 8.2207 84.748 9.4043C85.7324 10.5879 86.2363 12.3574 86.2598 14.7129V27H81.1797V14.8359C81.1797 13.7578 80.9453 12.9785 80.4766 12.498C80.0078 12.0059 79.2285 11.7598 78.1387 11.7598C76.709 11.7598 75.6367 12.3691 74.9219 13.5879V27H69.8418V7.98047H74.623ZM117.197 20.2852C117.197 19.2891 116.846 18.5273 116.143 18C115.439 17.4609 114.174 16.8984 112.346 16.3125C110.518 15.7148 109.07 15.1289 108.004 14.5547C105.098 12.9844 103.645 10.8691 103.645 8.20898C103.645 6.82617 104.031 5.5957 104.805 4.51758C105.59 3.42773 106.709 2.57813 108.162 1.96875C109.627 1.35937 111.268 1.05469 113.084 1.05469C114.912 1.05469 116.541 1.38867 117.971 2.05664C119.4 2.71289 120.508 3.64453 121.293 4.85156C122.09 6.05859 122.488 7.42969 122.488 8.96484H117.215C117.215 7.79297 116.846 6.88477 116.107 6.24023C115.369 5.58398 114.332 5.25586 112.996 5.25586C111.707 5.25586 110.705 5.53125 109.99 6.08203C109.275 6.62109 108.918 7.33594 108.918 8.22656C108.918 9.05859 109.334 9.75586 110.166 10.3184C111.01 10.8809 112.246 11.4082 113.875 11.9004C116.875 12.8027 119.061 13.9219 120.432 15.2578C121.803 16.5938 122.488 18.2578 122.488 20.25C122.488 22.4648 121.65 24.2051 119.975 25.4707C118.299 26.7246 116.043 27.3516 113.207 27.3516C111.238 27.3516 109.445 26.9941 107.828 26.2793C106.211 25.5527 104.975 24.5625 104.119 23.3086C103.275 22.0547 102.854 20.6016 102.854 18.9492H108.145C108.145 21.7734 109.832 23.1855 113.207 23.1855C114.461 23.1855 115.439 22.9336 116.143 22.4297C116.846 21.9141 117.197 21.1992 117.197 20.2852ZM131.102 27H126.004V7.98047H131.102V27ZM125.705 3.05859C125.705 2.29688 125.957 1.66992 126.461 1.17773C126.977 0.685547 127.674 0.439453 128.553 0.439453C129.42 0.439453 130.111 0.685547 130.627 1.17773C131.143 1.66992 131.4 2.29688 131.4 3.05859C131.4 3.83203 131.137 4.46484 130.609 4.95703C130.094 5.44922 129.408 5.69531 128.553 5.69531C127.697 5.69531 127.006 5.44922 126.479 4.95703C125.963 4.46484 125.705 3.83203 125.705 3.05859ZM134.564 17.3496C134.564 14.4316 135.256 12.082 136.639 10.3008C138.033 8.51953 139.908 7.62891 142.264 7.62891C144.35 7.62891 145.973 8.34375 147.133 9.77344L147.344 7.98047H151.949V26.3672C151.949 28.0312 151.568 29.4785 150.807 30.709C150.057 31.9395 148.996 32.877 147.625 33.5215C146.254 34.166 144.648 34.4883 142.809 34.4883C141.414 34.4883 140.055 34.207 138.73 33.6445C137.406 33.0938 136.404 32.3789 135.725 31.5L137.975 28.4062C139.24 29.8242 140.775 30.5332 142.58 30.5332C143.928 30.5332 144.977 30.1699 145.727 29.4434C146.477 28.7285 146.852 27.709 146.852 26.3848V25.3652C145.68 26.6895 144.139 27.3516 142.229 27.3516C139.943 27.3516 138.092 26.4609 136.674 24.6797C135.268 22.8867 134.564 20.5137 134.564 17.5605V17.3496ZM139.645 17.7188C139.645 19.4414 139.99 20.7949 140.682 21.7793C141.373 22.752 142.322 23.2383 143.529 23.2383C145.076 23.2383 146.184 22.6582 146.852 21.498V13.5C146.172 12.3398 145.076 11.7598 143.564 11.7598C142.346 11.7598 141.385 12.2578 140.682 13.2539C139.99 14.25 139.645 15.7383 139.645 17.7188ZM160.545 7.98047L160.703 10.1777C162.062 8.47852 163.885 7.62891 166.17 7.62891C168.186 7.62891 169.686 8.2207 170.67 9.4043C171.654 10.5879 172.158 12.3574 172.182 14.7129V27H167.102V14.8359C167.102 13.7578 166.867 12.9785 166.398 12.498C165.93 12.0059 165.15 11.7598 164.061 11.7598C162.631 11.7598 161.559 12.3691 160.844 13.5879V27H155.764V7.98047H160.545ZM195.754 1.40625V18.2637C195.754 21.0645 194.875 23.2793 193.117 24.9082C191.371 26.5371 188.98 27.3516 185.945 27.3516C182.957 27.3516 180.584 26.5605 178.826 24.9785C177.068 23.3965 176.172 21.2227 176.137 18.457V1.40625H181.41V18.2988C181.41 19.9746 181.809 21.1992 182.605 21.9727C183.414 22.7344 184.527 23.1152 185.945 23.1152C188.91 23.1152 190.416 21.5566 190.463 18.4395V1.40625H195.754ZM216.865 17.666C216.865 20.5957 216.197 22.9453 214.861 24.7148C213.537 26.4727 211.744 27.3516 209.482 27.3516C207.561 27.3516 206.008 26.6836 204.824 25.3477V34.3125H199.744V7.98047H204.455L204.631 9.84375C205.861 8.36719 207.467 7.62891 209.447 7.62891C211.791 7.62891 213.613 8.49609 214.914 10.2305C216.215 11.9648 216.865 14.3555 216.865 17.4023V17.666ZM211.785 17.2969C211.785 15.5273 211.469 14.1621 210.836 13.2012C210.215 12.2402 209.307 11.7598 208.111 11.7598C206.518 11.7598 205.422 12.3691 204.824 13.5879V21.375C205.445 22.6289 206.553 23.2559 208.146 23.2559C210.572 23.2559 211.785 21.2695 211.785 17.2969Z" fill="#78E751"/>
<path d="M91.7266 29.1973H87.9473L97.3691 1.40625H101.148L91.7266 29.1973Z" fill="white"/>
</svg>
