<svg width="697" height="58" viewBox="0 0 697 58" fill="none" xmlns="http://www.w3.org/2000/svg">
<path d="M40.632 0.559998C41.4427 0.559998 42.0613 0.815998 42.488 1.328C42.9573 1.79733 43.192 2.43733 43.192 3.248V43.76C43.192 44.528 42.9787 45.1467 42.552 45.616C42.1253 46.0853 41.528 46.32 40.76 46.32C39.992 46.32 39.416 46.0853 39.032 45.616C38.648 45.1467 38.456 44.528 38.456 43.76V11.056L24.568 37.68C23.9707 38.9173 23.096 39.536 21.944 39.536C20.8347 39.536 19.96 38.9173 19.32 37.68L5.368 11.376V43.76C5.368 44.528 5.15467 45.1467 4.728 45.616C4.344 46.0853 3.768 46.32 3 46.32C2.232 46.32 1.63467 46.0853 1.208 45.616C0.781334 45.1467 0.568 44.528 0.568 43.76V3.248C0.568 2.43733 0.802667 1.79733 1.272 1.328C1.74133 0.815998 2.38133 0.559998 3.192 0.559998C4.25867 0.559998 5.112 1.17866 5.752 2.416L22.008 33.584L38.072 2.416C38.4133 1.73333 38.776 1.264 39.16 1.008C39.5867 0.709332 40.0773 0.559998 40.632 0.559998ZM66.5405 46.448C63.5965 46.448 60.9938 45.7867 58.7325 44.464C56.5138 43.1413 54.7858 41.264 53.5485 38.832C52.3538 36.3573 51.7565 33.4987 51.7565 30.256C51.7565 27.0133 52.3538 24.176 53.5485 21.744C54.7858 19.2693 56.5138 17.3707 58.7325 16.048C60.9938 14.7253 63.5965 14.064 66.5405 14.064C69.4845 14.064 72.0872 14.7253 74.3485 16.048C76.6098 17.3707 78.3378 19.2693 79.5325 21.744C80.7698 24.176 81.3885 27.0133 81.3885 30.256C81.3885 33.4987 80.7698 36.3573 79.5325 38.832C78.3378 41.264 76.6098 43.1413 74.3485 44.464C72.0872 45.7867 69.4845 46.448 66.5405 46.448ZM66.5405 42.16C69.6125 42.16 71.9592 41.1573 73.5805 39.152C75.2445 37.104 76.0765 34.1387 76.0765 30.256C76.0765 26.4587 75.2445 23.536 73.5805 21.488C71.9165 19.3973 69.5698 18.352 66.5405 18.352C63.5112 18.352 61.1645 19.3973 59.5005 21.488C57.8365 23.536 57.0045 26.4587 57.0045 30.256C57.0045 34.096 57.8152 37.04 59.4365 39.088C61.1005 41.136 63.4685 42.16 66.5405 42.16ZM99.6085 46.448C97.6458 46.448 95.7685 46.2133 93.9765 45.744C92.2272 45.2747 90.6698 44.6133 89.3045 43.76C88.5365 43.248 87.9818 42.7787 87.6405 42.352C87.3418 41.8827 87.1925 41.328 87.1925 40.688C87.1925 40.1333 87.3418 39.6853 87.6405 39.344C87.9818 38.96 88.4085 38.768 88.9205 38.768C89.4325 38.768 90.1792 39.088 91.1605 39.728C92.4405 40.496 93.6992 41.1147 94.9365 41.584C96.2165 42.0107 97.7952 42.224 99.6725 42.224C101.977 42.224 103.769 41.8187 105.049 41.008C106.329 40.1973 106.969 39.024 106.969 37.488C106.969 36.5493 106.734 35.8027 106.265 35.248C105.795 34.6507 104.985 34.1387 103.833 33.712C102.681 33.2427 100.995 32.7733 98.7765 32.304C95.0218 31.4933 92.3338 30.4053 90.7125 29.04C89.0912 27.6747 88.2805 25.8187 88.2805 23.472C88.2805 21.6373 88.7925 20.016 89.8165 18.608C90.8405 17.2 92.2485 16.0907 94.0405 15.28C95.8752 14.4693 97.9445 14.064 100.249 14.064C101.913 14.064 103.513 14.2987 105.049 14.768C106.627 15.1947 108.014 15.8133 109.209 16.624C110.659 17.648 111.385 18.7147 111.385 19.824C111.385 20.3787 111.214 20.848 110.873 21.232C110.531 21.616 110.126 21.808 109.657 21.808C109.145 21.808 108.377 21.4453 107.353 20.72C106.158 19.952 105.027 19.3547 103.961 18.928C102.894 18.5013 101.571 18.288 99.9925 18.288C97.9872 18.288 96.3658 18.736 95.1285 19.632C93.9338 20.528 93.3365 21.7227 93.3365 23.216C93.3365 24.1547 93.5498 24.9227 93.9765 25.52C94.4458 26.0747 95.1925 26.5867 96.2165 27.056C97.2832 27.4827 98.7978 27.9093 100.76 28.336C103.662 28.976 105.902 29.68 107.481 30.448C109.102 31.216 110.254 32.1547 110.937 33.264C111.619 34.3733 111.961 35.7813 111.961 37.488C111.961 40.176 110.83 42.352 108.569 44.016C106.307 45.6373 103.321 46.448 99.6085 46.448ZM133.95 42.224C135.443 42.352 136.19 43.0347 136.19 44.272C136.19 44.9973 135.913 45.552 135.358 45.936C134.846 46.2773 134.057 46.4053 132.99 46.32L131.262 46.192C127.849 45.936 125.331 44.912 123.71 43.12C122.089 41.328 121.278 38.6187 121.278 34.992V18.928H116.99C116.265 18.928 115.689 18.7573 115.262 18.416C114.878 18.032 114.686 17.5413 114.686 16.944C114.686 16.304 114.878 15.792 115.262 15.408C115.689 15.024 116.265 14.832 116.99 14.832H121.278V7.6C121.278 6.78933 121.513 6.17067 121.982 5.744C122.451 5.27466 123.091 5.04 123.902 5.04C124.67 5.04 125.289 5.27466 125.758 5.744C126.227 6.17067 126.462 6.78933 126.462 7.6V14.832H133.566C134.249 14.832 134.782 15.024 135.166 15.408C135.593 15.792 135.806 16.304 135.806 16.944C135.806 17.5413 135.593 18.032 135.166 18.416C134.782 18.7573 134.249 18.928 133.566 18.928H126.462V35.248C126.462 37.5947 126.931 39.3013 127.87 40.368C128.851 41.392 130.302 41.968 132.222 42.096L133.95 42.224ZM173.48 14.064C176.211 14.064 178.621 14.7467 180.712 16.112C182.803 17.4773 184.424 19.3973 185.576 21.872C186.728 24.304 187.304 27.1413 187.304 30.384C187.304 33.6267 186.728 36.464 185.576 38.896C184.424 41.2853 182.803 43.1413 180.712 44.464C178.664 45.7867 176.253 46.448 173.48 46.448C171.048 46.448 168.915 45.9147 167.08 44.848C165.288 43.7813 163.923 42.2667 162.984 40.304V55.344C162.984 56.112 162.749 56.7093 162.28 57.136C161.853 57.6053 161.235 57.84 160.424 57.84C159.613 57.84 158.973 57.6053 158.504 57.136C158.035 56.6667 157.8 56.0693 157.8 55.344V16.752C157.8 15.984 158.035 15.3653 158.504 14.896C158.973 14.4267 159.613 14.192 160.424 14.192C161.235 14.192 161.853 14.4267 162.28 14.896C162.749 15.3653 162.984 15.984 162.984 16.752V20.208C163.923 18.2453 165.288 16.7307 167.08 15.664C168.915 14.5973 171.048 14.064 173.48 14.064ZM172.456 42.16C175.485 42.16 177.832 41.136 179.496 39.088C181.16 37.04 181.992 34.1387 181.992 30.384C181.992 26.6293 181.16 23.7067 179.496 21.616C177.832 19.4827 175.485 18.416 172.456 18.416C169.427 18.416 167.08 19.44 165.416 21.488C163.795 23.536 162.984 26.4587 162.984 30.256C162.984 34.0533 163.795 36.9973 165.416 39.088C167.08 41.136 169.427 42.16 172.456 42.16ZM207.978 46.448C205.034 46.448 202.431 45.7867 200.17 44.464C197.951 43.1413 196.223 41.264 194.986 38.832C193.791 36.3573 193.194 33.4987 193.194 30.256C193.194 27.0133 193.791 24.176 194.986 21.744C196.223 19.2693 197.951 17.3707 200.17 16.048C202.431 14.7253 205.034 14.064 207.978 14.064C210.922 14.064 213.525 14.7253 215.786 16.048C218.047 17.3707 219.775 19.2693 220.97 21.744C222.207 24.176 222.826 27.0133 222.826 30.256C222.826 33.4987 222.207 36.3573 220.97 38.832C219.775 41.264 218.047 43.1413 215.786 44.464C213.525 45.7867 210.922 46.448 207.978 46.448ZM207.978 42.16C211.05 42.16 213.397 41.1573 215.018 39.152C216.682 37.104 217.514 34.1387 217.514 30.256C217.514 26.4587 216.682 23.536 215.018 21.488C213.354 19.3973 211.007 18.352 207.978 18.352C204.949 18.352 202.602 19.3973 200.938 21.488C199.274 23.536 198.442 26.4587 198.442 30.256C198.442 34.096 199.253 37.04 200.874 39.088C202.538 41.136 204.906 42.16 207.978 42.16ZM246.23 14.064C248.961 14.064 251.371 14.7467 253.462 16.112C255.553 17.4773 257.174 19.3973 258.326 21.872C259.478 24.304 260.054 27.1413 260.054 30.384C260.054 33.6267 259.478 36.464 258.326 38.896C257.174 41.2853 255.553 43.1413 253.462 44.464C251.414 45.7867 249.003 46.448 246.23 46.448C243.798 46.448 241.665 45.9147 239.83 44.848C238.038 43.7813 236.673 42.2667 235.734 40.304V55.344C235.734 56.112 235.499 56.7093 235.03 57.136C234.603 57.6053 233.985 57.84 233.174 57.84C232.363 57.84 231.723 57.6053 231.254 57.136C230.785 56.6667 230.55 56.0693 230.55 55.344V16.752C230.55 15.984 230.785 15.3653 231.254 14.896C231.723 14.4267 232.363 14.192 233.174 14.192C233.985 14.192 234.603 14.4267 235.03 14.896C235.499 15.3653 235.734 15.984 235.734 16.752V20.208C236.673 18.2453 238.038 16.7307 239.83 15.664C241.665 14.5973 243.798 14.064 246.23 14.064ZM245.206 42.16C248.235 42.16 250.582 41.136 252.246 39.088C253.91 37.04 254.742 34.1387 254.742 30.384C254.742 26.6293 253.91 23.7067 252.246 21.616C250.582 19.4827 248.235 18.416 245.206 18.416C242.177 18.416 239.83 19.44 238.166 21.488C236.545 23.536 235.734 26.4587 235.734 30.256C235.734 34.0533 236.545 36.9973 238.166 39.088C239.83 41.136 242.177 42.16 245.206 42.16ZM291.48 14.192C292.291 14.192 292.909 14.4267 293.336 14.896C293.805 15.3653 294.04 15.984 294.04 16.752V43.824C294.04 44.5493 293.805 45.1467 293.336 45.616C292.909 46.0853 292.291 46.32 291.48 46.32C290.712 46.32 290.093 46.1067 289.624 45.68C289.197 45.2107 288.984 44.6133 288.984 43.888V40.688C288.003 42.5653 286.616 43.9947 284.824 44.976C283.075 45.9573 281.091 46.448 278.872 46.448C275.16 46.448 272.365 45.424 270.488 43.376C268.611 41.2853 267.672 38.2133 267.672 34.16V16.752C267.672 15.984 267.907 15.3653 268.376 14.896C268.845 14.4267 269.485 14.192 270.296 14.192C271.107 14.192 271.725 14.4267 272.152 14.896C272.621 15.3653 272.856 15.984 272.856 16.752V34.032C272.856 36.8053 273.411 38.8533 274.52 40.176C275.629 41.456 277.379 42.096 279.768 42.096C282.499 42.096 284.696 41.2213 286.36 39.472C288.024 37.68 288.856 35.3333 288.856 32.432V16.752C288.856 15.984 289.091 15.3653 289.56 14.896C290.029 14.4267 290.669 14.192 291.48 14.192ZM306.299 46.32C305.531 46.32 304.891 46.1067 304.379 45.68C303.91 45.2107 303.675 44.5707 303.675 43.76V3.12C303.675 2.30933 303.91 1.69066 304.379 1.264C304.891 0.794664 305.531 0.559998 306.299 0.559998C307.024 0.559998 307.622 0.794664 308.091 1.264C308.603 1.69066 308.859 2.30933 308.859 3.12V43.76C308.859 44.5707 308.603 45.2107 308.091 45.68C307.622 46.1067 307.024 46.32 306.299 46.32ZM331.286 14.064C339.094 14.064 342.998 18.16 342.998 26.352V43.76C342.998 44.528 342.763 45.1467 342.294 45.616C341.867 46.0853 341.27 46.32 340.502 46.32C339.734 46.32 339.115 46.0853 338.646 45.616C338.177 45.1467 337.942 44.528 337.942 43.76V40.688C337.131 42.5227 335.894 43.952 334.23 44.976C332.566 45.9573 330.646 46.448 328.47 46.448C326.465 46.448 324.609 46.0427 322.902 45.232C321.238 44.4213 319.915 43.2907 318.934 41.84C317.953 40.3893 317.462 38.7893 317.462 37.04C317.462 34.6933 318.059 32.88 319.254 31.6C320.449 30.2773 322.411 29.3387 325.142 28.784C327.873 28.1867 331.67 27.888 336.534 27.888H337.942V25.776C337.942 23.216 337.409 21.3387 336.342 20.144C335.318 18.9493 333.633 18.352 331.286 18.352C328.385 18.352 325.441 19.1413 322.454 20.72C321.302 21.4453 320.491 21.808 320.022 21.808C319.51 21.808 319.083 21.616 318.742 21.232C318.401 20.848 318.23 20.3573 318.23 19.76C318.23 19.1627 318.401 18.6507 318.742 18.224C319.126 17.7547 319.723 17.2853 320.534 16.816C322.027 15.9627 323.713 15.3013 325.59 14.832C327.51 14.32 329.409 14.064 331.286 14.064ZM329.174 42.352C331.734 42.352 333.825 41.4987 335.446 39.792C337.11 38.0427 337.942 35.8027 337.942 33.072V31.216H336.79C333.035 31.216 330.177 31.3867 328.214 31.728C326.251 32.0267 324.843 32.56 323.99 33.328C323.179 34.0533 322.774 35.1413 322.774 36.592C322.774 38.256 323.371 39.6427 324.566 40.752C325.803 41.8187 327.339 42.352 329.174 42.352ZM367.912 14.192C369.704 14.064 370.6 14.7893 370.6 16.368C370.6 17.0507 370.408 17.6053 370.024 18.032C369.64 18.416 368.978 18.6507 368.04 18.736L366.12 18.928C363.261 19.184 361.128 20.208 359.72 22C358.354 23.7493 357.672 25.8187 357.672 28.208V43.76C357.672 44.6133 357.437 45.2533 356.968 45.68C356.498 46.1067 355.88 46.32 355.112 46.32C354.344 46.32 353.704 46.1067 353.192 45.68C352.722 45.2107 352.488 44.5707 352.488 43.76V16.752C352.488 15.9413 352.744 15.3227 353.256 14.896C353.768 14.4267 354.386 14.192 355.112 14.192C355.794 14.192 356.37 14.4267 356.84 14.896C357.309 15.3227 357.544 15.92 357.544 16.688V20.272C358.44 18.3947 359.698 16.9653 361.32 15.984C362.984 15.0027 364.882 14.4267 367.016 14.256L367.912 14.192ZM402.046 46.448C400.083 46.448 398.206 46.2133 396.414 45.744C394.665 45.2747 393.107 44.6133 391.742 43.76C390.974 43.248 390.419 42.7787 390.078 42.352C389.779 41.8827 389.63 41.328 389.63 40.688C389.63 40.1333 389.779 39.6853 390.078 39.344C390.419 38.96 390.846 38.768 391.358 38.768C391.87 38.768 392.617 39.088 393.598 39.728C394.878 40.496 396.137 41.1147 397.374 41.584C398.654 42.0107 400.233 42.224 402.11 42.224C404.414 42.224 406.206 41.8187 407.486 41.008C408.766 40.1973 409.406 39.024 409.406 37.488C409.406 36.5493 409.171 35.8027 408.702 35.248C408.233 34.6507 407.422 34.1387 406.27 33.712C405.118 33.2427 403.433 32.7733 401.214 32.304C397.459 31.4933 394.771 30.4053 393.15 29.04C391.529 27.6747 390.718 25.8187 390.718 23.472C390.718 21.6373 391.23 20.016 392.254 18.608C393.278 17.2 394.686 16.0907 396.478 15.28C398.313 14.4693 400.382 14.064 402.686 14.064C404.35 14.064 405.95 14.2987 407.486 14.768C409.065 15.1947 410.451 15.8133 411.646 16.624C413.097 17.648 413.822 18.7147 413.822 19.824C413.822 20.3787 413.651 20.848 413.31 21.232C412.969 21.616 412.563 21.808 412.094 21.808C411.582 21.808 410.814 21.4453 409.79 20.72C408.595 19.952 407.465 19.3547 406.398 18.928C405.331 18.5013 404.009 18.288 402.43 18.288C400.425 18.288 398.803 18.736 397.566 19.632C396.371 20.528 395.774 21.7227 395.774 23.216C395.774 24.1547 395.987 24.9227 396.414 25.52C396.883 26.0747 397.63 26.5867 398.654 27.056C399.721 27.4827 401.235 27.9093 403.198 28.336C406.099 28.976 408.339 29.68 409.918 30.448C411.539 31.216 412.691 32.1547 413.374 33.264C414.057 34.3733 414.398 35.7813 414.398 37.488C414.398 40.176 413.267 42.352 411.006 44.016C408.745 45.6373 405.758 46.448 402.046 46.448ZM437.98 14.064C440.711 14.064 443.121 14.7467 445.212 16.112C447.303 17.4773 448.924 19.3973 450.076 21.872C451.228 24.304 451.804 27.1413 451.804 30.384C451.804 33.6267 451.228 36.464 450.076 38.896C448.924 41.2853 447.303 43.1413 445.212 44.464C443.164 45.7867 440.753 46.448 437.98 46.448C435.548 46.448 433.415 45.9147 431.58 44.848C429.788 43.7813 428.423 42.2667 427.484 40.304V55.344C427.484 56.112 427.249 56.7093 426.78 57.136C426.353 57.6053 425.735 57.84 424.924 57.84C424.113 57.84 423.473 57.6053 423.004 57.136C422.535 56.6667 422.3 56.0693 422.3 55.344V16.752C422.3 15.984 422.535 15.3653 423.004 14.896C423.473 14.4267 424.113 14.192 424.924 14.192C425.735 14.192 426.353 14.4267 426.78 14.896C427.249 15.3653 427.484 15.984 427.484 16.752V20.208C428.423 18.2453 429.788 16.7307 431.58 15.664C433.415 14.5973 435.548 14.064 437.98 14.064ZM436.956 42.16C439.985 42.16 442.332 41.136 443.996 39.088C445.66 37.04 446.492 34.1387 446.492 30.384C446.492 26.6293 445.66 23.7067 443.996 21.616C442.332 19.4827 439.985 18.416 436.956 18.416C433.927 18.416 431.58 19.44 429.916 21.488C428.295 23.536 427.484 26.4587 427.484 30.256C427.484 34.0533 428.295 36.9973 429.916 39.088C431.58 41.136 433.927 42.16 436.956 42.16ZM483.678 38.768C484.147 38.768 484.553 38.96 484.894 39.344C485.235 39.728 485.406 40.2187 485.406 40.816C485.406 41.8827 484.659 42.864 483.166 43.76C481.63 44.656 480.009 45.3387 478.302 45.808C476.595 46.2347 474.931 46.448 473.31 46.448C468.489 46.448 464.67 45.0187 461.854 42.16C459.081 39.3013 457.694 35.3547 457.694 30.32C457.694 27.12 458.313 24.304 459.55 21.872C460.787 19.3973 462.515 17.4773 464.734 16.112C466.995 14.7467 469.555 14.064 472.414 14.064C476.467 14.064 479.689 15.3867 482.078 18.032C484.467 20.6773 485.662 24.2613 485.662 28.784C485.662 29.6373 485.491 30.256 485.15 30.64C484.809 31.024 484.254 31.216 483.486 31.216H462.878C463.262 38.5547 466.739 42.224 473.31 42.224C474.974 42.224 476.403 42.0107 477.598 41.584C478.793 41.1147 480.073 40.496 481.438 39.728C482.547 39.088 483.294 38.768 483.678 38.768ZM472.478 18.096C469.747 18.096 467.55 18.9493 465.886 20.656C464.265 22.3627 463.305 24.7733 463.006 27.888H481.118C481.033 24.7307 480.243 22.32 478.75 20.656C477.257 18.9493 475.166 18.096 472.478 18.096ZM506.164 46.448C503.263 46.448 500.681 45.7867 498.42 44.464C496.201 43.1413 494.473 41.264 493.236 38.832C492.041 36.4 491.444 33.584 491.444 30.384C491.444 27.184 492.063 24.3467 493.3 21.872C494.58 19.3973 496.351 17.4773 498.612 16.112C500.873 14.7467 503.476 14.064 506.42 14.064C508.041 14.064 509.641 14.2987 511.22 14.768C512.841 15.1947 514.249 15.8347 515.444 16.688C516.212 17.2 516.745 17.712 517.044 18.224C517.385 18.6933 517.556 19.2267 517.556 19.824C517.556 20.4213 517.385 20.912 517.044 21.296C516.745 21.68 516.34 21.872 515.828 21.872C515.529 21.872 515.209 21.7867 514.868 21.616C514.527 21.4453 514.228 21.2747 513.972 21.104C513.759 20.9333 513.609 20.8267 513.524 20.784C512.415 20.0587 511.348 19.4827 510.324 19.056C509.343 18.6293 508.127 18.416 506.676 18.416C503.561 18.416 501.129 19.4827 499.38 21.616C497.673 23.7067 496.82 26.6293 496.82 30.384C496.82 34.1387 497.673 37.04 499.38 39.088C501.129 41.136 503.561 42.16 506.676 42.16C508.127 42.16 509.364 41.9467 510.388 41.52C511.455 41.0933 512.521 40.5173 513.588 39.792C514.057 39.4933 514.505 39.2373 514.932 39.024C515.359 38.8107 515.721 38.704 516.02 38.704C516.489 38.704 516.873 38.896 517.172 39.28C517.513 39.664 517.684 40.1547 517.684 40.752C517.684 41.3067 517.535 41.8187 517.236 42.288C516.937 42.7147 516.383 43.2053 515.572 43.76C514.377 44.5707 512.927 45.232 511.22 45.744C509.556 46.2133 507.871 46.448 506.164 46.448ZM526.549 46.32C525.781 46.32 525.141 46.1067 524.629 45.68C524.16 45.2107 523.925 44.5707 523.925 43.76V16.752C523.925 15.9413 524.16 15.3227 524.629 14.896C525.141 14.4267 525.781 14.192 526.549 14.192C527.317 14.192 527.936 14.4267 528.405 14.896C528.874 15.3227 529.109 15.9413 529.109 16.752V43.76C529.109 44.6133 528.874 45.2533 528.405 45.68C527.936 46.1067 527.317 46.32 526.549 46.32ZM526.549 7.472C525.525 7.472 524.693 7.17333 524.053 6.576C523.413 5.97866 523.093 5.18933 523.093 4.208C523.093 3.26933 523.413 2.50133 524.053 1.904C524.693 1.30667 525.525 1.008 526.549 1.008C527.573 1.008 528.405 1.30667 529.045 1.904C529.685 2.50133 530.005 3.26933 530.005 4.208C530.005 5.18933 529.685 5.97866 529.045 6.576C528.405 7.17333 527.573 7.472 526.549 7.472ZM551.536 14.064C559.344 14.064 563.248 18.16 563.248 26.352V43.76C563.248 44.528 563.013 45.1467 562.544 45.616C562.117 46.0853 561.52 46.32 560.752 46.32C559.984 46.32 559.365 46.0853 558.896 45.616C558.427 45.1467 558.192 44.528 558.192 43.76V40.688C557.381 42.5227 556.144 43.952 554.48 44.976C552.816 45.9573 550.896 46.448 548.72 46.448C546.715 46.448 544.859 46.0427 543.152 45.232C541.488 44.4213 540.165 43.2907 539.184 41.84C538.203 40.3893 537.712 38.7893 537.712 37.04C537.712 34.6933 538.309 32.88 539.504 31.6C540.699 30.2773 542.661 29.3387 545.392 28.784C548.123 28.1867 551.92 27.888 556.784 27.888H558.192V25.776C558.192 23.216 557.659 21.3387 556.592 20.144C555.568 18.9493 553.883 18.352 551.536 18.352C548.635 18.352 545.691 19.1413 542.704 20.72C541.552 21.4453 540.741 21.808 540.272 21.808C539.76 21.808 539.333 21.616 538.992 21.232C538.651 20.848 538.48 20.3573 538.48 19.76C538.48 19.1627 538.651 18.6507 538.992 18.224C539.376 17.7547 539.973 17.2853 540.784 16.816C542.277 15.9627 543.963 15.3013 545.84 14.832C547.76 14.32 549.659 14.064 551.536 14.064ZM549.424 42.352C551.984 42.352 554.075 41.4987 555.696 39.792C557.36 38.0427 558.192 35.8027 558.192 33.072V31.216H557.04C553.285 31.216 550.427 31.3867 548.464 31.728C546.501 32.0267 545.093 32.56 544.24 33.328C543.429 34.0533 543.024 35.1413 543.024 36.592C543.024 38.256 543.621 39.6427 544.816 40.752C546.053 41.8187 547.589 42.352 549.424 42.352ZM575.362 46.32C574.594 46.32 573.954 46.1067 573.442 45.68C572.972 45.2107 572.738 44.5707 572.738 43.76V3.12C572.738 2.30933 572.972 1.69066 573.442 1.264C573.954 0.794664 574.594 0.559998 575.362 0.559998C576.087 0.559998 576.684 0.794664 577.154 1.264C577.666 1.69066 577.922 2.30933 577.922 3.12V43.76C577.922 44.5707 577.666 45.2107 577.154 45.68C576.684 46.1067 576.087 46.32 575.362 46.32ZM590.237 46.32C589.469 46.32 588.829 46.1067 588.317 45.68C587.847 45.2107 587.613 44.5707 587.613 43.76V16.752C587.613 15.9413 587.847 15.3227 588.317 14.896C588.829 14.4267 589.469 14.192 590.237 14.192C591.005 14.192 591.623 14.4267 592.093 14.896C592.562 15.3227 592.797 15.9413 592.797 16.752V43.76C592.797 44.6133 592.562 45.2533 592.093 45.68C591.623 46.1067 591.005 46.32 590.237 46.32ZM590.237 7.472C589.213 7.472 588.381 7.17333 587.741 6.576C587.101 5.97866 586.781 5.18933 586.781 4.208C586.781 3.26933 587.101 2.50133 587.741 1.904C588.381 1.30667 589.213 1.008 590.237 1.008C591.261 1.008 592.093 1.30667 592.733 1.904C593.373 2.50133 593.693 3.26933 593.693 4.208C593.693 5.18933 593.373 5.97866 592.733 6.576C592.093 7.17333 591.261 7.472 590.237 7.472ZM617.388 42.224C618.881 42.352 619.628 43.0347 619.628 44.272C619.628 44.9973 619.35 45.552 618.796 45.936C618.284 46.2773 617.494 46.4053 616.428 46.32L614.7 46.192C611.286 45.936 608.769 44.912 607.148 43.12C605.526 41.328 604.716 38.6187 604.716 34.992V18.928H600.428C599.702 18.928 599.126 18.7573 598.7 18.416C598.316 18.032 598.123 17.5413 598.123 16.944C598.123 16.304 598.316 15.792 598.7 15.408C599.126 15.024 599.702 14.832 600.428 14.832H604.716V7.6C604.716 6.78933 604.95 6.17067 605.42 5.744C605.889 5.27466 606.529 5.04 607.34 5.04C608.108 5.04 608.726 5.27466 609.196 5.744C609.665 6.17067 609.9 6.78933 609.9 7.6V14.832H617.003C617.686 14.832 618.22 15.024 618.604 15.408C619.03 15.792 619.244 16.304 619.244 16.944C619.244 17.5413 619.03 18.032 618.604 18.416C618.22 18.7573 617.686 18.928 617.003 18.928H609.9V35.248C609.9 37.5947 610.369 39.3013 611.308 40.368C612.289 41.392 613.74 41.968 615.66 42.096L617.388 42.224ZM627.362 46.32C626.594 46.32 625.954 46.1067 625.442 45.68C624.972 45.2107 624.738 44.5707 624.738 43.76V16.752C624.738 15.9413 624.972 15.3227 625.442 14.896C625.954 14.4267 626.594 14.192 627.362 14.192C628.13 14.192 628.748 14.4267 629.218 14.896C629.687 15.3227 629.922 15.9413 629.922 16.752V43.76C629.922 44.6133 629.687 45.2533 629.218 45.68C628.748 46.1067 628.13 46.32 627.362 46.32ZM627.362 7.472C626.338 7.472 625.506 7.17333 624.866 6.576C624.226 5.97866 623.906 5.18933 623.906 4.208C623.906 3.26933 624.226 2.50133 624.866 1.904C625.506 1.30667 626.338 1.008 627.362 1.008C628.386 1.008 629.218 1.30667 629.858 1.904C630.498 2.50133 630.818 3.26933 630.818 4.208C630.818 5.18933 630.498 5.97866 629.858 6.576C629.218 7.17333 628.386 7.472 627.362 7.472ZM663.741 38.768C664.21 38.768 664.615 38.96 664.957 39.344C665.298 39.728 665.469 40.2187 665.469 40.816C665.469 41.8827 664.722 42.864 663.229 43.76C661.693 44.656 660.071 45.3387 658.365 45.808C656.658 46.2347 654.994 46.448 653.373 46.448C648.551 46.448 644.733 45.0187 641.917 42.16C639.143 39.3013 637.757 35.3547 637.757 30.32C637.757 27.12 638.375 24.304 639.613 21.872C640.85 19.3973 642.578 17.4773 644.797 16.112C647.058 14.7467 649.618 14.064 652.477 14.064C656.53 14.064 659.751 15.3867 662.141 18.032C664.53 20.6773 665.725 24.2613 665.725 28.784C665.725 29.6373 665.554 30.256 665.213 30.64C664.871 31.024 664.317 31.216 663.549 31.216H642.941C643.325 38.5547 646.802 42.224 653.373 42.224C655.037 42.224 656.466 42.0107 657.661 41.584C658.855 41.1147 660.135 40.496 661.501 39.728C662.61 39.088 663.357 38.768 663.741 38.768ZM652.541 18.096C649.81 18.096 647.613 18.9493 645.949 20.656C644.327 22.3627 643.367 24.7733 643.069 27.888H661.181C661.095 24.7307 660.306 22.32 658.813 20.656C657.319 18.9493 655.229 18.096 652.541 18.096ZM683.859 46.448C681.896 46.448 680.019 46.2133 678.227 45.744C676.477 45.2747 674.92 44.6133 673.555 43.76C672.787 43.248 672.232 42.7787 671.891 42.352C671.592 41.8827 671.443 41.328 671.443 40.688C671.443 40.1333 671.592 39.6853 671.891 39.344C672.232 38.96 672.659 38.768 673.171 38.768C673.683 38.768 674.429 39.088 675.411 39.728C676.691 40.496 677.949 41.1147 679.187 41.584C680.467 42.0107 682.045 42.224 683.923 42.224C686.227 42.224 688.019 41.8187 689.299 41.008C690.579 40.1973 691.219 39.024 691.219 37.488C691.219 36.5493 690.984 35.8027 690.515 35.248C690.045 34.6507 689.235 34.1387 688.083 33.712C686.931 33.2427 685.245 32.7733 683.027 32.304C679.272 31.4933 676.584 30.4053 674.963 29.04C673.341 27.6747 672.531 25.8187 672.531 23.472C672.531 21.6373 673.043 20.016 674.067 18.608C675.091 17.2 676.499 16.0907 678.291 15.28C680.125 14.4693 682.195 14.064 684.499 14.064C686.163 14.064 687.763 14.2987 689.299 14.768C690.877 15.1947 692.264 15.8133 693.459 16.624C694.909 17.648 695.635 18.7147 695.635 19.824C695.635 20.3787 695.464 20.848 695.123 21.232C694.781 21.616 694.376 21.808 693.907 21.808C693.395 21.808 692.627 21.4453 691.603 20.72C690.408 19.952 689.277 19.3547 688.211 18.928C687.144 18.5013 685.821 18.288 684.243 18.288C682.237 18.288 680.616 18.736 679.379 19.632C678.184 20.528 677.587 21.7227 677.587 23.216C677.587 24.1547 677.8 24.9227 678.227 25.52C678.696 26.0747 679.443 26.5867 680.467 27.056C681.533 27.4827 683.048 27.9093 685.01 28.336C687.912 28.976 690.152 29.68 691.731 30.448C693.352 31.216 694.504 32.1547 695.187 33.264C695.869 34.3733 696.211 35.7813 696.211 37.488C696.211 40.176 695.08 42.352 692.819 44.016C690.557 45.6373 687.571 46.448 683.859 46.448Z" fill="white"/>
</svg>
