<svg width="251" height="48" viewBox="0 0 251 48" fill="none" xmlns="http://www.w3.org/2000/svg">
<path d="M36.895 33.919C37.107 34.3783 37.213 34.8377 37.213 35.297C37.213 36.1097 36.8773 36.7987 36.206 37.364C35.57 37.9293 34.828 38.212 33.98 38.212C33.4147 38.212 32.8847 38.0707 32.39 37.788C31.8953 37.47 31.5067 36.993 31.224 36.357L28.044 29.255H9.388L6.208 36.357C5.92533 36.993 5.53667 37.47 5.042 37.788C4.54733 38.0707 3.99967 38.212 3.399 38.212C2.58633 38.212 1.84433 37.9293 1.173 37.364C0.501667 36.7987 0.166 36.1097 0.166 35.297C0.166 34.8377 0.272 34.3783 0.484 33.919L15.112 2.49C15.43 1.78333 15.907 1.25333 16.543 0.899997C17.2143 0.511332 17.921 0.316999 18.663 0.316999C19.405 0.316999 20.094 0.511332 20.73 0.899997C21.4013 1.25333 21.896 1.78333 22.214 2.49L36.895 33.919ZM11.72 23.955H25.712L18.716 8.214L11.72 23.955ZM56.6739 11.447C58.9353 11.447 60.9316 11.9947 62.6629 13.09C64.3943 14.1853 65.7369 15.74 66.6909 17.754C67.6803 19.768 68.1749 22.1177 68.1749 24.803C68.1749 27.4883 67.6803 29.8733 66.6909 31.958C65.7369 34.0073 64.3766 35.5973 62.6099 36.728C60.8786 37.8587 58.8999 38.424 56.6739 38.424C54.8013 38.424 53.1229 38.0177 51.6389 37.205C50.1903 36.3923 49.0773 35.2617 48.2999 33.813V35.138C48.2999 36.092 47.9996 36.8517 47.3989 37.417C46.7983 37.9823 46.0033 38.265 45.0139 38.265C44.0246 38.265 43.2296 37.9823 42.6289 37.417C42.0636 36.8517 41.7809 36.092 41.7809 35.138V3.444C41.7809 2.52533 42.0813 1.78333 42.6819 1.218C43.3179 0.652665 44.1306 0.369998 45.1199 0.369998C46.1093 0.369998 46.9043 0.634998 47.5049 1.165C48.1056 1.695 48.4059 2.41933 48.4059 3.338V15.846C49.1833 14.4327 50.2963 13.355 51.7449 12.613C53.1936 11.8357 54.8366 11.447 56.6739 11.447ZM54.9249 33.283C57.0096 33.283 58.6349 32.541 59.8009 31.057C60.9669 29.573 61.5499 27.4883 61.5499 24.803C61.5499 22.153 60.9669 20.1213 59.8009 18.708C58.6703 17.2947 57.0449 16.588 54.9249 16.588C52.8049 16.588 51.1619 17.3123 49.9959 18.761C48.8653 20.1743 48.2999 22.2237 48.2999 24.909C48.2999 27.5943 48.8653 29.6613 49.9959 31.11C51.1619 32.5587 52.8049 33.283 54.9249 33.283ZM85.431 38.424C82.781 38.424 80.449 37.8763 78.435 36.781C76.4563 35.6857 74.9193 34.1133 73.824 32.064C72.7287 30.0147 72.181 27.6297 72.181 24.909C72.181 22.1883 72.7287 19.821 73.824 17.807C74.9193 15.7577 76.4563 14.1853 78.435 13.09C80.449 11.9947 82.781 11.447 85.431 11.447C88.081 11.447 90.3953 11.9947 92.374 13.09C94.388 14.1853 95.925 15.7577 96.985 17.807C98.0803 19.821 98.628 22.1883 98.628 24.909C98.628 27.6297 98.0803 30.0147 96.985 32.064C95.925 34.1133 94.388 35.6857 92.374 36.781C90.3953 37.8763 88.081 38.424 85.431 38.424ZM85.378 33.283C87.5333 33.283 89.1763 32.5763 90.307 31.163C91.4377 29.7497 92.003 27.665 92.003 24.909C92.003 22.1883 91.4377 20.1213 90.307 18.708C89.1763 17.2593 87.551 16.535 85.431 16.535C83.311 16.535 81.668 17.2593 80.502 18.708C79.3713 20.1213 78.806 22.1883 78.806 24.909C78.806 27.665 79.3713 29.7497 80.502 31.163C81.6327 32.5763 83.258 33.283 85.378 33.283ZM124.555 11.553C125.58 11.553 126.393 11.8357 126.993 12.401C127.594 12.9663 127.894 13.726 127.894 14.68V35.244C127.894 36.1627 127.576 36.9047 126.94 37.47C126.34 38.0353 125.545 38.318 124.555 38.318C123.601 38.318 122.842 38.053 122.276 37.523C121.711 36.993 121.428 36.2687 121.428 35.35V34.025C120.616 35.4383 119.52 36.5337 118.142 37.311C116.764 38.053 115.21 38.424 113.478 38.424C107.118 38.424 103.938 34.8553 103.938 27.718V14.68C103.938 13.726 104.239 12.9663 104.839 12.401C105.44 11.8357 106.235 11.553 107.224 11.553C108.249 11.553 109.062 11.8357 109.662 12.401C110.263 12.9663 110.563 13.726 110.563 14.68V27.771C110.563 29.6083 110.934 30.9687 111.676 31.852C112.418 32.7353 113.584 33.177 115.174 33.177C117.012 33.177 118.478 32.5763 119.573 31.375C120.704 30.1383 121.269 28.513 121.269 26.499V14.68C121.269 13.726 121.57 12.9663 122.17 12.401C122.771 11.8357 123.566 11.553 124.555 11.553ZM148.252 33.389C150.018 33.495 150.902 34.29 150.902 35.774C150.902 36.622 150.548 37.2757 149.842 37.735C149.17 38.159 148.199 38.3357 146.927 38.265L145.496 38.159C139.56 37.735 136.592 34.555 136.592 28.619V17.065H133.942C132.988 17.065 132.246 16.853 131.716 16.429C131.221 16.005 130.974 15.3867 130.974 14.574C130.974 13.7613 131.221 13.143 131.716 12.719C132.246 12.295 132.988 12.083 133.942 12.083H136.592V7.207C136.592 6.253 136.892 5.49333 137.493 4.928C138.093 4.36266 138.906 4.08 139.931 4.08C140.92 4.08 141.715 4.36266 142.316 4.928C142.916 5.49333 143.217 6.253 143.217 7.207V12.083H147.722C148.676 12.083 149.4 12.295 149.895 12.719C150.425 13.143 150.69 13.7613 150.69 14.574C150.69 15.3867 150.425 16.005 149.895 16.429C149.4 16.853 148.676 17.065 147.722 17.065H143.217V29.096C143.217 31.7107 144.418 33.1063 146.821 33.283L148.252 33.389ZM186.816 13.461C187.099 12.825 187.47 12.3657 187.929 12.083C188.424 11.765 188.954 11.606 189.519 11.606C190.332 11.606 191.056 11.8887 191.692 12.454C192.363 12.984 192.699 13.6553 192.699 14.468C192.699 14.8567 192.593 15.263 192.381 15.687L177.912 46.003C177.311 47.2043 176.375 47.805 175.103 47.805C174.29 47.805 173.566 47.54 172.93 47.01C172.329 46.5153 172.029 45.8793 172.029 45.102C172.029 44.7133 172.135 44.2717 172.347 43.777L175.951 36.198L166.093 15.687C165.916 15.3337 165.828 14.9273 165.828 14.468C165.828 13.6553 166.164 12.9663 166.835 12.401C167.542 11.8357 168.337 11.553 169.22 11.553C169.821 11.553 170.368 11.712 170.863 12.03C171.358 12.3127 171.746 12.772 172.029 13.408L179.449 29.785L186.816 13.461ZM208.045 38.424C205.395 38.424 203.063 37.8763 201.049 36.781C199.071 35.6857 197.534 34.1133 196.438 32.064C195.343 30.0147 194.795 27.6297 194.795 24.909C194.795 22.1883 195.343 19.821 196.438 17.807C197.534 15.7577 199.071 14.1853 201.049 13.09C203.063 11.9947 205.395 11.447 208.045 11.447C210.695 11.447 213.01 11.9947 214.988 13.09C217.002 14.1853 218.539 15.7577 219.599 17.807C220.695 19.821 221.242 22.1883 221.242 24.909C221.242 27.6297 220.695 30.0147 219.599 32.064C218.539 34.1133 217.002 35.6857 214.988 36.781C213.01 37.8763 210.695 38.424 208.045 38.424ZM207.992 33.283C210.148 33.283 211.791 32.5763 212.921 31.163C214.052 29.7497 214.617 27.665 214.617 24.909C214.617 22.1883 214.052 20.1213 212.921 18.708C211.791 17.2593 210.165 16.535 208.045 16.535C205.925 16.535 204.282 17.2593 203.116 18.708C201.986 20.1213 201.42 22.1883 201.42 24.909C201.42 27.665 201.986 29.7497 203.116 31.163C204.247 32.5763 205.872 33.283 207.992 33.283ZM247.17 11.553C248.194 11.553 249.007 11.8357 249.608 12.401C250.208 12.9663 250.509 13.726 250.509 14.68V35.244C250.509 36.1627 250.191 36.9047 249.555 37.47C248.954 38.0353 248.159 38.318 247.17 38.318C246.216 38.318 245.456 38.053 244.891 37.523C244.325 36.993 244.043 36.2687 244.043 35.35V34.025C243.23 35.4383 242.135 36.5337 240.757 37.311C239.379 38.053 237.824 38.424 236.093 38.424C229.733 38.424 226.553 34.8553 226.553 27.718V14.68C226.553 13.726 226.853 12.9663 227.454 12.401C228.054 11.8357 228.849 11.553 229.839 11.553C230.863 11.553 231.676 11.8357 232.277 12.401C232.877 12.9663 233.178 13.726 233.178 14.68V27.771C233.178 29.6083 233.549 30.9687 234.291 31.852C235.033 32.7353 236.199 33.177 237.789 33.177C239.626 33.177 241.092 32.5763 242.188 31.375C243.318 30.1383 243.884 28.513 243.884 26.499V14.68C243.884 13.726 244.184 12.9663 244.785 12.401C245.385 11.8357 246.18 11.553 247.17 11.553Z" fill="white"/>
</svg>
