<svg width="200" height="39" viewBox="0 0 200 39" fill="none" xmlns="http://www.w3.org/2000/svg">
<path d="M36.895 33.919C37.107 34.3783 37.213 34.8377 37.213 35.297C37.213 36.1097 36.8773 36.7987 36.206 37.364C35.57 37.9293 34.828 38.212 33.98 38.212C33.4147 38.212 32.8847 38.0707 32.39 37.788C31.8953 37.47 31.5067 36.993 31.224 36.357L28.044 29.255H9.388L6.208 36.357C5.92533 36.993 5.53667 37.47 5.042 37.788C4.54733 38.0707 3.99967 38.212 3.399 38.212C2.58633 38.212 1.84433 37.9293 1.173 37.364C0.501667 36.7987 0.166 36.1097 0.166 35.297C0.166 34.8377 0.272 34.3783 0.484 33.919L15.112 2.49C15.43 1.78333 15.907 1.25333 16.543 0.899997C17.2143 0.511332 17.921 0.316999 18.663 0.316999C19.405 0.316999 20.094 0.511332 20.73 0.899997C21.4013 1.25333 21.896 1.78333 22.214 2.49L36.895 33.919ZM11.72 23.955H25.712L18.716 8.214L11.72 23.955ZM63.4049 0.369998C64.3943 0.369998 65.2069 0.652665 65.8429 1.218C66.4789 1.78333 66.7969 2.52533 66.7969 3.444V35.138C66.7969 36.092 66.4966 36.8517 65.8959 37.417C65.2953 37.9823 64.5003 38.265 63.5109 38.265C62.5216 38.265 61.7266 37.9823 61.1259 37.417C60.5253 36.8517 60.2249 36.092 60.2249 35.138V33.813C59.4476 35.2617 58.3169 36.3923 56.8329 37.205C55.3843 38.0177 53.7236 38.424 51.8509 38.424C49.6249 38.424 47.6286 37.8587 45.8619 36.728C44.1306 35.5973 42.7703 34.0073 41.7809 31.958C40.8269 29.8733 40.3499 27.4883 40.3499 24.803C40.3499 22.1177 40.8269 19.768 41.7809 17.754C42.7703 15.74 44.1306 14.1853 45.8619 13.09C47.5933 11.9947 49.5896 11.447 51.8509 11.447C53.7236 11.447 55.3843 11.8357 56.8329 12.613C58.2816 13.3903 59.3946 14.4857 60.1719 15.899V3.338C60.1719 2.45467 60.4546 1.748 61.0199 1.218C61.6206 0.652665 62.4156 0.369998 63.4049 0.369998ZM53.5999 33.283C55.7199 33.283 57.3453 32.5587 58.4759 31.11C59.6419 29.6613 60.2249 27.5943 60.2249 24.909C60.2249 22.2237 59.6419 20.1743 58.4759 18.761C57.3453 17.3123 55.7376 16.588 53.6529 16.588C51.5329 16.588 49.8899 17.2947 48.7239 18.708C47.5579 20.1213 46.9749 22.153 46.9749 24.803C46.9749 27.4883 47.5579 29.573 48.7239 31.057C49.8899 32.541 51.5153 33.283 53.5999 33.283ZM95.236 0.369998C96.2253 0.369998 97.038 0.652665 97.674 1.218C98.31 1.78333 98.628 2.52533 98.628 3.444V35.138C98.628 36.092 98.3277 36.8517 97.727 37.417C97.1263 37.9823 96.3313 38.265 95.342 38.265C94.3527 38.265 93.5577 37.9823 92.957 37.417C92.3563 36.8517 92.056 36.092 92.056 35.138V33.813C91.2787 35.2617 90.148 36.3923 88.664 37.205C87.2153 38.0177 85.5547 38.424 83.682 38.424C81.456 38.424 79.4597 37.8587 77.693 36.728C75.9617 35.5973 74.6013 34.0073 73.612 31.958C72.658 29.8733 72.181 27.4883 72.181 24.803C72.181 22.1177 72.658 19.768 73.612 17.754C74.6013 15.74 75.9617 14.1853 77.693 13.09C79.4243 11.9947 81.4207 11.447 83.682 11.447C85.5547 11.447 87.2153 11.8357 88.664 12.613C90.1127 13.3903 91.2257 14.4857 92.003 15.899V3.338C92.003 2.45467 92.2857 1.748 92.851 1.218C93.4517 0.652665 94.2467 0.369998 95.236 0.369998ZM85.431 33.283C87.551 33.283 89.1763 32.5587 90.307 31.11C91.473 29.6613 92.056 27.5943 92.056 24.909C92.056 22.2237 91.473 20.1743 90.307 18.761C89.1763 17.3123 87.5687 16.588 85.484 16.588C83.364 16.588 81.721 17.2947 80.555 18.708C79.389 20.1213 78.806 22.153 78.806 24.803C78.806 27.4883 79.389 29.573 80.555 31.057C81.721 32.541 83.3463 33.283 85.431 33.283ZM119.912 11.553C120.831 11.4823 121.555 11.6767 122.085 12.136C122.615 12.5953 122.88 13.2843 122.88 14.203C122.88 15.157 122.65 15.8637 122.191 16.323C121.732 16.7823 120.901 17.0827 119.7 17.224L118.11 17.383C116.025 17.595 114.488 18.3017 113.499 19.503C112.545 20.7043 112.068 22.206 112.068 24.008V35.138C112.068 36.1627 111.75 36.9577 111.114 37.523C110.478 38.053 109.683 38.318 108.729 38.318C107.775 38.318 106.98 38.053 106.344 37.523C105.743 36.9577 105.443 36.1627 105.443 35.138V14.627C105.443 13.6377 105.743 12.878 106.344 12.348C106.98 11.818 107.757 11.553 108.676 11.553C109.595 11.553 110.337 11.818 110.902 12.348C111.467 12.8427 111.75 13.567 111.75 14.521V16.641C112.421 15.0863 113.411 13.885 114.718 13.037C116.061 12.189 117.545 11.712 119.17 11.606L119.912 11.553ZM145.726 30.898C146.326 30.898 146.803 31.1277 147.157 31.587C147.545 32.0463 147.74 32.6647 147.74 33.442C147.74 34.5373 147.086 35.456 145.779 36.198C144.577 36.8693 143.217 37.417 141.698 37.841C140.178 38.2297 138.73 38.424 137.352 38.424C133.182 38.424 129.879 37.2227 127.441 34.82C125.003 32.4173 123.784 29.1313 123.784 24.962C123.784 22.312 124.314 19.9623 125.374 17.913C126.434 15.8637 127.918 14.2737 129.826 13.143C131.769 12.0123 133.96 11.447 136.398 11.447C138.73 11.447 140.761 11.9593 142.493 12.984C144.224 14.0087 145.567 15.4573 146.521 17.33C147.475 19.2027 147.952 21.411 147.952 23.955C147.952 25.4743 147.28 26.234 145.938 26.234H130.303C130.515 28.672 131.204 30.474 132.37 31.64C133.536 32.7707 135.232 33.336 137.458 33.336C138.588 33.336 139.578 33.1947 140.426 32.912C141.309 32.6293 142.298 32.2407 143.394 31.746C144.454 31.1807 145.231 30.898 145.726 30.898ZM136.557 16.111C134.755 16.111 133.306 16.6763 132.211 17.807C131.151 18.9377 130.515 20.563 130.303 22.683H142.281C142.21 20.5277 141.68 18.9023 140.691 17.807C139.701 16.6763 138.323 16.111 136.557 16.111ZM162.752 38.424C158.9 38.424 155.791 37.6643 153.424 36.145C152.293 35.4737 151.728 34.5197 151.728 33.283C151.728 32.5763 151.922 32.011 152.311 31.587C152.699 31.1277 153.176 30.898 153.742 30.898C154.342 30.898 155.173 31.1807 156.233 31.746C157.363 32.276 158.388 32.6823 159.307 32.965C160.261 33.2477 161.462 33.389 162.911 33.389C164.395 33.389 165.543 33.1417 166.356 32.647C167.204 32.1523 167.628 31.4633 167.628 30.58C167.628 29.9793 167.451 29.5023 167.098 29.149C166.78 28.7957 166.179 28.4777 165.296 28.195C164.448 27.877 163.14 27.5237 161.374 27.135C158.229 26.499 155.968 25.598 154.59 24.432C153.247 23.266 152.576 21.6583 152.576 19.609C152.576 18.0543 153.035 16.6587 153.954 15.422C154.872 14.15 156.127 13.1783 157.717 12.507C159.342 11.8003 161.179 11.447 163.229 11.447C164.713 11.447 166.144 11.6413 167.522 12.03C168.9 12.3833 170.136 12.9133 171.232 13.62C172.362 14.3267 172.928 15.263 172.928 16.429C172.928 17.1357 172.733 17.7363 172.345 18.231C171.956 18.6903 171.479 18.92 170.914 18.92C170.525 18.92 170.136 18.8493 169.748 18.708C169.394 18.5313 168.935 18.284 168.37 17.966C167.345 17.436 166.462 17.0473 165.72 16.8C164.978 16.5173 164.059 16.376 162.964 16.376C161.656 16.376 160.614 16.641 159.837 17.171C159.095 17.701 158.724 18.4253 158.724 19.344C158.724 20.2273 159.112 20.8987 159.89 21.358C160.667 21.8173 162.169 22.2767 164.395 22.736C166.762 23.2307 168.617 23.796 169.96 24.432C171.302 25.068 172.256 25.863 172.822 26.817C173.422 27.771 173.723 28.99 173.723 30.474C173.723 32.8767 172.716 34.8023 170.702 36.251C168.723 37.6997 166.073 38.424 162.752 38.424ZM188.475 38.424C184.624 38.424 181.515 37.6643 179.147 36.145C178.017 35.4737 177.451 34.5197 177.451 33.283C177.451 32.5763 177.646 32.011 178.034 31.587C178.423 31.1277 178.9 30.898 179.465 30.898C180.066 30.898 180.896 31.1807 181.956 31.746C183.087 32.276 184.112 32.6823 185.03 32.965C185.984 33.2477 187.186 33.389 188.634 33.389C190.118 33.389 191.267 33.1417 192.079 32.647C192.927 32.1523 193.351 31.4633 193.351 30.58C193.351 29.9793 193.175 29.5023 192.821 29.149C192.503 28.7957 191.903 28.4777 191.019 28.195C190.171 27.877 188.864 27.5237 187.097 27.135C183.953 26.499 181.691 25.598 180.313 24.432C178.971 23.266 178.299 21.6583 178.299 19.609C178.299 18.0543 178.759 16.6587 179.677 15.422C180.596 14.15 181.85 13.1783 183.44 12.507C185.066 11.8003 186.903 11.447 188.952 11.447C190.436 11.447 191.867 11.6413 193.245 12.03C194.623 12.3833 195.86 12.9133 196.955 13.62C198.086 14.3267 198.651 15.263 198.651 16.429C198.651 17.1357 198.457 17.7363 198.068 18.231C197.68 18.6903 197.203 18.92 196.637 18.92C196.249 18.92 195.86 18.8493 195.471 18.708C195.118 18.5313 194.659 18.284 194.093 17.966C193.069 17.436 192.185 17.0473 191.443 16.8C190.701 16.5173 189.783 16.376 188.687 16.376C187.38 16.376 186.338 16.641 185.56 17.171C184.818 17.701 184.447 18.4253 184.447 19.344C184.447 20.2273 184.836 20.8987 185.613 21.358C186.391 21.8173 187.892 22.2767 190.118 22.736C192.486 23.2307 194.341 23.796 195.683 24.432C197.026 25.068 197.98 25.863 198.545 26.817C199.146 27.771 199.446 28.99 199.446 30.474C199.446 32.8767 198.439 34.8023 196.425 36.251C194.447 37.6997 191.797 38.424 188.475 38.424Z" fill="white"/>
</svg>
