<svg width="287" height="40" viewBox="0 0 287 40" fill="none" xmlns="http://www.w3.org/2000/svg">
<path d="M18.723 39.477C15.119 39.477 11.9567 38.6997 9.236 37.145C6.55067 35.5903 4.48367 33.3643 3.035 30.467C1.58633 27.5697 0.862 24.1777 0.862 20.291C0.862 16.4043 1.58633 13.03 3.035 10.168C4.48367 7.27066 6.55067 5.04466 9.236 3.49C11.9567 1.93533 15.119 1.158 18.723 1.158C21.055 1.158 23.2457 1.51133 25.295 2.218C27.3443 2.88933 29.164 3.87867 30.754 5.186C31.2133 5.53933 31.5313 5.91033 31.708 6.299C31.8847 6.68767 31.973 7.16467 31.973 7.73C31.973 8.50733 31.761 9.161 31.337 9.691C30.913 10.221 30.4007 10.486 29.8 10.486C29.0933 10.486 28.369 10.2387 27.627 9.744C26.1077 8.61333 24.6943 7.836 23.387 7.412C22.0797 6.95267 20.631 6.723 19.041 6.723C15.3663 6.723 12.575 7.87133 10.667 10.168C8.79433 12.4647 7.858 15.839 7.858 20.291C7.858 24.7783 8.79433 28.1703 10.667 30.467C12.575 32.7637 15.3663 33.912 19.041 33.912C20.5603 33.912 21.956 33.6823 23.228 33.223C24.5353 32.7637 26.0017 31.9863 27.627 30.891C27.9803 30.679 28.3337 30.5023 28.687 30.361C29.0403 30.2197 29.4113 30.149 29.8 30.149C30.4007 30.149 30.913 30.414 31.337 30.944C31.761 31.474 31.973 32.1277 31.973 32.905C31.973 33.435 31.8847 33.912 31.708 34.336C31.5313 34.7247 31.2133 35.0957 30.754 35.449C29.164 36.7563 27.3443 37.7633 25.295 38.47C23.2457 39.1413 21.055 39.477 18.723 39.477ZM40.6509 39.318C39.6969 39.318 38.9019 39.053 38.2659 38.523C37.6653 37.9577 37.3649 37.1627 37.3649 36.138V4.497C37.3649 3.47233 37.6653 2.695 38.2659 2.165C38.9019 1.635 39.6969 1.37 40.6509 1.37C41.6049 1.37 42.3999 1.635 43.0359 2.165C43.6719 2.695 43.9899 3.47233 43.9899 4.497V36.138C43.9899 37.1627 43.6719 37.9577 43.0359 38.523C42.3999 39.053 41.6049 39.318 40.6509 39.318ZM54.108 39.318C53.154 39.318 52.359 39.053 51.723 38.523C51.1223 37.9577 50.822 37.1627 50.822 36.138V15.68C50.822 14.6553 51.1223 13.878 51.723 13.348C52.359 12.818 53.154 12.553 54.108 12.553C55.062 12.553 55.857 12.818 56.493 13.348C57.129 13.878 57.447 14.6553 57.447 15.68V36.138C57.447 37.1627 57.129 37.9577 56.493 38.523C55.857 39.053 55.062 39.318 54.108 39.318ZM54.108 7.836C52.9066 7.836 51.9526 7.518 51.246 6.882C50.5393 6.21067 50.186 5.345 50.186 4.285C50.186 3.225 50.5393 2.377 51.246 1.741C51.9526 1.105 52.9066 0.786999 54.108 0.786999C55.274 0.786999 56.2103 1.105 56.917 1.741C57.659 2.377 58.03 3.225 58.03 4.285C58.03 5.345 57.6766 6.21067 56.97 6.882C56.2633 7.518 55.3093 7.836 54.108 7.836ZM79.331 12.447C82.4403 12.447 84.7547 13.3303 86.274 15.097C87.7933 16.8637 88.553 19.5313 88.553 23.1V36.138C88.553 37.1273 88.2527 37.9047 87.652 38.47C87.0867 39.0353 86.2917 39.318 85.267 39.318C84.2423 39.318 83.4297 39.0353 82.829 38.47C82.2283 37.9047 81.928 37.1273 81.928 36.138V23.471C81.928 21.457 81.5393 19.9907 80.762 19.072C80.02 18.1533 78.8363 17.694 77.211 17.694C75.303 17.694 73.766 18.2947 72.6 19.496C71.4693 20.6973 70.904 22.305 70.904 24.319V36.138C70.904 37.1273 70.6037 37.9047 70.003 38.47C69.4023 39.0353 68.5897 39.318 67.565 39.318C66.5403 39.318 65.7277 39.0353 65.127 38.47C64.5617 37.9047 64.279 37.1273 64.279 36.138V15.627C64.279 14.7083 64.5793 13.9663 65.18 13.401C65.7807 12.8357 66.5933 12.553 67.618 12.553C68.5367 12.553 69.2787 12.8357 69.844 13.401C70.4447 13.931 70.745 14.6377 70.745 15.521V16.952C71.6283 15.5033 72.812 14.3903 74.296 13.613C75.78 12.8357 77.4583 12.447 79.331 12.447ZM98.5679 39.318C97.6139 39.318 96.8189 39.053 96.1829 38.523C95.5822 37.9577 95.2819 37.1627 95.2819 36.138V15.68C95.2819 14.6553 95.5822 13.878 96.1829 13.348C96.8189 12.818 97.6139 12.553 98.5679 12.553C99.5219 12.553 100.317 12.818 100.953 13.348C101.589 13.878 101.907 14.6553 101.907 15.68V36.138C101.907 37.1627 101.589 37.9577 100.953 38.523C100.317 39.053 99.5219 39.318 98.5679 39.318ZM98.5679 7.836C97.3666 7.836 96.4126 7.518 95.7059 6.882C94.9992 6.21067 94.6459 5.345 94.6459 4.285C94.6459 3.225 94.9992 2.377 95.7059 1.741C96.4126 1.105 97.3666 0.786999 98.5679 0.786999C99.7339 0.786999 100.67 1.105 101.377 1.741C102.119 2.377 102.49 3.225 102.49 4.285C102.49 5.345 102.137 6.21067 101.43 6.882C100.723 7.518 99.7692 7.836 98.5679 7.836ZM120.24 39.424C117.661 39.424 115.382 38.8763 113.403 37.781C111.46 36.6857 109.958 35.131 108.898 33.117C107.838 31.103 107.308 28.7533 107.308 26.068C107.308 23.3827 107.856 21.0153 108.951 18.966C110.082 16.8813 111.654 15.2737 113.668 14.143C115.682 13.0123 117.996 12.447 120.611 12.447C121.989 12.447 123.367 12.6413 124.745 13.03C126.158 13.4187 127.395 13.9487 128.455 14.62C129.586 15.362 130.151 16.2983 130.151 17.429C130.151 18.2063 129.957 18.8423 129.568 19.337C129.215 19.7963 128.738 20.026 128.137 20.026C127.748 20.026 127.342 19.9377 126.918 19.761C126.494 19.5843 126.07 19.3723 125.646 19.125C124.869 18.6657 124.127 18.3123 123.42 18.065C122.713 17.7823 121.901 17.641 120.982 17.641C118.791 17.641 117.095 18.3653 115.894 19.814C114.728 21.2273 114.145 23.2767 114.145 25.962C114.145 28.612 114.728 30.6613 115.894 32.11C117.095 33.5233 118.791 34.23 120.982 34.23C121.865 34.23 122.643 34.1063 123.314 33.859C124.021 33.5763 124.798 33.2053 125.646 32.746C126.176 32.428 126.635 32.1983 127.024 32.057C127.413 31.8803 127.801 31.792 128.19 31.792C128.755 31.792 129.232 32.0393 129.621 32.534C130.01 33.0287 130.204 33.647 130.204 34.389C130.204 34.9897 130.063 35.5197 129.78 35.979C129.533 36.403 129.109 36.7917 128.508 37.145C127.413 37.8517 126.141 38.417 124.692 38.841C123.243 39.2297 121.759 39.424 120.24 39.424ZM177.892 1.37C178.881 1.37 179.658 1.688 180.224 2.324C180.824 2.92467 181.125 3.73733 181.125 4.762V35.873C181.125 36.8977 180.824 37.728 180.224 38.364C179.623 39 178.846 39.318 177.892 39.318C176.761 39.318 175.895 38.9117 175.295 38.099L155.95 12.924V35.873C155.95 36.8977 155.667 37.728 155.102 38.364C154.536 39 153.759 39.318 152.77 39.318C151.78 39.318 151.003 39 150.438 38.364C149.872 37.728 149.59 36.8977 149.59 35.873V4.762C149.59 3.73733 149.89 2.92467 150.491 2.324C151.091 1.688 151.886 1.37 152.876 1.37C153.971 1.37 154.819 1.77633 155.42 2.589L174.712 27.658V4.762C174.712 3.73733 174.994 2.92467 175.56 2.324C176.16 1.688 176.938 1.37 177.892 1.37ZM199.837 12.447C203.441 12.447 206.109 13.348 207.84 15.15C209.607 16.9167 210.49 19.6197 210.49 23.259V36.191C210.49 37.145 210.208 37.9047 209.642 38.47C209.077 39 208.3 39.265 207.31 39.265C206.392 39.265 205.632 38.9823 205.031 38.417C204.466 37.8517 204.183 37.1097 204.183 36.191V35.025C203.583 36.403 202.629 37.4807 201.321 38.258C200.049 39.0353 198.565 39.424 196.869 39.424C195.138 39.424 193.566 39.0707 192.152 38.364C190.739 37.6573 189.626 36.6857 188.813 35.449C188.001 34.2123 187.594 32.8343 187.594 31.315C187.594 29.407 188.071 27.9053 189.025 26.81C190.015 25.7147 191.605 24.9197 193.795 24.425C195.986 23.9303 199.007 23.683 202.858 23.683H204.183V22.464C204.183 20.7327 203.812 19.4783 203.07 18.701C202.328 17.8883 201.127 17.482 199.466 17.482C198.442 17.482 197.399 17.641 196.339 17.959C195.279 18.2417 194.025 18.6657 192.576 19.231C191.658 19.6903 190.986 19.92 190.562 19.92C189.926 19.92 189.396 19.6903 188.972 19.231C188.584 18.7717 188.389 18.171 188.389 17.429C188.389 16.8283 188.531 16.316 188.813 15.892C189.131 15.4327 189.644 15.0087 190.35 14.62C191.587 13.9487 193.053 13.4187 194.749 13.03C196.481 12.6413 198.177 12.447 199.837 12.447ZM198.194 34.654C199.961 34.654 201.392 34.071 202.487 32.905C203.618 31.7037 204.183 30.1667 204.183 28.294V27.181H203.229C200.862 27.181 199.025 27.287 197.717 27.499C196.41 27.711 195.474 28.082 194.908 28.612C194.343 29.142 194.06 29.8663 194.06 30.785C194.06 31.9157 194.449 32.852 195.226 33.594C196.039 34.3007 197.028 34.654 198.194 34.654ZM248.016 12.447C250.843 12.447 252.998 13.295 254.482 14.991C256.002 16.6517 256.761 19.3547 256.761 23.1V36.138C256.761 37.1627 256.443 37.9577 255.807 38.523C255.207 39.053 254.412 39.318 253.422 39.318C252.468 39.318 251.673 39.053 251.037 38.523C250.437 37.9577 250.136 37.1627 250.136 36.138V23.1C250.136 21.1567 249.783 19.7787 249.076 18.966C248.405 18.118 247.363 17.694 245.949 17.694C244.218 17.694 242.84 18.2947 241.815 19.496C240.791 20.662 240.278 22.2697 240.278 24.319V36.138C240.278 37.1627 239.96 37.9577 239.324 38.523C238.724 39.053 237.946 39.318 236.992 39.318C236.038 39.318 235.243 39.053 234.607 38.523C233.971 37.9577 233.653 37.1627 233.653 36.138V23.1C233.653 21.1567 233.3 19.7787 232.593 18.966C231.922 18.118 230.88 17.694 229.466 17.694C227.735 17.694 226.357 18.2947 225.332 19.496C224.343 20.662 223.848 22.2697 223.848 24.319V36.138C223.848 37.1627 223.53 37.9577 222.894 38.523C222.258 39.053 221.463 39.318 220.509 39.318C219.555 39.318 218.76 39.053 218.124 38.523C217.524 37.9577 217.223 37.1627 217.223 36.138V15.627C217.223 14.6377 217.541 13.878 218.177 13.348C218.813 12.818 219.608 12.553 220.562 12.553C221.481 12.553 222.223 12.818 222.788 13.348C223.389 13.8427 223.689 14.567 223.689 15.521V16.793C224.502 15.3797 225.58 14.302 226.922 13.56C228.3 12.818 229.873 12.447 231.639 12.447C235.526 12.447 238.123 14.0723 239.43 17.323C240.208 15.839 241.356 14.6553 242.875 13.772C244.395 12.8887 246.108 12.447 248.016 12.447ZM284.006 31.898C284.606 31.898 285.083 32.1277 285.437 32.587C285.825 33.0463 286.02 33.6647 286.02 34.442C286.02 35.5373 285.366 36.456 284.059 37.198C282.857 37.8693 281.497 38.417 279.978 38.841C278.458 39.2297 277.01 39.424 275.632 39.424C271.462 39.424 268.159 38.2227 265.721 35.82C263.283 33.4173 262.064 30.1313 262.064 25.962C262.064 23.312 262.594 20.9623 263.654 18.913C264.714 16.8637 266.198 15.2737 268.106 14.143C270.049 13.0123 272.24 12.447 274.678 12.447C277.01 12.447 279.041 12.9593 280.773 13.984C282.504 15.0087 283.847 16.4573 284.801 18.33C285.755 20.2027 286.232 22.411 286.232 24.955C286.232 26.4743 285.56 27.234 284.218 27.234H268.583C268.795 29.672 269.484 31.474 270.65 32.64C271.816 33.7707 273.512 34.336 275.738 34.336C276.868 34.336 277.858 34.1947 278.706 33.912C279.589 33.6293 280.578 33.2407 281.674 32.746C282.734 32.1807 283.511 31.898 284.006 31.898ZM274.837 17.111C273.035 17.111 271.586 17.6763 270.491 18.807C269.431 19.9377 268.795 21.563 268.583 23.683H280.561C280.49 21.5277 279.96 19.9023 278.971 18.807C277.981 17.6763 276.603 17.111 274.837 17.111Z" fill="white"/>
</svg>
