<svg width="252" height="40" viewBox="0 0 252 40" fill="none" xmlns="http://www.w3.org/2000/svg">
<path d="M18.723 39.477C15.119 39.477 11.9567 38.6997 9.236 37.145C6.55067 35.5903 4.48367 33.3643 3.035 30.467C1.58633 27.5697 0.862 24.1777 0.862 20.291C0.862 16.4043 1.58633 13.03 3.035 10.168C4.48367 7.27066 6.55067 5.04466 9.236 3.49C11.9567 1.93533 15.119 1.158 18.723 1.158C21.055 1.158 23.2457 1.51133 25.295 2.218C27.3443 2.88933 29.164 3.87867 30.754 5.186C31.2133 5.53933 31.5313 5.91033 31.708 6.299C31.8847 6.68767 31.973 7.16467 31.973 7.73C31.973 8.50733 31.761 9.161 31.337 9.691C30.913 10.221 30.4007 10.486 29.8 10.486C29.0933 10.486 28.369 10.2387 27.627 9.744C26.1077 8.61333 24.6943 7.836 23.387 7.412C22.0797 6.95267 20.631 6.723 19.041 6.723C15.3663 6.723 12.575 7.87133 10.667 10.168C8.79433 12.4647 7.858 15.839 7.858 20.291C7.858 24.7783 8.79433 28.1703 10.667 30.467C12.575 32.7637 15.3663 33.912 19.041 33.912C20.5603 33.912 21.956 33.6823 23.228 33.223C24.5353 32.7637 26.0017 31.9863 27.627 30.891C27.9803 30.679 28.3337 30.5023 28.687 30.361C29.0403 30.2197 29.4113 30.149 29.8 30.149C30.4007 30.149 30.913 30.414 31.337 30.944C31.761 31.474 31.973 32.1277 31.973 32.905C31.973 33.435 31.8847 33.912 31.708 34.336C31.5313 34.7247 31.2133 35.0957 30.754 35.449C29.164 36.7563 27.3443 37.7633 25.295 38.47C23.2457 39.1413 21.055 39.477 18.723 39.477ZM40.6509 39.318C39.6969 39.318 38.9019 39.053 38.2659 38.523C37.6653 37.9577 37.3649 37.1627 37.3649 36.138V4.497C37.3649 3.47233 37.6653 2.695 38.2659 2.165C38.9019 1.635 39.6969 1.37 40.6509 1.37C41.6049 1.37 42.3999 1.635 43.0359 2.165C43.6719 2.695 43.9899 3.47233 43.9899 4.497V36.138C43.9899 37.1627 43.6719 37.9577 43.0359 38.523C42.3999 39.053 41.6049 39.318 40.6509 39.318ZM62.641 39.424C59.991 39.424 57.659 38.8763 55.645 37.781C53.6663 36.6857 52.1293 35.1133 51.034 33.064C49.9386 31.0147 49.391 28.6297 49.391 25.909C49.391 23.1883 49.9386 20.821 51.034 18.807C52.1293 16.7577 53.6663 15.1853 55.645 14.09C57.659 12.9947 59.991 12.447 62.641 12.447C65.291 12.447 67.6053 12.9947 69.584 14.09C71.598 15.1853 73.135 16.7577 74.195 18.807C75.2903 20.821 75.838 23.1883 75.838 25.909C75.838 28.6297 75.2903 31.0147 74.195 33.064C73.135 35.1133 71.598 36.6857 69.584 37.781C67.6053 38.8763 65.291 39.424 62.641 39.424ZM62.588 34.283C64.7433 34.283 66.3863 33.5763 67.517 32.163C68.6476 30.7497 69.213 28.665 69.213 25.909C69.213 23.1883 68.6476 21.1213 67.517 19.708C66.3863 18.2593 64.761 17.535 62.641 17.535C60.521 17.535 58.878 18.2593 57.712 19.708C56.5813 21.1213 56.016 23.1883 56.016 25.909C56.016 28.665 56.5813 30.7497 57.712 32.163C58.8426 33.5763 60.468 34.283 62.588 34.283ZM90.6883 39.424C86.837 39.424 83.7276 38.6643 81.3603 37.145C80.2296 36.4737 79.6643 35.5197 79.6643 34.283C79.6643 33.5763 79.8586 33.011 80.2473 32.587C80.636 32.1277 81.113 31.898 81.6783 31.898C82.279 31.898 83.1093 32.1807 84.1693 32.746C85.3 33.276 86.3246 33.6823 87.2433 33.965C88.1973 34.2477 89.3986 34.389 90.8473 34.389C92.3313 34.389 93.4796 34.1417 94.2923 33.647C95.1403 33.1523 95.5643 32.4633 95.5643 31.58C95.5643 30.9793 95.3876 30.5023 95.0343 30.149C94.7163 29.7957 94.1156 29.4777 93.2323 29.195C92.3843 28.877 91.077 28.5237 89.3103 28.135C86.1656 27.499 83.9043 26.598 82.5263 25.432C81.1836 24.266 80.5123 22.6583 80.5123 20.609C80.5123 19.0543 80.9716 17.6587 81.8903 16.422C82.809 15.15 84.0633 14.1783 85.6533 13.507C87.2786 12.8003 89.116 12.447 91.1653 12.447C92.6493 12.447 94.0803 12.6413 95.4583 13.03C96.8363 13.3833 98.073 13.9133 99.1683 14.62C100.299 15.3267 100.864 16.263 100.864 17.429C100.864 18.1357 100.67 18.7363 100.281 19.231C99.8926 19.6903 99.4156 19.92 98.8503 19.92C98.4616 19.92 98.073 19.8493 97.6843 19.708C97.331 19.5313 96.8716 19.284 96.3063 18.966C95.2816 18.436 94.3983 18.0473 93.6563 17.8C92.9143 17.5173 91.9956 17.376 90.9003 17.376C89.593 17.376 88.5506 17.641 87.7733 18.171C87.0313 18.701 86.6603 19.4253 86.6603 20.344C86.6603 21.2273 87.049 21.8987 87.8263 22.358C88.6036 22.8173 90.1053 23.2767 92.3313 23.736C94.6986 24.2307 96.5536 24.796 97.8963 25.432C99.239 26.068 100.193 26.863 100.758 27.817C101.359 28.771 101.659 29.99 101.659 31.474C101.659 33.8767 100.652 35.8023 98.6383 37.251C96.6596 38.6997 94.0096 39.424 90.6883 39.424ZM127.542 31.898C128.143 31.898 128.62 32.1277 128.973 32.587C129.362 33.0463 129.556 33.6647 129.556 34.442C129.556 35.5373 128.902 36.456 127.595 37.198C126.394 37.8693 125.033 38.417 123.514 38.841C121.995 39.2297 120.546 39.424 119.168 39.424C114.999 39.424 111.695 38.2227 109.257 35.82C106.819 33.4173 105.6 30.1313 105.6 25.962C105.6 23.312 106.13 20.9623 107.19 18.913C108.25 16.8637 109.734 15.2737 111.642 14.143C113.585 13.0123 115.776 12.447 118.214 12.447C120.546 12.447 122.578 12.9593 124.309 13.984C126.04 15.0087 127.383 16.4573 128.337 18.33C129.291 20.2027 129.768 22.411 129.768 24.955C129.768 26.4743 129.097 27.234 127.754 27.234H112.119C112.331 29.672 113.02 31.474 114.186 32.64C115.352 33.7707 117.048 34.336 119.274 34.336C120.405 34.336 121.394 34.1947 122.242 33.912C123.125 33.6293 124.115 33.2407 125.21 32.746C126.27 32.1807 127.047 31.898 127.542 31.898ZM118.373 17.111C116.571 17.111 115.122 17.6763 114.027 18.807C112.967 19.9377 112.331 21.563 112.119 23.683H124.097C124.026 21.5277 123.496 19.9023 122.507 18.807C121.518 17.6763 120.14 17.111 118.373 17.111ZM163.038 34.389C164.805 34.495 165.688 35.29 165.688 36.774C165.688 37.622 165.335 38.2757 164.628 38.735C163.957 39.159 162.985 39.3357 161.713 39.265L160.282 39.159C154.346 38.735 151.378 35.555 151.378 29.619V18.065H148.728C147.774 18.065 147.032 17.853 146.502 17.429C146.007 17.005 145.76 16.3867 145.76 15.574C145.76 14.7613 146.007 14.143 146.502 13.719C147.032 13.295 147.774 13.083 148.728 13.083H151.378V8.207C151.378 7.253 151.678 6.49333 152.279 5.928C152.88 5.36266 153.692 5.08 154.717 5.08C155.706 5.08 156.501 5.36266 157.102 5.928C157.703 6.49333 158.003 7.253 158.003 8.207V13.083H162.508C163.462 13.083 164.186 13.295 164.681 13.719C165.211 14.143 165.476 14.7613 165.476 15.574C165.476 16.3867 165.211 17.005 164.681 17.429C164.186 17.853 163.462 18.065 162.508 18.065H158.003V30.096C158.003 32.7107 159.204 34.1063 161.607 34.283L163.038 34.389ZM172.426 39.318C171.472 39.318 170.677 39.053 170.041 38.523C169.441 37.9577 169.14 37.1627 169.14 36.138V15.68C169.14 14.6553 169.441 13.878 170.041 13.348C170.677 12.818 171.472 12.553 172.426 12.553C173.38 12.553 174.175 12.818 174.811 13.348C175.447 13.878 175.765 14.6553 175.765 15.68V36.138C175.765 37.1627 175.447 37.9577 174.811 38.523C174.175 39.053 173.38 39.318 172.426 39.318ZM172.426 7.836C171.225 7.836 170.271 7.518 169.564 6.882C168.858 6.21067 168.504 5.345 168.504 4.285C168.504 3.225 168.858 2.377 169.564 1.741C170.271 1.105 171.225 0.786999 172.426 0.786999C173.592 0.786999 174.529 1.105 175.235 1.741C175.977 2.377 176.348 3.225 176.348 4.285C176.348 5.345 175.995 6.21067 175.288 6.882C174.582 7.518 173.628 7.836 172.426 7.836ZM213.39 12.447C216.217 12.447 218.372 13.295 219.856 14.991C221.376 16.6517 222.135 19.3547 222.135 23.1V36.138C222.135 37.1627 221.817 37.9577 221.181 38.523C220.581 39.053 219.786 39.318 218.796 39.318C217.842 39.318 217.047 39.053 216.411 38.523C215.811 37.9577 215.51 37.1627 215.51 36.138V23.1C215.51 21.1567 215.157 19.7787 214.45 18.966C213.779 18.118 212.737 17.694 211.323 17.694C209.592 17.694 208.214 18.2947 207.189 19.496C206.165 20.662 205.652 22.2697 205.652 24.319V36.138C205.652 37.1627 205.334 37.9577 204.698 38.523C204.098 39.053 203.32 39.318 202.366 39.318C201.412 39.318 200.617 39.053 199.981 38.523C199.345 37.9577 199.027 37.1627 199.027 36.138V23.1C199.027 21.1567 198.674 19.7787 197.967 18.966C197.296 18.118 196.254 17.694 194.84 17.694C193.109 17.694 191.731 18.2947 190.706 19.496C189.717 20.662 189.222 22.2697 189.222 24.319V36.138C189.222 37.1627 188.904 37.9577 188.268 38.523C187.632 39.053 186.837 39.318 185.883 39.318C184.929 39.318 184.134 39.053 183.498 38.523C182.898 37.9577 182.597 37.1627 182.597 36.138V15.627C182.597 14.6377 182.915 13.878 183.551 13.348C184.187 12.818 184.982 12.553 185.936 12.553C186.855 12.553 187.597 12.818 188.162 13.348C188.763 13.8427 189.063 14.567 189.063 15.521V16.793C189.876 15.3797 190.954 14.302 192.296 13.56C193.674 12.818 195.247 12.447 197.013 12.447C200.9 12.447 203.497 14.0723 204.804 17.323C205.582 15.839 206.73 14.6553 208.249 13.772C209.769 12.8887 211.482 12.447 213.39 12.447ZM249.38 31.898C249.98 31.898 250.457 32.1277 250.811 32.587C251.199 33.0463 251.394 33.6647 251.394 34.442C251.394 35.5373 250.74 36.456 249.433 37.198C248.231 37.8693 246.871 38.417 245.352 38.841C243.832 39.2297 242.384 39.424 241.006 39.424C236.836 39.424 233.533 38.2227 231.095 35.82C228.657 33.4173 227.438 30.1313 227.438 25.962C227.438 23.312 227.968 20.9623 229.028 18.913C230.088 16.8637 231.572 15.2737 233.48 14.143C235.423 13.0123 237.614 12.447 240.052 12.447C242.384 12.447 244.415 12.9593 246.147 13.984C247.878 15.0087 249.221 16.4573 250.175 18.33C251.129 20.2027 251.606 22.411 251.606 24.955C251.606 26.4743 250.934 27.234 249.592 27.234H233.957C234.169 29.672 234.858 31.474 236.024 32.64C237.19 33.7707 238.886 34.336 241.112 34.336C242.242 34.336 243.232 34.1947 244.08 33.912C244.963 33.6293 245.952 33.2407 247.048 32.746C248.108 32.1807 248.885 31.898 249.38 31.898ZM240.211 17.111C238.409 17.111 236.96 17.6763 235.865 18.807C234.805 19.9377 234.169 21.563 233.957 23.683H245.935C245.864 21.5277 245.334 19.9023 244.345 18.807C243.355 17.6763 241.977 17.111 240.211 17.111Z" fill="white"/>
</svg>
