<svg width="257" height="110" viewBox="0 0 257 110" fill="none" xmlns="http://www.w3.org/2000/svg">
<path d="M3.624 35C2.696 35 1.96 34.744 1.416 34.232C0.904 33.72 0.648 33 0.648 32.072V4.088C0.648 3.16 0.904 2.44 1.416 1.928C1.96 1.416 2.696 1.16 3.624 1.16H20.952C21.88 1.16 22.6 1.368 23.112 1.784C23.624 2.2 23.88 2.792 23.88 3.56C23.88 4.36 23.624 4.984 23.112 5.432C22.6 5.848 21.88 6.056 20.952 6.056H6.696V15.368H19.992C20.92 15.368 21.64 15.576 22.152 15.992C22.664 16.408 22.92 17.016 22.92 17.816C22.92 18.584 22.664 19.176 22.152 19.592C21.64 20.008 20.92 20.216 19.992 20.216H6.696V30.104H20.952C21.88 30.104 22.6 30.328 23.112 30.776C23.624 31.192 23.88 31.8 23.88 32.6C23.88 33.368 23.624 33.96 23.112 34.376C22.6 34.792 21.88 35 20.952 35H3.624ZM47.9696 0.919998C48.8656 0.919998 49.6016 1.176 50.1776 1.688C50.7536 2.2 51.0416 2.872 51.0416 3.704V32.408C51.0416 33.272 50.7696 33.96 50.2256 34.472C49.6816 34.984 48.9616 35.24 48.0656 35.24C47.1696 35.24 46.4496 34.984 45.9056 34.472C45.3616 33.96 45.0896 33.272 45.0896 32.408V31.208C44.3856 32.52 43.3616 33.544 42.0176 34.28C40.7056 35.016 39.2016 35.384 37.5056 35.384C35.4896 35.384 33.6816 34.872 32.0816 33.848C30.5136 32.824 29.2816 31.384 28.3856 29.528C27.5216 27.64 27.0896 25.48 27.0896 23.048C27.0896 20.616 27.5216 18.488 28.3856 16.664C29.2816 14.84 30.5136 13.432 32.0816 12.44C33.6496 11.448 35.4576 10.952 37.5056 10.952C39.2016 10.952 40.7056 11.304 42.0176 12.008C43.3296 12.712 44.3376 13.704 45.0416 14.984V3.608C45.0416 2.808 45.2976 2.168 45.8096 1.688C46.3536 1.176 47.0736 0.919998 47.9696 0.919998ZM39.0896 30.728C41.0096 30.728 42.4816 30.072 43.5056 28.76C44.5616 27.448 45.0896 25.576 45.0896 23.144C45.0896 20.712 44.5616 18.856 43.5056 17.576C42.4816 16.264 41.0256 15.608 39.1376 15.608C37.2176 15.608 35.7296 16.248 34.6736 17.528C33.6176 18.808 33.0896 20.648 33.0896 23.048C33.0896 25.48 33.6176 27.368 34.6736 28.712C35.7296 30.056 37.2016 30.728 39.0896 30.728ZM75.7418 11.048C76.6698 11.048 77.4058 11.304 77.9498 11.816C78.4938 12.328 78.7657 13.016 78.7657 13.88V32.504C78.7657 33.336 78.4778 34.008 77.9018 34.52C77.3578 35.032 76.6378 35.288 75.7418 35.288C74.8778 35.288 74.1898 35.048 73.6778 34.568C73.1658 34.088 72.9098 33.432 72.9098 32.6V31.4C72.1738 32.68 71.1818 33.672 69.9338 34.376C68.6858 35.048 67.2778 35.384 65.7098 35.384C59.9498 35.384 57.0698 32.152 57.0698 25.688V13.88C57.0698 13.016 57.3418 12.328 57.8858 11.816C58.4298 11.304 59.1498 11.048 60.0458 11.048C60.9738 11.048 61.7098 11.304 62.2538 11.816C62.7978 12.328 63.0698 13.016 63.0698 13.88V25.736C63.0698 27.4 63.4058 28.632 64.0778 29.432C64.7498 30.232 65.8058 30.632 67.2458 30.632C68.9098 30.632 70.2378 30.088 71.2298 29C72.2538 27.88 72.7658 26.408 72.7658 24.584V13.88C72.7658 13.016 73.0378 12.328 73.5818 11.816C74.1258 11.304 74.8458 11.048 75.7418 11.048ZM95.4266 35.384C93.0906 35.384 91.0266 34.888 89.2346 33.896C87.4746 32.904 86.1146 31.496 85.1546 29.672C84.1946 27.848 83.7146 25.72 83.7146 23.288C83.7146 20.856 84.2106 18.712 85.2026 16.856C86.2266 14.968 87.6506 13.512 89.4746 12.488C91.2986 11.464 93.3946 10.952 95.7626 10.952C97.0106 10.952 98.2586 11.128 99.5066 11.48C100.787 11.832 101.907 12.312 102.867 12.92C103.891 13.592 104.403 14.44 104.403 15.464C104.403 16.168 104.227 16.744 103.875 17.192C103.555 17.608 103.123 17.816 102.579 17.816C102.227 17.816 101.859 17.736 101.475 17.576C101.091 17.416 100.707 17.224 100.323 17C99.6186 16.584 98.9466 16.264 98.3066 16.04C97.6666 15.784 96.9306 15.656 96.0986 15.656C94.1146 15.656 92.5786 16.312 91.4906 17.624C90.4346 18.904 89.9066 20.76 89.9066 23.192C89.9066 25.592 90.4346 27.448 91.4906 28.76C92.5786 30.04 94.1146 30.68 96.0986 30.68C96.8986 30.68 97.6026 30.568 98.2106 30.344C98.8506 30.088 99.5546 29.752 100.323 29.336C100.803 29.048 101.219 28.84 101.571 28.712C101.923 28.552 102.275 28.472 102.627 28.472C103.139 28.472 103.571 28.696 103.923 29.144C104.275 29.592 104.451 30.152 104.451 30.824C104.451 31.368 104.323 31.848 104.067 32.264C103.843 32.648 103.459 33 102.915 33.32C101.923 33.96 100.771 34.472 99.4586 34.856C98.1466 35.208 96.8026 35.384 95.4266 35.384ZM118.624 10.952C121.888 10.952 124.304 11.768 125.872 13.4C127.472 15 128.272 17.448 128.272 20.744V32.456C128.272 33.32 128.016 34.008 127.504 34.52C126.992 35 126.288 35.24 125.392 35.24C124.56 35.24 123.872 34.984 123.328 34.472C122.816 33.96 122.56 33.288 122.56 32.456V31.4C122.016 32.648 121.152 33.624 119.968 34.328C118.816 35.032 117.472 35.384 115.936 35.384C114.368 35.384 112.944 35.064 111.664 34.424C110.384 33.784 109.376 32.904 108.64 31.784C107.904 30.664 107.536 29.416 107.536 28.04C107.536 26.312 107.968 24.952 108.832 23.96C109.728 22.968 111.168 22.248 113.152 21.8C115.136 21.352 117.872 21.128 121.36 21.128H122.56V20.024C122.56 18.456 122.224 17.32 121.552 16.616C120.88 15.88 119.792 15.512 118.288 15.512C117.36 15.512 116.416 15.656 115.456 15.944C114.496 16.2 113.36 16.584 112.048 17.096C111.216 17.512 110.608 17.72 110.224 17.72C109.648 17.72 109.168 17.512 108.784 17.096C108.432 16.68 108.256 16.136 108.256 15.464C108.256 14.92 108.384 14.456 108.64 14.072C108.928 13.656 109.392 13.272 110.032 12.92C111.152 12.312 112.48 11.832 114.016 11.48C115.584 11.128 117.12 10.952 118.624 10.952ZM117.136 31.064C118.736 31.064 120.032 30.536 121.024 29.48C122.048 28.392 122.56 27 122.56 25.304V24.296H121.696C119.552 24.296 117.888 24.392 116.704 24.584C115.52 24.776 114.672 25.112 114.16 25.592C113.648 26.072 113.392 26.728 113.392 27.56C113.392 28.584 113.744 29.432 114.448 30.104C115.184 30.744 116.08 31.064 117.136 31.064ZM146.562 30.824C148.162 30.92 148.962 31.64 148.962 32.984C148.962 33.752 148.642 34.344 148.002 34.76C147.394 35.144 146.514 35.304 145.362 35.24L144.066 35.144C138.69 34.76 136.002 31.88 136.002 26.504V16.04H133.602C132.738 16.04 132.066 15.848 131.586 15.464C131.138 15.08 130.914 14.52 130.914 13.784C130.914 13.048 131.138 12.488 131.586 12.104C132.066 11.72 132.738 11.528 133.602 11.528H136.002V7.112C136.002 6.248 136.274 5.56 136.818 5.048C137.362 4.536 138.098 4.28 139.026 4.28C139.922 4.28 140.642 4.536 141.186 5.048C141.73 5.56 142.002 6.248 142.002 7.112V11.528H146.082C146.946 11.528 147.602 11.72 148.05 12.104C148.53 12.488 148.77 13.048 148.77 13.784C148.77 14.52 148.53 15.08 148.05 15.464C147.602 15.848 146.946 16.04 146.082 16.04H142.002V26.936C142.002 29.304 143.09 30.568 145.266 30.728L146.562 30.824ZM155.065 35.288C154.201 35.288 153.481 35.048 152.905 34.568C152.361 34.056 152.089 33.336 152.089 32.408V13.88C152.089 12.952 152.361 12.248 152.905 11.768C153.481 11.288 154.201 11.048 155.065 11.048C155.929 11.048 156.649 11.288 157.225 11.768C157.801 12.248 158.089 12.952 158.089 13.88V32.408C158.089 33.336 157.801 34.056 157.225 34.568C156.649 35.048 155.929 35.288 155.065 35.288ZM155.065 6.776C153.977 6.776 153.113 6.488 152.473 5.912C151.833 5.304 151.513 4.52 151.513 3.56C151.513 2.6 151.833 1.832 152.473 1.256C153.113 0.679999 153.977 0.391999 155.065 0.391999C156.121 0.391999 156.969 0.679999 157.609 1.256C158.281 1.832 158.617 2.6 158.617 3.56C158.617 4.52 158.297 5.304 157.657 5.912C157.017 6.488 156.153 6.776 155.065 6.776ZM174.98 35.384C172.58 35.384 170.468 34.888 168.644 33.896C166.852 32.904 165.46 31.48 164.468 29.624C163.476 27.768 162.98 25.608 162.98 23.144C162.98 20.68 163.476 18.536 164.468 16.712C165.46 14.856 166.852 13.432 168.644 12.44C170.468 11.448 172.58 10.952 174.98 10.952C177.38 10.952 179.476 11.448 181.268 12.44C183.092 13.432 184.484 14.856 185.444 16.712C186.436 18.536 186.932 20.68 186.932 23.144C186.932 25.608 186.436 27.768 185.444 29.624C184.484 31.48 183.092 32.904 181.268 33.896C179.476 34.888 177.38 35.384 174.98 35.384ZM174.932 30.728C176.884 30.728 178.372 30.088 179.396 28.808C180.42 27.528 180.932 25.64 180.932 23.144C180.932 20.68 180.42 18.808 179.396 17.528C178.372 16.216 176.9 15.56 174.98 15.56C173.06 15.56 171.572 16.216 170.516 17.528C169.492 18.808 168.98 20.68 168.98 23.144C168.98 25.64 169.492 27.528 170.516 28.808C171.54 30.088 173.012 30.728 174.932 30.728ZM205.518 10.952C208.334 10.952 210.43 11.752 211.806 13.352C213.182 14.952 213.87 17.368 213.87 20.6V32.408C213.87 33.304 213.598 34.008 213.054 34.52C212.542 35.032 211.822 35.288 210.894 35.288C209.966 35.288 209.23 35.032 208.686 34.52C208.142 34.008 207.87 33.304 207.87 32.408V20.936C207.87 19.112 207.518 17.784 206.814 16.952C206.142 16.12 205.07 15.704 203.598 15.704C201.87 15.704 200.478 16.248 199.422 17.336C198.398 18.424 197.886 19.88 197.886 21.704V32.408C197.886 33.304 197.614 34.008 197.07 34.52C196.526 35.032 195.79 35.288 194.862 35.288C193.934 35.288 193.198 35.032 192.654 34.52C192.142 34.008 191.886 33.304 191.886 32.408V13.832C191.886 13 192.158 12.328 192.702 11.816C193.246 11.304 193.982 11.048 194.91 11.048C195.742 11.048 196.414 11.304 196.926 11.816C197.47 12.296 197.742 12.936 197.742 13.736V15.032C198.542 13.72 199.614 12.712 200.958 12.008C202.302 11.304 203.822 10.952 205.518 10.952ZM230.14 10.952C233.404 10.952 235.82 11.768 237.388 13.4C238.988 15 239.788 17.448 239.788 20.744V32.456C239.788 33.32 239.532 34.008 239.02 34.52C238.508 35 237.804 35.24 236.908 35.24C236.076 35.24 235.388 34.984 234.844 34.472C234.332 33.96 234.076 33.288 234.076 32.456V31.4C233.532 32.648 232.668 33.624 231.484 34.328C230.332 35.032 228.988 35.384 227.452 35.384C225.884 35.384 224.46 35.064 223.18 34.424C221.9 33.784 220.892 32.904 220.156 31.784C219.42 30.664 219.052 29.416 219.052 28.04C219.052 26.312 219.484 24.952 220.348 23.96C221.244 22.968 222.684 22.248 224.668 21.8C226.652 21.352 229.388 21.128 232.876 21.128H234.076V20.024C234.076 18.456 233.74 17.32 233.068 16.616C232.396 15.88 231.308 15.512 229.804 15.512C228.876 15.512 227.932 15.656 226.972 15.944C226.012 16.2 224.876 16.584 223.564 17.096C222.732 17.512 222.124 17.72 221.74 17.72C221.164 17.72 220.684 17.512 220.3 17.096C219.948 16.68 219.772 16.136 219.772 15.464C219.772 14.92 219.9 14.456 220.156 14.072C220.444 13.656 220.908 13.272 221.548 12.92C222.668 12.312 223.996 11.832 225.532 11.48C227.1 11.128 228.636 10.952 230.14 10.952ZM228.652 31.064C230.252 31.064 231.548 30.536 232.54 29.48C233.564 28.392 234.076 27 234.076 25.304V24.296H233.212C231.068 24.296 229.404 24.392 228.22 24.584C227.036 24.776 226.188 25.112 225.676 25.592C225.164 26.072 224.908 26.728 224.908 27.56C224.908 28.584 225.26 29.432 225.964 30.104C226.7 30.744 227.596 31.064 228.652 31.064ZM248.862 35.288C247.998 35.288 247.278 35.048 246.702 34.568C246.158 34.056 245.886 33.336 245.886 32.408V3.752C245.886 2.824 246.158 2.12 246.702 1.64C247.278 1.16 247.998 0.919998 248.862 0.919998C249.726 0.919998 250.446 1.16 251.022 1.64C251.598 2.12 251.886 2.824 251.886 3.752V32.408C251.886 33.336 251.598 34.056 251.022 34.568C250.446 35.048 249.726 35.288 248.862 35.288ZM13.608 75.952C15.656 75.952 17.464 76.448 19.032 77.44C20.6 78.432 21.816 79.84 22.68 81.664C23.576 83.488 24.024 85.616 24.024 88.048C24.024 90.48 23.576 92.64 22.68 94.528C21.816 96.384 20.584 97.824 18.984 98.848C17.416 99.872 15.624 100.384 13.608 100.384C11.912 100.384 10.392 100.016 9.048 99.28C7.736 98.544 6.728 97.52 6.024 96.208V97.408C6.024 98.272 5.752 98.96 5.208 99.472C4.664 99.984 3.944 100.24 3.048 100.24C2.152 100.24 1.432 99.984 0.888 99.472C0.376 98.96 0.12 98.272 0.12 97.408V68.704C0.12 67.872 0.392 67.2 0.936 66.688C1.512 66.176 2.248 65.92 3.144 65.92C4.04 65.92 4.76 66.16 5.304 66.64C5.848 67.12 6.12 67.776 6.12 68.608V79.936C6.824 78.656 7.832 77.68 9.144 77.008C10.456 76.304 11.944 75.952 13.608 75.952ZM12.024 95.728C13.912 95.728 15.384 95.056 16.44 93.712C17.496 92.368 18.024 90.48 18.024 88.048C18.024 85.648 17.496 83.808 16.44 82.528C15.416 81.248 13.944 80.608 12.024 80.608C10.104 80.608 8.616 81.264 7.56 82.576C6.536 83.856 6.024 85.712 6.024 88.144C6.024 90.576 6.536 92.448 7.56 93.76C8.616 95.072 10.104 95.728 12.024 95.728ZM39.1241 75.952C42.3881 75.952 44.8041 76.768 46.3721 78.4C47.9721 80 48.7721 82.448 48.7721 85.744V97.456C48.7721 98.32 48.5161 99.008 48.0041 99.52C47.4921 100 46.7881 100.24 45.8921 100.24C45.0601 100.24 44.3721 99.984 43.8281 99.472C43.3161 98.96 43.0601 98.288 43.0601 97.456V96.4C42.5161 97.648 41.6521 98.624 40.4681 99.328C39.3161 100.032 37.9721 100.384 36.4361 100.384C34.8681 100.384 33.4441 100.064 32.1641 99.424C30.8841 98.784 29.8761 97.904 29.1401 96.784C28.4041 95.664 28.0361 94.416 28.0361 93.04C28.0361 91.312 28.4681 89.952 29.3321 88.96C30.2281 87.968 31.6681 87.248 33.6521 86.8C35.6361 86.352 38.3721 86.128 41.8601 86.128H43.0601V85.024C43.0601 83.456 42.7241 82.32 42.0521 81.616C41.3801 80.88 40.2921 80.512 38.7881 80.512C37.8601 80.512 36.9161 80.656 35.9561 80.944C34.9961 81.2 33.8601 81.584 32.5481 82.096C31.7161 82.512 31.1081 82.72 30.7241 82.72C30.1481 82.72 29.6681 82.512 29.2841 82.096C28.9321 81.68 28.7561 81.136 28.7561 80.464C28.7561 79.92 28.8841 79.456 29.1401 79.072C29.4281 78.656 29.8921 78.272 30.5321 77.92C31.6521 77.312 32.9801 76.832 34.5161 76.48C36.0841 76.128 37.6201 75.952 39.1241 75.952ZM37.6361 96.064C39.2361 96.064 40.5321 95.536 41.5241 94.48C42.5481 93.392 43.0601 92 43.0601 90.304V89.296H42.1961C40.0521 89.296 38.3881 89.392 37.2041 89.584C36.0201 89.776 35.1721 90.112 34.6601 90.592C34.1481 91.072 33.8921 91.728 33.8921 92.56C33.8921 93.584 34.2441 94.432 34.9481 95.104C35.6841 95.744 36.5801 96.064 37.6361 96.064ZM65.286 100.384C62.95 100.384 60.886 99.888 59.094 98.896C57.334 97.904 55.974 96.496 55.014 94.672C54.054 92.848 53.574 90.72 53.574 88.288C53.574 85.856 54.07 83.712 55.062 81.856C56.086 79.968 57.51 78.512 59.334 77.488C61.158 76.464 63.254 75.952 65.622 75.952C66.87 75.952 68.118 76.128 69.366 76.48C70.646 76.832 71.766 77.312 72.726 77.92C73.75 78.592 74.262 79.44 74.262 80.464C74.262 81.168 74.086 81.744 73.734 82.192C73.414 82.608 72.982 82.816 72.438 82.816C72.086 82.816 71.718 82.736 71.334 82.576C70.95 82.416 70.566 82.224 70.182 82C69.478 81.584 68.806 81.264 68.166 81.04C67.526 80.784 66.79 80.656 65.958 80.656C63.974 80.656 62.438 81.312 61.35 82.624C60.294 83.904 59.766 85.76 59.766 88.192C59.766 90.592 60.294 92.448 61.35 93.76C62.438 95.04 63.974 95.68 65.958 95.68C66.758 95.68 67.462 95.568 68.07 95.344C68.71 95.088 69.414 94.752 70.182 94.336C70.662 94.048 71.078 93.84 71.43 93.712C71.782 93.552 72.134 93.472 72.486 93.472C72.998 93.472 73.43 93.696 73.782 94.144C74.134 94.592 74.31 95.152 74.31 95.824C74.31 96.368 74.182 96.848 73.926 97.264C73.702 97.648 73.318 98 72.774 98.32C71.782 98.96 70.63 99.472 69.318 99.856C68.006 100.208 66.662 100.384 65.286 100.384ZM99.1875 95.344C99.8275 95.952 100.148 96.64 100.148 97.408C100.148 98.144 99.8755 98.8 99.3315 99.376C98.8195 99.952 98.2115 100.24 97.5075 100.24C96.8035 100.24 96.1475 99.952 95.5395 99.376L84.3075 89.2V97.408C84.3075 98.336 84.0195 99.04 83.4435 99.52C82.8675 100 82.1475 100.24 81.2835 100.24C80.4195 100.24 79.6995 100 79.1235 99.52C78.5795 99.04 78.3075 98.336 78.3075 97.408V68.752C78.3075 67.824 78.5795 67.12 79.1235 66.64C79.6995 66.16 80.4195 65.92 81.2835 65.92C82.1475 65.92 82.8675 66.16 83.4435 66.64C84.0195 67.12 84.3075 67.824 84.3075 68.752V86.8L94.5795 76.96C95.1555 76.384 95.8115 76.096 96.5475 76.096C97.2835 76.096 97.9235 76.368 98.4675 76.912C99.0115 77.456 99.2835 78.096 99.2835 78.832C99.2835 79.568 98.9795 80.24 98.3715 80.848L90.8355 87.856L99.1875 95.344ZM123.586 76.048C124.482 76.048 125.202 76.304 125.746 76.816C126.29 77.328 126.562 78.016 126.562 78.88V97.84C126.562 101.52 125.538 104.304 123.49 106.192C121.442 108.08 118.418 109.024 114.418 109.024C110.93 109.024 108.018 108.368 105.682 107.056C104.498 106.352 103.906 105.504 103.906 104.512C103.906 103.808 104.066 103.248 104.386 102.832C104.738 102.416 105.186 102.208 105.73 102.208C106.018 102.208 106.37 102.272 106.786 102.4C107.202 102.56 107.634 102.736 108.082 102.928C109.234 103.408 110.258 103.776 111.154 104.032C112.082 104.288 113.138 104.416 114.322 104.416C118.514 104.416 120.61 102.368 120.61 98.272V95.2C119.906 96.512 118.882 97.536 117.538 98.272C116.194 98.976 114.658 99.328 112.93 99.328C110.882 99.328 109.058 98.848 107.458 97.888C105.89 96.896 104.658 95.52 103.762 93.76C102.866 92 102.418 89.968 102.418 87.664C102.418 85.36 102.85 83.328 103.714 81.568C104.61 79.776 105.858 78.4 107.458 77.44C109.058 76.448 110.882 75.952 112.93 75.952C114.658 75.952 116.194 76.32 117.538 77.056C118.882 77.76 119.906 78.768 120.61 80.08V78.832C120.61 78 120.882 77.328 121.426 76.816C121.97 76.304 122.69 76.048 123.586 76.048ZM114.514 94.672C116.434 94.672 117.922 94.048 118.978 92.8C120.066 91.552 120.61 89.84 120.61 87.664C120.61 85.456 120.066 83.728 118.978 82.48C117.922 81.232 116.434 80.608 114.514 80.608C112.626 80.608 111.138 81.232 110.05 82.48C108.962 83.728 108.418 85.456 108.418 87.664C108.418 89.84 108.962 91.552 110.05 92.8C111.138 94.048 112.626 94.672 114.514 94.672ZM145.88 76.048C146.712 75.984 147.368 76.16 147.848 76.576C148.328 76.992 148.568 77.616 148.568 78.448C148.568 79.312 148.36 79.952 147.944 80.368C147.528 80.784 146.776 81.056 145.688 81.184L144.248 81.328C142.36 81.52 140.968 82.16 140.072 83.248C139.208 84.336 138.776 85.696 138.776 87.328V97.408C138.776 98.336 138.488 99.056 137.912 99.568C137.336 100.048 136.616 100.288 135.752 100.288C134.888 100.288 134.168 100.048 133.592 99.568C133.048 99.056 132.776 98.336 132.776 97.408V78.832C132.776 77.936 133.048 77.248 133.592 76.768C134.168 76.288 134.872 76.048 135.704 76.048C136.536 76.048 137.208 76.288 137.72 76.768C138.232 77.216 138.488 77.872 138.488 78.736V80.656C139.096 79.248 139.992 78.16 141.176 77.392C142.392 76.624 143.736 76.192 145.208 76.096L145.88 76.048ZM161.387 100.384C158.987 100.384 156.875 99.888 155.051 98.896C153.259 97.904 151.867 96.48 150.875 94.624C149.883 92.768 149.387 90.608 149.387 88.144C149.387 85.68 149.883 83.536 150.875 81.712C151.867 79.856 153.259 78.432 155.051 77.44C156.875 76.448 158.987 75.952 161.387 75.952C163.787 75.952 165.883 76.448 167.675 77.44C169.499 78.432 170.891 79.856 171.851 81.712C172.843 83.536 173.339 85.68 173.339 88.144C173.339 90.608 172.843 92.768 171.851 94.624C170.891 96.48 169.499 97.904 167.675 98.896C165.883 99.888 163.787 100.384 161.387 100.384ZM161.339 95.728C163.291 95.728 164.779 95.088 165.803 93.808C166.827 92.528 167.339 90.64 167.339 88.144C167.339 85.68 166.827 83.808 165.803 82.528C164.779 81.216 163.307 80.56 161.387 80.56C159.467 80.56 157.979 81.216 156.923 82.528C155.899 83.808 155.387 85.68 155.387 88.144C155.387 90.64 155.899 92.528 156.923 93.808C157.947 95.088 159.419 95.728 161.339 95.728ZM196.82 76.048C197.748 76.048 198.484 76.304 199.028 76.816C199.572 77.328 199.844 78.016 199.844 78.88V97.504C199.844 98.336 199.556 99.008 198.98 99.52C198.436 100.032 197.716 100.288 196.82 100.288C195.956 100.288 195.268 100.048 194.756 99.568C194.244 99.088 193.988 98.432 193.988 97.6V96.4C193.252 97.68 192.26 98.672 191.012 99.376C189.764 100.048 188.356 100.384 186.788 100.384C181.028 100.384 178.148 97.152 178.148 90.688V78.88C178.148 78.016 178.42 77.328 178.964 76.816C179.508 76.304 180.228 76.048 181.124 76.048C182.052 76.048 182.788 76.304 183.332 76.816C183.876 77.328 184.148 78.016 184.148 78.88V90.736C184.148 92.4 184.484 93.632 185.156 94.432C185.828 95.232 186.884 95.632 188.324 95.632C189.988 95.632 191.316 95.088 192.308 94C193.332 92.88 193.844 91.408 193.844 89.584V78.88C193.844 78.016 194.116 77.328 194.66 76.816C195.204 76.304 195.924 76.048 196.82 76.048ZM219.721 75.952C222.537 75.952 224.633 76.752 226.009 78.352C227.385 79.952 228.073 82.368 228.073 85.6V97.408C228.073 98.304 227.801 99.008 227.257 99.52C226.745 100.032 226.025 100.288 225.097 100.288C224.169 100.288 223.433 100.032 222.889 99.52C222.345 99.008 222.073 98.304 222.073 97.408V85.936C222.073 84.112 221.721 82.784 221.017 81.952C220.345 81.12 219.273 80.704 217.801 80.704C216.073 80.704 214.681 81.248 213.625 82.336C212.601 83.424 212.089 84.88 212.089 86.704V97.408C212.089 98.304 211.817 99.008 211.273 99.52C210.729 100.032 209.993 100.288 209.065 100.288C208.137 100.288 207.401 100.032 206.857 99.52C206.345 99.008 206.089 98.304 206.089 97.408V78.832C206.089 78 206.361 77.328 206.905 76.816C207.449 76.304 208.185 76.048 209.113 76.048C209.945 76.048 210.617 76.304 211.129 76.816C211.673 77.296 211.945 77.936 211.945 78.736V80.032C212.745 78.72 213.817 77.712 215.161 77.008C216.505 76.304 218.025 75.952 219.721 75.952ZM253.751 65.92C254.647 65.92 255.383 66.176 255.959 66.688C256.535 67.2 256.823 67.872 256.823 68.704V97.408C256.823 98.272 256.551 98.96 256.007 99.472C255.463 99.984 254.743 100.24 253.847 100.24C252.951 100.24 252.231 99.984 251.687 99.472C251.143 98.96 250.871 98.272 250.871 97.408V96.208C250.167 97.52 249.143 98.544 247.799 99.28C246.487 100.016 244.983 100.384 243.287 100.384C241.271 100.384 239.463 99.872 237.863 98.848C236.295 97.824 235.063 96.384 234.167 94.528C233.303 92.64 232.871 90.48 232.871 88.048C232.871 85.616 233.303 83.488 234.167 81.664C235.063 79.84 236.295 78.432 237.863 77.44C239.431 76.448 241.239 75.952 243.287 75.952C244.983 75.952 246.487 76.304 247.799 77.008C249.111 77.712 250.119 78.704 250.823 79.984V68.608C250.823 67.808 251.079 67.168 251.591 66.688C252.135 66.176 252.855 65.92 253.751 65.92ZM244.871 95.728C246.791 95.728 248.263 95.072 249.287 93.76C250.343 92.448 250.871 90.576 250.871 88.144C250.871 85.712 250.343 83.856 249.287 82.576C248.263 81.264 246.807 80.608 244.919 80.608C242.999 80.608 241.511 81.248 240.455 82.528C239.399 83.808 238.871 85.648 238.871 88.048C238.871 90.48 239.399 92.368 240.455 93.712C241.511 95.056 242.983 95.728 244.871 95.728Z" fill="white"/>
</svg>
