<svg width="262" height="40" viewBox="0 0 262 40" fill="none" xmlns="http://www.w3.org/2000/svg">
<path d="M3.42 39.318C2.39533 39.318 1.565 39 0.929 38.364C0.328334 37.728 0.0280003 36.8977 0.0280003 35.873V4.868C0.0280003 3.84333 0.310667 3.04833 0.876 2.483C1.47667 1.91766 2.28933 1.635 3.314 1.635H21.917C24.0723 1.635 25.15 2.55366 25.15 4.391C25.15 6.193 24.0723 7.094 21.917 7.094H6.759V17.27H20.857C23.0123 17.27 24.09 18.1887 24.09 20.026C24.09 21.828 23.0123 22.729 20.857 22.729H6.759V35.873C6.759 36.8977 6.45867 37.728 5.858 38.364C5.25733 39 4.44467 39.318 3.42 39.318ZM34.8726 39.318C33.9186 39.318 33.1236 39.053 32.4876 38.523C31.8869 37.9577 31.5866 37.1627 31.5866 36.138V15.68C31.5866 14.6553 31.8869 13.878 32.4876 13.348C33.1236 12.818 33.9186 12.553 34.8726 12.553C35.8266 12.553 36.6216 12.818 37.2576 13.348C37.8936 13.878 38.2116 14.6553 38.2116 15.68V36.138C38.2116 37.1627 37.8936 37.9577 37.2576 38.523C36.6216 39.053 35.8266 39.318 34.8726 39.318ZM34.8726 7.836C33.6713 7.836 32.7173 7.518 32.0106 6.882C31.3039 6.21067 30.9506 5.345 30.9506 4.285C30.9506 3.225 31.3039 2.377 32.0106 1.741C32.7173 1.105 33.6713 0.786999 34.8726 0.786999C36.0386 0.786999 36.9749 1.105 37.6816 1.741C38.4236 2.377 38.7946 3.225 38.7946 4.285C38.7946 5.345 38.4413 6.21067 37.7346 6.882C37.0279 7.518 36.0739 7.836 34.8726 7.836ZM59.5126 12.553C60.4313 12.4823 61.1556 12.6767 61.6856 13.136C62.2156 13.5953 62.4806 14.2843 62.4806 15.203C62.4806 16.157 62.251 16.8637 61.7916 17.323C61.3323 17.7823 60.502 18.0827 59.3006 18.224L57.7106 18.383C55.626 18.595 54.089 19.3017 53.0996 20.503C52.1456 21.7043 51.6686 23.206 51.6686 25.008V36.138C51.6686 37.1627 51.3506 37.9577 50.7146 38.523C50.0786 39.053 49.2836 39.318 48.3296 39.318C47.3756 39.318 46.5806 39.053 45.9446 38.523C45.344 37.9577 45.0436 37.1627 45.0436 36.138V15.627C45.0436 14.6377 45.344 13.878 45.9446 13.348C46.5806 12.818 47.358 12.553 48.2766 12.553C49.1953 12.553 49.9373 12.818 50.5026 13.348C51.068 13.8427 51.3506 14.567 51.3506 15.521V17.641C52.022 16.0863 53.0113 14.885 54.3186 14.037C55.6613 13.189 57.1453 12.712 58.7706 12.606L59.5126 12.553ZM74.4549 39.424C70.6036 39.424 67.4942 38.6643 65.1269 37.145C63.9962 36.4737 63.4309 35.5197 63.4309 34.283C63.4309 33.5763 63.6252 33.011 64.0139 32.587C64.4026 32.1277 64.8796 31.898 65.4449 31.898C66.0456 31.898 66.8759 32.1807 67.9359 32.746C69.0666 33.276 70.0912 33.6823 71.0099 33.965C71.9639 34.2477 73.1652 34.389 74.6139 34.389C76.0979 34.389 77.2462 34.1417 78.0589 33.647C78.9069 33.1523 79.3309 32.4633 79.3309 31.58C79.3309 30.9793 79.1542 30.5023 78.8009 30.149C78.4829 29.7957 77.8822 29.4777 76.9989 29.195C76.1509 28.877 74.8436 28.5237 73.0769 28.135C69.9322 27.499 67.6709 26.598 66.2929 25.432C64.9502 24.266 64.2789 22.6583 64.2789 20.609C64.2789 19.0543 64.7382 17.6587 65.6569 16.422C66.5756 15.15 67.8299 14.1783 69.4199 13.507C71.0452 12.8003 72.8826 12.447 74.9319 12.447C76.4159 12.447 77.8469 12.6413 79.2249 13.03C80.6029 13.3833 81.8396 13.9133 82.9349 14.62C84.0656 15.3267 84.6309 16.263 84.6309 17.429C84.6309 18.1357 84.4366 18.7363 84.0479 19.231C83.6592 19.6903 83.1822 19.92 82.6169 19.92C82.2282 19.92 81.8396 19.8493 81.4509 19.708C81.0976 19.5313 80.6382 19.284 80.0729 18.966C79.0482 18.436 78.1649 18.0473 77.4229 17.8C76.6809 17.5173 75.7622 17.376 74.6669 17.376C73.3596 17.376 72.3172 17.641 71.5399 18.171C70.7979 18.701 70.4269 19.4253 70.4269 20.344C70.4269 21.2273 70.8156 21.8987 71.5929 22.358C72.3702 22.8173 73.8719 23.2767 76.0979 23.736C78.4652 24.2307 80.3202 24.796 81.6629 25.432C83.0056 26.068 83.9596 26.863 84.5249 27.817C85.1256 28.771 85.4259 29.99 85.4259 31.474C85.4259 33.8767 84.4189 35.8023 82.4049 37.251C80.4262 38.6997 77.7762 39.424 74.4549 39.424ZM104.001 34.389C105.767 34.495 106.651 35.29 106.651 36.774C106.651 37.622 106.297 38.2757 105.591 38.735C104.919 39.159 103.948 39.3357 102.676 39.265L101.245 39.159C95.3088 38.735 92.3408 35.555 92.3408 29.619V18.065H89.6908C88.7368 18.065 87.9948 17.853 87.4648 17.429C86.9701 17.005 86.7227 16.3867 86.7227 15.574C86.7227 14.7613 86.9701 14.143 87.4648 13.719C87.9948 13.295 88.7368 13.083 89.6908 13.083H92.3408V8.207C92.3408 7.253 92.6411 6.49333 93.2418 5.928C93.8424 5.36266 94.6551 5.08 95.6798 5.08C96.6691 5.08 97.4641 5.36266 98.0648 5.928C98.6654 6.49333 98.9658 7.253 98.9658 8.207V13.083H103.471C104.425 13.083 105.149 13.295 105.644 13.719C106.174 14.143 106.439 14.7613 106.439 15.574C106.439 16.3867 106.174 17.005 105.644 17.429C105.149 17.853 104.425 18.065 103.471 18.065H98.9658V30.096C98.9658 32.7107 100.167 34.1063 102.57 34.283L104.001 34.389ZM153.377 1.37C154.366 1.37 155.144 1.688 155.709 2.324C156.31 2.92467 156.61 3.73733 156.61 4.762V35.873C156.61 36.8977 156.31 37.728 155.709 38.364C155.108 39 154.331 39.318 153.377 39.318C152.246 39.318 151.381 38.9117 150.78 38.099L131.435 12.924V35.873C131.435 36.8977 131.152 37.728 130.587 38.364C130.022 39 129.244 39.318 128.255 39.318C127.266 39.318 126.488 39 125.923 38.364C125.358 37.728 125.075 36.8977 125.075 35.873V4.762C125.075 3.73733 125.375 2.92467 125.976 2.324C126.577 1.688 127.372 1.37 128.361 1.37C129.456 1.37 130.304 1.77633 130.905 2.589L150.197 27.658V4.762C150.197 3.73733 150.48 2.92467 151.045 2.324C151.646 1.688 152.423 1.37 153.377 1.37ZM175.323 12.447C178.927 12.447 181.594 13.348 183.326 15.15C185.092 16.9167 185.976 19.6197 185.976 23.259V36.191C185.976 37.145 185.693 37.9047 185.128 38.47C184.562 39 183.785 39.265 182.796 39.265C181.877 39.265 181.117 38.9823 180.517 38.417C179.951 37.8517 179.669 37.1097 179.669 36.191V35.025C179.068 36.403 178.114 37.4807 176.807 38.258C175.535 39.0353 174.051 39.424 172.355 39.424C170.623 39.424 169.051 39.0707 167.638 38.364C166.224 37.6573 165.111 36.6857 164.299 35.449C163.486 34.2123 163.08 32.8343 163.08 31.315C163.08 29.407 163.557 27.9053 164.511 26.81C165.5 25.7147 167.09 24.9197 169.281 24.425C171.471 23.9303 174.492 23.683 178.344 23.683H179.669V22.464C179.669 20.7327 179.298 19.4783 178.556 18.701C177.814 17.8883 176.612 17.482 174.952 17.482C173.927 17.482 172.885 17.641 171.825 17.959C170.765 18.2417 169.51 18.6657 168.062 19.231C167.143 19.6903 166.472 19.92 166.048 19.92C165.412 19.92 164.882 19.6903 164.458 19.231C164.069 18.7717 163.875 18.171 163.875 17.429C163.875 16.8283 164.016 16.316 164.299 15.892C164.617 15.4327 165.129 15.0087 165.836 14.62C167.072 13.9487 168.539 13.4187 170.235 13.03C171.966 12.6413 173.662 12.447 175.323 12.447ZM173.68 34.654C175.446 34.654 176.877 34.071 177.973 32.905C179.103 31.7037 179.669 30.1667 179.669 28.294V27.181H178.715C176.347 27.181 174.51 27.287 173.203 27.499C171.895 27.711 170.959 28.082 170.394 28.612C169.828 29.142 169.546 29.8663 169.546 30.785C169.546 31.9157 169.934 32.852 170.712 33.594C171.524 34.3007 172.514 34.654 173.68 34.654ZM223.502 12.447C226.328 12.447 228.484 13.295 229.968 14.991C231.487 16.6517 232.247 19.3547 232.247 23.1V36.138C232.247 37.1627 231.929 37.9577 231.293 38.523C230.692 39.053 229.897 39.318 228.908 39.318C227.954 39.318 227.159 39.053 226.523 38.523C225.922 37.9577 225.622 37.1627 225.622 36.138V23.1C225.622 21.1567 225.268 19.7787 224.562 18.966C223.89 18.118 222.848 17.694 221.435 17.694C219.703 17.694 218.325 18.2947 217.301 19.496C216.276 20.662 215.764 22.2697 215.764 24.319V36.138C215.764 37.1627 215.446 37.9577 214.81 38.523C214.209 39.053 213.432 39.318 212.478 39.318C211.524 39.318 210.729 39.053 210.093 38.523C209.457 37.9577 209.139 37.1627 209.139 36.138V23.1C209.139 21.1567 208.785 19.7787 208.079 18.966C207.407 18.118 206.365 17.694 204.952 17.694C203.22 17.694 201.842 18.2947 200.818 19.496C199.828 20.662 199.334 22.2697 199.334 24.319V36.138C199.334 37.1627 199.016 37.9577 198.38 38.523C197.744 39.053 196.949 39.318 195.995 39.318C195.041 39.318 194.246 39.053 193.61 38.523C193.009 37.9577 192.709 37.1627 192.709 36.138V15.627C192.709 14.6377 193.027 13.878 193.663 13.348C194.299 12.818 195.094 12.553 196.048 12.553C196.966 12.553 197.708 12.818 198.274 13.348C198.874 13.8427 199.175 14.567 199.175 15.521V16.793C199.987 15.3797 201.065 14.302 202.408 13.56C203.786 12.818 205.358 12.447 207.125 12.447C211.011 12.447 213.608 14.0723 214.916 17.323C215.693 15.839 216.841 14.6553 218.361 13.772C219.88 12.8887 221.594 12.447 223.502 12.447ZM259.491 31.898C260.092 31.898 260.569 32.1277 260.922 32.587C261.311 33.0463 261.505 33.6647 261.505 34.442C261.505 35.5373 260.851 36.456 259.544 37.198C258.343 37.8693 256.982 38.417 255.463 38.841C253.944 39.2297 252.495 39.424 251.117 39.424C246.948 39.424 243.644 38.2227 241.206 35.82C238.768 33.4173 237.549 30.1313 237.549 25.962C237.549 23.312 238.079 20.9623 239.139 18.913C240.199 16.8637 241.683 15.2737 243.591 14.143C245.534 13.0123 247.725 12.447 250.163 12.447C252.495 12.447 254.527 12.9593 256.258 13.984C257.989 15.0087 259.332 16.4573 260.286 18.33C261.24 20.2027 261.717 22.411 261.717 24.955C261.717 26.4743 261.046 27.234 259.703 27.234H244.068C244.28 29.672 244.969 31.474 246.135 32.64C247.301 33.7707 248.997 34.336 251.223 34.336C252.354 34.336 253.343 34.1947 254.191 33.912C255.074 33.6293 256.064 33.2407 257.159 32.746C258.219 32.1807 258.996 31.898 259.491 31.898ZM250.322 17.111C248.52 17.111 247.071 17.6763 245.976 18.807C244.916 19.9377 244.28 21.563 244.068 23.683H256.046C255.975 21.5277 255.445 19.9023 254.456 18.807C253.467 17.6763 252.089 17.111 250.322 17.111Z" fill="white"/>
</svg>
