<svg width="255" height="39" viewBox="0 0 255 39" fill="none" xmlns="http://www.w3.org/2000/svg">
<path d="M3.261 38C2.23633 38 1.44133 37.7173 0.876 37.152C0.310667 36.5867 0.0280003 35.8093 0.0280003 34.82V3.762C0.0280003 2.73733 0.328334 1.92467 0.929 1.324C1.565 0.687998 2.39533 0.369998 3.42 0.369998C4.48 0.369998 5.31033 0.687998 5.911 1.324C6.547 1.92467 6.865 2.73733 6.865 3.762V32.382H21.758C23.878 32.382 24.938 33.3183 24.938 35.191C24.938 37.0637 23.878 38 21.758 38H3.261ZM40.0794 11.447C43.6834 11.447 46.3511 12.348 48.0824 14.15C49.8491 15.9167 50.7324 18.6197 50.7324 22.259V35.191C50.7324 36.145 50.4498 36.9047 49.8844 37.47C49.3191 38 48.5418 38.265 47.5524 38.265C46.6338 38.265 45.8741 37.9823 45.2734 37.417C44.7081 36.8517 44.4254 36.1097 44.4254 35.191V34.025C43.8248 35.403 42.8708 36.4807 41.5634 37.258C40.2914 38.0353 38.8074 38.424 37.1114 38.424C35.3801 38.424 33.8078 38.0707 32.3944 37.364C30.9811 36.6573 29.8681 35.6857 29.0554 34.449C28.2428 33.2123 27.8364 31.8343 27.8364 30.315C27.8364 28.407 28.3134 26.9053 29.2674 25.81C30.2568 24.7147 31.8468 23.9197 34.0374 23.425C36.2281 22.9303 39.2491 22.683 43.1004 22.683H44.4254V21.464C44.4254 19.7327 44.0544 18.4783 43.3124 17.701C42.5704 16.8883 41.3691 16.482 39.7084 16.482C38.6838 16.482 37.6414 16.641 36.5814 16.959C35.5214 17.2417 34.2671 17.6657 32.8184 18.231C31.8998 18.6903 31.2284 18.92 30.8044 18.92C30.1684 18.92 29.6384 18.6903 29.2144 18.231C28.8258 17.7717 28.6314 17.171 28.6314 16.429C28.6314 15.8283 28.7728 15.316 29.0554 14.892C29.3734 14.4327 29.8858 14.0087 30.5924 13.62C31.8291 12.9487 33.2954 12.4187 34.9914 12.03C36.7228 11.6413 38.4188 11.447 40.0794 11.447ZM38.4364 33.654C40.2031 33.654 41.6341 33.071 42.7294 31.905C43.8601 30.7037 44.4254 29.1667 44.4254 27.294V26.181H43.4714C41.1041 26.181 39.2668 26.287 37.9594 26.499C36.6521 26.711 35.7158 27.082 35.1504 27.612C34.5851 28.142 34.3024 28.8663 34.3024 29.785C34.3024 30.9157 34.6911 31.852 35.4684 32.594C36.2811 33.3007 37.2704 33.654 38.4364 33.654ZM66.8465 38.424C62.9952 38.424 59.8858 37.6643 57.5185 36.145C56.3878 35.4737 55.8225 34.5197 55.8225 33.283C55.8225 32.5763 56.0168 32.011 56.4055 31.587C56.7942 31.1277 57.2712 30.898 57.8365 30.898C58.4372 30.898 59.2675 31.1807 60.3275 31.746C61.4582 32.276 62.4828 32.6823 63.4015 32.965C64.3555 33.2477 65.5568 33.389 67.0055 33.389C68.4895 33.389 69.6378 33.1417 70.4505 32.647C71.2985 32.1523 71.7225 31.4633 71.7225 30.58C71.7225 29.9793 71.5458 29.5023 71.1925 29.149C70.8745 28.7957 70.2738 28.4777 69.3905 28.195C68.5425 27.877 67.2352 27.5237 65.4685 27.135C62.3238 26.499 60.0625 25.598 58.6845 24.432C57.3418 23.266 56.6705 21.6583 56.6705 19.609C56.6705 18.0543 57.1298 16.6587 58.0485 15.422C58.9672 14.15 60.2215 13.1783 61.8115 12.507C63.4368 11.8003 65.2742 11.447 67.3235 11.447C68.8075 11.447 70.2385 11.6413 71.6165 12.03C72.9945 12.3833 74.2312 12.9133 75.3265 13.62C76.4572 14.3267 77.0225 15.263 77.0225 16.429C77.0225 17.1357 76.8282 17.7363 76.4395 18.231C76.0508 18.6903 75.5738 18.92 75.0085 18.92C74.6198 18.92 74.2312 18.8493 73.8425 18.708C73.4892 18.5313 73.0298 18.284 72.4645 17.966C71.4398 17.436 70.5565 17.0473 69.8145 16.8C69.0725 16.5173 68.1538 16.376 67.0585 16.376C65.7512 16.376 64.7088 16.641 63.9315 17.171C63.1895 17.701 62.8185 18.4253 62.8185 19.344C62.8185 20.2273 63.2072 20.8987 63.9845 21.358C64.7618 21.8173 66.2635 22.2767 68.4895 22.736C70.8568 23.2307 72.7118 23.796 74.0545 24.432C75.3972 25.068 76.3512 25.863 76.9165 26.817C77.5172 27.771 77.8175 28.99 77.8175 30.474C77.8175 32.8767 76.8105 34.8023 74.7965 36.251C72.8178 37.6997 70.1678 38.424 66.8465 38.424ZM96.3924 33.389C98.159 33.495 99.0424 34.29 99.0424 35.774C99.0424 36.622 98.689 37.2757 97.9824 37.735C97.311 38.159 96.3394 38.3357 95.0674 38.265L93.6364 38.159C87.7004 37.735 84.7324 34.555 84.7324 28.619V17.065H82.0824C81.1284 17.065 80.3864 16.853 79.8564 16.429C79.3617 16.005 79.1144 15.3867 79.1144 14.574C79.1144 13.7613 79.3617 13.143 79.8564 12.719C80.3864 12.295 81.1284 12.083 82.0824 12.083H84.7324V7.207C84.7324 6.253 85.0327 5.49333 85.6334 4.928C86.234 4.36266 87.0467 4.08 88.0714 4.08C89.0607 4.08 89.8557 4.36266 90.4564 4.928C91.057 5.49333 91.3574 6.253 91.3574 7.207V12.083H95.8624C96.8164 12.083 97.5407 12.295 98.0354 12.719C98.5654 13.143 98.8304 13.7613 98.8304 14.574C98.8304 15.3867 98.5654 16.005 98.0354 16.429C97.5407 16.853 96.8164 17.065 95.8624 17.065H91.3574V29.096C91.3574 31.7107 92.5587 33.1063 94.9614 33.283L96.3924 33.389ZM145.768 0.369998C146.758 0.369998 147.535 0.687998 148.1 1.324C148.701 1.92467 149.001 2.73733 149.001 3.762V34.873C149.001 35.8977 148.701 36.728 148.1 37.364C147.5 38 146.722 38.318 145.768 38.318C144.638 38.318 143.772 37.9117 143.171 37.099L123.826 11.924V34.873C123.826 35.8977 123.544 36.728 122.978 37.364C122.413 38 121.636 38.318 120.646 38.318C119.657 38.318 118.88 38 118.314 37.364C117.749 36.728 117.466 35.8977 117.466 34.873V3.762C117.466 2.73733 117.767 1.92467 118.367 1.324C118.968 0.687998 119.763 0.369998 120.752 0.369998C121.848 0.369998 122.696 0.776331 123.296 1.589L142.588 26.658V3.762C142.588 2.73733 142.871 1.92467 143.436 1.324C144.037 0.687998 144.814 0.369998 145.768 0.369998ZM167.714 11.447C171.318 11.447 173.986 12.348 175.717 14.15C177.484 15.9167 178.367 18.6197 178.367 22.259V35.191C178.367 36.145 178.085 36.9047 177.519 37.47C176.954 38 176.177 38.265 175.187 38.265C174.269 38.265 173.509 37.9823 172.908 37.417C172.343 36.8517 172.06 36.1097 172.06 35.191V34.025C171.46 35.403 170.506 36.4807 169.198 37.258C167.926 38.0353 166.442 38.424 164.746 38.424C163.015 38.424 161.443 38.0707 160.029 37.364C158.616 36.6573 157.503 35.6857 156.69 34.449C155.878 33.2123 155.471 31.8343 155.471 30.315C155.471 28.407 155.948 26.9053 156.902 25.81C157.892 24.7147 159.482 23.9197 161.672 23.425C163.863 22.9303 166.884 22.683 170.735 22.683H172.06V21.464C172.06 19.7327 171.689 18.4783 170.947 17.701C170.205 16.8883 169.004 16.482 167.343 16.482C166.319 16.482 165.276 16.641 164.216 16.959C163.156 17.2417 161.902 17.6657 160.453 18.231C159.535 18.6903 158.863 18.92 158.439 18.92C157.803 18.92 157.273 18.6903 156.849 18.231C156.461 17.7717 156.266 17.171 156.266 16.429C156.266 15.8283 156.408 15.316 156.69 14.892C157.008 14.4327 157.521 14.0087 158.227 13.62C159.464 12.9487 160.93 12.4187 162.626 12.03C164.358 11.6413 166.054 11.447 167.714 11.447ZM166.071 33.654C167.838 33.654 169.269 33.071 170.364 31.905C171.495 30.7037 172.06 29.1667 172.06 27.294V26.181H171.106C168.739 26.181 166.902 26.287 165.594 26.499C164.287 26.711 163.351 27.082 162.785 27.612C162.22 28.142 161.937 28.8663 161.937 29.785C161.937 30.9157 162.326 31.852 163.103 32.594C163.916 33.3007 164.905 33.654 166.071 33.654ZM215.893 11.447C218.72 11.447 220.875 12.295 222.359 13.991C223.879 15.6517 224.638 18.3547 224.638 22.1V35.138C224.638 36.1627 224.32 36.9577 223.684 37.523C223.084 38.053 222.289 38.318 221.299 38.318C220.345 38.318 219.55 38.053 218.914 37.523C218.314 36.9577 218.013 36.1627 218.013 35.138V22.1C218.013 20.1567 217.66 18.7787 216.953 17.966C216.282 17.118 215.24 16.694 213.826 16.694C212.095 16.694 210.717 17.2947 209.692 18.496C208.668 19.662 208.155 21.2697 208.155 23.319V35.138C208.155 36.1627 207.837 36.9577 207.201 37.523C206.601 38.053 205.823 38.318 204.869 38.318C203.915 38.318 203.12 38.053 202.484 37.523C201.848 36.9577 201.53 36.1627 201.53 35.138V22.1C201.53 20.1567 201.177 18.7787 200.47 17.966C199.799 17.118 198.757 16.694 197.343 16.694C195.612 16.694 194.234 17.2947 193.209 18.496C192.22 19.662 191.725 21.2697 191.725 23.319V35.138C191.725 36.1627 191.407 36.9577 190.771 37.523C190.135 38.053 189.34 38.318 188.386 38.318C187.432 38.318 186.637 38.053 186.001 37.523C185.401 36.9577 185.1 36.1627 185.1 35.138V14.627C185.1 13.6377 185.418 12.878 186.054 12.348C186.69 11.818 187.485 11.553 188.439 11.553C189.358 11.553 190.1 11.818 190.665 12.348C191.266 12.8427 191.566 13.567 191.566 14.521V15.793C192.379 14.3797 193.457 13.302 194.799 12.56C196.177 11.818 197.75 11.447 199.516 11.447C203.403 11.447 206 13.0723 207.307 16.323C208.085 14.839 209.233 13.6553 210.752 12.772C212.272 11.8887 213.985 11.447 215.893 11.447ZM251.883 30.898C252.483 30.898 252.96 31.1277 253.314 31.587C253.702 32.0463 253.897 32.6647 253.897 33.442C253.897 34.5373 253.243 35.456 251.936 36.198C250.734 36.8693 249.374 37.417 247.855 37.841C246.335 38.2297 244.887 38.424 243.509 38.424C239.339 38.424 236.036 37.2227 233.598 34.82C231.16 32.4173 229.941 29.1313 229.941 24.962C229.941 22.312 230.471 19.9623 231.531 17.913C232.591 15.8637 234.075 14.2737 235.983 13.143C237.926 12.0123 240.117 11.447 242.555 11.447C244.887 11.447 246.918 11.9593 248.65 12.984C250.381 14.0087 251.724 15.4573 252.678 17.33C253.632 19.2027 254.109 21.411 254.109 23.955C254.109 25.4743 253.437 26.234 252.095 26.234H236.46C236.672 28.672 237.361 30.474 238.527 31.64C239.693 32.7707 241.389 33.336 243.615 33.336C244.745 33.336 245.735 33.1947 246.583 32.912C247.466 32.6293 248.455 32.2407 249.551 31.746C250.611 31.1807 251.388 30.898 251.883 30.898ZM242.714 16.111C240.912 16.111 239.463 16.6763 238.368 17.807C237.308 18.9377 236.672 20.563 236.46 22.683H248.438C248.367 20.5277 247.837 18.9023 246.848 17.807C245.858 16.6763 244.48 16.111 242.714 16.111Z" fill="white"/>
</svg>
