<svg width="540" height="1441" viewBox="0 0 540 1441" fill="none" xmlns="http://www.w3.org/2000/svg">
<path d="M6.01727 4.50024L534.017 6.50024M6.01724 379.5L534.017 381.5M6.0182 118.5L294 118.5L534.018 120.5M6.01822 496L534.018 498M6.01817 623.5L534.018 625.5M6.01821 1080.5C230.819 1081.27 332.292 1081.72 534.018 1082.5M6.01821 896C230.819 896.766 332.292 897.216 534.018 898M6.01806 1270C230.819 1270.77 332.292 1271.22 534.018 1272M6.01813 1434.5C230.819 1435.27 332.292 1435.72 534.018 1436.5M6.01822 245.5L534.018 247.5M6.01798 759L534.018 761C332.292 760.216 230.819 759.766 6.01798 759Z" stroke="#878787" stroke-opacity="0.24" stroke-width="9"/>
</svg>
