<svg width="251" height="49" viewBox="0 0 251 49" fill="none" xmlns="http://www.w3.org/2000/svg">
<path d="M18.67 39.477C15.0307 39.477 11.8683 38.6997 9.183 37.145C6.533 35.5903 4.48367 33.3643 3.035 30.467C1.58633 27.5697 0.862 24.1777 0.862 20.291C0.862 16.4043 1.56867 13.03 2.982 10.168C4.43067 7.27066 6.49767 5.04466 9.183 3.49C11.8683 1.93533 15.0307 1.158 18.67 1.158C22.3093 1.158 25.454 1.93533 28.104 3.49C30.7893 5.04466 32.8387 7.27066 34.252 10.168C35.7007 13.03 36.425 16.4043 36.425 20.291C36.425 24.1777 35.7007 27.5697 34.252 30.467C32.8033 33.3643 30.7363 35.5903 28.051 37.145C25.401 38.6997 22.274 39.477 18.67 39.477ZM18.67 34.018C22.0973 34.018 24.765 32.8343 26.673 30.467C28.6163 28.0997 29.588 24.7077 29.588 20.291C29.588 15.8743 28.6163 12.5 26.673 10.168C24.765 7.80067 22.0973 6.617 18.67 6.617C15.2073 6.617 12.5043 7.80067 10.561 10.168C8.653 12.5 7.699 15.8743 7.699 20.291C7.699 24.7077 8.653 28.0997 10.561 30.467C12.5043 32.8343 15.2073 34.018 18.67 34.018ZM57.6407 12.447C59.8667 12.447 61.8454 13.0123 63.5767 14.143C65.3434 15.2737 66.7037 16.8813 67.6577 18.966C68.6471 21.0153 69.1417 23.3827 69.1417 26.068C69.1417 28.7533 68.6471 31.103 67.6577 33.117C66.7037 35.131 65.3611 36.6857 63.6297 37.781C61.8984 38.8763 59.9021 39.424 57.6407 39.424C55.8034 39.424 54.1604 39.0353 52.7117 38.258C51.2631 37.4807 50.1501 36.403 49.3727 35.025V45.837C49.3727 46.7557 49.0724 47.48 48.4717 48.01C47.8711 48.54 47.0761 48.805 46.0867 48.805C45.0974 48.805 44.2847 48.5223 43.6487 47.957C43.0481 47.3917 42.7477 46.6497 42.7477 45.731V15.68C42.7477 14.726 43.0304 13.9663 43.5957 13.401C44.1964 12.8357 44.9914 12.553 45.9807 12.553C46.9701 12.553 47.7651 12.8357 48.3657 13.401C48.9664 13.9663 49.2667 14.726 49.2667 15.68V17.005C50.0441 15.5563 51.1571 14.4433 52.6057 13.666C54.0897 12.8533 55.7681 12.447 57.6407 12.447ZM55.8917 34.283C57.9764 34.283 59.6017 33.5763 60.7677 32.163C61.9337 30.7143 62.5167 28.6827 62.5167 26.068C62.5167 23.3827 61.9337 21.298 60.7677 19.814C59.6017 18.33 57.9764 17.588 55.8917 17.588C53.7717 17.588 52.1287 18.3123 50.9627 19.761C49.8321 21.2097 49.2667 23.2767 49.2667 25.962C49.2667 28.612 49.8321 30.6613 50.9627 32.11C52.1287 33.5587 53.7717 34.283 55.8917 34.283ZM95.0898 31.898C95.6905 31.898 96.1675 32.1277 96.5208 32.587C96.9095 33.0463 97.1038 33.6647 97.1038 34.442C97.1038 35.5373 96.4501 36.456 95.1428 37.198C93.9415 37.8693 92.5811 38.417 91.0618 38.841C89.5425 39.2297 88.0938 39.424 86.7158 39.424C82.5465 39.424 79.2428 38.2227 76.8048 35.82C74.3668 33.4173 73.1478 30.1313 73.1478 25.962C73.1478 23.312 73.6778 20.9623 74.7378 18.913C75.7978 16.8637 77.2818 15.2737 79.1898 14.143C81.1331 13.0123 83.3238 12.447 85.7618 12.447C88.0938 12.447 90.1255 12.9593 91.8568 13.984C93.5881 15.0087 94.9308 16.4573 95.8848 18.33C96.8388 20.2027 97.3158 22.411 97.3158 24.955C97.3158 26.4743 96.6445 27.234 95.3018 27.234H79.6668C79.8788 29.672 80.5678 31.474 81.7338 32.64C82.8998 33.7707 84.5958 34.336 86.8218 34.336C87.9525 34.336 88.9418 34.1947 89.7898 33.912C90.6731 33.6293 91.6625 33.2407 92.7578 32.746C93.8178 32.1807 94.5951 31.898 95.0898 31.898ZM85.9208 17.111C84.1188 17.111 82.6701 17.6763 81.5748 18.807C80.5148 19.9377 79.8788 21.563 79.6668 23.683H91.6448C91.5741 21.5277 91.0441 19.9023 90.0548 18.807C89.0655 17.6763 87.6875 17.111 85.9208 17.111ZM117.787 12.447C120.896 12.447 123.211 13.3303 124.73 15.097C126.249 16.8637 127.009 19.5313 127.009 23.1V36.138C127.009 37.1273 126.709 37.9047 126.108 38.47C125.543 39.0353 124.748 39.318 123.723 39.318C122.698 39.318 121.886 39.0353 121.285 38.47C120.684 37.9047 120.384 37.1273 120.384 36.138V23.471C120.384 21.457 119.995 19.9907 119.218 19.072C118.476 18.1533 117.292 17.694 115.667 17.694C113.759 17.694 112.222 18.2947 111.056 19.496C109.925 20.6973 109.36 22.305 109.36 24.319V36.138C109.36 37.1273 109.06 37.9047 108.459 38.47C107.858 39.0353 107.046 39.318 106.021 39.318C104.996 39.318 104.184 39.0353 103.583 38.47C103.018 37.9047 102.735 37.1273 102.735 36.138V15.627C102.735 14.7083 103.035 13.9663 103.636 13.401C104.237 12.8357 105.049 12.553 106.074 12.553C106.993 12.553 107.735 12.8357 108.3 13.401C108.901 13.931 109.201 14.6377 109.201 15.521V16.952C110.084 15.5033 111.268 14.3903 112.752 13.613C114.236 12.8357 115.914 12.447 117.787 12.447ZM161.589 34.389C163.355 34.495 164.239 35.29 164.239 36.774C164.239 37.622 163.885 38.2757 163.179 38.735C162.507 39.159 161.536 39.3357 160.264 39.265L158.833 39.159C152.897 38.735 149.929 35.555 149.929 29.619V18.065H147.279C146.325 18.065 145.583 17.853 145.053 17.429C144.558 17.005 144.311 16.3867 144.311 15.574C144.311 14.7613 144.558 14.143 145.053 13.719C145.583 13.295 146.325 13.083 147.279 13.083H149.929V8.207C149.929 7.253 150.229 6.49333 150.83 5.928C151.43 5.36266 152.243 5.08 153.268 5.08C154.257 5.08 155.052 5.36266 155.653 5.928C156.253 6.49333 156.554 7.253 156.554 8.207V13.083H161.059C162.013 13.083 162.737 13.295 163.232 13.719C163.762 14.143 164.027 14.7613 164.027 15.574C164.027 16.3867 163.762 17.005 163.232 17.429C162.737 17.853 162.013 18.065 161.059 18.065H156.554V30.096C156.554 32.7107 157.755 34.1063 160.158 34.283L161.589 34.389ZM170.977 39.318C170.023 39.318 169.228 39.053 168.592 38.523C167.991 37.9577 167.691 37.1627 167.691 36.138V15.68C167.691 14.6553 167.991 13.878 168.592 13.348C169.228 12.818 170.023 12.553 170.977 12.553C171.931 12.553 172.726 12.818 173.362 13.348C173.998 13.878 174.316 14.6553 174.316 15.68V36.138C174.316 37.1627 173.998 37.9577 173.362 38.523C172.726 39.053 171.931 39.318 170.977 39.318ZM170.977 7.836C169.776 7.836 168.822 7.518 168.115 6.882C167.408 6.21067 167.055 5.345 167.055 4.285C167.055 3.225 167.408 2.377 168.115 1.741C168.822 1.105 169.776 0.786999 170.977 0.786999C172.143 0.786999 173.079 1.105 173.786 1.741C174.528 2.377 174.899 3.225 174.899 4.285C174.899 5.345 174.546 6.21067 173.839 6.882C173.132 7.518 172.178 7.836 170.977 7.836ZM211.941 12.447C214.768 12.447 216.923 13.295 218.407 14.991C219.926 16.6517 220.686 19.3547 220.686 23.1V36.138C220.686 37.1627 220.368 37.9577 219.732 38.523C219.131 39.053 218.336 39.318 217.347 39.318C216.393 39.318 215.598 39.053 214.962 38.523C214.361 37.9577 214.061 37.1627 214.061 36.138V23.1C214.061 21.1567 213.708 19.7787 213.001 18.966C212.33 18.118 211.287 17.694 209.874 17.694C208.143 17.694 206.765 18.2947 205.74 19.496C204.715 20.662 204.203 22.2697 204.203 24.319V36.138C204.203 37.1627 203.885 37.9577 203.249 38.523C202.648 39.053 201.871 39.318 200.917 39.318C199.963 39.318 199.168 39.053 198.532 38.523C197.896 37.9577 197.578 37.1627 197.578 36.138V23.1C197.578 21.1567 197.225 19.7787 196.518 18.966C195.847 18.118 194.804 17.694 193.391 17.694C191.66 17.694 190.282 18.2947 189.257 19.496C188.268 20.662 187.773 22.2697 187.773 24.319V36.138C187.773 37.1627 187.455 37.9577 186.819 38.523C186.183 39.053 185.388 39.318 184.434 39.318C183.48 39.318 182.685 39.053 182.049 38.523C181.448 37.9577 181.148 37.1627 181.148 36.138V15.627C181.148 14.6377 181.466 13.878 182.102 13.348C182.738 12.818 183.533 12.553 184.487 12.553C185.406 12.553 186.148 12.818 186.713 13.348C187.314 13.8427 187.614 14.567 187.614 15.521V16.793C188.427 15.3797 189.504 14.302 190.847 13.56C192.225 12.818 193.797 12.447 195.564 12.447C199.451 12.447 202.048 14.0723 203.355 17.323C204.132 15.839 205.281 14.6553 206.8 13.772C208.319 12.8887 210.033 12.447 211.941 12.447ZM247.931 31.898C248.531 31.898 249.008 32.1277 249.362 32.587C249.75 33.0463 249.945 33.6647 249.945 34.442C249.945 35.5373 249.291 36.456 247.984 37.198C246.782 37.8693 245.422 38.417 243.903 38.841C242.383 39.2297 240.935 39.424 239.557 39.424C235.387 39.424 232.084 38.2227 229.646 35.82C227.208 33.4173 225.989 30.1313 225.989 25.962C225.989 23.312 226.519 20.9623 227.579 18.913C228.639 16.8637 230.123 15.2737 232.031 14.143C233.974 13.0123 236.165 12.447 238.603 12.447C240.935 12.447 242.966 12.9593 244.698 13.984C246.429 15.0087 247.772 16.4573 248.726 18.33C249.68 20.2027 250.157 22.411 250.157 24.955C250.157 26.4743 249.485 27.234 248.143 27.234H232.508C232.72 29.672 233.409 31.474 234.575 32.64C235.741 33.7707 237.437 34.336 239.663 34.336C240.793 34.336 241.783 34.1947 242.631 33.912C243.514 33.6293 244.503 33.2407 245.599 32.746C246.659 32.1807 247.436 31.898 247.931 31.898ZM238.762 17.111C236.96 17.111 235.511 17.6763 234.416 18.807C233.356 19.9377 232.72 21.563 232.508 23.683H244.486C244.415 21.5277 243.885 19.9023 242.896 18.807C241.906 17.6763 240.528 17.111 238.762 17.111Z" fill="white"/>
</svg>
