<svg width="234" height="39" viewBox="0 0 234 39" fill="none" xmlns="http://www.w3.org/2000/svg">
<path d="M3.42 38.318C2.39533 38.318 1.565 38.0177 0.929 37.417C0.328334 36.781 0.0280003 35.933 0.0280003 34.873V3.868C0.0280003 2.84333 0.310667 2.04833 0.876 1.483C1.47667 0.917665 2.28933 0.634998 3.314 0.634998H16.352C20.3447 0.634998 23.454 1.642 25.68 3.656C27.906 5.63467 29.019 8.426 29.019 12.03C29.019 15.634 27.906 18.443 25.68 20.457C23.454 22.471 20.3447 23.478 16.352 23.478H6.865V34.873C6.865 35.933 6.547 36.781 5.911 37.417C5.31033 38.0177 4.48 38.318 3.42 38.318ZM15.504 18.231C20.2033 18.231 22.553 16.1817 22.553 12.083C22.553 7.98433 20.2033 5.935 15.504 5.935H6.865V18.231H15.504ZM44.9964 11.447C48.6004 11.447 51.2681 12.348 52.9994 14.15C54.7661 15.9167 55.6494 18.6197 55.6494 22.259V35.191C55.6494 36.145 55.3668 36.9047 54.8014 37.47C54.2361 38 53.4588 38.265 52.4694 38.265C51.5508 38.265 50.7911 37.9823 50.1904 37.417C49.6251 36.8517 49.3424 36.1097 49.3424 35.191V34.025C48.7418 35.403 47.7878 36.4807 46.4804 37.258C45.2084 38.0353 43.7244 38.424 42.0284 38.424C40.2971 38.424 38.7248 38.0707 37.3114 37.364C35.8981 36.6573 34.7851 35.6857 33.9724 34.449C33.1598 33.2123 32.7534 31.8343 32.7534 30.315C32.7534 28.407 33.2304 26.9053 34.1844 25.81C35.1738 24.7147 36.7638 23.9197 38.9544 23.425C41.1451 22.9303 44.1661 22.683 48.0174 22.683H49.3424V21.464C49.3424 19.7327 48.9714 18.4783 48.2294 17.701C47.4874 16.8883 46.2861 16.482 44.6254 16.482C43.6008 16.482 42.5584 16.641 41.4984 16.959C40.4384 17.2417 39.1841 17.6657 37.7354 18.231C36.8168 18.6903 36.1454 18.92 35.7214 18.92C35.0854 18.92 34.5554 18.6903 34.1314 18.231C33.7428 17.7717 33.5484 17.171 33.5484 16.429C33.5484 15.8283 33.6898 15.316 33.9724 14.892C34.2904 14.4327 34.8028 14.0087 35.5094 13.62C36.7461 12.9487 38.2124 12.4187 39.9084 12.03C41.6398 11.6413 43.3358 11.447 44.9964 11.447ZM43.3534 33.654C45.1201 33.654 46.5511 33.071 47.6464 31.905C48.7771 30.7037 49.3424 29.1667 49.3424 27.294V26.181H48.3884C46.0211 26.181 44.1838 26.287 42.8764 26.499C41.5691 26.711 40.6328 27.082 40.0674 27.612C39.5021 28.142 39.2194 28.8663 39.2194 29.785C39.2194 30.9157 39.6081 31.852 40.3854 32.594C41.1981 33.3007 42.1874 33.654 43.3534 33.654ZM71.7635 38.424C67.9122 38.424 64.8028 37.6643 62.4355 36.145C61.3048 35.4737 60.7395 34.5197 60.7395 33.283C60.7395 32.5763 60.9338 32.011 61.3225 31.587C61.7112 31.1277 62.1882 30.898 62.7535 30.898C63.3542 30.898 64.1845 31.1807 65.2445 31.746C66.3752 32.276 67.3998 32.6823 68.3185 32.965C69.2725 33.2477 70.4738 33.389 71.9225 33.389C73.4065 33.389 74.5548 33.1417 75.3675 32.647C76.2155 32.1523 76.6395 31.4633 76.6395 30.58C76.6395 29.9793 76.4628 29.5023 76.1095 29.149C75.7915 28.7957 75.1908 28.4777 74.3075 28.195C73.4595 27.877 72.1522 27.5237 70.3855 27.135C67.2408 26.499 64.9795 25.598 63.6015 24.432C62.2588 23.266 61.5875 21.6583 61.5875 19.609C61.5875 18.0543 62.0468 16.6587 62.9655 15.422C63.8842 14.15 65.1385 13.1783 66.7285 12.507C68.3538 11.8003 70.1912 11.447 72.2405 11.447C73.7245 11.447 75.1555 11.6413 76.5335 12.03C77.9115 12.3833 79.1482 12.9133 80.2435 13.62C81.3742 14.3267 81.9395 15.263 81.9395 16.429C81.9395 17.1357 81.7452 17.7363 81.3565 18.231C80.9678 18.6903 80.4908 18.92 79.9255 18.92C79.5368 18.92 79.1482 18.8493 78.7595 18.708C78.4062 18.5313 77.9468 18.284 77.3815 17.966C76.3568 17.436 75.4735 17.0473 74.7315 16.8C73.9895 16.5173 73.0708 16.376 71.9755 16.376C70.6682 16.376 69.6258 16.641 68.8485 17.171C68.1065 17.701 67.7355 18.4253 67.7355 19.344C67.7355 20.2273 68.1242 20.8987 68.9015 21.358C69.6788 21.8173 71.1805 22.2767 73.4065 22.736C75.7738 23.2307 77.6288 23.796 78.9715 24.432C80.3142 25.068 81.2682 25.863 81.8335 26.817C82.4342 27.771 82.7345 28.99 82.7345 30.474C82.7345 32.8767 81.7275 34.8023 79.7135 36.251C77.7348 37.6997 75.0848 38.424 71.7635 38.424ZM97.4871 38.424C93.6358 38.424 90.5265 37.6643 88.1591 36.145C87.0285 35.4737 86.4631 34.5197 86.4631 33.283C86.4631 32.5763 86.6575 32.011 87.0461 31.587C87.4348 31.1277 87.9118 30.898 88.4771 30.898C89.0778 30.898 89.9081 31.1807 90.9681 31.746C92.0988 32.276 93.1235 32.6823 94.0421 32.965C94.9961 33.2477 96.1975 33.389 97.6461 33.389C99.1301 33.389 100.278 33.1417 101.091 32.647C101.939 32.1523 102.363 31.4633 102.363 30.58C102.363 29.9793 102.186 29.5023 101.833 29.149C101.515 28.7957 100.914 28.4777 100.031 28.195C99.1831 27.877 97.8758 27.5237 96.1091 27.135C92.9645 26.499 90.7031 25.598 89.3251 24.432C87.9825 23.266 87.3111 21.6583 87.3111 19.609C87.3111 18.0543 87.7705 16.6587 88.6891 15.422C89.6078 14.15 90.8621 13.1783 92.4521 12.507C94.0775 11.8003 95.9148 11.447 97.9641 11.447C99.4481 11.447 100.879 11.6413 102.257 12.03C103.635 12.3833 104.872 12.9133 105.967 13.62C107.098 14.3267 107.663 15.263 107.663 16.429C107.663 17.1357 107.469 17.7363 107.08 18.231C106.691 18.6903 106.214 18.92 105.649 18.92C105.26 18.92 104.872 18.8493 104.483 18.708C104.13 18.5313 103.67 18.284 103.105 17.966C102.08 17.436 101.197 17.0473 100.455 16.8C99.7131 16.5173 98.7945 16.376 97.6991 16.376C96.3918 16.376 95.3495 16.641 94.5721 17.171C93.8301 17.701 93.4591 18.4253 93.4591 19.344C93.4591 20.2273 93.8478 20.8987 94.6251 21.358C95.4025 21.8173 96.9041 22.2767 99.1301 22.736C101.497 23.2307 103.352 23.796 104.695 24.432C106.038 25.068 106.992 25.863 107.557 26.817C108.158 27.771 108.458 28.99 108.458 30.474C108.458 32.8767 107.451 34.8023 105.437 36.251C103.458 37.6997 100.808 38.424 97.4871 38.424ZM148.5 13.514C148.748 12.878 149.101 12.401 149.56 12.083C150.055 11.765 150.585 11.606 151.15 11.606C151.963 11.606 152.687 11.8887 153.323 12.454C153.995 12.984 154.33 13.6553 154.33 14.468C154.33 14.9273 154.242 15.3337 154.065 15.687L145.32 36.198C145.038 36.8693 144.596 37.3817 143.995 37.735C143.43 38.0883 142.794 38.265 142.087 38.265C141.416 38.265 140.78 38.0883 140.179 37.735C139.614 37.3817 139.19 36.8693 138.907 36.198L132.6 21.04L126.505 36.198C126.223 36.8693 125.781 37.3817 125.18 37.735C124.615 38.0883 123.979 38.265 123.272 38.265C122.601 38.265 121.965 38.0883 121.364 37.735C120.764 37.3817 120.322 36.8693 120.039 36.198L111.347 15.687C111.171 15.2277 111.082 14.839 111.082 14.521C111.082 13.7083 111.436 13.0193 112.142 12.454C112.849 11.8533 113.626 11.553 114.474 11.553C115.075 11.553 115.623 11.712 116.117 12.03C116.612 12.348 116.983 12.825 117.23 13.461L123.484 29.626L129.897 13.62C130.18 12.9487 130.586 12.454 131.116 12.136C131.646 11.7827 132.229 11.606 132.865 11.606C133.501 11.606 134.084 11.7827 134.614 12.136C135.144 12.454 135.551 12.9487 135.833 13.62L142.299 29.679L148.5 13.514ZM170.264 38.424C167.614 38.424 165.282 37.8763 163.268 36.781C161.289 35.6857 159.752 34.1133 158.657 32.064C157.562 30.0147 157.014 27.6297 157.014 24.909C157.014 22.1883 157.562 19.821 158.657 17.807C159.752 15.7577 161.289 14.1853 163.268 13.09C165.282 11.9947 167.614 11.447 170.264 11.447C172.914 11.447 175.228 11.9947 177.207 13.09C179.221 14.1853 180.758 15.7577 181.818 17.807C182.913 19.821 183.461 22.1883 183.461 24.909C183.461 27.6297 182.913 30.0147 181.818 32.064C180.758 34.1133 179.221 35.6857 177.207 36.781C175.228 37.8763 172.914 38.424 170.264 38.424ZM170.211 33.283C172.366 33.283 174.009 32.5763 175.14 31.163C176.271 29.7497 176.836 27.665 176.836 24.909C176.836 22.1883 176.271 20.1213 175.14 18.708C174.009 17.2593 172.384 16.535 170.264 16.535C168.144 16.535 166.501 17.2593 165.335 18.708C164.204 20.1213 163.639 22.1883 163.639 24.909C163.639 27.665 164.204 29.7497 165.335 31.163C166.466 32.5763 168.091 33.283 170.211 33.283ZM203.399 11.553C204.318 11.4823 205.042 11.6767 205.572 12.136C206.102 12.5953 206.367 13.2843 206.367 14.203C206.367 15.157 206.138 15.8637 205.678 16.323C205.219 16.7823 204.389 17.0827 203.187 17.224L201.597 17.383C199.513 17.595 197.976 18.3017 196.986 19.503C196.032 20.7043 195.555 22.206 195.555 24.008V35.138C195.555 36.1627 195.237 36.9577 194.601 37.523C193.965 38.053 193.17 38.318 192.216 38.318C191.262 38.318 190.467 38.053 189.831 37.523C189.231 36.9577 188.93 36.1627 188.93 35.138V14.627C188.93 13.6377 189.231 12.878 189.831 12.348C190.467 11.818 191.245 11.553 192.163 11.553C193.082 11.553 193.824 11.818 194.389 12.348C194.955 12.8427 195.237 13.567 195.237 14.521V16.641C195.909 15.0863 196.898 13.885 198.205 13.037C199.548 12.189 201.032 11.712 202.657 11.606L203.399 11.553ZM230.326 0.369998C231.315 0.369998 232.128 0.652665 232.764 1.218C233.4 1.78333 233.718 2.52533 233.718 3.444V35.138C233.718 36.092 233.418 36.8517 232.817 37.417C232.216 37.9823 231.421 38.265 230.432 38.265C229.443 38.265 228.648 37.9823 228.047 37.417C227.446 36.8517 227.146 36.092 227.146 35.138V33.813C226.369 35.2617 225.238 36.3923 223.754 37.205C222.305 38.0177 220.645 38.424 218.772 38.424C216.546 38.424 214.55 37.8587 212.783 36.728C211.052 35.5973 209.691 34.0073 208.702 31.958C207.748 29.8733 207.271 27.4883 207.271 24.803C207.271 22.1177 207.748 19.768 208.702 17.754C209.691 15.74 211.052 14.1853 212.783 13.09C214.514 11.9947 216.511 11.447 218.772 11.447C220.645 11.447 222.305 11.8357 223.754 12.613C225.203 13.3903 226.316 14.4857 227.093 15.899V3.338C227.093 2.45467 227.376 1.748 227.941 1.218C228.542 0.652665 229.337 0.369998 230.326 0.369998ZM220.521 33.283C222.641 33.283 224.266 32.5587 225.397 31.11C226.563 29.6613 227.146 27.5943 227.146 24.909C227.146 22.2237 226.563 20.1743 225.397 18.761C224.266 17.3123 222.659 16.588 220.574 16.588C218.454 16.588 216.811 17.2947 215.645 18.708C214.479 20.1213 213.896 22.153 213.896 24.803C213.896 27.4883 214.479 29.573 215.645 31.057C216.811 32.541 218.436 33.283 220.521 33.283Z" fill="white"/>
</svg>
