<svg width="669" height="66" viewBox="0 0 669 66" fill="none" xmlns="http://www.w3.org/2000/svg">
<path d="M5.16128 52C3.78862 52 2.69995 51.6213 1.89528 50.864C1.13795 50.1067 0.759282 49.0417 0.759282 47.669V6.276C0.759282 4.90333 1.13795 3.83833 1.89528 3.081C2.69995 2.32366 3.78862 1.945 5.16128 1.945H19.2193C27.4079 1.945 33.7506 4.146 38.2473 8.548C42.7913 12.9027 45.0633 19.0323 45.0633 26.937C45.0633 34.889 42.7913 41.066 38.2473 45.468C33.7506 49.8227 27.4079 52 19.2193 52H5.16128ZM18.6513 44.545C30.1533 44.545 35.9043 38.6757 35.9043 26.937C35.9043 15.2457 30.1533 9.4 18.6513 9.4H9.91828V44.545H18.6513ZM69.3386 52.568C65.7886 52.568 62.6646 51.8343 59.9666 50.367C57.316 48.8997 55.257 46.7933 53.7896 44.048C52.3223 41.3027 51.5886 38.1077 51.5886 34.463C51.5886 30.8183 52.3223 27.647 53.7896 24.949C55.257 22.2037 57.316 20.0973 59.9666 18.63C62.6646 17.1627 65.7886 16.429 69.3386 16.429C72.8886 16.429 75.989 17.1627 78.6396 18.63C81.3376 20.0973 83.3966 22.2037 84.8166 24.949C86.284 27.647 87.0176 30.8183 87.0176 34.463C87.0176 38.1077 86.284 41.3027 84.8166 44.048C83.3966 46.7933 81.3376 48.8997 78.6396 50.367C75.989 51.8343 72.8886 52.568 69.3386 52.568ZM69.2676 45.681C72.155 45.681 74.356 44.7343 75.8706 42.841C77.3853 40.9477 78.1426 38.155 78.1426 34.463C78.1426 30.8183 77.3853 28.0493 75.8706 26.156C74.356 24.2153 72.1786 23.245 69.3386 23.245C66.4986 23.245 64.2976 24.2153 62.7356 26.156C61.221 28.0493 60.4636 30.8183 60.4636 34.463C60.4636 38.155 61.221 40.9477 62.7356 42.841C64.2503 44.7343 66.4276 45.681 69.2676 45.681ZM109.751 52.568C106.296 52.568 103.243 51.8343 100.592 50.367C97.9892 48.8997 95.9775 46.817 94.5575 44.119C93.1375 41.421 92.4275 38.2733 92.4275 34.676C92.4275 31.0787 93.1612 27.9073 94.6285 25.162C96.1432 22.3693 98.2495 20.2157 100.947 18.701C103.645 17.1863 106.746 16.429 110.248 16.429C112.094 16.429 113.94 16.6893 115.786 17.21C117.68 17.7307 119.336 18.4407 120.756 19.34C122.271 20.334 123.028 21.5883 123.028 23.103C123.028 24.1443 122.768 24.9963 122.247 25.659C121.774 26.2743 121.135 26.582 120.33 26.582C119.81 26.582 119.265 26.4637 118.697 26.227C118.129 25.9903 117.561 25.7063 116.993 25.375C115.952 24.7597 114.958 24.2863 114.011 23.955C113.065 23.5763 111.976 23.387 110.745 23.387C107.811 23.387 105.539 24.3573 103.929 26.298C102.367 28.1913 101.586 30.9367 101.586 34.534C101.586 38.084 102.367 40.8293 103.929 42.77C105.539 44.6633 107.811 45.61 110.745 45.61C111.929 45.61 112.97 45.4443 113.869 45.113C114.816 44.7343 115.857 44.2373 116.993 43.622C117.703 43.196 118.319 42.8883 118.839 42.699C119.36 42.4623 119.881 42.344 120.401 42.344C121.159 42.344 121.798 42.6753 122.318 43.338C122.839 44.0007 123.099 44.829 123.099 45.823C123.099 46.6277 122.91 47.3377 122.531 47.953C122.2 48.521 121.632 49.0417 120.827 49.515C119.36 50.4617 117.656 51.219 115.715 51.787C113.775 52.3077 111.787 52.568 109.751 52.568ZM147.254 45.823C149.621 45.965 150.804 47.03 150.804 49.018C150.804 50.154 150.331 51.0297 149.384 51.645C148.485 52.213 147.183 52.4497 145.479 52.355L143.562 52.213C135.61 51.645 131.634 47.385 131.634 39.433V23.955H128.084C126.806 23.955 125.812 23.671 125.102 23.103C124.44 22.535 124.108 21.7067 124.108 20.618C124.108 19.5293 124.44 18.701 125.102 18.133C125.812 17.565 126.806 17.281 128.084 17.281H131.634V10.749C131.634 9.471 132.037 8.45333 132.841 7.696C133.646 6.93866 134.735 6.56 136.107 6.56C137.433 6.56 138.498 6.93866 139.302 7.696C140.107 8.45333 140.509 9.471 140.509 10.749V17.281H146.544C147.822 17.281 148.793 17.565 149.455 18.133C150.165 18.701 150.52 19.5293 150.52 20.618C150.52 21.7067 150.165 22.535 149.455 23.103C148.793 23.671 147.822 23.955 146.544 23.955H140.509V40.072C140.509 43.5747 142.119 45.4443 145.337 45.681L147.254 45.823ZM171.262 52.568C167.712 52.568 164.588 51.8343 161.89 50.367C159.24 48.8997 157.181 46.7933 155.713 44.048C154.246 41.3027 153.512 38.1077 153.512 34.463C153.512 30.8183 154.246 27.647 155.713 24.949C157.181 22.2037 159.24 20.0973 161.89 18.63C164.588 17.1627 167.712 16.429 171.262 16.429C174.812 16.429 177.913 17.1627 180.563 18.63C183.261 20.0973 185.32 22.2037 186.74 24.949C188.208 27.647 188.941 30.8183 188.941 34.463C188.941 38.1077 188.208 41.3027 186.74 44.048C185.32 46.7933 183.261 48.8997 180.563 50.367C177.913 51.8343 174.812 52.568 171.262 52.568ZM171.191 45.681C174.079 45.681 176.28 44.7343 177.794 42.841C179.309 40.9477 180.066 38.155 180.066 34.463C180.066 30.8183 179.309 28.0493 177.794 26.156C176.28 24.2153 174.102 23.245 171.262 23.245C168.422 23.245 166.221 24.2153 164.659 26.156C163.145 28.0493 162.387 30.8183 162.387 34.463C162.387 38.155 163.145 40.9477 164.659 42.841C166.174 44.7343 168.351 45.681 171.191 45.681ZM215.651 16.571C216.882 16.4763 217.852 16.7367 218.562 17.352C219.272 17.9673 219.627 18.8903 219.627 20.121C219.627 21.399 219.32 22.3457 218.704 22.961C218.089 23.5763 216.977 23.9787 215.367 24.168L213.237 24.381C210.445 24.665 208.386 25.6117 207.06 27.221C205.782 28.8303 205.143 30.842 205.143 33.256V48.166C205.143 49.5387 204.717 50.6037 203.865 51.361C203.013 52.071 201.948 52.426 200.67 52.426C199.392 52.426 198.327 52.071 197.475 51.361C196.671 50.6037 196.268 49.5387 196.268 48.166V20.689C196.268 19.3637 196.671 18.346 197.475 17.636C198.327 16.926 199.369 16.571 200.599 16.571C201.83 16.571 202.824 16.926 203.581 17.636C204.339 18.2987 204.717 19.269 204.717 20.547V23.387C205.617 21.3043 206.942 19.695 208.693 18.559C210.492 17.423 212.48 16.784 214.657 16.642L215.651 16.571ZM235.668 52.568C230.509 52.568 226.344 51.5503 223.172 49.515C221.658 48.6157 220.9 47.3377 220.9 45.681C220.9 44.7343 221.161 43.977 221.681 43.409C222.202 42.7937 222.841 42.486 223.598 42.486C224.403 42.486 225.515 42.8647 226.935 43.622C228.45 44.332 229.823 44.8763 231.053 45.255C232.331 45.6337 233.941 45.823 235.881 45.823C237.869 45.823 239.408 45.4917 240.496 44.829C241.632 44.1663 242.2 43.2433 242.2 42.06C242.2 41.2553 241.964 40.6163 241.49 40.143C241.064 39.6697 240.26 39.2437 239.076 38.865C237.94 38.439 236.189 37.9657 233.822 37.445C229.61 36.593 226.58 35.386 224.734 33.824C222.936 32.262 222.036 30.1083 222.036 27.363C222.036 25.2803 222.652 23.4107 223.882 21.754C225.113 20.05 226.793 18.7483 228.923 17.849C231.101 16.9023 233.562 16.429 236.307 16.429C238.295 16.429 240.212 16.6893 242.058 17.21C243.904 17.6833 245.561 18.3933 247.028 19.34C248.543 20.2867 249.3 21.541 249.3 23.103C249.3 24.0497 249.04 24.8543 248.519 25.517C247.999 26.1323 247.36 26.44 246.602 26.44C246.082 26.44 245.561 26.3453 245.04 26.156C244.567 25.9193 243.952 25.588 243.194 25.162C241.822 24.452 240.638 23.9313 239.644 23.6C238.65 23.2213 237.42 23.032 235.952 23.032C234.201 23.032 232.805 23.387 231.763 24.097C230.769 24.807 230.272 25.7773 230.272 27.008C230.272 28.1913 230.793 29.0907 231.834 29.706C232.876 30.3213 234.887 30.9367 237.869 31.552C241.041 32.2147 243.526 32.972 245.324 33.824C247.123 34.676 248.401 35.741 249.158 37.019C249.963 38.297 250.365 39.93 250.365 41.918C250.365 45.1367 249.016 47.7163 246.318 49.657C243.668 51.5977 240.118 52.568 235.668 52.568ZM317.662 46.249C318.23 47.101 318.514 47.9293 318.514 48.734C318.514 49.8227 318.064 50.722 317.165 51.432C316.313 52.142 315.295 52.497 314.112 52.497C313.354 52.497 312.621 52.3313 311.911 52C311.248 51.6213 310.68 51.077 310.207 50.367L300.764 36.025C299.817 34.5103 298.799 33.4453 297.711 32.83C296.669 32.2147 295.297 31.907 293.593 31.907H286.635V47.811C286.635 49.231 286.232 50.367 285.428 51.219C284.623 52.0237 283.534 52.426 282.162 52.426C280.789 52.426 279.677 52.0237 278.825 51.219C278.02 50.367 277.618 49.231 277.618 47.811V6.276C277.618 4.90333 277.996 3.83833 278.754 3.081C279.558 2.32366 280.647 1.945 282.02 1.945H299.77C305.45 1.945 309.757 3.223 312.692 5.779C315.674 8.28766 317.165 11.9323 317.165 16.713C317.165 20.5943 316.052 23.7893 313.828 26.298C311.65 28.7593 308.55 30.345 304.527 31.055C305.899 31.3863 307.106 31.978 308.148 32.83C309.189 33.682 310.207 34.8653 311.201 36.38L317.662 46.249ZM298.492 24.878C301.947 24.878 304.479 24.239 306.089 22.961C307.698 21.6357 308.503 19.624 308.503 16.926C308.503 14.1807 307.698 12.1927 306.089 10.962C304.479 9.684 301.947 9.045 298.492 9.045H286.564V24.878H298.492ZM353.681 42.486C354.486 42.486 355.125 42.7937 355.598 43.409C356.119 44.0243 356.379 44.8527 356.379 45.894C356.379 47.3613 355.503 48.592 353.752 49.586C352.143 50.4853 350.32 51.219 348.285 51.787C346.25 52.3077 344.309 52.568 342.463 52.568C336.878 52.568 332.452 50.9587 329.186 47.74C325.92 44.5213 324.287 40.1193 324.287 34.534C324.287 30.984 324.997 27.8363 326.417 25.091C327.837 22.3457 329.825 20.2157 332.381 18.701C334.984 17.1863 337.919 16.429 341.185 16.429C344.309 16.429 347.031 17.1153 349.35 18.488C351.669 19.8607 353.468 21.8013 354.746 24.31C356.024 26.8187 356.663 29.777 356.663 33.185C356.663 35.2203 355.764 36.238 353.965 36.238H333.02C333.304 39.504 334.227 41.918 335.789 43.48C337.351 44.9947 339.623 45.752 342.605 45.752C344.12 45.752 345.445 45.5627 346.581 45.184C347.764 44.8053 349.09 44.2847 350.557 43.622C351.977 42.8647 353.018 42.486 353.681 42.486ZM341.398 22.677C338.984 22.677 337.043 23.4343 335.576 24.949C334.156 26.4637 333.304 28.641 333.02 31.481H349.066C348.971 28.5937 348.261 26.4163 346.936 24.949C345.611 23.4343 343.765 22.677 341.398 22.677ZM393.317 16.571C394.642 16.571 395.707 16.9497 396.512 17.707C397.316 18.4643 397.719 19.482 397.719 20.76V48.805C397.719 54.2483 396.204 58.3663 393.175 61.159C390.145 63.9517 385.672 65.348 379.756 65.348C374.596 65.348 370.289 64.3777 366.834 62.437C365.082 61.3957 364.207 60.1413 364.207 58.674C364.207 57.6327 364.443 56.8043 364.917 56.189C365.437 55.5737 366.1 55.266 366.905 55.266C367.331 55.266 367.851 55.3607 368.467 55.55C369.082 55.7867 369.721 56.047 370.384 56.331C372.088 57.041 373.602 57.5853 374.928 57.964C376.3 58.3427 377.862 58.532 379.614 58.532C385.814 58.532 388.915 55.5027 388.915 49.444V44.9C387.873 46.8407 386.359 48.3553 384.371 49.444C382.383 50.4853 380.111 51.006 377.555 51.006C374.525 51.006 371.827 50.296 369.461 48.876C367.141 47.4087 365.319 45.3733 363.994 42.77C362.668 40.1667 362.006 37.161 362.006 33.753C362.006 30.345 362.645 27.3393 363.923 24.736C365.248 22.0853 367.094 20.05 369.461 18.63C371.827 17.1627 374.525 16.429 377.555 16.429C380.111 16.429 382.383 16.9733 384.371 18.062C386.359 19.1033 387.873 20.5943 388.915 22.535V20.689C388.915 19.4583 389.317 18.4643 390.122 17.707C390.926 16.9497 391.991 16.571 393.317 16.571ZM379.898 44.119C382.738 44.119 384.939 43.196 386.501 41.35C388.11 39.504 388.915 36.9717 388.915 33.753C388.915 30.487 388.11 27.931 386.501 26.085C384.939 24.239 382.738 23.316 379.898 23.316C377.105 23.316 374.904 24.239 373.295 26.085C371.685 27.931 370.881 30.487 370.881 33.753C370.881 36.9717 371.685 39.504 373.295 41.35C374.904 43.196 377.105 44.119 379.898 44.119ZM411.313 52.426C410.035 52.426 408.97 52.071 408.118 51.361C407.313 50.6037 406.911 49.5387 406.911 48.166V20.76C406.911 19.3873 407.313 18.346 408.118 17.636C408.97 16.926 410.035 16.571 411.313 16.571C412.591 16.571 413.656 16.926 414.508 17.636C415.36 18.346 415.786 19.3873 415.786 20.76V48.166C415.786 49.5387 415.36 50.6037 414.508 51.361C413.656 52.071 412.591 52.426 411.313 52.426ZM411.313 10.252C409.704 10.252 408.426 9.826 407.479 8.974C406.532 8.07467 406.059 6.915 406.059 5.495C406.059 4.075 406.532 2.939 407.479 2.087C408.426 1.235 409.704 0.808999 411.313 0.808999C412.875 0.808999 414.129 1.235 415.076 2.087C416.07 2.939 416.567 4.075 416.567 5.495C416.567 6.915 416.094 8.07467 415.147 8.974C414.2 9.826 412.922 10.252 411.313 10.252ZM437.505 52.568C432.346 52.568 428.181 51.5503 425.009 49.515C423.495 48.6157 422.737 47.3377 422.737 45.681C422.737 44.7343 422.998 43.977 423.518 43.409C424.039 42.7937 424.678 42.486 425.435 42.486C426.24 42.486 427.352 42.8647 428.772 43.622C430.287 44.332 431.66 44.8763 432.89 45.255C434.168 45.6337 435.778 45.823 437.718 45.823C439.706 45.823 441.245 45.4917 442.333 44.829C443.469 44.1663 444.037 43.2433 444.037 42.06C444.037 41.2553 443.801 40.6163 443.327 40.143C442.901 39.6697 442.097 39.2437 440.913 38.865C439.777 38.439 438.026 37.9657 435.659 37.445C431.447 36.593 428.417 35.386 426.571 33.824C424.773 32.262 423.873 30.1083 423.873 27.363C423.873 25.2803 424.489 23.4107 425.719 21.754C426.95 20.05 428.63 18.7483 430.76 17.849C432.938 16.9023 435.399 16.429 438.144 16.429C440.132 16.429 442.049 16.6893 443.895 17.21C445.741 17.6833 447.398 18.3933 448.865 19.34C450.38 20.2867 451.137 21.541 451.137 23.103C451.137 24.0497 450.877 24.8543 450.356 25.517C449.836 26.1323 449.197 26.44 448.439 26.44C447.919 26.44 447.398 26.3453 446.877 26.156C446.404 25.9193 445.789 25.588 445.031 25.162C443.659 24.452 442.475 23.9313 441.481 23.6C440.487 23.2213 439.257 23.032 437.789 23.032C436.038 23.032 434.642 23.387 433.6 24.097C432.606 24.807 432.109 25.7773 432.109 27.008C432.109 28.1913 432.63 29.0907 433.671 29.706C434.713 30.3213 436.724 30.9367 439.706 31.552C442.878 32.2147 445.363 32.972 447.161 33.824C448.96 34.676 450.238 35.741 450.995 37.019C451.8 38.297 452.202 39.93 452.202 41.918C452.202 45.1367 450.853 47.7163 448.155 49.657C445.505 51.5977 441.955 52.568 437.505 52.568ZM477.086 45.823C479.452 45.965 480.636 47.03 480.636 49.018C480.636 50.154 480.162 51.0297 479.216 51.645C478.316 52.213 477.015 52.4497 475.311 52.355L473.394 52.213C465.442 51.645 461.466 47.385 461.466 39.433V23.955H457.916C456.638 23.955 455.644 23.671 454.934 23.103C454.271 22.535 453.94 21.7067 453.94 20.618C453.94 19.5293 454.271 18.701 454.934 18.133C455.644 17.565 456.638 17.281 457.916 17.281H461.466V10.749C461.466 9.471 461.868 8.45333 462.673 7.696C463.477 6.93866 464.566 6.56 465.939 6.56C467.264 6.56 468.329 6.93866 469.134 7.696C469.938 8.45333 470.341 9.471 470.341 10.749V17.281H476.376C477.654 17.281 478.624 17.565 479.287 18.133C479.997 18.701 480.352 19.5293 480.352 20.618C480.352 21.7067 479.997 22.535 479.287 23.103C478.624 23.671 477.654 23.955 476.376 23.955H470.341V40.072C470.341 43.5747 471.95 45.4443 475.169 45.681L477.086 45.823ZM504.644 16.571C505.874 16.4763 506.845 16.7367 507.555 17.352C508.265 17.9673 508.62 18.8903 508.62 20.121C508.62 21.399 508.312 22.3457 507.697 22.961C507.081 23.5763 505.969 23.9787 504.36 24.168L502.23 24.381C499.437 24.665 497.378 25.6117 496.053 27.221C494.775 28.8303 494.136 30.842 494.136 33.256V48.166C494.136 49.5387 493.71 50.6037 492.858 51.361C492.006 52.071 490.941 52.426 489.663 52.426C488.385 52.426 487.32 52.071 486.468 51.361C485.663 50.6037 485.261 49.5387 485.261 48.166V20.689C485.261 19.3637 485.663 18.346 486.468 17.636C487.32 16.926 488.361 16.571 489.592 16.571C490.822 16.571 491.816 16.926 492.574 17.636C493.331 18.2987 493.71 19.269 493.71 20.547V23.387C494.609 21.3043 495.934 19.695 497.686 18.559C499.484 17.423 501.472 16.784 503.65 16.642L504.644 16.571ZM527.354 16.429C532.182 16.429 535.755 17.636 538.075 20.05C540.441 22.4167 541.625 26.0377 541.625 30.913V48.237C541.625 49.515 541.246 50.5327 540.489 51.29C539.731 52 538.69 52.355 537.365 52.355C536.134 52.355 535.116 51.9763 534.312 51.219C533.554 50.4617 533.176 49.4677 533.176 48.237V46.675C532.371 48.521 531.093 49.9647 529.342 51.006C527.638 52.0473 525.65 52.568 523.378 52.568C521.058 52.568 518.952 52.0947 517.059 51.148C515.165 50.2013 513.674 48.8997 512.586 47.243C511.497 45.5863 510.953 43.7403 510.953 41.705C510.953 39.149 511.592 37.1373 512.87 35.67C514.195 34.2027 516.325 33.1377 519.26 32.475C522.194 31.8123 526.241 31.481 531.401 31.481H533.176V29.848C533.176 27.5287 532.679 25.8483 531.685 24.807C530.691 23.7183 529.081 23.174 526.857 23.174C525.484 23.174 524.088 23.387 522.668 23.813C521.248 24.1917 519.567 24.7597 517.627 25.517C516.396 26.1323 515.497 26.44 514.929 26.44C514.077 26.44 513.367 26.1323 512.799 25.517C512.278 24.9017 512.018 24.097 512.018 23.103C512.018 22.2983 512.207 21.612 512.586 21.044C513.012 20.4287 513.698 19.8607 514.645 19.34C516.301 18.4407 518.266 17.7307 520.538 17.21C522.857 16.6893 525.129 16.429 527.354 16.429ZM525.153 46.178C527.519 46.178 529.436 45.397 530.904 43.835C532.418 42.2257 533.176 40.1667 533.176 37.658V36.167H531.898C528.726 36.167 526.265 36.309 524.514 36.593C522.762 36.877 521.508 37.374 520.751 38.084C519.993 38.794 519.615 39.7643 519.615 40.995C519.615 42.5097 520.135 43.764 521.177 44.758C522.265 45.7047 523.591 46.178 525.153 46.178ZM568.678 45.823C571.045 45.965 572.228 47.03 572.228 49.018C572.228 50.154 571.755 51.0297 570.808 51.645C569.909 52.213 568.607 52.4497 566.903 52.355L564.986 52.213C557.034 51.645 553.058 47.385 553.058 39.433V23.955H549.508C548.23 23.955 547.236 23.671 546.526 23.103C545.864 22.535 545.532 21.7067 545.532 20.618C545.532 19.5293 545.864 18.701 546.526 18.133C547.236 17.565 548.23 17.281 549.508 17.281H553.058V10.749C553.058 9.471 553.461 8.45333 554.265 7.696C555.07 6.93866 556.159 6.56 557.531 6.56C558.857 6.56 559.922 6.93866 560.726 7.696C561.531 8.45333 561.933 9.471 561.933 10.749V17.281H567.968C569.246 17.281 570.217 17.565 570.879 18.133C571.589 18.701 571.944 19.5293 571.944 20.618C571.944 21.7067 571.589 22.535 570.879 23.103C570.217 23.671 569.246 23.955 567.968 23.955H561.933V40.072C561.933 43.5747 563.543 45.4443 566.761 45.681L568.678 45.823ZM581.255 52.426C579.977 52.426 578.912 52.071 578.06 51.361C577.256 50.6037 576.853 49.5387 576.853 48.166V20.76C576.853 19.3873 577.256 18.346 578.06 17.636C578.912 16.926 579.977 16.571 581.255 16.571C582.533 16.571 583.598 16.926 584.45 17.636C585.302 18.346 585.728 19.3873 585.728 20.76V48.166C585.728 49.5387 585.302 50.6037 584.45 51.361C583.598 52.071 582.533 52.426 581.255 52.426ZM581.255 10.252C579.646 10.252 578.368 9.826 577.421 8.974C576.475 8.07467 576.001 6.915 576.001 5.495C576.001 4.075 576.475 2.939 577.421 2.087C578.368 1.235 579.646 0.808999 581.255 0.808999C582.817 0.808999 584.072 1.235 585.018 2.087C586.012 2.939 586.509 4.075 586.509 5.495C586.509 6.915 586.036 8.07467 585.089 8.974C584.143 9.826 582.865 10.252 581.255 10.252ZM610.714 52.568C607.164 52.568 604.04 51.8343 601.342 50.367C598.691 48.8997 596.632 46.7933 595.165 44.048C593.697 41.3027 592.964 38.1077 592.964 34.463C592.964 30.8183 593.697 27.647 595.165 24.949C596.632 22.2037 598.691 20.0973 601.342 18.63C604.04 17.1627 607.164 16.429 610.714 16.429C614.264 16.429 617.364 17.1627 620.015 18.63C622.713 20.0973 624.772 22.2037 626.192 24.949C627.659 27.647 628.393 30.8183 628.393 34.463C628.393 38.1077 627.659 41.3027 626.192 44.048C624.772 46.7933 622.713 48.8997 620.015 50.367C617.364 51.8343 614.264 52.568 610.714 52.568ZM610.643 45.681C613.53 45.681 615.731 44.7343 617.246 42.841C618.76 40.9477 619.518 38.155 619.518 34.463C619.518 30.8183 618.76 28.0493 617.246 26.156C615.731 24.2153 613.554 23.245 610.714 23.245C607.874 23.245 605.673 24.2153 604.111 26.156C602.596 28.0493 601.839 30.8183 601.839 34.463C601.839 38.155 602.596 40.9477 604.111 42.841C605.625 44.7343 607.803 45.681 610.643 45.681ZM655.883 16.429C660.049 16.429 663.149 17.6123 665.184 19.979C667.22 22.3457 668.237 25.9193 668.237 30.7V48.166C668.237 49.4913 667.835 50.5327 667.03 51.29C666.273 52.0473 665.208 52.426 663.835 52.426C662.463 52.426 661.374 52.0473 660.569 51.29C659.765 50.5327 659.362 49.4913 659.362 48.166V31.197C659.362 28.499 658.842 26.5347 657.8 25.304C656.806 24.0733 655.221 23.458 653.043 23.458C650.487 23.458 648.428 24.2627 646.866 25.872C645.352 27.4813 644.594 29.635 644.594 32.333V48.166C644.594 49.4913 644.192 50.5327 643.387 51.29C642.583 52.0473 641.494 52.426 640.121 52.426C638.749 52.426 637.66 52.0473 636.855 51.29C636.098 50.5327 635.719 49.4913 635.719 48.166V20.689C635.719 19.4583 636.122 18.4643 636.926 17.707C637.731 16.9497 638.82 16.571 640.192 16.571C641.423 16.571 642.417 16.9497 643.174 17.707C643.979 18.417 644.381 19.3637 644.381 20.547V22.464C645.565 20.5233 647.15 19.0323 649.138 17.991C651.126 16.9497 653.375 16.429 655.883 16.429Z" fill="white"/>
</svg>
