<svg width="236" height="49" viewBox="0 0 236 49" fill="none" xmlns="http://www.w3.org/2000/svg">
<path d="M14.96 39.477C12.2393 39.477 9.66 39.1237 7.222 38.417C4.81933 37.675 2.85833 36.6857 1.339 35.449C0.526333 34.8483 0.12 34.0003 0.12 32.905C0.12 32.163 0.332 31.527 0.756 30.997C1.21533 30.4317 1.74533 30.149 2.346 30.149C2.982 30.149 3.70633 30.3963 4.519 30.891C6.03833 31.9863 7.62833 32.7813 9.289 33.276C10.9497 33.7707 12.787 34.018 14.801 34.018C17.3803 34.018 19.359 33.5763 20.737 32.693C22.115 31.7743 22.804 30.4493 22.804 28.718C22.804 27.3753 22.1503 26.3507 20.843 25.644C19.571 24.902 17.4333 24.1953 14.43 23.524C11.3207 22.8527 8.79433 22.0753 6.851 21.192C4.90767 20.3087 3.44133 19.178 2.452 17.8C1.46267 16.422 0.968 14.673 0.968 12.553C0.968 10.3623 1.58633 8.40133 2.823 6.67C4.05967 4.93867 5.77333 3.596 7.964 2.642C10.19 1.65266 12.681 1.158 15.437 1.158C20.4897 1.158 24.606 2.50066 27.786 5.186C28.2453 5.57467 28.5633 5.96333 28.74 6.352C28.952 6.70533 29.058 7.16467 29.058 7.73C29.058 8.472 28.8283 9.12567 28.369 9.691C27.945 10.221 27.4327 10.486 26.832 10.486C26.4787 10.486 26.143 10.433 25.825 10.327C25.5423 10.221 25.1537 10.0267 24.659 9.744C23.2103 8.684 21.797 7.90667 20.419 7.412C19.0763 6.882 17.4157 6.617 15.437 6.617C13.0343 6.617 11.1263 7.11167 9.713 8.101C8.335 9.055 7.646 10.3977 7.646 12.129C7.646 13.5777 8.26433 14.6907 9.501 15.468C10.7377 16.2453 12.84 16.9697 15.808 17.641C18.9527 18.3477 21.4967 19.1427 23.44 20.026C25.4187 20.874 26.9203 21.9693 27.945 23.312C29.005 24.6547 29.535 26.333 29.535 28.347C29.535 30.5377 28.9167 32.481 27.68 34.177C26.4787 35.8377 24.765 37.145 22.539 38.099C20.3483 39.0177 17.822 39.477 14.96 39.477ZM50.1359 12.447C52.3619 12.447 54.3405 13.0123 56.0719 14.143C57.8385 15.2737 59.1989 16.8813 60.1529 18.966C61.1422 21.0153 61.6369 23.3827 61.6369 26.068C61.6369 28.7533 61.1422 31.103 60.1529 33.117C59.1989 35.131 57.8562 36.6857 56.1249 37.781C54.3935 38.8763 52.3972 39.424 50.1359 39.424C48.2985 39.424 46.6555 39.0353 45.2069 38.258C43.7582 37.4807 42.6452 36.403 41.8679 35.025V45.837C41.8679 46.7557 41.5675 47.48 40.9669 48.01C40.3662 48.54 39.5712 48.805 38.5819 48.805C37.5925 48.805 36.7799 48.5223 36.1439 47.957C35.5432 47.3917 35.2429 46.6497 35.2429 45.731V15.68C35.2429 14.726 35.5255 13.9663 36.0909 13.401C36.6915 12.8357 37.4865 12.553 38.4759 12.553C39.4652 12.553 40.2602 12.8357 40.8609 13.401C41.4615 13.9663 41.7619 14.726 41.7619 15.68V17.005C42.5392 15.5563 43.6522 14.4433 45.1009 13.666C46.5849 12.8533 48.2632 12.447 50.1359 12.447ZM48.3869 34.283C50.4715 34.283 52.0969 33.5763 53.2629 32.163C54.4289 30.7143 55.0119 28.6827 55.0119 26.068C55.0119 23.3827 54.4289 21.298 53.2629 19.814C52.0969 18.33 50.4715 17.588 48.3869 17.588C46.2669 17.588 44.6239 18.3123 43.4579 19.761C42.3272 21.2097 41.7619 23.2767 41.7619 25.962C41.7619 28.612 42.3272 30.6613 43.4579 32.11C44.6239 33.5587 46.2669 34.283 48.3869 34.283ZM87.5849 31.898C88.1856 31.898 88.6626 32.1277 89.0159 32.587C89.4046 33.0463 89.5989 33.6647 89.5989 34.442C89.5989 35.5373 88.9452 36.456 87.6379 37.198C86.4366 37.8693 85.0762 38.417 83.5569 38.841C82.0376 39.2297 80.5889 39.424 79.2109 39.424C75.0416 39.424 71.7379 38.2227 69.2999 35.82C66.8619 33.4173 65.6429 30.1313 65.6429 25.962C65.6429 23.312 66.1729 20.9623 67.2329 18.913C68.2929 16.8637 69.7769 15.2737 71.6849 14.143C73.6282 13.0123 75.8189 12.447 78.2569 12.447C80.5889 12.447 82.6206 12.9593 84.3519 13.984C86.0832 15.0087 87.4259 16.4573 88.3799 18.33C89.3339 20.2027 89.8109 22.411 89.8109 24.955C89.8109 26.4743 89.1396 27.234 87.7969 27.234H72.1619C72.3739 29.672 73.0629 31.474 74.2289 32.64C75.3949 33.7707 77.0909 34.336 79.3169 34.336C80.4476 34.336 81.4369 34.1947 82.2849 33.912C83.1682 33.6293 84.1576 33.2407 85.2529 32.746C86.3129 32.1807 87.0902 31.898 87.5849 31.898ZM78.4159 17.111C76.6139 17.111 75.1652 17.6763 74.0699 18.807C73.0099 19.9377 72.3739 21.563 72.1619 23.683H84.1399C84.0692 21.5277 83.5392 19.9023 82.5499 18.807C81.5606 17.6763 80.1826 17.111 78.4159 17.111ZM106.731 39.424C104.152 39.424 101.873 38.8763 99.8942 37.781C97.9508 36.6857 96.4492 35.131 95.3892 33.117C94.3292 31.103 93.7992 28.7533 93.7992 26.068C93.7992 23.3827 94.3468 21.0153 95.4422 18.966C96.5728 16.8813 98.1452 15.2737 100.159 14.143C102.173 13.0123 104.487 12.447 107.102 12.447C108.48 12.447 109.858 12.6413 111.236 13.03C112.649 13.4187 113.886 13.9487 114.946 14.62C116.077 15.362 116.642 16.2983 116.642 17.429C116.642 18.2063 116.448 18.8423 116.059 19.337C115.706 19.7963 115.229 20.026 114.628 20.026C114.239 20.026 113.833 19.9377 113.409 19.761C112.985 19.5843 112.561 19.3723 112.137 19.125C111.36 18.6657 110.618 18.3123 109.911 18.065C109.204 17.7823 108.392 17.641 107.473 17.641C105.282 17.641 103.586 18.3653 102.385 19.814C101.219 21.2273 100.636 23.2767 100.636 25.962C100.636 28.612 101.219 30.6613 102.385 32.11C103.586 33.5233 105.282 34.23 107.473 34.23C108.356 34.23 109.134 34.1063 109.805 33.859C110.512 33.5763 111.289 33.2053 112.137 32.746C112.667 32.428 113.126 32.1983 113.515 32.057C113.904 31.8803 114.292 31.792 114.681 31.792C115.246 31.792 115.723 32.0393 116.112 32.534C116.501 33.0287 116.695 33.647 116.695 34.389C116.695 34.9897 116.554 35.5197 116.271 35.979C116.024 36.403 115.6 36.7917 114.999 37.145C113.904 37.8517 112.632 38.417 111.183 38.841C109.734 39.2297 108.25 39.424 106.731 39.424ZM124.395 39.318C123.441 39.318 122.646 39.053 122.01 38.523C121.409 37.9577 121.109 37.1627 121.109 36.138V15.68C121.109 14.6553 121.409 13.878 122.01 13.348C122.646 12.818 123.441 12.553 124.395 12.553C125.349 12.553 126.144 12.818 126.78 13.348C127.416 13.878 127.734 14.6553 127.734 15.68V36.138C127.734 37.1627 127.416 37.9577 126.78 38.523C126.144 39.053 125.349 39.318 124.395 39.318ZM124.395 7.836C123.194 7.836 122.24 7.518 121.533 6.882C120.826 6.21067 120.473 5.345 120.473 4.285C120.473 3.225 120.826 2.377 121.533 1.741C122.24 1.105 123.194 0.786999 124.395 0.786999C125.561 0.786999 126.497 1.105 127.204 1.741C127.946 2.377 128.317 3.225 128.317 4.285C128.317 5.345 127.964 6.21067 127.257 6.882C126.55 7.518 125.596 7.836 124.395 7.836ZM145.802 12.447C149.406 12.447 152.074 13.348 153.805 15.15C155.572 16.9167 156.455 19.6197 156.455 23.259V36.191C156.455 37.145 156.172 37.9047 155.607 38.47C155.042 39 154.264 39.265 153.275 39.265C152.356 39.265 151.597 38.9823 150.996 38.417C150.431 37.8517 150.148 37.1097 150.148 36.191V35.025C149.547 36.403 148.593 37.4807 147.286 38.258C146.014 39.0353 144.53 39.424 142.834 39.424C141.103 39.424 139.53 39.0707 138.117 38.364C136.704 37.6573 135.591 36.6857 134.778 35.449C133.965 34.2123 133.559 32.8343 133.559 31.315C133.559 29.407 134.036 27.9053 134.99 26.81C135.979 25.7147 137.569 24.9197 139.76 24.425C141.951 23.9303 144.972 23.683 148.823 23.683H150.148V22.464C150.148 20.7327 149.777 19.4783 149.035 18.701C148.293 17.8883 147.092 17.482 145.431 17.482C144.406 17.482 143.364 17.641 142.304 17.959C141.244 18.2417 139.99 18.6657 138.541 19.231C137.622 19.6903 136.951 19.92 136.527 19.92C135.891 19.92 135.361 19.6903 134.937 19.231C134.548 18.7717 134.354 18.171 134.354 17.429C134.354 16.8283 134.495 16.316 134.778 15.892C135.096 15.4327 135.608 15.0087 136.315 14.62C137.552 13.9487 139.018 13.4187 140.714 13.03C142.445 12.6413 144.141 12.447 145.802 12.447ZM144.159 34.654C145.926 34.654 147.357 34.071 148.452 32.905C149.583 31.7037 150.148 30.1667 150.148 28.294V27.181H149.194C146.827 27.181 144.989 27.287 143.682 27.499C142.375 27.711 141.438 28.082 140.873 28.612C140.308 29.142 140.025 29.8663 140.025 30.785C140.025 31.9157 140.414 32.852 141.191 33.594C142.004 34.3007 142.993 34.654 144.159 34.654ZM166.474 39.318C165.52 39.318 164.725 39.053 164.089 38.523C163.488 37.9577 163.188 37.1627 163.188 36.138V4.497C163.188 3.47233 163.488 2.695 164.089 2.165C164.725 1.635 165.52 1.37 166.474 1.37C167.428 1.37 168.223 1.635 168.859 2.165C169.495 2.695 169.813 3.47233 169.813 4.497V36.138C169.813 37.1627 169.495 37.9577 168.859 38.523C168.223 39.053 167.428 39.318 166.474 39.318ZM179.931 39.318C178.977 39.318 178.182 39.053 177.546 38.523C176.946 37.9577 176.645 37.1627 176.645 36.138V15.68C176.645 14.6553 176.946 13.878 177.546 13.348C178.182 12.818 178.977 12.553 179.931 12.553C180.885 12.553 181.68 12.818 182.316 13.348C182.952 13.878 183.27 14.6553 183.27 15.68V36.138C183.27 37.1627 182.952 37.9577 182.316 38.523C181.68 39.053 180.885 39.318 179.931 39.318ZM179.931 7.836C178.73 7.836 177.776 7.518 177.069 6.882C176.363 6.21067 176.009 5.345 176.009 4.285C176.009 3.225 176.363 2.377 177.069 1.741C177.776 1.105 178.73 0.786999 179.931 0.786999C181.097 0.786999 182.034 1.105 182.74 1.741C183.482 2.377 183.853 3.225 183.853 4.285C183.853 5.345 183.5 6.21067 182.793 6.882C182.087 7.518 181.133 7.836 179.931 7.836ZM204.703 34.389C206.47 34.495 207.353 35.29 207.353 36.774C207.353 37.622 207 38.2757 206.293 38.735C205.622 39.159 204.65 39.3357 203.378 39.265L201.947 39.159C196.011 38.735 193.043 35.555 193.043 29.619V18.065H190.393C189.439 18.065 188.697 17.853 188.167 17.429C187.672 17.005 187.425 16.3867 187.425 15.574C187.425 14.7613 187.672 14.143 188.167 13.719C188.697 13.295 189.439 13.083 190.393 13.083H193.043V8.207C193.043 7.253 193.343 6.49333 193.944 5.928C194.545 5.36266 195.357 5.08 196.382 5.08C197.371 5.08 198.166 5.36266 198.767 5.928C199.368 6.49333 199.668 7.253 199.668 8.207V13.083H204.173C205.127 13.083 205.851 13.295 206.346 13.719C206.876 14.143 207.141 14.7613 207.141 15.574C207.141 16.3867 206.876 17.005 206.346 17.429C205.851 17.853 205.127 18.065 204.173 18.065H199.668V30.096C199.668 32.7107 200.869 34.1063 203.272 34.283L204.703 34.389ZM229.292 14.461C229.575 13.825 229.946 13.3657 230.405 13.083C230.9 12.765 231.43 12.606 231.995 12.606C232.808 12.606 233.532 12.8887 234.168 13.454C234.84 13.984 235.175 14.6553 235.175 15.468C235.175 15.8567 235.069 16.263 234.857 16.687L220.388 47.003C219.788 48.2043 218.851 48.805 217.579 48.805C216.767 48.805 216.042 48.54 215.406 48.01C214.806 47.5153 214.505 46.8793 214.505 46.102C214.505 45.7133 214.611 45.2717 214.823 44.777L218.427 37.198L208.569 16.687C208.393 16.3337 208.304 15.9273 208.304 15.468C208.304 14.6553 208.64 13.9663 209.311 13.401C210.018 12.8357 210.813 12.553 211.696 12.553C212.297 12.553 212.845 12.712 213.339 13.03C213.834 13.3127 214.223 13.772 214.505 14.408L221.925 30.785L229.292 14.461Z" fill="white"/>
</svg>
