<svg width="243" height="39" viewBox="0 0 243 39" fill="none" xmlns="http://www.w3.org/2000/svg">
<path d="M16.451 38.477C11.3277 38.477 7.441 37.152 4.791 34.502C2.141 31.852 0.816 27.983 0.816 22.895V3.762C0.816 2.73733 1.11633 1.92467 1.717 1.324C2.31767 0.687998 3.13033 0.369998 4.155 0.369998C5.17967 0.369998 5.99233 0.687998 6.593 1.324C7.19367 1.92467 7.494 2.73733 7.494 3.762V23.266C7.494 26.4813 8.25367 28.9193 9.773 30.58C11.2923 32.2053 13.5183 33.018 16.451 33.018C19.3483 33.018 21.5567 32.1877 23.076 30.527C24.5953 28.8663 25.355 26.446 25.355 23.266V3.762C25.355 2.73733 25.6553 1.92467 26.256 1.324C26.8567 0.687998 27.6693 0.369998 28.694 0.369998C29.7187 0.369998 30.5313 0.687998 31.132 1.324C31.7327 1.92467 32.033 2.73733 32.033 3.762V22.895C32.033 27.9477 30.708 31.8167 28.058 34.502C25.408 37.152 21.539 38.477 16.451 38.477ZM48.6961 38.424C44.8448 38.424 41.7355 37.6643 39.3681 36.145C38.2375 35.4737 37.6721 34.5197 37.6721 33.283C37.6721 32.5763 37.8665 32.011 38.2551 31.587C38.6438 31.1277 39.1208 30.898 39.6861 30.898C40.2868 30.898 41.1171 31.1807 42.1771 31.746C43.3078 32.276 44.3325 32.6823 45.2511 32.965C46.2051 33.2477 47.4065 33.389 48.8551 33.389C50.3391 33.389 51.4875 33.1417 52.3001 32.647C53.1481 32.1523 53.5721 31.4633 53.5721 30.58C53.5721 29.9793 53.3955 29.5023 53.0421 29.149C52.7241 28.7957 52.1235 28.4777 51.2401 28.195C50.3921 27.877 49.0848 27.5237 47.3181 27.135C44.1735 26.499 41.9121 25.598 40.5341 24.432C39.1915 23.266 38.5201 21.6583 38.5201 19.609C38.5201 18.0543 38.9795 16.6587 39.8981 15.422C40.8168 14.15 42.0711 13.1783 43.6611 12.507C45.2865 11.8003 47.1238 11.447 49.1731 11.447C50.6571 11.447 52.0881 11.6413 53.4661 12.03C54.8441 12.3833 56.0808 12.9133 57.1761 13.62C58.3068 14.3267 58.8721 15.263 58.8721 16.429C58.8721 17.1357 58.6778 17.7363 58.2891 18.231C57.9005 18.6903 57.4235 18.92 56.8581 18.92C56.4695 18.92 56.0808 18.8493 55.6921 18.708C55.3388 18.5313 54.8795 18.284 54.3141 17.966C53.2895 17.436 52.4061 17.0473 51.6641 16.8C50.9221 16.5173 50.0035 16.376 48.9081 16.376C47.6008 16.376 46.5585 16.641 45.7811 17.171C45.0391 17.701 44.6681 18.4253 44.6681 19.344C44.6681 20.2273 45.0568 20.8987 45.8341 21.358C46.6115 21.8173 48.1131 22.2767 50.3391 22.736C52.7065 23.2307 54.5615 23.796 55.9041 24.432C57.2468 25.068 58.2008 25.863 58.7661 26.817C59.3668 27.771 59.6671 28.99 59.6671 30.474C59.6671 32.8767 58.6601 34.8023 56.6461 36.251C54.6675 37.6997 52.0175 38.424 48.6961 38.424ZM85.5498 30.898C86.1504 30.898 86.6274 31.1277 86.9808 31.587C87.3694 32.0463 87.5638 32.6647 87.5638 33.442C87.5638 34.5373 86.9101 35.456 85.6028 36.198C84.4014 36.8693 83.0411 37.417 81.5218 37.841C80.0024 38.2297 78.5538 38.424 77.1757 38.424C73.0064 38.424 69.7028 37.2227 67.2648 34.82C64.8268 32.4173 63.6078 29.1313 63.6078 24.962C63.6078 22.312 64.1378 19.9623 65.1978 17.913C66.2578 15.8637 67.7418 14.2737 69.6498 13.143C71.5931 12.0123 73.7838 11.447 76.2218 11.447C78.5538 11.447 80.5854 11.9593 82.3168 12.984C84.0481 14.0087 85.3908 15.4573 86.3448 17.33C87.2988 19.2027 87.7758 21.411 87.7758 23.955C87.7758 25.4743 87.1044 26.234 85.7618 26.234H70.1268C70.3388 28.672 71.0278 30.474 72.1938 31.64C73.3598 32.7707 75.0558 33.336 77.2818 33.336C78.4124 33.336 79.4018 33.1947 80.2498 32.912C81.1331 32.6293 82.1224 32.2407 83.2178 31.746C84.2778 31.1807 85.0551 30.898 85.5498 30.898ZM76.3808 16.111C74.5788 16.111 73.1301 16.6763 72.0348 17.807C70.9748 18.9377 70.3388 20.563 70.1268 22.683H82.1048C82.0341 20.5277 81.5041 18.9023 80.5148 17.807C79.5254 16.6763 78.1474 16.111 76.3808 16.111ZM107.664 11.553C108.583 11.4823 109.307 11.6767 109.837 12.136C110.367 12.5953 110.632 13.2843 110.632 14.203C110.632 15.157 110.402 15.8637 109.943 16.323C109.484 16.7823 108.653 17.0827 107.452 17.224L105.862 17.383C103.777 17.595 102.24 18.3017 101.251 19.503C100.297 20.7043 99.82 22.206 99.82 24.008V35.138C99.82 36.1627 99.502 36.9577 98.866 37.523C98.23 38.053 97.435 38.318 96.481 38.318C95.527 38.318 94.732 38.053 94.096 37.523C93.4953 36.9577 93.195 36.1627 93.195 35.138V14.627C93.195 13.6377 93.4953 12.878 94.096 12.348C94.732 11.818 95.5093 11.553 96.428 11.553C97.3467 11.553 98.0887 11.818 98.654 12.348C99.2193 12.8427 99.502 13.567 99.502 14.521V16.641C100.173 15.0863 101.163 13.885 102.47 13.037C103.813 12.189 105.297 11.712 106.922 11.606L107.664 11.553ZM128.536 11.447C131.645 11.447 133.96 12.3303 135.479 14.097C136.998 15.8637 137.758 18.5313 137.758 22.1V35.138C137.758 36.1273 137.458 36.9047 136.857 37.47C136.292 38.0353 135.497 38.318 134.472 38.318C133.447 38.318 132.635 38.0353 132.034 37.47C131.433 36.9047 131.133 36.1273 131.133 35.138V22.471C131.133 20.457 130.744 18.9907 129.967 18.072C129.225 17.1533 128.041 16.694 126.416 16.694C124.508 16.694 122.971 17.2947 121.805 18.496C120.674 19.6973 120.109 21.305 120.109 23.319V35.138C120.109 36.1273 119.809 36.9047 119.208 37.47C118.607 38.0353 117.795 38.318 116.77 38.318C115.745 38.318 114.933 38.0353 114.332 37.47C113.767 36.9047 113.484 36.1273 113.484 35.138V14.627C113.484 13.7083 113.784 12.9663 114.385 12.401C114.986 11.8357 115.798 11.553 116.823 11.553C117.742 11.553 118.484 11.8357 119.049 12.401C119.65 12.931 119.95 13.6377 119.95 14.521V15.952C120.833 14.5033 122.017 13.3903 123.501 12.613C124.985 11.8357 126.663 11.447 128.536 11.447ZM155.723 11.447C159.327 11.447 161.995 12.348 163.726 14.15C165.493 15.9167 166.376 18.6197 166.376 22.259V35.191C166.376 36.145 166.093 36.9047 165.528 37.47C164.963 38 164.185 38.265 163.196 38.265C162.277 38.265 161.518 37.9823 160.917 37.417C160.352 36.8517 160.069 36.1097 160.069 35.191V34.025C159.468 35.403 158.514 36.4807 157.207 37.258C155.935 38.0353 154.451 38.424 152.755 38.424C151.024 38.424 149.451 38.0707 148.038 37.364C146.625 36.6573 145.512 35.6857 144.699 34.449C143.886 33.2123 143.48 31.8343 143.48 30.315C143.48 28.407 143.957 26.9053 144.911 25.81C145.9 24.7147 147.49 23.9197 149.681 23.425C151.872 22.9303 154.893 22.683 158.744 22.683H160.069V21.464C160.069 19.7327 159.698 18.4783 158.956 17.701C158.214 16.8883 157.013 16.482 155.352 16.482C154.327 16.482 153.285 16.641 152.225 16.959C151.165 17.2417 149.911 17.6657 148.462 18.231C147.543 18.6903 146.872 18.92 146.448 18.92C145.812 18.92 145.282 18.6903 144.858 18.231C144.469 17.7717 144.275 17.171 144.275 16.429C144.275 15.8283 144.416 15.316 144.699 14.892C145.017 14.4327 145.529 14.0087 146.236 13.62C147.473 12.9487 148.939 12.4187 150.635 12.03C152.366 11.6413 154.062 11.447 155.723 11.447ZM154.08 33.654C155.847 33.654 157.278 33.071 158.373 31.905C159.504 30.7037 160.069 29.1667 160.069 27.294V26.181H159.115C156.748 26.181 154.91 26.287 153.603 26.499C152.296 26.711 151.359 27.082 150.794 27.612C150.229 28.142 149.946 28.8663 149.946 29.785C149.946 30.9157 150.335 31.852 151.112 32.594C151.925 33.3007 152.914 33.654 154.08 33.654ZM203.902 11.447C206.729 11.447 208.884 12.295 210.368 13.991C211.887 15.6517 212.647 18.3547 212.647 22.1V35.138C212.647 36.1627 212.329 36.9577 211.693 37.523C211.092 38.053 210.297 38.318 209.308 38.318C208.354 38.318 207.559 38.053 206.923 37.523C206.322 36.9577 206.022 36.1627 206.022 35.138V22.1C206.022 20.1567 205.669 18.7787 204.962 17.966C204.291 17.118 203.248 16.694 201.835 16.694C200.104 16.694 198.726 17.2947 197.701 18.496C196.676 19.662 196.164 21.2697 196.164 23.319V35.138C196.164 36.1627 195.846 36.9577 195.21 37.523C194.609 38.053 193.832 38.318 192.878 38.318C191.924 38.318 191.129 38.053 190.493 37.523C189.857 36.9577 189.539 36.1627 189.539 35.138V22.1C189.539 20.1567 189.186 18.7787 188.479 17.966C187.808 17.118 186.765 16.694 185.352 16.694C183.621 16.694 182.243 17.2947 181.218 18.496C180.229 19.662 179.734 21.2697 179.734 23.319V35.138C179.734 36.1627 179.416 36.9577 178.78 37.523C178.144 38.053 177.349 38.318 176.395 38.318C175.441 38.318 174.646 38.053 174.01 37.523C173.409 36.9577 173.109 36.1627 173.109 35.138V14.627C173.109 13.6377 173.427 12.878 174.063 12.348C174.699 11.818 175.494 11.553 176.448 11.553C177.367 11.553 178.109 11.818 178.674 12.348C179.275 12.8427 179.575 13.567 179.575 14.521V15.793C180.388 14.3797 181.465 13.302 182.808 12.56C184.186 11.818 185.758 11.447 187.525 11.447C191.412 11.447 194.009 13.0723 195.316 16.323C196.093 14.839 197.242 13.6553 198.761 12.772C200.28 11.8887 201.994 11.447 203.902 11.447ZM239.892 30.898C240.492 30.898 240.969 31.1277 241.323 31.587C241.711 32.0463 241.906 32.6647 241.906 33.442C241.906 34.5373 241.252 35.456 239.945 36.198C238.743 36.8693 237.383 37.417 235.864 37.841C234.344 38.2297 232.896 38.424 231.518 38.424C227.348 38.424 224.045 37.2227 221.607 34.82C219.169 32.4173 217.95 29.1313 217.95 24.962C217.95 22.312 218.48 19.9623 219.54 17.913C220.6 15.8637 222.084 14.2737 223.992 13.143C225.935 12.0123 228.126 11.447 230.564 11.447C232.896 11.447 234.927 11.9593 236.659 12.984C238.39 14.0087 239.733 15.4573 240.687 17.33C241.641 19.2027 242.118 21.411 242.118 23.955C242.118 25.4743 241.446 26.234 240.104 26.234H224.469C224.681 28.672 225.37 30.474 226.536 31.64C227.702 32.7707 229.398 33.336 231.624 33.336C232.754 33.336 233.744 33.1947 234.592 32.912C235.475 32.6293 236.464 32.2407 237.56 31.746C238.62 31.1807 239.397 30.898 239.892 30.898ZM230.723 16.111C228.921 16.111 227.472 16.6763 226.377 17.807C225.317 18.9377 224.681 20.563 224.469 22.683H236.447C236.376 20.5277 235.846 18.9023 234.857 17.807C233.867 16.6763 232.489 16.111 230.723 16.111Z" fill="white"/>
</svg>
